%TF.GenerationSoftware,KiCad,Pcbnew,10.0.4*%
%TF.CreationDate,2026-08-22T18:11:01-04:00*%
%TF.ProjectId,Avionics-BatteryBoard,4176696f-6e69-4637-932d-426174746572,rev?*%
%TF.SameCoordinates,Original*%
%TF.FileFunction,Profile,NP*%
%FSLAX46Y46*%
G04 Gerber Fmt 4.6, Leading zero omitted, Abs format (unit mm)*
G04 Created by KiCad (PCBNEW 10.0.4) date 2026-08-22 18:11:01*
%MOMM*%
%LPD*%
G01*
G04 APERTURE LIST*
%TA.AperFunction,Profile*%
%ADD10C,0.025400*%
%TD*%
%TA.AperFunction,Profile*%
%ADD11C,0.050000*%
%TD*%
G04 APERTURE END LIST*
D10*
X95250000Y-50895000D02*
X95250000Y-142780000D01*
X95250000Y-50895000D02*
G75*
G02*
X97250000Y-48895000I2000000J0D01*
G01*
X97250000Y-144780000D02*
G75*
G02*
X95250000Y-142780000I0J2000000D01*
G01*
X106934000Y-48895000D02*
X97250000Y-48895000D01*
X106934000Y-144780000D02*
X97250000Y-144780000D01*
X106934000Y-144780000D02*
X109855000Y-141859000D01*
X109855000Y-51816000D02*
X106934000Y-48895000D01*
X109855000Y-51816000D02*
X170815000Y-51816000D01*
X170815000Y-141859000D02*
X109855000Y-141859000D01*
X170815000Y-141859000D02*
X173736000Y-144780000D01*
X173736000Y-48895000D02*
X170815000Y-51816000D01*
X173736000Y-48895000D02*
X183420000Y-48895000D01*
X173736000Y-144780000D02*
X183420000Y-144780000D01*
X183420000Y-48895000D02*
G75*
G02*
X185420000Y-50895000I0J-2000000D01*
G01*
X183429400Y-63246000D02*
X183429400Y-86402300D01*
D11*
X185420000Y-50895000D02*
X185429400Y-61246000D01*
D10*
X185420000Y-88402300D02*
X183429400Y-86411700D01*
D11*
X185420000Y-88402300D02*
X185420000Y-115493800D01*
D10*
X185420000Y-115493800D02*
X185420000Y-142780000D01*
X185420000Y-142780000D02*
G75*
G02*
X183420000Y-144780000I-2000000J0D01*
G01*
X185429400Y-61246000D02*
X183429400Y-63246000D01*
M02*
