%TF.GenerationSoftware,KiCad,Pcbnew,10.0.4*%
%TF.CreationDate,2026-08-22T18:11:00-04:00*%
%TF.ProjectId,Avionics-BatteryBoard,4176696f-6e69-4637-932d-426174746572,rev?*%
%TF.SameCoordinates,Original*%
%TF.FileFunction,Paste,Top*%
%TF.FilePolarity,Positive*%
%FSLAX46Y46*%
G04 Gerber Fmt 4.6, Leading zero omitted, Abs format (unit mm)*
G04 Created by KiCad (PCBNEW 10.0.4) date 2026-08-22 18:11:00*
%MOMM*%
%LPD*%
G01*
G04 APERTURE LIST*
G04 Aperture macros list*
%AMRoundRect*
0 Rectangle with rounded corners*
0 $1 Rounding radius*
0 $2 $3 $4 $5 $6 $7 $8 $9 X,Y pos of 4 corners*
0 Add a 4 corners polygon primitive as box body*
4,1,4,$2,$3,$4,$5,$6,$7,$8,$9,$2,$3,0*
0 Add four circle primitives for the rounded corners*
1,1,$1+$1,$2,$3*
1,1,$1+$1,$4,$5*
1,1,$1+$1,$6,$7*
1,1,$1+$1,$8,$9*
0 Add four rect primitives between the rounded corners*
20,1,$1+$1,$2,$3,$4,$5,0*
20,1,$1+$1,$4,$5,$6,$7,0*
20,1,$1+$1,$6,$7,$8,$9,0*
20,1,$1+$1,$8,$9,$2,$3,0*%
G04 Aperture macros list end*
%ADD10R,1.219200X0.355600*%
%ADD11RoundRect,0.200000X-0.200000X-0.275000X0.200000X-0.275000X0.200000X0.275000X-0.200000X0.275000X0*%
%ADD12RoundRect,0.200000X0.200000X0.275000X-0.200000X0.275000X-0.200000X-0.275000X0.200000X-0.275000X0*%
%ADD13RoundRect,0.250000X0.475000X-0.300000X0.475000X0.300000X-0.475000X0.300000X-0.475000X-0.300000X0*%
%ADD14RoundRect,0.250000X1.200000X-0.425000X1.200000X0.425000X-1.200000X0.425000X-1.200000X-0.425000X0*%
%ADD15RoundRect,0.225000X-0.225000X-0.250000X0.225000X-0.250000X0.225000X0.250000X-0.225000X0.250000X0*%
%ADD16RoundRect,0.200000X0.275000X-0.200000X0.275000X0.200000X-0.275000X0.200000X-0.275000X-0.200000X0*%
%ADD17RoundRect,0.200000X-0.275000X0.200000X-0.275000X-0.200000X0.275000X-0.200000X0.275000X0.200000X0*%
%ADD18RoundRect,0.180000X-0.295000X0.180000X-0.295000X-0.180000X0.295000X-0.180000X0.295000X0.180000X0*%
%ADD19RoundRect,0.050000X-0.050000X0.337500X-0.050000X-0.337500X0.050000X-0.337500X0.050000X0.337500X0*%
%ADD20R,1.450000X0.305000*%
%ADD21R,0.640000X2.540000*%
%ADD22R,0.640000X4.700000*%
%ADD23RoundRect,0.250000X-0.625000X0.375000X-0.625000X-0.375000X0.625000X-0.375000X0.625000X0.375000X0*%
%ADD24RoundRect,0.100000X-0.100000X0.225000X-0.100000X-0.225000X0.100000X-0.225000X0.100000X0.225000X0*%
%ADD25RoundRect,0.150000X-0.150000X0.512500X-0.150000X-0.512500X0.150000X-0.512500X0.150000X0.512500X0*%
%ADD26RoundRect,0.218750X-0.218750X-0.256250X0.218750X-0.256250X0.218750X0.256250X-0.218750X0.256250X0*%
%ADD27RoundRect,0.250000X-0.625000X0.312500X-0.625000X-0.312500X0.625000X-0.312500X0.625000X0.312500X0*%
%ADD28R,0.610000X1.270000*%
%ADD29R,3.910000X3.810000*%
%ADD30R,0.610000X1.020000*%
%ADD31RoundRect,0.250000X-0.650000X1.000000X-0.650000X-1.000000X0.650000X-1.000000X0.650000X1.000000X0*%
%ADD32RoundRect,0.137500X0.137500X-0.662500X0.137500X0.662500X-0.137500X0.662500X-0.137500X-0.662500X0*%
%ADD33RoundRect,0.250000X0.475000X-0.250000X0.475000X0.250000X-0.475000X0.250000X-0.475000X-0.250000X0*%
%ADD34RoundRect,0.250000X-0.375000X-0.625000X0.375000X-0.625000X0.375000X0.625000X-0.375000X0.625000X0*%
%ADD35RoundRect,0.225000X0.225000X0.250000X-0.225000X0.250000X-0.225000X-0.250000X0.225000X-0.250000X0*%
%ADD36R,1.900000X0.600000*%
%ADD37R,2.800000X2.100000*%
%ADD38RoundRect,0.250000X0.375000X0.625000X-0.375000X0.625000X-0.375000X-0.625000X0.375000X-0.625000X0*%
%ADD39RoundRect,0.250000X-0.362500X-1.425000X0.362500X-1.425000X0.362500X1.425000X-0.362500X1.425000X0*%
%ADD40RoundRect,0.250000X-0.250000X-0.250000X0.250000X-0.250000X0.250000X0.250000X-0.250000X0.250000X0*%
%ADD41RoundRect,0.250000X0.625000X-0.312500X0.625000X0.312500X-0.625000X0.312500X-0.625000X-0.312500X0*%
%ADD42RoundRect,0.100000X0.100000X-0.225000X0.100000X0.225000X-0.100000X0.225000X-0.100000X-0.225000X0*%
%ADD43RoundRect,0.250000X-0.475000X0.250000X-0.475000X-0.250000X0.475000X-0.250000X0.475000X0.250000X0*%
%ADD44RoundRect,0.150000X-0.150000X0.587500X-0.150000X-0.587500X0.150000X-0.587500X0.150000X0.587500X0*%
%ADD45R,1.000000X2.510000*%
G04 APERTURE END LIST*
D10*
%TO.C,U2*%
X137204499Y-70584999D03*
X137204499Y-69935001D03*
X137204499Y-69284999D03*
X137204499Y-68635001D03*
X131108499Y-68635001D03*
X131108499Y-69284999D03*
X131108499Y-69935001D03*
X131108499Y-70584999D03*
%TD*%
D11*
%TO.C,R49*%
X133668000Y-112905300D03*
X135318000Y-112905300D03*
%TD*%
D12*
%TO.C,R25*%
X110515400Y-112547400D03*
X108865400Y-112547400D03*
%TD*%
D13*
%TO.C,J3*%
X174603200Y-66506600D03*
X174603200Y-64506600D03*
D14*
X180598200Y-69401600D03*
X180598200Y-61611600D03*
%TD*%
D15*
%TO.C,C1*%
X138829299Y-77128400D03*
X140379299Y-77128400D03*
%TD*%
D16*
%TO.C,R27*%
X179476400Y-130009400D03*
X179476400Y-128359400D03*
%TD*%
D17*
%TO.C,R30*%
X169372600Y-123525000D03*
X169372600Y-125175000D03*
%TD*%
D13*
%TO.C,J4*%
X174599000Y-80673200D03*
X174599000Y-78673200D03*
X174599000Y-76673200D03*
X174599000Y-74673200D03*
D14*
X180594000Y-83568200D03*
X180594000Y-71778200D03*
%TD*%
D11*
%TO.C,R6*%
X138728499Y-70194200D03*
X140378499Y-70194200D03*
%TD*%
D17*
%TO.C,R26*%
X167741600Y-123533400D03*
X167741600Y-125183400D03*
%TD*%
D16*
%TO.C,R9*%
X176098200Y-118985800D03*
X176098200Y-117335800D03*
%TD*%
%TO.C,R10*%
X171043600Y-118985800D03*
X171043600Y-117335800D03*
%TD*%
D11*
%TO.C,R45*%
X161049200Y-114430000D03*
X162699200Y-114430000D03*
%TD*%
%TO.C,R14*%
X144885999Y-76861200D03*
X146535999Y-76861200D03*
%TD*%
D18*
%TO.C,U3*%
X152774200Y-77872900D03*
X151594200Y-77872900D03*
X152774200Y-78762900D03*
X151594200Y-78762900D03*
D19*
X153384200Y-76830400D03*
X152984200Y-76830400D03*
X152584200Y-76830400D03*
X152184200Y-76830400D03*
X151784200Y-76830400D03*
X151384200Y-76830400D03*
X150984200Y-76830400D03*
X150984200Y-79805400D03*
X151384200Y-79805400D03*
X151784200Y-79805400D03*
X152184200Y-79805400D03*
X152584200Y-79805400D03*
X152984200Y-79805400D03*
X153384200Y-79805400D03*
%TD*%
D20*
%TO.C,J7*%
X177076000Y-89574800D03*
X170904000Y-89574800D03*
X177076000Y-90074800D03*
X170904000Y-90074800D03*
X177076000Y-90574800D03*
X170904000Y-90574800D03*
X177076000Y-91074800D03*
X170904000Y-91074800D03*
X177076000Y-91574800D03*
X170904000Y-91574800D03*
X177076000Y-92074800D03*
X170904000Y-92074800D03*
X177076000Y-92574800D03*
X170904000Y-92574800D03*
X177076000Y-93074800D03*
X170904000Y-93074800D03*
X177076000Y-93574800D03*
X170904000Y-93574800D03*
X177076000Y-94074800D03*
X170904000Y-94074800D03*
X177076000Y-94574800D03*
X170904000Y-94574800D03*
X177076000Y-95074800D03*
X170904000Y-95074800D03*
X177076000Y-95574800D03*
X170904000Y-95574800D03*
X177076000Y-96074800D03*
X170904000Y-96074800D03*
X177076000Y-96574800D03*
X170904000Y-96574800D03*
X177076000Y-97074800D03*
X170904000Y-97074800D03*
X177076000Y-97574800D03*
X170904000Y-97574800D03*
X177076000Y-98074800D03*
X170904000Y-98074800D03*
X177076000Y-98574800D03*
X170904000Y-98574800D03*
X177076000Y-99074800D03*
X170904000Y-99074800D03*
X177076000Y-99574800D03*
X170904000Y-99574800D03*
X177076000Y-100074800D03*
X170904000Y-100074800D03*
X177076000Y-100574800D03*
X170904000Y-100574800D03*
X177076000Y-101074800D03*
X170904000Y-101074800D03*
X177076000Y-101574800D03*
X170904000Y-101574800D03*
X177076000Y-102074800D03*
X170904000Y-102074800D03*
X177076000Y-102574800D03*
X170904000Y-102574800D03*
X177076000Y-103074800D03*
X170904000Y-103074800D03*
X177076000Y-103574800D03*
X170904000Y-103574800D03*
X177076000Y-104074800D03*
X170904000Y-104074800D03*
D21*
X173990000Y-88379800D03*
D22*
X173990000Y-93649800D03*
X173990000Y-99999800D03*
D21*
X173990000Y-105269800D03*
%TD*%
D16*
%TO.C,R8*%
X178687002Y-118985800D03*
X178687002Y-117335800D03*
%TD*%
D12*
%TO.C,R34*%
X179488600Y-125145800D03*
X177838600Y-125145800D03*
%TD*%
D11*
%TO.C,R4*%
X135776200Y-66979800D03*
X137426200Y-66979800D03*
%TD*%
D23*
%TO.C,F7*%
X155422600Y-110055200D03*
X155422600Y-112855200D03*
%TD*%
D24*
%TO.C,Q8*%
X172092500Y-128280000D03*
X171442500Y-128280000D03*
X170792500Y-128280000D03*
X170792500Y-130180000D03*
X171442500Y-130180000D03*
X172092500Y-130180000D03*
%TD*%
D11*
%TO.C,R12*%
X144857200Y-75082400D03*
X146507200Y-75082400D03*
%TD*%
D15*
%TO.C,C5*%
X148101200Y-76898000D03*
X149651200Y-76898000D03*
%TD*%
%TO.C,C12*%
X177888600Y-123647200D03*
X179438600Y-123647200D03*
%TD*%
%TO.C,C6*%
X148085601Y-75068400D03*
X149635601Y-75068400D03*
%TD*%
D12*
%TO.C,R22*%
X110515400Y-110617000D03*
X108865400Y-110617000D03*
%TD*%
%TO.C,R42*%
X153326600Y-123342400D03*
X151676600Y-123342400D03*
%TD*%
D15*
%TO.C,C4*%
X138817099Y-68644800D03*
X140367099Y-68644800D03*
%TD*%
D25*
%TO.C,U5*%
X146989800Y-88524100D03*
X146039800Y-88524100D03*
X145089800Y-88524100D03*
X145089800Y-90799100D03*
X146039800Y-90799100D03*
X146989800Y-90799100D03*
%TD*%
D26*
%TO.C,D6*%
X133476900Y-121818400D03*
X135051900Y-121818400D03*
%TD*%
D27*
%TO.C,R23*%
X130530600Y-87894700D03*
X130530600Y-90819700D03*
%TD*%
D24*
%TO.C,Q5*%
X172144200Y-123397800D03*
X171494200Y-123397800D03*
X170844200Y-123397800D03*
X170844200Y-125297800D03*
X171494200Y-125297800D03*
X172144200Y-125297800D03*
%TD*%
D25*
%TO.C,U4*%
X147029300Y-98277700D03*
X146079300Y-98277700D03*
X145129300Y-98277700D03*
X145129300Y-100552700D03*
X146079300Y-100552700D03*
X147029300Y-100552700D03*
%TD*%
D11*
%TO.C,R33*%
X167754800Y-126746000D03*
X169404800Y-126746000D03*
%TD*%
D28*
%TO.C,Q4*%
X139598400Y-90734058D03*
X140868400Y-90734058D03*
X142138400Y-90734058D03*
X143408400Y-90734058D03*
D29*
X141503400Y-87374058D03*
D30*
X139598400Y-85269058D03*
X140868400Y-85269058D03*
X142138400Y-85269058D03*
X143408400Y-85269058D03*
%TD*%
D17*
%TO.C,R17*%
X182570000Y-123595000D03*
X182570000Y-125245000D03*
%TD*%
D28*
%TO.C,Q1*%
X132527000Y-100727000D03*
X133797000Y-100727000D03*
X135067000Y-100727000D03*
X136337000Y-100727000D03*
D29*
X134432000Y-97367000D03*
D30*
X132527000Y-95262000D03*
X133797000Y-95262000D03*
X135067000Y-95262000D03*
X136337000Y-95262000D03*
%TD*%
D31*
%TO.C,D7*%
X170307000Y-75610800D03*
X170307000Y-79610800D03*
%TD*%
D16*
%TO.C,R31*%
X177927000Y-130009400D03*
X177927000Y-128359400D03*
%TD*%
D32*
%TO.C,U7*%
X139496800Y-118667600D03*
X140766800Y-118667600D03*
X140766800Y-112167600D03*
X139496800Y-112167600D03*
%TD*%
D12*
%TO.C,R32*%
X179488600Y-126695200D03*
X177838600Y-126695200D03*
%TD*%
D32*
%TO.C,U6*%
X157734000Y-118667600D03*
X159004000Y-118667600D03*
X159004000Y-112167600D03*
X157734000Y-112167600D03*
%TD*%
D11*
%TO.C,R55*%
X142913600Y-114632500D03*
X144563600Y-114632500D03*
%TD*%
D33*
%TO.C,C14*%
X109524800Y-100670400D03*
X109524800Y-98770400D03*
%TD*%
D34*
%TO.C,F5*%
X127799600Y-95701300D03*
X130599600Y-95701300D03*
%TD*%
D23*
%TO.C,F8*%
X137185400Y-110106000D03*
X137185400Y-112906000D03*
%TD*%
D11*
%TO.C,R38*%
X157721800Y-120599200D03*
X159371800Y-120599200D03*
%TD*%
D34*
%TO.C,F3*%
X121231200Y-62534800D03*
X124031200Y-62534800D03*
%TD*%
D15*
%TO.C,C3*%
X138823400Y-66979800D03*
X140373400Y-66979800D03*
%TD*%
D12*
%TO.C,R16*%
X153873200Y-84023200D03*
X152223200Y-84023200D03*
%TD*%
D35*
%TO.C,C10*%
X147043400Y-96539500D03*
X145493400Y-96539500D03*
%TD*%
D16*
%TO.C,R36*%
X173630000Y-125105000D03*
X173630000Y-123455000D03*
%TD*%
D36*
%TO.C,J8*%
X104775000Y-92231201D03*
X104775000Y-93231201D03*
X104775000Y-94231201D03*
X104775000Y-95231201D03*
X104775000Y-96231200D03*
X104775000Y-97231200D03*
X104775000Y-98231201D03*
X104775000Y-99231201D03*
X104775000Y-100231201D03*
X104775000Y-101231201D03*
D37*
X102425000Y-89081201D03*
X102425000Y-104381181D03*
%TD*%
D35*
%TO.C,C9*%
X156306000Y-77583800D03*
X154756000Y-77583800D03*
%TD*%
D11*
%TO.C,R35*%
X167729400Y-128320800D03*
X169379400Y-128320800D03*
%TD*%
D34*
%TO.C,F2*%
X154962400Y-62382400D03*
X157762400Y-62382400D03*
%TD*%
D28*
%TO.C,Q3*%
X132577800Y-90835737D03*
X133847800Y-90835737D03*
X135117800Y-90835737D03*
X136387800Y-90835737D03*
D29*
X134482800Y-87475737D03*
D30*
X132577800Y-85370737D03*
X133847800Y-85370737D03*
X135117800Y-85370737D03*
X136387800Y-85370737D03*
%TD*%
D11*
%TO.C,R28*%
X174875000Y-126770000D03*
X176525000Y-126770000D03*
%TD*%
%TO.C,R21*%
X134689000Y-102366800D03*
X136339000Y-102366800D03*
%TD*%
%TO.C,R2*%
X138779299Y-80074800D03*
X140429299Y-80074800D03*
%TD*%
D28*
%TO.C,Q11*%
X137490200Y-114826200D03*
X136220200Y-114826200D03*
X134950200Y-114826200D03*
X133680200Y-114826200D03*
D29*
X135585200Y-118186200D03*
D30*
X137490200Y-120291200D03*
X136220200Y-120291200D03*
X134950200Y-120291200D03*
X133680200Y-120291200D03*
%TD*%
D12*
%TO.C,R1*%
X140423400Y-75438000D03*
X138773400Y-75438000D03*
%TD*%
D35*
%TO.C,C8*%
X156306000Y-79133200D03*
X154756000Y-79133200D03*
%TD*%
D17*
%TO.C,R18*%
X181051200Y-123584200D03*
X181051200Y-125234200D03*
%TD*%
D12*
%TO.C,R29*%
X172355000Y-126770000D03*
X170705000Y-126770000D03*
%TD*%
D38*
%TO.C,F4*%
X114303000Y-62560200D03*
X111503000Y-62560200D03*
%TD*%
D35*
%TO.C,C13*%
X169329400Y-129794000D03*
X167779400Y-129794000D03*
%TD*%
%TO.C,C11*%
X147018000Y-86842200D03*
X145468000Y-86842200D03*
%TD*%
D39*
%TO.C,R7*%
X149672900Y-71284600D03*
X155597900Y-71284600D03*
%TD*%
D11*
%TO.C,R48*%
X139405999Y-120576100D03*
X141055999Y-120576100D03*
%TD*%
D40*
%TO.C,D2*%
X121406600Y-65709800D03*
X123906600Y-65709800D03*
%TD*%
D17*
%TO.C,R19*%
X166260000Y-128380000D03*
X166260000Y-130030000D03*
%TD*%
D10*
%TO.C,U1*%
X137115099Y-79093999D03*
X137115099Y-78444001D03*
X137115099Y-77793999D03*
X137115099Y-77144001D03*
X131019099Y-77144001D03*
X131019099Y-77793999D03*
X131019099Y-78444001D03*
X131019099Y-79093999D03*
%TD*%
D11*
%TO.C,R3*%
X138779299Y-78601600D03*
X140429299Y-78601600D03*
%TD*%
D17*
%TO.C,R13*%
X150114000Y-82461600D03*
X150114000Y-84111600D03*
%TD*%
%TO.C,R37*%
X173590000Y-128485000D03*
X173590000Y-130135000D03*
%TD*%
D28*
%TO.C,Q2*%
X139562800Y-100544037D03*
X140832800Y-100544037D03*
X142102800Y-100544037D03*
X143372800Y-100544037D03*
D29*
X141467800Y-97184037D03*
D30*
X139562800Y-95079037D03*
X140832800Y-95079037D03*
X142102800Y-95079037D03*
X143372800Y-95079037D03*
%TD*%
D41*
%TO.C,R20*%
X130505200Y-100725700D03*
X130505200Y-97800700D03*
%TD*%
D12*
%TO.C,R15*%
X153873200Y-82473800D03*
X152223200Y-82473800D03*
%TD*%
D42*
%TO.C,Q7*%
X175127500Y-125380000D03*
X175777500Y-125380000D03*
X176427500Y-125380000D03*
X176427500Y-123480000D03*
X175777500Y-123480000D03*
X175127500Y-123480000D03*
%TD*%
D12*
%TO.C,R52*%
X135086999Y-123367800D03*
X133436999Y-123367800D03*
%TD*%
D43*
%TO.C,C15*%
X168351200Y-94935000D03*
X168351200Y-96835000D03*
%TD*%
D11*
%TO.C,R24*%
X134739800Y-92450100D03*
X136389800Y-92450100D03*
%TD*%
D16*
%TO.C,R11*%
X168452800Y-118985800D03*
X168452800Y-117335800D03*
%TD*%
D11*
%TO.C,R39*%
X151906200Y-112954204D03*
X153556200Y-112954204D03*
%TD*%
D44*
%TO.C,Q12*%
X144688600Y-116920800D03*
X142788600Y-116920800D03*
X143738600Y-118795800D03*
%TD*%
D38*
%TO.C,F1*%
X167741600Y-62407800D03*
X164941600Y-62407800D03*
%TD*%
%TO.C,F6*%
X130625000Y-92798200D03*
X127825000Y-92798200D03*
%TD*%
D35*
%TO.C,C7*%
X146501600Y-78422000D03*
X144951600Y-78422000D03*
%TD*%
D11*
%TO.C,R5*%
X138728499Y-71667400D03*
X140378499Y-71667400D03*
%TD*%
D42*
%TO.C,Q6*%
X175087500Y-130150000D03*
X175737500Y-130150000D03*
X176387500Y-130150000D03*
X176387500Y-128250000D03*
X175737500Y-128250000D03*
X175087500Y-128250000D03*
%TD*%
D40*
%TO.C,D1*%
X154960000Y-65735200D03*
X157460000Y-65735200D03*
%TD*%
D45*
%TO.C,J2*%
X178638200Y-111197200D03*
X176098200Y-114507200D03*
X173558200Y-111197200D03*
X171018200Y-114507200D03*
X168478200Y-111197200D03*
%TD*%
D35*
%TO.C,C2*%
X137376200Y-75438000D03*
X135826200Y-75438000D03*
%TD*%
D44*
%TO.C,Q10*%
X162824200Y-116692900D03*
X160924200Y-116692900D03*
X161874200Y-118567900D03*
%TD*%
D26*
%TO.C,D5*%
X151688800Y-121818400D03*
X153263800Y-121818400D03*
%TD*%
D28*
%TO.C,Q9*%
X155689800Y-114681000D03*
X154419800Y-114681000D03*
X153149800Y-114681000D03*
X151879800Y-114681000D03*
D29*
X153784800Y-118041000D03*
D30*
X155689800Y-120146000D03*
X154419800Y-120146000D03*
X153149800Y-120146000D03*
X151879800Y-120146000D03*
%TD*%
M02*
