%TF.GenerationSoftware,KiCad,Pcbnew,10.0.4*%
%TF.CreationDate,2026-08-22T18:11:01-04:00*%
%TF.ProjectId,Avionics-BatteryBoard,4176696f-6e69-4637-932d-426174746572,rev?*%
%TF.SameCoordinates,Original*%
%TF.FileFunction,Copper,L4,Bot*%
%TF.FilePolarity,Positive*%
%FSLAX46Y46*%
G04 Gerber Fmt 4.6, Leading zero omitted, Abs format (unit mm)*
G04 Created by KiCad (PCBNEW 10.0.4) date 2026-08-22 18:11:01*
%MOMM*%
%LPD*%
G01*
G04 APERTURE LIST*
G04 Aperture macros list*
%AMRoundRect*
0 Rectangle with rounded corners*
0 $1 Rounding radius*
0 $2 $3 $4 $5 $6 $7 $8 $9 X,Y pos of 4 corners*
0 Add a 4 corners polygon primitive as box body*
4,1,4,$2,$3,$4,$5,$6,$7,$8,$9,$2,$3,0*
0 Add four circle primitives for the rounded corners*
1,1,$1+$1,$2,$3*
1,1,$1+$1,$4,$5*
1,1,$1+$1,$6,$7*
1,1,$1+$1,$8,$9*
0 Add four rect primitives between the rounded corners*
20,1,$1+$1,$2,$3,$4,$5,0*
20,1,$1+$1,$4,$5,$6,$7,0*
20,1,$1+$1,$6,$7,$8,$9,0*
20,1,$1+$1,$8,$9,$2,$3,0*%
G04 Aperture macros list end*
%TA.AperFunction,ComponentPad*%
%ADD10C,0.800000*%
%TD*%
%TA.AperFunction,ComponentPad*%
%ADD11C,6.400000*%
%TD*%
%TA.AperFunction,SMDPad,CuDef*%
%ADD12RoundRect,0.250000X-1.425000X0.362500X-1.425000X-0.362500X1.425000X-0.362500X1.425000X0.362500X0*%
%TD*%
%TA.AperFunction,SMDPad,CuDef*%
%ADD13RoundRect,0.225000X0.225000X0.250000X-0.225000X0.250000X-0.225000X-0.250000X0.225000X-0.250000X0*%
%TD*%
%TA.AperFunction,SMDPad,CuDef*%
%ADD14RoundRect,0.225000X-0.225000X-0.250000X0.225000X-0.250000X0.225000X0.250000X-0.225000X0.250000X0*%
%TD*%
%TA.AperFunction,ComponentPad*%
%ADD15C,2.000000*%
%TD*%
%TA.AperFunction,ComponentPad*%
%ADD16C,5.200000*%
%TD*%
%TA.AperFunction,ViaPad*%
%ADD17C,0.600000*%
%TD*%
%TA.AperFunction,ViaPad*%
%ADD18C,0.609600*%
%TD*%
%TA.AperFunction,Conductor*%
%ADD19C,0.203200*%
%TD*%
%TA.AperFunction,Conductor*%
%ADD20C,0.254000*%
%TD*%
%TA.AperFunction,Conductor*%
%ADD21C,1.828800*%
%TD*%
%TA.AperFunction,Conductor*%
%ADD22C,0.381000*%
%TD*%
G04 APERTURE END LIST*
D10*
%TO.P,H1,1,1_1*%
%TO.N,GND*%
X174130000Y-139700000D03*
X174832944Y-138002944D03*
X174832944Y-141397056D03*
X176530000Y-137300000D03*
D11*
X176530000Y-139700000D03*
D10*
X176530000Y-142100000D03*
X178227056Y-138002944D03*
X178227056Y-141397056D03*
X178930000Y-139700000D03*
%TD*%
%TO.P,H2,1,1_1*%
%TO.N,GND*%
X101740000Y-139700000D03*
X102442944Y-138002944D03*
X102442944Y-141397056D03*
X104140000Y-137300000D03*
D11*
X104140000Y-139700000D03*
D10*
X104140000Y-142100000D03*
X105837056Y-138002944D03*
X105837056Y-141397056D03*
X106540000Y-139700000D03*
%TD*%
%TO.P,H3,1,1_1*%
%TO.N,GND*%
X174130000Y-53975000D03*
X174832944Y-52277944D03*
X174832944Y-55672056D03*
X176530000Y-51575000D03*
D11*
X176530000Y-53975000D03*
D10*
X176530000Y-56375000D03*
X178227056Y-52277944D03*
X178227056Y-55672056D03*
X178930000Y-53975000D03*
%TD*%
%TO.P,H4,1,1_1*%
%TO.N,GND*%
X101740000Y-53975000D03*
X102442944Y-52277944D03*
X102442944Y-55672056D03*
X104140000Y-51575000D03*
D11*
X104140000Y-53975000D03*
D10*
X104140000Y-56375000D03*
X105837056Y-52277944D03*
X105837056Y-55672056D03*
X106540000Y-53975000D03*
%TD*%
D12*
%TO.P,R40,1*%
%TO.N,Net-(R40-Pad1)*%
X172135967Y-114699600D03*
%TO.P,R40,2*%
%TO.N,/Battery Temperature Protection/BatteryHeater1/V_HEATER*%
X172135967Y-120624600D03*
%TD*%
%TO.P,R57,1*%
%TO.N,SYSTEM_VSS*%
X106476800Y-72520669D03*
%TO.P,R57,2*%
%TO.N,Net-(R54-Pad1)*%
X106476800Y-78445669D03*
%TD*%
%TO.P,R44,1*%
%TO.N,Net-(R44-Pad1)*%
X150291800Y-96130518D03*
%TO.P,R44,2*%
%TO.N,Net-(R41-Pad1)*%
X150291800Y-102055518D03*
%TD*%
D13*
%TO.P,TH1,1*%
%TO.N,Net-(U3-AIN2)*%
X172834600Y-73126600D03*
%TO.P,TH1,2*%
%TO.N,Net-(TH1-Pad2)*%
X171284600Y-73126600D03*
%TD*%
D14*
%TO.P,TH2,1*%
%TO.N,Net-(U3-AIN1)*%
X105460800Y-122353200D03*
%TO.P,TH2,2*%
%TO.N,Net-(TH2-Pad2)*%
X107010800Y-122353200D03*
%TD*%
D12*
%TO.P,R41,1*%
%TO.N,Net-(R41-Pad1)*%
X150291800Y-114842700D03*
%TO.P,R41,2*%
%TO.N,/Battery Temperature Protection/BatteryHeater1/V_HEATER*%
X150291800Y-120767700D03*
%TD*%
%TO.P,R50,1*%
%TO.N,Net-(R50-Pad1)*%
X128260801Y-109235053D03*
%TO.P,R50,2*%
%TO.N,/Battery Temperature Protection/BatteryHeater/V_HEATER*%
X128260801Y-115160053D03*
%TD*%
%TO.P,R46,1*%
%TO.N,SYSTEM_VSS*%
X172262967Y-77869397D03*
%TO.P,R46,2*%
%TO.N,Net-(R43-Pad1)*%
X172262967Y-83794397D03*
%TD*%
%TO.P,R54,1*%
%TO.N,Net-(R54-Pad1)*%
X106476800Y-90564467D03*
%TO.P,R54,2*%
%TO.N,Net-(R51-Pad1)*%
X106476800Y-96489467D03*
%TD*%
D15*
%TO.P,J1,1,POS_1*%
%TO.N,Net-(F4-Pad2)*%
X106788200Y-60443400D03*
%TO.P,J1,2,POS_2*%
%TO.N,Net-(F3-Pad2)*%
X128588200Y-60443400D03*
%TO.P,J1,3,NEG_3*%
%TO.N,Net-(F2-Pad1)*%
X150338200Y-60443400D03*
%TO.P,J1,4,NEG_4*%
%TO.N,Net-(F1-Pad1)*%
X172138200Y-60443400D03*
%TO.P,J1,5,NEG_5*%
%TO.N,/Battery Bus Detection/BATT_M*%
X106788200Y-133693400D03*
%TO.P,J1,6,NEG_6*%
X128588200Y-133693400D03*
%TO.P,J1,7,POS_7*%
X150338200Y-133693400D03*
%TO.P,J1,8,POS_8*%
X172138200Y-133693400D03*
D16*
%TO.P,J1,9,GND_9*%
%TO.N,GND*%
X117678200Y-57703400D03*
%TO.P,J1,10,GND_10*%
X161238200Y-57703400D03*
%TO.P,J1,11,GND_11*%
X117678200Y-136423400D03*
%TO.P,J1,12,GND_12*%
X161238200Y-136303400D03*
%TD*%
D14*
%TO.P,TH4,1*%
%TO.N,Net-(TH2-Pad2)*%
X127177200Y-122351800D03*
%TO.P,TH4,2*%
%TO.N,SYSTEM_VSS*%
X128727200Y-122351800D03*
%TD*%
D12*
%TO.P,R56,1*%
%TO.N,SYSTEM_VSS*%
X128322407Y-72393669D03*
%TO.P,R56,2*%
%TO.N,Net-(R53-Pad1)*%
X128322407Y-78318669D03*
%TD*%
D13*
%TO.P,TH3,1*%
%TO.N,Net-(TH1-Pad2)*%
X151155400Y-73177400D03*
%TO.P,TH3,2*%
%TO.N,SYSTEM_VSS*%
X149605400Y-73177400D03*
%TD*%
D12*
%TO.P,R47,1*%
%TO.N,SYSTEM_VSS*%
X150291800Y-77985216D03*
%TO.P,R47,2*%
%TO.N,Net-(R44-Pad1)*%
X150291800Y-83910216D03*
%TD*%
%TO.P,R51,1*%
%TO.N,Net-(R51-Pad1)*%
X106476800Y-109365600D03*
%TO.P,R51,2*%
%TO.N,/Battery Temperature Protection/BatteryHeater/V_HEATER*%
X106476800Y-115290600D03*
%TD*%
%TO.P,R53,1*%
%TO.N,Net-(R53-Pad1)*%
X128280732Y-90437371D03*
%TO.P,R53,2*%
%TO.N,Net-(R50-Pad1)*%
X128280732Y-96362371D03*
%TD*%
%TO.P,R43,1*%
%TO.N,Net-(R43-Pad1)*%
X172212000Y-97469100D03*
%TO.P,R43,2*%
%TO.N,Net-(R40-Pad1)*%
X172212000Y-103394100D03*
%TD*%
D17*
%TO.N,/Battery Bus Detection/BATT_N*%
X163245800Y-63728600D03*
X160705800Y-63728600D03*
X159435800Y-62458600D03*
X163245800Y-64998600D03*
X160705800Y-62458600D03*
X161975800Y-64998600D03*
X140341699Y-67070000D03*
X161975800Y-62458600D03*
X140378499Y-70194200D03*
X144951600Y-78422000D03*
X159435800Y-63728600D03*
X140367099Y-68644800D03*
X159435800Y-64998600D03*
X140378499Y-71667400D03*
X163245800Y-62458600D03*
X161975800Y-63728600D03*
X160705800Y-64998600D03*
X131108499Y-68072000D03*
%TO.N,+3V3*%
X173634400Y-126766400D03*
X166520000Y-123430000D03*
X180873400Y-96215200D03*
X141046200Y-121691400D03*
X114935000Y-111404400D03*
X168351200Y-94935000D03*
X166520000Y-122160000D03*
X166520000Y-124700000D03*
X112395000Y-111404400D03*
X159334200Y-121666000D03*
X179488600Y-126695200D03*
X113665000Y-111404400D03*
%TO.N,/Battery Bus Protection/DISCHARGE_ACTIVE*%
X145089800Y-90799100D03*
X108865400Y-112547400D03*
%TO.N,SYSTEM_VDD*%
X173202600Y-68376800D03*
X164312600Y-89839800D03*
X182372000Y-89789000D03*
X165582600Y-91109800D03*
X169392600Y-67106800D03*
X178562000Y-91059000D03*
X169392600Y-89839800D03*
X169392600Y-69646800D03*
X168122600Y-88569800D03*
X170662600Y-67106800D03*
X168122600Y-89839800D03*
X171932600Y-68376800D03*
X181102000Y-88519000D03*
X164312600Y-88569800D03*
X168122600Y-69646800D03*
X166852600Y-89839800D03*
X169392600Y-91109800D03*
X165582600Y-89839800D03*
X170662600Y-69646800D03*
X173202600Y-69646800D03*
X168122600Y-91109800D03*
X179832000Y-89789000D03*
X173202600Y-67106800D03*
X181102000Y-91059000D03*
X169392600Y-68376800D03*
X165582600Y-88569800D03*
X168122600Y-68376800D03*
X182372000Y-88519000D03*
X166852600Y-88569800D03*
X164312600Y-91109800D03*
X182372000Y-91059000D03*
X170662600Y-68376800D03*
X181102000Y-89789000D03*
X166852600Y-91109800D03*
X178562000Y-89789000D03*
X171932600Y-69646800D03*
X168122600Y-67106800D03*
X171932600Y-67106800D03*
X179832000Y-88519000D03*
X179832000Y-91059000D03*
X178562000Y-88519000D03*
X169392600Y-88569800D03*
%TO.N,SYSTEM_VSS*%
X148234400Y-71196200D03*
X109016800Y-71729600D03*
X159948000Y-112069000D03*
X146964400Y-71196200D03*
X178612800Y-92379800D03*
X164947600Y-80264000D03*
X168097200Y-93649800D03*
X146964400Y-72466200D03*
X176047400Y-61798200D03*
X168757600Y-78994000D03*
X144424400Y-69926200D03*
X148234400Y-69926200D03*
X128727200Y-121259600D03*
X111556800Y-71729600D03*
X110286800Y-71729600D03*
X135086999Y-125450600D03*
X110286800Y-72999600D03*
X182422800Y-92379800D03*
X166827200Y-93649800D03*
X167487600Y-81534000D03*
X112826800Y-71729600D03*
X144424400Y-72466200D03*
X166217600Y-80264000D03*
X169367200Y-93649800D03*
X164947600Y-78994000D03*
X168757600Y-80264000D03*
X181152800Y-93649800D03*
X174777400Y-59258200D03*
X164947600Y-81534000D03*
X166217600Y-81534000D03*
X112826800Y-72999600D03*
X177317400Y-60528200D03*
X145694400Y-69926200D03*
X167487600Y-80264000D03*
X145493400Y-96539500D03*
X182422800Y-93649800D03*
X165557200Y-93649800D03*
X174777400Y-60528200D03*
X167487600Y-78994000D03*
X145468000Y-86842200D03*
X145694400Y-72466200D03*
X168097200Y-92379800D03*
X145694400Y-71196200D03*
X165557200Y-92379800D03*
X166827200Y-92379800D03*
X109016800Y-72999600D03*
X178612800Y-93649800D03*
X144424400Y-71196200D03*
X179882800Y-93649800D03*
X153924000Y-78333600D03*
X174777400Y-61798200D03*
X179882800Y-92379800D03*
X111556800Y-72999600D03*
X176047400Y-59258200D03*
X166217600Y-78994000D03*
X146964400Y-69926200D03*
X176047400Y-60528200D03*
X141566900Y-112255300D03*
X168757600Y-81534000D03*
X177317400Y-59258200D03*
X177317400Y-61798200D03*
X153327600Y-125399800D03*
X173577000Y-111147399D03*
X169367200Y-92379800D03*
X181152800Y-92379800D03*
X148234400Y-72466200D03*
%TO.N,GND*%
X173990000Y-101269800D03*
D18*
X167779400Y-130990600D03*
X102425000Y-104381181D03*
D17*
X173990000Y-99999800D03*
D18*
X180598200Y-61611600D03*
D17*
X100457000Y-96799400D03*
X101727000Y-96799400D03*
X101727000Y-98069400D03*
X174015400Y-104622600D03*
X174015400Y-94919800D03*
X179438599Y-122473800D03*
X142895450Y-114650650D03*
X174015400Y-105892600D03*
D18*
X171459187Y-129209187D03*
D17*
X100457000Y-98069400D03*
X173990000Y-87731600D03*
X174015400Y-92379800D03*
D18*
X175796687Y-124406687D03*
D17*
X161049200Y-114430000D03*
D18*
X102425000Y-89081201D03*
D17*
X101727000Y-95529400D03*
X173990000Y-98729800D03*
X100457000Y-95529400D03*
X174015400Y-93649800D03*
X173990000Y-89001600D03*
D18*
X180598200Y-69401600D03*
X180594000Y-71778200D03*
X180594000Y-83568200D03*
D17*
%TO.N,/Battery Bus Detection/BATT_M*%
X127685800Y-66649600D03*
X125145800Y-66649600D03*
X135826200Y-75438000D03*
X126415800Y-66649600D03*
X125145800Y-67919600D03*
X151333200Y-66649600D03*
X152603200Y-67919600D03*
X153873200Y-67919600D03*
X140379299Y-77128400D03*
X126415800Y-67919600D03*
X153873200Y-66649600D03*
X144885999Y-76861200D03*
X132994400Y-77165200D03*
X135776200Y-66979800D03*
X152603200Y-66649600D03*
X127685800Y-67919600D03*
X151333200Y-67919600D03*
D18*
%TO.N,/Battery Monitor/SDA*%
X166260000Y-130030000D03*
D17*
X153416000Y-80949800D03*
X176098200Y-118985800D03*
%TO.N,/Interfaces/HEATER1_ON*%
X169291000Y-103022400D03*
X162699200Y-114430000D03*
X106984800Y-91948000D03*
%TO.N,Net-(U3-REG2)*%
X156306000Y-79133200D03*
X152577800Y-74549000D03*
%TO.N,Net-(U3-AIN1)*%
X104343200Y-122353200D03*
X148691600Y-85902800D03*
%TO.N,Net-(U3-AIN2)*%
X172796200Y-72009000D03*
X152223200Y-82473800D03*
%TO.N,/Battery Monitor/SCL*%
X152273000Y-80975200D03*
X168452800Y-118985800D03*
X181051200Y-123584200D03*
%TO.N,/Interfaces/SCL_BUS*%
X173609000Y-123533398D03*
X178760000Y-98370000D03*
X109804200Y-97259909D03*
%TO.N,/Interfaces/SDA_BUS*%
X109499400Y-94970600D03*
X180644800Y-129794000D03*
X178739800Y-99288600D03*
%TO.N,/Interfaces/HEATER0_ON*%
X106959400Y-93446600D03*
X169291000Y-102082600D03*
X144563600Y-114632500D03*
%TO.N,/Interfaces/ALERT*%
X169291000Y-104063800D03*
X106984800Y-95021400D03*
X148031200Y-82677000D03*
X178687002Y-118985800D03*
%TO.N,/Battery Bus Detection/BATT_P*%
X117144800Y-80060800D03*
X118414800Y-80060800D03*
X117144800Y-81330800D03*
X118414800Y-78790800D03*
X115874800Y-78790800D03*
X140423400Y-75438000D03*
X118414800Y-81330800D03*
X119684800Y-81330800D03*
X117144800Y-78790800D03*
X115874800Y-80060800D03*
X119684800Y-80060800D03*
X119684800Y-78790800D03*
X115874800Y-81330800D03*
X144857200Y-75082400D03*
%TO.N,/Battery Bus Protection/CHARGE_ACTIVE*%
X108865400Y-110617000D03*
X145129300Y-100552700D03*
%TO.N,/Battery Temperature Protection/BatteryHeater/V_HEATER*%
X130632200Y-116713000D03*
X126822200Y-116713000D03*
X129362200Y-117983000D03*
X126822200Y-117983000D03*
X128092200Y-117983000D03*
X129362200Y-116713000D03*
X130632200Y-117983000D03*
X128092200Y-116713000D03*
%TO.N,/Battery Bus Detection/CHARGE_EN*%
X126644400Y-87045800D03*
X136339000Y-102366800D03*
%TO.N,/Battery Monitor/I2C Protection/SDA_DEVICE*%
X166268400Y-128358400D03*
%TO.N,/Battery Bus Detection/DISCHARGE_EN*%
X136389800Y-92450100D03*
X126669800Y-85826600D03*
%TO.N,/Battery Temperature Protection/BatteryHeater1/V_HEATER*%
X154406600Y-118084600D03*
X153136600Y-118084600D03*
X155676600Y-118084600D03*
X151866600Y-118084600D03*
X151866600Y-119354600D03*
X154406600Y-119354600D03*
X155676600Y-119354600D03*
X153136600Y-119354600D03*
%TD*%
%TO.N,SYSTEM_VSS*%
D19*
X148894800Y-73126600D02*
X148234400Y-72466200D01*
D20*
X128727200Y-122351800D02*
X128727200Y-121259600D01*
D19*
X149618400Y-73126600D02*
X148894800Y-73126600D01*
%TO.N,Net-(U3-AIN1)*%
D20*
X105460800Y-122353200D02*
X104343200Y-122353200D01*
X104343200Y-122353200D02*
X104319200Y-122353200D01*
X104319200Y-122353200D02*
X104267000Y-122301000D01*
%TO.N,Net-(U3-AIN2)*%
X172834600Y-72047400D02*
X172796200Y-72009000D01*
X172834600Y-73126600D02*
X172834600Y-72047400D01*
%TO.N,Net-(R40-Pad1)*%
D21*
X172083167Y-103716833D02*
X172083167Y-114367400D01*
X172085000Y-103994400D02*
X172083167Y-103996233D01*
%TO.N,Net-(R54-Pad1)*%
X106476800Y-78445669D02*
X106476800Y-90564467D01*
%TO.N,Net-(R44-Pad1)*%
X150291800Y-83910216D02*
X150291800Y-96028918D01*
%TO.N,Net-(R41-Pad1)*%
X150266400Y-102173218D02*
X150266400Y-114604800D01*
%TO.N,Net-(TH1-Pad2)*%
D22*
X171373800Y-73152000D02*
X151309800Y-73152000D01*
%TO.N,Net-(TH2-Pad2)*%
X127257800Y-122250200D02*
X107311800Y-122250200D01*
%TO.N,Net-(R50-Pad1)*%
D21*
X128280732Y-109215122D02*
X128260801Y-109235053D01*
X128320800Y-96342024D02*
X128320800Y-109194775D01*
%TO.N,Net-(R43-Pad1)*%
X172262967Y-83794397D02*
X172262967Y-97891433D01*
%TO.N,Net-(R51-Pad1)*%
X106476800Y-96489467D02*
X106476800Y-109365600D01*
%TO.N,Net-(R53-Pad1)*%
X128322407Y-90395696D02*
X128280732Y-90437371D01*
X128322407Y-78318669D02*
X128322407Y-90395696D01*
%TD*%
%TA.AperFunction,Conductor*%
%TO.N,SYSTEM_VSS*%
G36*
X130115340Y-70667821D02*
G01*
X130140584Y-70675234D01*
X130193330Y-70706530D01*
X130481674Y-70994874D01*
X130502823Y-71023125D01*
X130515431Y-71046214D01*
X130530600Y-71105643D01*
X130530600Y-73438408D01*
X130525576Y-73473345D01*
X130518164Y-73498586D01*
X130486869Y-73551330D01*
X130198526Y-73839673D01*
X130170275Y-73860822D01*
X130147187Y-73873430D01*
X130087757Y-73888600D01*
X104920392Y-73888600D01*
X104885456Y-73883577D01*
X104860214Y-73876165D01*
X104807469Y-73844869D01*
X104519126Y-73556526D01*
X104519121Y-73556521D01*
X104497974Y-73528270D01*
X104485367Y-73505181D01*
X104470200Y-73445756D01*
X104470200Y-71112991D01*
X104475222Y-71078058D01*
X104482634Y-71052813D01*
X104513928Y-71000071D01*
X104802281Y-70711718D01*
X104830526Y-70690575D01*
X104853618Y-70677967D01*
X104913043Y-70662800D01*
X130080408Y-70662800D01*
X130115340Y-70667821D01*
G37*
%TD.AperFunction*%
%TD*%
%TA.AperFunction,Conductor*%
%TO.N,/Battery Temperature Protection/BatteryHeater1/V_HEATER*%
G36*
X173973931Y-117672013D02*
G01*
X174010476Y-117722313D01*
X174015400Y-117753400D01*
X174015400Y-121565400D01*
X173996187Y-121624531D01*
X173945887Y-121661076D01*
X173914800Y-121666000D01*
X166743168Y-121666000D01*
X166717131Y-121662572D01*
X166658221Y-121646787D01*
X166589975Y-121628500D01*
X166589973Y-121628500D01*
X166450027Y-121628500D01*
X166450024Y-121628500D01*
X166351177Y-121654986D01*
X166322868Y-121662572D01*
X166296832Y-121666000D01*
X159961643Y-121666000D01*
X159902512Y-121646787D01*
X159865967Y-121596487D01*
X159864471Y-121591438D01*
X159829479Y-121460850D01*
X159829478Y-121460847D01*
X159759507Y-121339654D01*
X159759506Y-121339652D01*
X159660548Y-121240694D01*
X159660545Y-121240692D01*
X159539352Y-121170721D01*
X159539347Y-121170719D01*
X159404177Y-121134500D01*
X159404173Y-121134500D01*
X159264227Y-121134500D01*
X159264222Y-121134500D01*
X159129052Y-121170719D01*
X159129047Y-121170721D01*
X159007854Y-121240692D01*
X159007853Y-121240693D01*
X159007852Y-121240694D01*
X158908894Y-121339652D01*
X158908893Y-121339653D01*
X158908892Y-121339654D01*
X158838921Y-121460847D01*
X158838920Y-121460850D01*
X158803929Y-121591438D01*
X158770066Y-121643581D01*
X158712022Y-121665862D01*
X158706757Y-121666000D01*
X148385800Y-121666000D01*
X148326669Y-121646787D01*
X148290124Y-121596487D01*
X148285200Y-121565400D01*
X148285200Y-118915822D01*
X167921300Y-118915822D01*
X167921300Y-119055777D01*
X167957519Y-119190947D01*
X167957521Y-119190952D01*
X168027492Y-119312145D01*
X168027494Y-119312148D01*
X168126452Y-119411106D01*
X168247649Y-119481079D01*
X168247650Y-119481079D01*
X168247652Y-119481080D01*
X168382822Y-119517299D01*
X168382824Y-119517299D01*
X168382827Y-119517300D01*
X168382829Y-119517300D01*
X168522771Y-119517300D01*
X168522773Y-119517300D01*
X168657951Y-119481079D01*
X168779148Y-119411106D01*
X168878106Y-119312148D01*
X168948079Y-119190951D01*
X168984300Y-119055773D01*
X168984300Y-118915827D01*
X168948079Y-118780649D01*
X168878106Y-118659452D01*
X168779148Y-118560494D01*
X168779145Y-118560492D01*
X168657952Y-118490521D01*
X168657947Y-118490519D01*
X168522777Y-118454300D01*
X168522773Y-118454300D01*
X168382827Y-118454300D01*
X168382822Y-118454300D01*
X168247652Y-118490519D01*
X168247647Y-118490521D01*
X168126454Y-118560492D01*
X168126453Y-118560493D01*
X168126452Y-118560494D01*
X168027494Y-118659452D01*
X168027493Y-118659453D01*
X168027492Y-118659454D01*
X167957521Y-118780647D01*
X167957519Y-118780652D01*
X167921300Y-118915822D01*
X148285200Y-118915822D01*
X148285200Y-117753400D01*
X148304413Y-117694269D01*
X148354713Y-117657724D01*
X148385800Y-117652800D01*
X173914800Y-117652800D01*
X173973931Y-117672013D01*
G37*
%TD.AperFunction*%
%TD*%
%TA.AperFunction,Conductor*%
%TO.N,/Battery Bus Detection/BATT_M*%
G36*
X156048740Y-62006421D02*
G01*
X156073984Y-62013834D01*
X156126730Y-62045130D01*
X156288074Y-62206474D01*
X156309223Y-62234725D01*
X156321831Y-62257814D01*
X156337000Y-62317243D01*
X156337000Y-69806208D01*
X156331976Y-69841145D01*
X156324564Y-69866386D01*
X156293269Y-69919130D01*
X156131926Y-70080473D01*
X156103675Y-70101622D01*
X156080587Y-70114230D01*
X156021157Y-70129400D01*
X149057141Y-70129400D01*
X149022206Y-70124377D01*
X149008011Y-70120209D01*
X148949233Y-70082435D01*
X148920633Y-70021614D01*
X148917587Y-70003335D01*
X148915900Y-69982953D01*
X148915900Y-69859072D01*
X148889713Y-69727431D01*
X148889711Y-69727419D01*
X148889710Y-69727418D01*
X148889710Y-69727414D01*
X148889709Y-69727412D01*
X148889502Y-69726370D01*
X148887910Y-69723050D01*
X148887656Y-69722455D01*
X148838337Y-69603389D01*
X148838336Y-69603388D01*
X148838333Y-69603382D01*
X148834096Y-69597041D01*
X148834095Y-69597038D01*
X148763753Y-69491766D01*
X148763752Y-69491765D01*
X148763747Y-69491759D01*
X148668839Y-69396851D01*
X148668833Y-69396846D01*
X148668832Y-69396845D01*
X148557211Y-69322262D01*
X148557212Y-69322262D01*
X148557202Y-69322257D01*
X148433195Y-69270893D01*
X148433175Y-69270886D01*
X148433167Y-69270884D01*
X148301527Y-69244700D01*
X148301524Y-69244700D01*
X148301522Y-69244700D01*
X148167278Y-69244700D01*
X148167276Y-69244700D01*
X148167271Y-69244700D01*
X148035630Y-69270884D01*
X148035623Y-69270886D01*
X148035603Y-69270893D01*
X147911596Y-69322257D01*
X147911586Y-69322262D01*
X147799966Y-69396845D01*
X147767468Y-69429344D01*
X147705045Y-69491767D01*
X147705043Y-69491769D01*
X147700734Y-69496079D01*
X147700440Y-69495785D01*
X147691701Y-69504601D01*
X147678169Y-69515909D01*
X147614104Y-69543792D01*
X147545134Y-69532613D01*
X147545132Y-69532611D01*
X147540407Y-69530350D01*
X147499517Y-69494928D01*
X147497624Y-69496482D01*
X147493758Y-69491772D01*
X147493755Y-69491769D01*
X147493754Y-69491767D01*
X147398834Y-69396847D01*
X147398833Y-69396846D01*
X147398832Y-69396845D01*
X147287211Y-69322262D01*
X147287212Y-69322262D01*
X147287202Y-69322257D01*
X147163195Y-69270893D01*
X147163175Y-69270886D01*
X147163167Y-69270884D01*
X147031527Y-69244700D01*
X147031524Y-69244700D01*
X147031522Y-69244700D01*
X146897278Y-69244700D01*
X146897276Y-69244700D01*
X146897271Y-69244700D01*
X146765630Y-69270884D01*
X146765623Y-69270886D01*
X146765603Y-69270893D01*
X146641596Y-69322257D01*
X146641586Y-69322262D01*
X146529966Y-69396845D01*
X146497468Y-69429344D01*
X146435045Y-69491767D01*
X146435043Y-69491769D01*
X146430734Y-69496079D01*
X146430440Y-69495785D01*
X146421701Y-69504601D01*
X146408169Y-69515909D01*
X146344104Y-69543792D01*
X146275134Y-69532613D01*
X146275132Y-69532611D01*
X146270407Y-69530350D01*
X146229517Y-69494928D01*
X146227624Y-69496482D01*
X146223758Y-69491772D01*
X146223755Y-69491769D01*
X146223754Y-69491767D01*
X146128834Y-69396847D01*
X146128833Y-69396846D01*
X146128832Y-69396845D01*
X146017211Y-69322262D01*
X146017212Y-69322262D01*
X146017202Y-69322257D01*
X145893195Y-69270893D01*
X145893175Y-69270886D01*
X145893167Y-69270884D01*
X145761527Y-69244700D01*
X145761524Y-69244700D01*
X145761522Y-69244700D01*
X145627278Y-69244700D01*
X145627276Y-69244700D01*
X145627271Y-69244700D01*
X145495630Y-69270884D01*
X145495623Y-69270886D01*
X145495603Y-69270893D01*
X145371596Y-69322257D01*
X145371586Y-69322262D01*
X145259966Y-69396845D01*
X145227468Y-69429344D01*
X145165045Y-69491767D01*
X145165043Y-69491769D01*
X145160734Y-69496079D01*
X145160440Y-69495785D01*
X145151701Y-69504601D01*
X145138169Y-69515909D01*
X145074104Y-69543792D01*
X145005134Y-69532613D01*
X145005132Y-69532611D01*
X145000407Y-69530350D01*
X144959517Y-69494928D01*
X144957624Y-69496482D01*
X144953758Y-69491772D01*
X144953755Y-69491769D01*
X144953754Y-69491767D01*
X144858834Y-69396847D01*
X144858833Y-69396846D01*
X144858832Y-69396845D01*
X144747211Y-69322262D01*
X144747212Y-69322262D01*
X144747202Y-69322257D01*
X144623195Y-69270893D01*
X144623175Y-69270886D01*
X144623167Y-69270884D01*
X144491527Y-69244700D01*
X144491524Y-69244700D01*
X144491522Y-69244700D01*
X144357278Y-69244700D01*
X144357276Y-69244700D01*
X144357271Y-69244700D01*
X144225630Y-69270884D01*
X144225623Y-69270886D01*
X144225603Y-69270893D01*
X144101596Y-69322257D01*
X144101586Y-69322262D01*
X143989966Y-69396845D01*
X143989965Y-69396846D01*
X143989959Y-69396851D01*
X143895051Y-69491759D01*
X143895046Y-69491765D01*
X143895045Y-69491766D01*
X143820462Y-69603386D01*
X143820457Y-69603396D01*
X143769093Y-69727403D01*
X143769086Y-69727423D01*
X143769084Y-69727431D01*
X143742900Y-69859070D01*
X143742900Y-69948955D01*
X143737637Y-69966875D01*
X143769085Y-70124968D01*
X143769086Y-70124974D01*
X143769093Y-70124995D01*
X143820457Y-70249002D01*
X143820462Y-70249012D01*
X143895044Y-70360631D01*
X143895047Y-70360634D01*
X143989967Y-70455554D01*
X143989969Y-70455555D01*
X143994275Y-70459861D01*
X143993979Y-70460156D01*
X144002793Y-70468889D01*
X144010691Y-70478340D01*
X144014110Y-70482431D01*
X144041992Y-70546496D01*
X144030812Y-70615465D01*
X144030812Y-70615466D01*
X144028552Y-70620189D01*
X143993139Y-70661095D01*
X143994683Y-70662976D01*
X143989968Y-70666844D01*
X143895045Y-70761766D01*
X143820462Y-70873386D01*
X143820457Y-70873396D01*
X143769093Y-70997403D01*
X143769086Y-70997423D01*
X143769084Y-70997431D01*
X143742900Y-71129070D01*
X143742900Y-71218955D01*
X143737637Y-71236875D01*
X143769085Y-71394968D01*
X143769086Y-71394974D01*
X143769093Y-71394995D01*
X143820457Y-71519002D01*
X143820462Y-71519012D01*
X143895044Y-71630631D01*
X143895047Y-71630634D01*
X143989967Y-71725554D01*
X143989969Y-71725555D01*
X143994275Y-71729861D01*
X143993979Y-71730156D01*
X144002793Y-71738889D01*
X144010691Y-71748340D01*
X144014110Y-71752431D01*
X144041992Y-71816496D01*
X144030812Y-71885465D01*
X144030812Y-71885466D01*
X144028552Y-71890189D01*
X143993139Y-71931095D01*
X143994683Y-71932976D01*
X143989968Y-71936844D01*
X143895045Y-72031766D01*
X143820462Y-72143386D01*
X143820457Y-72143396D01*
X143769093Y-72267403D01*
X143769086Y-72267423D01*
X143769084Y-72267431D01*
X143742900Y-72399070D01*
X143742900Y-72488955D01*
X143737637Y-72506875D01*
X143769085Y-72664968D01*
X143769086Y-72664974D01*
X143769093Y-72664995D01*
X143820457Y-72789002D01*
X143820462Y-72789012D01*
X143895045Y-72900632D01*
X143895046Y-72900633D01*
X143895051Y-72900639D01*
X143989959Y-72995547D01*
X143989965Y-72995552D01*
X143989966Y-72995553D01*
X144095238Y-73065895D01*
X144095241Y-73065896D01*
X144101582Y-73070133D01*
X144101588Y-73070136D01*
X144101589Y-73070137D01*
X144220655Y-73119456D01*
X144221250Y-73119710D01*
X144221436Y-73119863D01*
X144224413Y-73121271D01*
X144357272Y-73147700D01*
X144491524Y-73147700D01*
X144491525Y-73147700D01*
X144506286Y-73144763D01*
X144580099Y-73130080D01*
X144580100Y-73130080D01*
X144588763Y-73128356D01*
X144623186Y-73121510D01*
X144747211Y-73070137D01*
X144858831Y-72995555D01*
X144953755Y-72900631D01*
X144953756Y-72900628D01*
X144958552Y-72895833D01*
X144958915Y-72896196D01*
X144967307Y-72887625D01*
X144980628Y-72876491D01*
X145044690Y-72848607D01*
X145113656Y-72859781D01*
X145118583Y-72862138D01*
X145162655Y-72898334D01*
X145162936Y-72898101D01*
X145164162Y-72899572D01*
X145164397Y-72899765D01*
X145165039Y-72900625D01*
X145165042Y-72900628D01*
X145165047Y-72900634D01*
X145165052Y-72900639D01*
X145165059Y-72900647D01*
X145259959Y-72995547D01*
X145259965Y-72995552D01*
X145259966Y-72995553D01*
X145365238Y-73065895D01*
X145365241Y-73065896D01*
X145371582Y-73070133D01*
X145371588Y-73070136D01*
X145371589Y-73070137D01*
X145490655Y-73119456D01*
X145491250Y-73119710D01*
X145491436Y-73119863D01*
X145494413Y-73121271D01*
X145627272Y-73147700D01*
X145627275Y-73147700D01*
X145730371Y-73147700D01*
X145765306Y-73152723D01*
X145780304Y-73157127D01*
X145839055Y-73194872D01*
X145839079Y-73194900D01*
X145839082Y-73194902D01*
X145839083Y-73194904D01*
X145840242Y-73196241D01*
X145867718Y-73251102D01*
X145869363Y-73258660D01*
X145872200Y-73285031D01*
X145872200Y-86068566D01*
X145867175Y-86103507D01*
X145863264Y-86116824D01*
X145825487Y-86175600D01*
X145761929Y-86204622D01*
X145761928Y-86204622D01*
X145756744Y-86205367D01*
X145691654Y-86197190D01*
X145687426Y-86195438D01*
X145666790Y-86186891D01*
X145666785Y-86186889D01*
X145666784Y-86186889D01*
X145666775Y-86186886D01*
X145535126Y-86160700D01*
X145535124Y-86160700D01*
X145535122Y-86160700D01*
X145400878Y-86160700D01*
X145400876Y-86160700D01*
X145400871Y-86160700D01*
X145269230Y-86186884D01*
X145269223Y-86186886D01*
X145269203Y-86186893D01*
X145145196Y-86238257D01*
X145145186Y-86238262D01*
X145033566Y-86312845D01*
X145033565Y-86312846D01*
X145033559Y-86312851D01*
X144938651Y-86407759D01*
X144938646Y-86407765D01*
X144938645Y-86407766D01*
X144864062Y-86519386D01*
X144864057Y-86519396D01*
X144812693Y-86643403D01*
X144812686Y-86643423D01*
X144812684Y-86643431D01*
X144786500Y-86775070D01*
X144786500Y-86864955D01*
X144781237Y-86882875D01*
X144812685Y-87040968D01*
X144812686Y-87040974D01*
X144812693Y-87040995D01*
X144864057Y-87165002D01*
X144864062Y-87165012D01*
X144938645Y-87276632D01*
X144938646Y-87276633D01*
X144938651Y-87276639D01*
X145033559Y-87371547D01*
X145033565Y-87371552D01*
X145033566Y-87371553D01*
X145138838Y-87441895D01*
X145138841Y-87441896D01*
X145145182Y-87446133D01*
X145145188Y-87446136D01*
X145145189Y-87446137D01*
X145264255Y-87495456D01*
X145264850Y-87495710D01*
X145265036Y-87495863D01*
X145268013Y-87497271D01*
X145400872Y-87523700D01*
X145535124Y-87523700D01*
X145535125Y-87523700D01*
X145548680Y-87521003D01*
X145623699Y-87506080D01*
X145666786Y-87497510D01*
X145691527Y-87487260D01*
X145699096Y-87485196D01*
X145703778Y-87485286D01*
X145718467Y-87481536D01*
X145732278Y-87480051D01*
X145768162Y-87486526D01*
X145768952Y-87486542D01*
X145769211Y-87486716D01*
X145801033Y-87492458D01*
X145852161Y-87540055D01*
X145854835Y-87544562D01*
X145872200Y-87607845D01*
X145872200Y-90316773D01*
X145868645Y-90330894D01*
X145869540Y-90342320D01*
X145867176Y-90351711D01*
X145863989Y-90362564D01*
X145858542Y-90371039D01*
X145857427Y-90375470D01*
X145852116Y-90385353D01*
X145844162Y-90393414D01*
X145826214Y-90421341D01*
X145808728Y-90429325D01*
X145803043Y-90435088D01*
X145789401Y-90438151D01*
X145762657Y-90450364D01*
X145745804Y-90447940D01*
X145734871Y-90450396D01*
X145716695Y-90443755D01*
X145693501Y-90440420D01*
X145691377Y-90439450D01*
X145681193Y-90430784D01*
X145669244Y-90426418D01*
X145656801Y-90410026D01*
X145639787Y-90395547D01*
X145638362Y-90393414D01*
X145619152Y-90364665D01*
X145619151Y-90364664D01*
X145619147Y-90364659D01*
X145524239Y-90269751D01*
X145524233Y-90269746D01*
X145524232Y-90269745D01*
X145412611Y-90195162D01*
X145412612Y-90195162D01*
X145412602Y-90195157D01*
X145288595Y-90143793D01*
X145288575Y-90143786D01*
X145288567Y-90143784D01*
X145156927Y-90117600D01*
X145156924Y-90117600D01*
X145156922Y-90117600D01*
X145022678Y-90117600D01*
X145022676Y-90117600D01*
X145022671Y-90117600D01*
X144891030Y-90143784D01*
X144891023Y-90143786D01*
X144891003Y-90143793D01*
X144766996Y-90195157D01*
X144766986Y-90195162D01*
X144655366Y-90269745D01*
X144655365Y-90269746D01*
X144655359Y-90269751D01*
X144560451Y-90364659D01*
X144560446Y-90364665D01*
X144560445Y-90364666D01*
X144485862Y-90476286D01*
X144485857Y-90476296D01*
X144434493Y-90600303D01*
X144434486Y-90600323D01*
X144434484Y-90600331D01*
X144408300Y-90731970D01*
X144408300Y-90821855D01*
X144403037Y-90839775D01*
X144434485Y-90997868D01*
X144434486Y-90997874D01*
X144434493Y-90997895D01*
X144485857Y-91121902D01*
X144485862Y-91121912D01*
X144560445Y-91233532D01*
X144560446Y-91233533D01*
X144560451Y-91233539D01*
X144655359Y-91328447D01*
X144655365Y-91328452D01*
X144655366Y-91328453D01*
X144760638Y-91398795D01*
X144760641Y-91398796D01*
X144766982Y-91403033D01*
X144766988Y-91403036D01*
X144766989Y-91403037D01*
X144886055Y-91452356D01*
X144886650Y-91452610D01*
X144886836Y-91452763D01*
X144889813Y-91454171D01*
X145022672Y-91480600D01*
X145156924Y-91480600D01*
X145156925Y-91480600D01*
X145171686Y-91477663D01*
X145245499Y-91462980D01*
X145245500Y-91462980D01*
X145254163Y-91461256D01*
X145288586Y-91454410D01*
X145412611Y-91403037D01*
X145524231Y-91328455D01*
X145619155Y-91233531D01*
X145635193Y-91209527D01*
X145645996Y-91199759D01*
X145651604Y-91189758D01*
X145658754Y-91183292D01*
X145667462Y-91176014D01*
X145676700Y-91171993D01*
X145680094Y-91168925D01*
X145689999Y-91163660D01*
X145701094Y-91161376D01*
X145731523Y-91148133D01*
X145750500Y-91151208D01*
X145758435Y-91149576D01*
X145771480Y-91154609D01*
X145800493Y-91159312D01*
X145813170Y-91170694D01*
X145823621Y-91174727D01*
X145835014Y-91190308D01*
X145852439Y-91205954D01*
X145853667Y-91207940D01*
X145857329Y-91220826D01*
X145864861Y-91231127D01*
X145866099Y-91251687D01*
X145872200Y-91273153D01*
X145872200Y-95755345D01*
X145867175Y-95790286D01*
X145863264Y-95803603D01*
X145825487Y-95862379D01*
X145761929Y-95891401D01*
X145761928Y-95891401D01*
X145756744Y-95892146D01*
X145696100Y-95884535D01*
X145696001Y-95884909D01*
X145695994Y-95884946D01*
X145695991Y-95884945D01*
X145695929Y-95885182D01*
X145694334Y-95884759D01*
X145694259Y-95884963D01*
X145692209Y-95884198D01*
X145692175Y-95884186D01*
X145692167Y-95884184D01*
X145560527Y-95858000D01*
X145560524Y-95858000D01*
X145560522Y-95858000D01*
X145426278Y-95858000D01*
X145426276Y-95858000D01*
X145426271Y-95858000D01*
X145294630Y-95884184D01*
X145294623Y-95884186D01*
X145294603Y-95884193D01*
X145170596Y-95935557D01*
X145170586Y-95935562D01*
X145058966Y-96010145D01*
X145058965Y-96010146D01*
X145058959Y-96010151D01*
X144964051Y-96105059D01*
X144964046Y-96105065D01*
X144964045Y-96105066D01*
X144889462Y-96216686D01*
X144889457Y-96216696D01*
X144838093Y-96340703D01*
X144838086Y-96340723D01*
X144838084Y-96340731D01*
X144811900Y-96472370D01*
X144811900Y-96562255D01*
X144806637Y-96580175D01*
X144838085Y-96738268D01*
X144838086Y-96738274D01*
X144838093Y-96738295D01*
X144889457Y-96862302D01*
X144889462Y-96862312D01*
X144964045Y-96973932D01*
X144964046Y-96973933D01*
X144964051Y-96973939D01*
X145058959Y-97068847D01*
X145058965Y-97068852D01*
X145058966Y-97068853D01*
X145164238Y-97139195D01*
X145164241Y-97139196D01*
X145170582Y-97143433D01*
X145170588Y-97143436D01*
X145170589Y-97143437D01*
X145289655Y-97192756D01*
X145290250Y-97193010D01*
X145290436Y-97193163D01*
X145293413Y-97194571D01*
X145426272Y-97221000D01*
X145560524Y-97221000D01*
X145560525Y-97221000D01*
X145568260Y-97219460D01*
X145649099Y-97203380D01*
X145692186Y-97194810D01*
X145695430Y-97193465D01*
X145704528Y-97191522D01*
X145706500Y-97191670D01*
X145717169Y-97189497D01*
X145732268Y-97187873D01*
X145801025Y-97200275D01*
X145852162Y-97247877D01*
X145854835Y-97252381D01*
X145872200Y-97315666D01*
X145872200Y-100014621D01*
X145872199Y-100014623D01*
X145872200Y-100014624D01*
X145870531Y-100026228D01*
X145867176Y-100049559D01*
X145863989Y-100060412D01*
X145826214Y-100119189D01*
X145762657Y-100148212D01*
X145693507Y-100138271D01*
X145686529Y-100135084D01*
X145650359Y-100109972D01*
X145563734Y-100023347D01*
X145563733Y-100023346D01*
X145563732Y-100023345D01*
X145452111Y-99948762D01*
X145452112Y-99948762D01*
X145452102Y-99948757D01*
X145328095Y-99897393D01*
X145328075Y-99897386D01*
X145328067Y-99897384D01*
X145196427Y-99871200D01*
X145196424Y-99871200D01*
X145196422Y-99871200D01*
X145062178Y-99871200D01*
X145062176Y-99871200D01*
X145062171Y-99871200D01*
X144930530Y-99897384D01*
X144930523Y-99897386D01*
X144930503Y-99897393D01*
X144806496Y-99948757D01*
X144806486Y-99948762D01*
X144694866Y-100023345D01*
X144694865Y-100023346D01*
X144694859Y-100023351D01*
X144599951Y-100118259D01*
X144599946Y-100118265D01*
X144599945Y-100118266D01*
X144525362Y-100229886D01*
X144525357Y-100229896D01*
X144473993Y-100353903D01*
X144473986Y-100353923D01*
X144473984Y-100353931D01*
X144447800Y-100485570D01*
X144447800Y-100575455D01*
X144442537Y-100593375D01*
X144473985Y-100751468D01*
X144473986Y-100751474D01*
X144473993Y-100751495D01*
X144525357Y-100875502D01*
X144525362Y-100875512D01*
X144599945Y-100987132D01*
X144599946Y-100987133D01*
X144599951Y-100987139D01*
X144694859Y-101082047D01*
X144694865Y-101082052D01*
X144694866Y-101082053D01*
X144800138Y-101152395D01*
X144800141Y-101152396D01*
X144806482Y-101156633D01*
X144806488Y-101156636D01*
X144806489Y-101156637D01*
X144925555Y-101205956D01*
X144926150Y-101206210D01*
X144926336Y-101206363D01*
X144929313Y-101207771D01*
X145062172Y-101234200D01*
X145196424Y-101234200D01*
X145196425Y-101234200D01*
X145211186Y-101231263D01*
X145284999Y-101216580D01*
X145285000Y-101216580D01*
X145293663Y-101214856D01*
X145328086Y-101208010D01*
X145452111Y-101156637D01*
X145563731Y-101082055D01*
X145584268Y-101061518D01*
X145647916Y-100997870D01*
X145647920Y-100997868D01*
X145676159Y-100976727D01*
X145686091Y-100971304D01*
X145703513Y-100967513D01*
X145709238Y-100964388D01*
X145715741Y-100964853D01*
X145754360Y-100956451D01*
X145819825Y-100980865D01*
X145861699Y-101036797D01*
X145861701Y-101036801D01*
X145864382Y-101043989D01*
X145872200Y-101087323D01*
X145872200Y-123857202D01*
X146087175Y-123857481D01*
X146087189Y-123857483D01*
X146101578Y-123857501D01*
X146101579Y-123857502D01*
X161187010Y-123877208D01*
X165940630Y-123883417D01*
X165971554Y-123887378D01*
X165973549Y-123887894D01*
X165985599Y-123891450D01*
X165990917Y-123892393D01*
X165995584Y-123893602D01*
X166021580Y-123909150D01*
X166048711Y-123922628D01*
X166052174Y-123925960D01*
X166085569Y-123959355D01*
X166085572Y-123959357D01*
X166089260Y-123962384D01*
X166114792Y-123992027D01*
X166114960Y-123991909D01*
X166116060Y-123993458D01*
X166116083Y-123993526D01*
X166117040Y-123994637D01*
X166120308Y-124000107D01*
X166118685Y-124001076D01*
X166120817Y-124007262D01*
X166129890Y-124018704D01*
X166131973Y-124039631D01*
X166138826Y-124059514D01*
X166135489Y-124074950D01*
X166136812Y-124088230D01*
X166126787Y-124115219D01*
X166125676Y-124120358D01*
X166125850Y-124120441D01*
X166125501Y-124121169D01*
X166125402Y-124121629D01*
X166123818Y-124124731D01*
X166123749Y-124124832D01*
X166123479Y-124125394D01*
X166122741Y-124126842D01*
X166122295Y-124127313D01*
X166122267Y-124127389D01*
X166121311Y-124129040D01*
X166120891Y-124128797D01*
X166110289Y-124140006D01*
X166088740Y-124164896D01*
X166090283Y-124166776D01*
X166085568Y-124170644D01*
X165990645Y-124265566D01*
X165916062Y-124377186D01*
X165916057Y-124377196D01*
X165864693Y-124501203D01*
X165864686Y-124501223D01*
X165864684Y-124501231D01*
X165838500Y-124632870D01*
X165838500Y-124722755D01*
X165833237Y-124740675D01*
X165864685Y-124898768D01*
X165864686Y-124898774D01*
X165864693Y-124898795D01*
X165916057Y-125022802D01*
X165916061Y-125022809D01*
X165990645Y-125134432D01*
X165990646Y-125134433D01*
X165990651Y-125134439D01*
X166085559Y-125229347D01*
X166085565Y-125229352D01*
X166085566Y-125229353D01*
X166190838Y-125299695D01*
X166190841Y-125299696D01*
X166197182Y-125303933D01*
X166197188Y-125303936D01*
X166197189Y-125303937D01*
X166316255Y-125353256D01*
X166316850Y-125353510D01*
X166317036Y-125353663D01*
X166320013Y-125355071D01*
X166452872Y-125381500D01*
X166587124Y-125381500D01*
X166587125Y-125381500D01*
X166601886Y-125378563D01*
X166675699Y-125363880D01*
X166675700Y-125363880D01*
X166684363Y-125362156D01*
X166718786Y-125355310D01*
X166842811Y-125303937D01*
X166954431Y-125229355D01*
X167049355Y-125134431D01*
X167123937Y-125022811D01*
X167175310Y-124898786D01*
X167175310Y-124898782D01*
X167175312Y-124898779D01*
X167184910Y-124850527D01*
X167184910Y-124850526D01*
X167201500Y-124767126D01*
X167201500Y-124632872D01*
X167175313Y-124501231D01*
X167175311Y-124501219D01*
X167175310Y-124501218D01*
X167175310Y-124501214D01*
X167175309Y-124501212D01*
X167175102Y-124500170D01*
X167173510Y-124496850D01*
X167173256Y-124496255D01*
X167123937Y-124377189D01*
X167123936Y-124377188D01*
X167123933Y-124377182D01*
X167119696Y-124370841D01*
X167119695Y-124370838D01*
X167049353Y-124265566D01*
X167049352Y-124265565D01*
X167049347Y-124265559D01*
X166954444Y-124170656D01*
X166953513Y-124169806D01*
X166941980Y-124157756D01*
X166930295Y-124143775D01*
X166902407Y-124079712D01*
X166913580Y-124010744D01*
X166915846Y-124006008D01*
X166951280Y-123965133D01*
X166949715Y-123963226D01*
X166954428Y-123959357D01*
X166954427Y-123959357D01*
X166954431Y-123959355D01*
X166981446Y-123932338D01*
X166983080Y-123931146D01*
X166983617Y-123930219D01*
X167001477Y-123917722D01*
X167012381Y-123909766D01*
X167013167Y-123909361D01*
X167025291Y-123903352D01*
X167032631Y-123899343D01*
X167033950Y-123898665D01*
X167045814Y-123896386D01*
X167090854Y-123884919D01*
X172945432Y-123892568D01*
X172980356Y-123897636D01*
X172982476Y-123898262D01*
X173000520Y-123903586D01*
X173052378Y-123934111D01*
X173057115Y-123938770D01*
X173073267Y-123958285D01*
X173079642Y-123967826D01*
X173079645Y-123967830D01*
X173079651Y-123967837D01*
X173174559Y-124062745D01*
X173174565Y-124062750D01*
X173174566Y-124062751D01*
X173279838Y-124133093D01*
X173279841Y-124133094D01*
X173286182Y-124137331D01*
X173286188Y-124137334D01*
X173286189Y-124137335D01*
X173405255Y-124186654D01*
X173405850Y-124186908D01*
X173406036Y-124187061D01*
X173409013Y-124188469D01*
X173541872Y-124214898D01*
X173676124Y-124214898D01*
X173676125Y-124214898D01*
X173690886Y-124211961D01*
X173764699Y-124197278D01*
X173764700Y-124197278D01*
X173773363Y-124195554D01*
X173807786Y-124188708D01*
X173931811Y-124137335D01*
X174043431Y-124062753D01*
X174138355Y-123967829D01*
X174140776Y-123964204D01*
X174164349Y-123937959D01*
X174180421Y-123924527D01*
X174234730Y-123898263D01*
X174241394Y-123896880D01*
X174266740Y-123894294D01*
X175063502Y-123895335D01*
X175098426Y-123900403D01*
X175103684Y-123901955D01*
X175111737Y-123904331D01*
X175126712Y-123913982D01*
X175143800Y-123919021D01*
X175155467Y-123932516D01*
X175170465Y-123942183D01*
X175177849Y-123958404D01*
X175189496Y-123971876D01*
X175199402Y-124005751D01*
X175199789Y-124008464D01*
X175194837Y-124064678D01*
X175193468Y-124068845D01*
X175189528Y-124078725D01*
X175189663Y-124078781D01*
X175136761Y-124206498D01*
X175136755Y-124206525D01*
X175110387Y-124339084D01*
X175110387Y-124339087D01*
X175110387Y-124474286D01*
X175110387Y-124474288D01*
X175110386Y-124474288D01*
X175136755Y-124606847D01*
X175136761Y-124606874D01*
X175188490Y-124731763D01*
X175188495Y-124731773D01*
X175263603Y-124844179D01*
X175263604Y-124844180D01*
X175263609Y-124844186D01*
X175359186Y-124939763D01*
X175359192Y-124939768D01*
X175359196Y-124939771D01*
X175471595Y-125014874D01*
X175471604Y-125014879D01*
X175471606Y-125014880D01*
X175471610Y-125014882D01*
X175490748Y-125022809D01*
X175490749Y-125022809D01*
X175514705Y-125032731D01*
X175596501Y-125066613D01*
X175729087Y-125092986D01*
X175729090Y-125092987D01*
X175729092Y-125092987D01*
X175864284Y-125092987D01*
X175864285Y-125092986D01*
X175996873Y-125066613D01*
X176121772Y-125014878D01*
X176234178Y-124939771D01*
X176282319Y-124891628D01*
X176310574Y-124870479D01*
X176310635Y-124870446D01*
X176320499Y-124865060D01*
X176388772Y-124850210D01*
X176454236Y-124874630D01*
X176496103Y-124930559D01*
X176498849Y-124937921D01*
X176506667Y-124980701D01*
X176551174Y-134927794D01*
X176546306Y-134962754D01*
X176539010Y-134988017D01*
X176507913Y-135040939D01*
X176347372Y-135202779D01*
X176328978Y-135216665D01*
X176319205Y-135224043D01*
X176296176Y-135236739D01*
X176236754Y-135252147D01*
X164150568Y-135295524D01*
X164115613Y-135290626D01*
X164100597Y-135286275D01*
X164041688Y-135248714D01*
X164034412Y-135240378D01*
X164010790Y-135199792D01*
X163997088Y-135160632D01*
X163997087Y-135160631D01*
X163997086Y-135160629D01*
X163996317Y-135158431D01*
X163994065Y-135154355D01*
X163851792Y-134858924D01*
X163749027Y-134695374D01*
X163673627Y-134575375D01*
X163673626Y-134575373D01*
X163464835Y-134313557D01*
X163228043Y-134076765D01*
X162966227Y-133867974D01*
X162684092Y-133690697D01*
X162683033Y-133690011D01*
X162682675Y-133689807D01*
X162380979Y-133544517D01*
X162380965Y-133544511D01*
X162064921Y-133433921D01*
X162064905Y-133433916D01*
X162064879Y-133433908D01*
X161879886Y-133391685D01*
X161812923Y-133376401D01*
X161812922Y-133376400D01*
X161739590Y-133359664D01*
X161738555Y-133359417D01*
X161738382Y-133359389D01*
X161405649Y-133321900D01*
X161405643Y-133321900D01*
X161405637Y-133321900D01*
X161070763Y-133321900D01*
X161070756Y-133321900D01*
X161070749Y-133321900D01*
X160738021Y-133359389D01*
X160737998Y-133359392D01*
X160737973Y-133359398D01*
X160411510Y-133433911D01*
X160411498Y-133433914D01*
X160411477Y-133433921D01*
X160095433Y-133544511D01*
X160095419Y-133544517D01*
X159793724Y-133689806D01*
X159510175Y-133867972D01*
X159248363Y-134076757D01*
X159011557Y-134313563D01*
X158802772Y-134575375D01*
X158624606Y-134858924D01*
X158479323Y-135160607D01*
X158479310Y-135160635D01*
X158479309Y-135160637D01*
X158459755Y-135216519D01*
X158443477Y-135247831D01*
X158434369Y-135260529D01*
X158379304Y-135303534D01*
X158379301Y-135303535D01*
X158368766Y-135307711D01*
X158323517Y-135316436D01*
X137627120Y-135390715D01*
X120603265Y-135451811D01*
X120603262Y-135451810D01*
X120603262Y-135451811D01*
X120568310Y-135446913D01*
X120553294Y-135442562D01*
X120494384Y-135405000D01*
X120487109Y-135396665D01*
X120463487Y-135356079D01*
X120437088Y-135280633D01*
X120437087Y-135280631D01*
X120291791Y-134978922D01*
X120259665Y-134927794D01*
X120113626Y-134695373D01*
X119904835Y-134433557D01*
X119668043Y-134196765D01*
X119406227Y-133987974D01*
X119215246Y-133867973D01*
X119124092Y-133810697D01*
X119123033Y-133810011D01*
X119122675Y-133809807D01*
X118820979Y-133664517D01*
X118820965Y-133664511D01*
X118504921Y-133553921D01*
X118504905Y-133553916D01*
X118504879Y-133553908D01*
X118319886Y-133511685D01*
X118252923Y-133496401D01*
X118252922Y-133496400D01*
X118179590Y-133479664D01*
X118178555Y-133479417D01*
X118178382Y-133479389D01*
X117845649Y-133441900D01*
X117845643Y-133441900D01*
X117845637Y-133441900D01*
X117510763Y-133441900D01*
X117510756Y-133441900D01*
X117510749Y-133441900D01*
X117178021Y-133479389D01*
X117177998Y-133479392D01*
X117177973Y-133479398D01*
X116851510Y-133553911D01*
X116851498Y-133553914D01*
X116851477Y-133553921D01*
X116535433Y-133664511D01*
X116535419Y-133664517D01*
X116233724Y-133809806D01*
X115950175Y-133987972D01*
X115688363Y-134196757D01*
X115451557Y-134433563D01*
X115242773Y-134695374D01*
X115064606Y-134978924D01*
X114919312Y-135280631D01*
X114919307Y-135280642D01*
X114887027Y-135372894D01*
X114870748Y-135404210D01*
X114861639Y-135416910D01*
X114806571Y-135459913D01*
X114796036Y-135464089D01*
X114750787Y-135472814D01*
X99025019Y-135529253D01*
X98990066Y-135524356D01*
X98964857Y-135517052D01*
X98911746Y-135485694D01*
X98890110Y-135464089D01*
X98751278Y-135325454D01*
X98730107Y-135297215D01*
X98726226Y-135290119D01*
X98717512Y-135274187D01*
X98702303Y-135214419D01*
X98710742Y-131315676D01*
X98711299Y-131058201D01*
X167093099Y-131058201D01*
X167119468Y-131190760D01*
X167119474Y-131190787D01*
X167171203Y-131315676D01*
X167171208Y-131315686D01*
X167246316Y-131428092D01*
X167246317Y-131428093D01*
X167246322Y-131428099D01*
X167341899Y-131523676D01*
X167341905Y-131523681D01*
X167341906Y-131523682D01*
X167454307Y-131598787D01*
X167454312Y-131598789D01*
X167454314Y-131598790D01*
X167454315Y-131598791D01*
X167579214Y-131650526D01*
X167711800Y-131676899D01*
X167711803Y-131676900D01*
X167711805Y-131676900D01*
X167846997Y-131676900D01*
X167846998Y-131676899D01*
X167979586Y-131650526D01*
X168104485Y-131598791D01*
X168216891Y-131523684D01*
X168312484Y-131428091D01*
X168387591Y-131315685D01*
X168439326Y-131190786D01*
X168465700Y-131058195D01*
X168465700Y-130923005D01*
X168465700Y-130923002D01*
X168465700Y-130922820D01*
X168465265Y-130920819D01*
X168439987Y-130793741D01*
X168439572Y-130791314D01*
X168439327Y-130790419D01*
X168439326Y-130790417D01*
X168439326Y-130790414D01*
X168387591Y-130665515D01*
X168387590Y-130665514D01*
X168387587Y-130665508D01*
X168387587Y-130665507D01*
X168312482Y-130553106D01*
X168312481Y-130553105D01*
X168312476Y-130553099D01*
X168216899Y-130457522D01*
X168216893Y-130457517D01*
X168216892Y-130457516D01*
X168104485Y-130382408D01*
X168104486Y-130382408D01*
X168104476Y-130382403D01*
X167979587Y-130330674D01*
X167979560Y-130330668D01*
X167847000Y-130304300D01*
X167846998Y-130304300D01*
X167846995Y-130304300D01*
X167711805Y-130304300D01*
X167711802Y-130304300D01*
X167711800Y-130304300D01*
X167579238Y-130330668D01*
X167579211Y-130330674D01*
X167454322Y-130382403D01*
X167454312Y-130382408D01*
X167341906Y-130457516D01*
X167341905Y-130457517D01*
X167341899Y-130457522D01*
X167246322Y-130553099D01*
X167246317Y-130553105D01*
X167246316Y-130553106D01*
X167171208Y-130665512D01*
X167171203Y-130665522D01*
X167119474Y-130790411D01*
X167119468Y-130790438D01*
X167093100Y-130922997D01*
X167093100Y-130923000D01*
X167093100Y-131058199D01*
X167093100Y-131058201D01*
X167093099Y-131058201D01*
X98711299Y-131058201D01*
X98711606Y-130916640D01*
X98713379Y-130097601D01*
X165573699Y-130097601D01*
X165600068Y-130230160D01*
X165600074Y-130230187D01*
X165651803Y-130355076D01*
X165651808Y-130355086D01*
X165726916Y-130467492D01*
X165726917Y-130467493D01*
X165726922Y-130467499D01*
X165822499Y-130563076D01*
X165822505Y-130563081D01*
X165822506Y-130563082D01*
X165934907Y-130638187D01*
X165934912Y-130638189D01*
X165934914Y-130638190D01*
X165934915Y-130638191D01*
X166059814Y-130689926D01*
X166192400Y-130716299D01*
X166192403Y-130716300D01*
X166192405Y-130716300D01*
X166327597Y-130716300D01*
X166327598Y-130716299D01*
X166460186Y-130689926D01*
X166585085Y-130638191D01*
X166697491Y-130563084D01*
X166793084Y-130467491D01*
X166868191Y-130355085D01*
X166919926Y-130230186D01*
X166946300Y-130097595D01*
X166946300Y-129962405D01*
X166946300Y-129962402D01*
X166946300Y-129962220D01*
X166945865Y-129960219D01*
X166932989Y-129895487D01*
X166920584Y-129833126D01*
X166920172Y-129830714D01*
X166919927Y-129829819D01*
X166919926Y-129829817D01*
X166919926Y-129829814D01*
X166868191Y-129704915D01*
X166868190Y-129704914D01*
X166868187Y-129704908D01*
X166868187Y-129704907D01*
X166793082Y-129592506D01*
X166793081Y-129592505D01*
X166793076Y-129592499D01*
X166697499Y-129496922D01*
X166697493Y-129496917D01*
X166697492Y-129496916D01*
X166585085Y-129421808D01*
X166585086Y-129421808D01*
X166585076Y-129421803D01*
X166460187Y-129370074D01*
X166460160Y-129370068D01*
X166327600Y-129343700D01*
X166327598Y-129343700D01*
X166327595Y-129343700D01*
X166192405Y-129343700D01*
X166192402Y-129343700D01*
X166192400Y-129343700D01*
X166059838Y-129370068D01*
X166059811Y-129370074D01*
X165934922Y-129421803D01*
X165934912Y-129421808D01*
X165822506Y-129496916D01*
X165822505Y-129496917D01*
X165822499Y-129496922D01*
X165726922Y-129592499D01*
X165726917Y-129592505D01*
X165726916Y-129592506D01*
X165651808Y-129704912D01*
X165651803Y-129704922D01*
X165600074Y-129829811D01*
X165600068Y-129829838D01*
X165573700Y-129962397D01*
X165573700Y-129962400D01*
X165573700Y-130097599D01*
X165573700Y-130097601D01*
X165573699Y-130097601D01*
X98713379Y-130097601D01*
X98713685Y-129956040D01*
X98714148Y-129742263D01*
X98715155Y-129276788D01*
X170772886Y-129276788D01*
X170799255Y-129409347D01*
X170799261Y-129409374D01*
X170850990Y-129534263D01*
X170850995Y-129534273D01*
X170926103Y-129646679D01*
X170926104Y-129646680D01*
X170926109Y-129646686D01*
X171021686Y-129742263D01*
X171021692Y-129742268D01*
X171021693Y-129742269D01*
X171134094Y-129817374D01*
X171134099Y-129817376D01*
X171134101Y-129817377D01*
X171134102Y-129817378D01*
X171259001Y-129869113D01*
X171391587Y-129895486D01*
X171391590Y-129895487D01*
X171391592Y-129895487D01*
X171526784Y-129895487D01*
X171526785Y-129895486D01*
X171659373Y-129869113D01*
X171784272Y-129817378D01*
X171896678Y-129742271D01*
X171992271Y-129646678D01*
X172067378Y-129534272D01*
X172119113Y-129409373D01*
X172145487Y-129276782D01*
X172145487Y-129141592D01*
X172145487Y-129141589D01*
X172145487Y-129141406D01*
X172145051Y-129139401D01*
X172125259Y-129039900D01*
X172120084Y-129013883D01*
X172120076Y-129013844D01*
X172119115Y-129009011D01*
X172119114Y-129009008D01*
X172119113Y-129009001D01*
X172067378Y-128884102D01*
X172067377Y-128884101D01*
X172067374Y-128884095D01*
X172067374Y-128884094D01*
X171992269Y-128771693D01*
X171992268Y-128771692D01*
X171992263Y-128771686D01*
X171896686Y-128676109D01*
X171896680Y-128676104D01*
X171896679Y-128676103D01*
X171784272Y-128600995D01*
X171784273Y-128600995D01*
X171784263Y-128600990D01*
X171659374Y-128549261D01*
X171659347Y-128549255D01*
X171526787Y-128522887D01*
X171526785Y-128522887D01*
X171526782Y-128522887D01*
X171391592Y-128522887D01*
X171391589Y-128522887D01*
X171391587Y-128522887D01*
X171259025Y-128549255D01*
X171258998Y-128549261D01*
X171134109Y-128600990D01*
X171134099Y-128600995D01*
X171021693Y-128676103D01*
X171021692Y-128676104D01*
X171021686Y-128676109D01*
X170926109Y-128771686D01*
X170926104Y-128771692D01*
X170926103Y-128771693D01*
X170850995Y-128884099D01*
X170850990Y-128884109D01*
X170799261Y-129008998D01*
X170799255Y-129009025D01*
X170772887Y-129141584D01*
X170772887Y-129141587D01*
X170772887Y-129276786D01*
X170772887Y-129276788D01*
X170772886Y-129276788D01*
X98715155Y-129276788D01*
X98717055Y-128399075D01*
X165581637Y-128399075D01*
X165613085Y-128557168D01*
X165613086Y-128557174D01*
X165613093Y-128557195D01*
X165664457Y-128681202D01*
X165664462Y-128681212D01*
X165739045Y-128792832D01*
X165739046Y-128792833D01*
X165739051Y-128792839D01*
X165833959Y-128887747D01*
X165833965Y-128887752D01*
X165833966Y-128887753D01*
X165939238Y-128958095D01*
X165939241Y-128958096D01*
X165945582Y-128962333D01*
X165945588Y-128962336D01*
X165945589Y-128962337D01*
X166064655Y-129011656D01*
X166065250Y-129011910D01*
X166065436Y-129012063D01*
X166068413Y-129013471D01*
X166069618Y-129013710D01*
X166069619Y-129013711D01*
X166087901Y-129017347D01*
X166201272Y-129039900D01*
X166335524Y-129039900D01*
X166335526Y-129039900D01*
X166410010Y-129025083D01*
X166466318Y-129013883D01*
X166466868Y-129013773D01*
X166467186Y-129013710D01*
X166591211Y-128962337D01*
X166702831Y-128887755D01*
X166797755Y-128792831D01*
X166872337Y-128681211D01*
X166923710Y-128557186D01*
X166949900Y-128425522D01*
X166949900Y-128291278D01*
X166949900Y-128291275D01*
X166949900Y-128291272D01*
X166923713Y-128159631D01*
X166923711Y-128159619D01*
X166923710Y-128159618D01*
X166923710Y-128159614D01*
X166923709Y-128159612D01*
X166923502Y-128158570D01*
X166921910Y-128155250D01*
X166921656Y-128154655D01*
X166872337Y-128035589D01*
X166872336Y-128035588D01*
X166872333Y-128035582D01*
X166868096Y-128029241D01*
X166868095Y-128029238D01*
X166797753Y-127923966D01*
X166797752Y-127923965D01*
X166797747Y-127923959D01*
X166702839Y-127829051D01*
X166702833Y-127829046D01*
X166702832Y-127829045D01*
X166591211Y-127754462D01*
X166591212Y-127754462D01*
X166591202Y-127754457D01*
X166467195Y-127703093D01*
X166467175Y-127703086D01*
X166467167Y-127703084D01*
X166335527Y-127676900D01*
X166335524Y-127676900D01*
X166335522Y-127676900D01*
X166201278Y-127676900D01*
X166201276Y-127676900D01*
X166201271Y-127676900D01*
X166069630Y-127703084D01*
X166069623Y-127703086D01*
X166069603Y-127703093D01*
X165945596Y-127754457D01*
X165945586Y-127754462D01*
X165833966Y-127829045D01*
X165833965Y-127829046D01*
X165833959Y-127829051D01*
X165739051Y-127923959D01*
X165739046Y-127923965D01*
X165739045Y-127923966D01*
X165664462Y-128035586D01*
X165664457Y-128035596D01*
X165613093Y-128159603D01*
X165613086Y-128159623D01*
X165613084Y-128159631D01*
X165586900Y-128291270D01*
X165586900Y-128381155D01*
X165581637Y-128399075D01*
X98717055Y-128399075D01*
X98720500Y-126807075D01*
X172947637Y-126807075D01*
X172979085Y-126965168D01*
X172979086Y-126965174D01*
X172979093Y-126965195D01*
X173030457Y-127089202D01*
X173030462Y-127089212D01*
X173105045Y-127200832D01*
X173105046Y-127200833D01*
X173105051Y-127200839D01*
X173199959Y-127295747D01*
X173199965Y-127295752D01*
X173199966Y-127295753D01*
X173305238Y-127366095D01*
X173305241Y-127366096D01*
X173311582Y-127370333D01*
X173311588Y-127370336D01*
X173311589Y-127370337D01*
X173430655Y-127419656D01*
X173431250Y-127419910D01*
X173431436Y-127420063D01*
X173434413Y-127421471D01*
X173567272Y-127447900D01*
X173701524Y-127447900D01*
X173701525Y-127447900D01*
X173716286Y-127444963D01*
X173790099Y-127430280D01*
X173790100Y-127430280D01*
X173798763Y-127428556D01*
X173833186Y-127421710D01*
X173957211Y-127370337D01*
X174068831Y-127295755D01*
X174163755Y-127200831D01*
X174238337Y-127089211D01*
X174289710Y-126965186D01*
X174315900Y-126833522D01*
X174315900Y-126699278D01*
X174315900Y-126699275D01*
X174315900Y-126699272D01*
X174289713Y-126567631D01*
X174289711Y-126567619D01*
X174289710Y-126567618D01*
X174289710Y-126567614D01*
X174289709Y-126567612D01*
X174289502Y-126566570D01*
X174287910Y-126563250D01*
X174287656Y-126562655D01*
X174238337Y-126443589D01*
X174238336Y-126443588D01*
X174238333Y-126443582D01*
X174234096Y-126437241D01*
X174234095Y-126437238D01*
X174163753Y-126331966D01*
X174163752Y-126331965D01*
X174163747Y-126331959D01*
X174068839Y-126237051D01*
X174068833Y-126237046D01*
X174068832Y-126237045D01*
X173957211Y-126162462D01*
X173957212Y-126162462D01*
X173957202Y-126162457D01*
X173833195Y-126111093D01*
X173833175Y-126111086D01*
X173833167Y-126111084D01*
X173701527Y-126084900D01*
X173701524Y-126084900D01*
X173701522Y-126084900D01*
X173567278Y-126084900D01*
X173567276Y-126084900D01*
X173567271Y-126084900D01*
X173435630Y-126111084D01*
X173435623Y-126111086D01*
X173435603Y-126111093D01*
X173311596Y-126162457D01*
X173311586Y-126162462D01*
X173199966Y-126237045D01*
X173199965Y-126237046D01*
X173199959Y-126237051D01*
X173105051Y-126331959D01*
X173105046Y-126331965D01*
X173105045Y-126331966D01*
X173030462Y-126443586D01*
X173030457Y-126443596D01*
X172979093Y-126567603D01*
X172979086Y-126567623D01*
X172979084Y-126567631D01*
X172952900Y-126699270D01*
X172952900Y-126789155D01*
X172947637Y-126807075D01*
X98720500Y-126807075D01*
X98723348Y-125491275D01*
X134400236Y-125491275D01*
X134431684Y-125649368D01*
X134431685Y-125649374D01*
X134431692Y-125649395D01*
X134483056Y-125773402D01*
X134483061Y-125773412D01*
X134557644Y-125885032D01*
X134557645Y-125885033D01*
X134557650Y-125885039D01*
X134652558Y-125979947D01*
X134652564Y-125979952D01*
X134652565Y-125979953D01*
X134764183Y-126054535D01*
X134764189Y-126054537D01*
X134764190Y-126054538D01*
X134792285Y-126066175D01*
X134882608Y-126103588D01*
X134887012Y-126105671D01*
X135019871Y-126132100D01*
X135154123Y-126132100D01*
X135154124Y-126132100D01*
X135168885Y-126129163D01*
X135242698Y-126114480D01*
X135242699Y-126114480D01*
X135251362Y-126112756D01*
X135285785Y-126105910D01*
X135408427Y-126055110D01*
X135409803Y-126054540D01*
X135409803Y-126054539D01*
X135409810Y-126054537D01*
X135521430Y-125979955D01*
X135616354Y-125885031D01*
X135690936Y-125773411D01*
X135742309Y-125649386D01*
X135752416Y-125598574D01*
X135768499Y-125517724D01*
X135768499Y-125440475D01*
X152640837Y-125440475D01*
X152672285Y-125598568D01*
X152672286Y-125598574D01*
X152672293Y-125598595D01*
X152723657Y-125722602D01*
X152723662Y-125722612D01*
X152798245Y-125834232D01*
X152798246Y-125834233D01*
X152798251Y-125834239D01*
X152893159Y-125929147D01*
X152893165Y-125929152D01*
X152893166Y-125929153D01*
X152998438Y-125999495D01*
X152998441Y-125999496D01*
X153004782Y-126003733D01*
X153004788Y-126003736D01*
X153004789Y-126003737D01*
X153123855Y-126053056D01*
X153124450Y-126053310D01*
X153124636Y-126053463D01*
X153127613Y-126054871D01*
X153260472Y-126081300D01*
X153394724Y-126081300D01*
X153394725Y-126081300D01*
X153409486Y-126078363D01*
X153483299Y-126063680D01*
X153483300Y-126063680D01*
X153491963Y-126061956D01*
X153526386Y-126055110D01*
X153650411Y-126003737D01*
X153762031Y-125929155D01*
X153856955Y-125834231D01*
X153931537Y-125722611D01*
X153982910Y-125598586D01*
X154005678Y-125484127D01*
X154009100Y-125466924D01*
X154009100Y-125332672D01*
X153991899Y-125246202D01*
X153982911Y-125201019D01*
X153982910Y-125201018D01*
X153982910Y-125201014D01*
X153982909Y-125201012D01*
X153982702Y-125199970D01*
X153981110Y-125196650D01*
X153980856Y-125196055D01*
X153931537Y-125076989D01*
X153931536Y-125076988D01*
X153931533Y-125076982D01*
X153927296Y-125070641D01*
X153927295Y-125070638D01*
X153856953Y-124965366D01*
X153856952Y-124965365D01*
X153856947Y-124965359D01*
X153762039Y-124870451D01*
X153762033Y-124870446D01*
X153762032Y-124870445D01*
X153650411Y-124795862D01*
X153650412Y-124795862D01*
X153650402Y-124795857D01*
X153526395Y-124744493D01*
X153526375Y-124744486D01*
X153526367Y-124744484D01*
X153394727Y-124718300D01*
X153394724Y-124718300D01*
X153394722Y-124718300D01*
X153260478Y-124718300D01*
X153260476Y-124718300D01*
X153260471Y-124718300D01*
X153128830Y-124744484D01*
X153128823Y-124744486D01*
X153128803Y-124744493D01*
X153004796Y-124795857D01*
X153004786Y-124795862D01*
X152893166Y-124870445D01*
X152893165Y-124870446D01*
X152893159Y-124870451D01*
X152798251Y-124965359D01*
X152798246Y-124965365D01*
X152798245Y-124965366D01*
X152723662Y-125076986D01*
X152723657Y-125076996D01*
X152672293Y-125201003D01*
X152672286Y-125201023D01*
X152672284Y-125201031D01*
X152646100Y-125332670D01*
X152646100Y-125422555D01*
X152640837Y-125440475D01*
X135768499Y-125440475D01*
X135768499Y-125435875D01*
X135768499Y-125383478D01*
X135768499Y-125383475D01*
X135768498Y-125383473D01*
X135761995Y-125350777D01*
X135742310Y-125251819D01*
X135742309Y-125251818D01*
X135742070Y-125250613D01*
X135739984Y-125246202D01*
X135733004Y-125229352D01*
X135702574Y-125155886D01*
X135690937Y-125127791D01*
X135690936Y-125127790D01*
X135690934Y-125127784D01*
X135616352Y-125016166D01*
X135616351Y-125016165D01*
X135616346Y-125016159D01*
X135521438Y-124921251D01*
X135521432Y-124921246D01*
X135521431Y-124921245D01*
X135409810Y-124846662D01*
X135409811Y-124846662D01*
X135409801Y-124846657D01*
X135285794Y-124795293D01*
X135285774Y-124795286D01*
X135285766Y-124795284D01*
X135154126Y-124769100D01*
X135154123Y-124769100D01*
X135154121Y-124769100D01*
X135019877Y-124769100D01*
X135019875Y-124769100D01*
X135019870Y-124769100D01*
X134888229Y-124795284D01*
X134888222Y-124795286D01*
X134888202Y-124795293D01*
X134764195Y-124846657D01*
X134764185Y-124846662D01*
X134652565Y-124921245D01*
X134652564Y-124921246D01*
X134652558Y-124921251D01*
X134557650Y-125016159D01*
X134557645Y-125016165D01*
X134557644Y-125016166D01*
X134483061Y-125127786D01*
X134483056Y-125127796D01*
X134431692Y-125251803D01*
X134431685Y-125251823D01*
X134431683Y-125251831D01*
X134405499Y-125383470D01*
X134405499Y-125473355D01*
X134400236Y-125491275D01*
X98723348Y-125491275D01*
X98726319Y-124118769D01*
X98726514Y-124117438D01*
X98731418Y-124083846D01*
X98732934Y-124078725D01*
X98738886Y-124058615D01*
X98770258Y-124005977D01*
X98885184Y-123891450D01*
X98932036Y-123844759D01*
X98960321Y-123823662D01*
X98983443Y-123811089D01*
X99042833Y-123796027D01*
X115708310Y-123817798D01*
X132689600Y-123839981D01*
X132689600Y-121732075D01*
X140359437Y-121732075D01*
X140390885Y-121890168D01*
X140390886Y-121890174D01*
X140390893Y-121890195D01*
X140442257Y-122014202D01*
X140442262Y-122014212D01*
X140516845Y-122125832D01*
X140516846Y-122125833D01*
X140516851Y-122125839D01*
X140611759Y-122220747D01*
X140611765Y-122220752D01*
X140611766Y-122220753D01*
X140717038Y-122291095D01*
X140717041Y-122291096D01*
X140723382Y-122295333D01*
X140723388Y-122295336D01*
X140723389Y-122295337D01*
X140842455Y-122344656D01*
X140843050Y-122344910D01*
X140843236Y-122345063D01*
X140846213Y-122346471D01*
X140847418Y-122346710D01*
X140847419Y-122346711D01*
X140865701Y-122350347D01*
X140979072Y-122372900D01*
X141113324Y-122372900D01*
X141113325Y-122372900D01*
X141134605Y-122368666D01*
X141241014Y-122347500D01*
X141244986Y-122346710D01*
X141369011Y-122295337D01*
X141480631Y-122220755D01*
X141575555Y-122125831D01*
X141650137Y-122014211D01*
X141701510Y-121890186D01*
X141719980Y-121797333D01*
X141727700Y-121758524D01*
X141727700Y-121624275D01*
X141727700Y-121624272D01*
X141701513Y-121492631D01*
X141701511Y-121492619D01*
X141701510Y-121492618D01*
X141701510Y-121492614D01*
X141701509Y-121492612D01*
X141701302Y-121491570D01*
X141699710Y-121488250D01*
X141699456Y-121487655D01*
X141650137Y-121368589D01*
X141650136Y-121368588D01*
X141650133Y-121368582D01*
X141645896Y-121362241D01*
X141645895Y-121362238D01*
X141575553Y-121256966D01*
X141575552Y-121256965D01*
X141575547Y-121256959D01*
X141480639Y-121162051D01*
X141480633Y-121162046D01*
X141480632Y-121162045D01*
X141369011Y-121087462D01*
X141369012Y-121087462D01*
X141369002Y-121087457D01*
X141244995Y-121036093D01*
X141244975Y-121036086D01*
X141244967Y-121036084D01*
X141113327Y-121009900D01*
X141113324Y-121009900D01*
X141113322Y-121009900D01*
X140979078Y-121009900D01*
X140979076Y-121009900D01*
X140979071Y-121009900D01*
X140847430Y-121036084D01*
X140847423Y-121036086D01*
X140847403Y-121036093D01*
X140723396Y-121087457D01*
X140723386Y-121087462D01*
X140611766Y-121162045D01*
X140611765Y-121162046D01*
X140611759Y-121162051D01*
X140516851Y-121256959D01*
X140516846Y-121256965D01*
X140516845Y-121256966D01*
X140442262Y-121368586D01*
X140442257Y-121368596D01*
X140390893Y-121492603D01*
X140390886Y-121492623D01*
X140390884Y-121492631D01*
X140364700Y-121624270D01*
X140364700Y-121714155D01*
X140359437Y-121732075D01*
X132689600Y-121732075D01*
X132689600Y-114691325D01*
X142208687Y-114691325D01*
X142240135Y-114849418D01*
X142240136Y-114849424D01*
X142240143Y-114849445D01*
X142291507Y-114973452D01*
X142291512Y-114973462D01*
X142366095Y-115085082D01*
X142366096Y-115085083D01*
X142366101Y-115085089D01*
X142461009Y-115179997D01*
X142461015Y-115180002D01*
X142461016Y-115180003D01*
X142566288Y-115250345D01*
X142566291Y-115250346D01*
X142572632Y-115254583D01*
X142572638Y-115254586D01*
X142572639Y-115254587D01*
X142691705Y-115303906D01*
X142692300Y-115304160D01*
X142692486Y-115304313D01*
X142695463Y-115305721D01*
X142828322Y-115332150D01*
X142962574Y-115332150D01*
X142962575Y-115332150D01*
X143008195Y-115323075D01*
X143053817Y-115314000D01*
X143053818Y-115314000D01*
X143063989Y-115311976D01*
X143094236Y-115305960D01*
X143218261Y-115254587D01*
X143329881Y-115180005D01*
X143424805Y-115085081D01*
X143499387Y-114973461D01*
X143550760Y-114849436D01*
X143576950Y-114717772D01*
X143576950Y-114673175D01*
X143876837Y-114673175D01*
X143908285Y-114831268D01*
X143908286Y-114831274D01*
X143908293Y-114831295D01*
X143959657Y-114955302D01*
X143959662Y-114955312D01*
X144034245Y-115066932D01*
X144034246Y-115066933D01*
X144034251Y-115066939D01*
X144129159Y-115161847D01*
X144129165Y-115161852D01*
X144129166Y-115161853D01*
X144234438Y-115232195D01*
X144234441Y-115232196D01*
X144240782Y-115236433D01*
X144240788Y-115236436D01*
X144240789Y-115236437D01*
X144359855Y-115285756D01*
X144360450Y-115286010D01*
X144360636Y-115286163D01*
X144363613Y-115287571D01*
X144496472Y-115314000D01*
X144630724Y-115314000D01*
X144630725Y-115314000D01*
X144645486Y-115311063D01*
X144719299Y-115296380D01*
X144719300Y-115296380D01*
X144727963Y-115294656D01*
X144762386Y-115287810D01*
X144886411Y-115236437D01*
X144998031Y-115161855D01*
X145092955Y-115066931D01*
X145167537Y-114955311D01*
X145218910Y-114831286D01*
X145238305Y-114733783D01*
X145245100Y-114699624D01*
X145245100Y-114565375D01*
X145245100Y-114565372D01*
X145218913Y-114433731D01*
X145218911Y-114433719D01*
X145218910Y-114433718D01*
X145218910Y-114433714D01*
X145218909Y-114433712D01*
X145218702Y-114432670D01*
X145217110Y-114429350D01*
X145216856Y-114428755D01*
X145167537Y-114309689D01*
X145167536Y-114309688D01*
X145167533Y-114309682D01*
X145163296Y-114303341D01*
X145163295Y-114303338D01*
X145092953Y-114198066D01*
X145092952Y-114198065D01*
X145092947Y-114198059D01*
X144998039Y-114103151D01*
X144998033Y-114103146D01*
X144998032Y-114103145D01*
X144886411Y-114028562D01*
X144886412Y-114028562D01*
X144886402Y-114028557D01*
X144762395Y-113977193D01*
X144762375Y-113977186D01*
X144762367Y-113977184D01*
X144630727Y-113951000D01*
X144630724Y-113951000D01*
X144630722Y-113951000D01*
X144496478Y-113951000D01*
X144496476Y-113951000D01*
X144496471Y-113951000D01*
X144364830Y-113977184D01*
X144364823Y-113977186D01*
X144364803Y-113977193D01*
X144240796Y-114028557D01*
X144240786Y-114028562D01*
X144129166Y-114103145D01*
X144129165Y-114103146D01*
X144129159Y-114103151D01*
X144034251Y-114198059D01*
X144034246Y-114198065D01*
X144034245Y-114198066D01*
X143959662Y-114309686D01*
X143959657Y-114309696D01*
X143908293Y-114433703D01*
X143908286Y-114433723D01*
X143908284Y-114433731D01*
X143882100Y-114565370D01*
X143882100Y-114655255D01*
X143876837Y-114673175D01*
X143576950Y-114673175D01*
X143576950Y-114583528D01*
X143576950Y-114583525D01*
X143576950Y-114583342D01*
X143576523Y-114581379D01*
X143573339Y-114565375D01*
X143550761Y-114451869D01*
X143550760Y-114451868D01*
X143550760Y-114451864D01*
X143550759Y-114451862D01*
X143550552Y-114450820D01*
X143548960Y-114447500D01*
X143548706Y-114446905D01*
X143499387Y-114327839D01*
X143499386Y-114327838D01*
X143499383Y-114327832D01*
X143495146Y-114321491D01*
X143495145Y-114321488D01*
X143424803Y-114216216D01*
X143424802Y-114216215D01*
X143424797Y-114216209D01*
X143329889Y-114121301D01*
X143329883Y-114121296D01*
X143329882Y-114121295D01*
X143218261Y-114046712D01*
X143218262Y-114046712D01*
X143218252Y-114046707D01*
X143094245Y-113995343D01*
X143094225Y-113995336D01*
X143094217Y-113995334D01*
X142962577Y-113969150D01*
X142962574Y-113969150D01*
X142962572Y-113969150D01*
X142828328Y-113969150D01*
X142828326Y-113969150D01*
X142828321Y-113969150D01*
X142696680Y-113995334D01*
X142696673Y-113995336D01*
X142696653Y-113995343D01*
X142572646Y-114046707D01*
X142572636Y-114046712D01*
X142461016Y-114121295D01*
X142461015Y-114121296D01*
X142461009Y-114121301D01*
X142366101Y-114216209D01*
X142366096Y-114216215D01*
X142366095Y-114216216D01*
X142291512Y-114327836D01*
X142291507Y-114327846D01*
X142240143Y-114451853D01*
X142240136Y-114451873D01*
X142240134Y-114451881D01*
X142213950Y-114583520D01*
X142213950Y-114673405D01*
X142208687Y-114691325D01*
X132689600Y-114691325D01*
X132689600Y-112295975D01*
X140880137Y-112295975D01*
X140911585Y-112454068D01*
X140911586Y-112454074D01*
X140911593Y-112454095D01*
X140962957Y-112578102D01*
X140962962Y-112578112D01*
X141037545Y-112689732D01*
X141037546Y-112689733D01*
X141037551Y-112689739D01*
X141132459Y-112784647D01*
X141132465Y-112784652D01*
X141132466Y-112784653D01*
X141237738Y-112854995D01*
X141237741Y-112854996D01*
X141244082Y-112859233D01*
X141244088Y-112859236D01*
X141244089Y-112859237D01*
X141363155Y-112908556D01*
X141363750Y-112908810D01*
X141363936Y-112908963D01*
X141366913Y-112910371D01*
X141499772Y-112936800D01*
X141634024Y-112936800D01*
X141634025Y-112936800D01*
X141648786Y-112933863D01*
X141722599Y-112919180D01*
X141722600Y-112919180D01*
X141731263Y-112917456D01*
X141765686Y-112910610D01*
X141889711Y-112859237D01*
X142001331Y-112784655D01*
X142096255Y-112689731D01*
X142170837Y-112578111D01*
X142222210Y-112454086D01*
X142227093Y-112429535D01*
X142230780Y-112411002D01*
X142230780Y-112410999D01*
X142248400Y-112322424D01*
X142248400Y-112188175D01*
X142248400Y-112188172D01*
X142221971Y-112055310D01*
X142219885Y-112050899D01*
X142175384Y-111943464D01*
X142175384Y-111943465D01*
X142170836Y-111932486D01*
X142096253Y-111820866D01*
X142096252Y-111820865D01*
X142096247Y-111820859D01*
X142001339Y-111725951D01*
X142001333Y-111725946D01*
X142001332Y-111725945D01*
X141889711Y-111651362D01*
X141889712Y-111651362D01*
X141889702Y-111651357D01*
X141765695Y-111599993D01*
X141765675Y-111599986D01*
X141765667Y-111599984D01*
X141634027Y-111573800D01*
X141634024Y-111573800D01*
X141634022Y-111573800D01*
X141499778Y-111573800D01*
X141499776Y-111573800D01*
X141499771Y-111573800D01*
X141368130Y-111599984D01*
X141368123Y-111599986D01*
X141368103Y-111599993D01*
X141244096Y-111651357D01*
X141244086Y-111651362D01*
X141132466Y-111725945D01*
X141132465Y-111725946D01*
X141132459Y-111725951D01*
X141037551Y-111820859D01*
X141037546Y-111820865D01*
X141037545Y-111820866D01*
X140962962Y-111932486D01*
X140962957Y-111932496D01*
X140911593Y-112056503D01*
X140911586Y-112056523D01*
X140911584Y-112056531D01*
X140885400Y-112188170D01*
X140885400Y-112278055D01*
X140880137Y-112295975D01*
X132689600Y-112295975D01*
X132689600Y-102407475D01*
X135652237Y-102407475D01*
X135683685Y-102565568D01*
X135683686Y-102565574D01*
X135683693Y-102565595D01*
X135735057Y-102689602D01*
X135735062Y-102689612D01*
X135809645Y-102801232D01*
X135809646Y-102801233D01*
X135809651Y-102801239D01*
X135904559Y-102896147D01*
X135904565Y-102896152D01*
X135904566Y-102896153D01*
X136009838Y-102966495D01*
X136009841Y-102966496D01*
X136016182Y-102970733D01*
X136016188Y-102970736D01*
X136016189Y-102970737D01*
X136135255Y-103020056D01*
X136135850Y-103020310D01*
X136136036Y-103020463D01*
X136139013Y-103021871D01*
X136271872Y-103048300D01*
X136406124Y-103048300D01*
X136406125Y-103048300D01*
X136420886Y-103045363D01*
X136494699Y-103030680D01*
X136494700Y-103030680D01*
X136503363Y-103028956D01*
X136537786Y-103022110D01*
X136661811Y-102970737D01*
X136773431Y-102896155D01*
X136868355Y-102801231D01*
X136942937Y-102689611D01*
X136994310Y-102565586D01*
X137020500Y-102433922D01*
X137020500Y-102299678D01*
X137020500Y-102299675D01*
X137020500Y-102299672D01*
X136994313Y-102168031D01*
X136994311Y-102168019D01*
X136994310Y-102168018D01*
X136994310Y-102168014D01*
X136994309Y-102168012D01*
X136994102Y-102166970D01*
X136992510Y-102163650D01*
X136992256Y-102163055D01*
X136942937Y-102043989D01*
X136942936Y-102043988D01*
X136942933Y-102043982D01*
X136938696Y-102037641D01*
X136938695Y-102037638D01*
X136868353Y-101932366D01*
X136868352Y-101932365D01*
X136868347Y-101932359D01*
X136773439Y-101837451D01*
X136773433Y-101837446D01*
X136773432Y-101837445D01*
X136661811Y-101762862D01*
X136661812Y-101762862D01*
X136661802Y-101762857D01*
X136537795Y-101711493D01*
X136537775Y-101711486D01*
X136537767Y-101711484D01*
X136406127Y-101685300D01*
X136406124Y-101685300D01*
X136406122Y-101685300D01*
X136271878Y-101685300D01*
X136271876Y-101685300D01*
X136271871Y-101685300D01*
X136140230Y-101711484D01*
X136140223Y-101711486D01*
X136140203Y-101711493D01*
X136016196Y-101762857D01*
X136016186Y-101762862D01*
X135904566Y-101837445D01*
X135904565Y-101837446D01*
X135904559Y-101837451D01*
X135809651Y-101932359D01*
X135809646Y-101932365D01*
X135809645Y-101932366D01*
X135735062Y-102043986D01*
X135735057Y-102043996D01*
X135683693Y-102168003D01*
X135683686Y-102168023D01*
X135683684Y-102168031D01*
X135657500Y-102299670D01*
X135657500Y-102389555D01*
X135652237Y-102407475D01*
X132689600Y-102407475D01*
X132689600Y-92490775D01*
X135703037Y-92490775D01*
X135734485Y-92648868D01*
X135734486Y-92648874D01*
X135734493Y-92648895D01*
X135785857Y-92772902D01*
X135785862Y-92772912D01*
X135860445Y-92884532D01*
X135860446Y-92884533D01*
X135860451Y-92884539D01*
X135955359Y-92979447D01*
X135955365Y-92979452D01*
X135955366Y-92979453D01*
X136060638Y-93049795D01*
X136060641Y-93049796D01*
X136066982Y-93054033D01*
X136066988Y-93054036D01*
X136066989Y-93054037D01*
X136186055Y-93103356D01*
X136186650Y-93103610D01*
X136186836Y-93103763D01*
X136189813Y-93105171D01*
X136322672Y-93131600D01*
X136456924Y-93131600D01*
X136456925Y-93131600D01*
X136471686Y-93128663D01*
X136545499Y-93113980D01*
X136545500Y-93113980D01*
X136554163Y-93112256D01*
X136588586Y-93105410D01*
X136712611Y-93054037D01*
X136824231Y-92979455D01*
X136919155Y-92884531D01*
X136993737Y-92772911D01*
X137045110Y-92648886D01*
X137071300Y-92517222D01*
X137071300Y-92382978D01*
X137071300Y-92382975D01*
X137071300Y-92382972D01*
X137044871Y-92250110D01*
X137042786Y-92245702D01*
X137001813Y-92146786D01*
X137001812Y-92146784D01*
X136993736Y-92127287D01*
X136993736Y-92127286D01*
X136919153Y-92015666D01*
X136919152Y-92015665D01*
X136919147Y-92015659D01*
X136824239Y-91920751D01*
X136824233Y-91920746D01*
X136824232Y-91920745D01*
X136712611Y-91846162D01*
X136712612Y-91846162D01*
X136712602Y-91846157D01*
X136588595Y-91794793D01*
X136588575Y-91794786D01*
X136588567Y-91794784D01*
X136456927Y-91768600D01*
X136456924Y-91768600D01*
X136456922Y-91768600D01*
X136322678Y-91768600D01*
X136322676Y-91768600D01*
X136322671Y-91768600D01*
X136191030Y-91794784D01*
X136191023Y-91794786D01*
X136191003Y-91794793D01*
X136066996Y-91846157D01*
X136066986Y-91846162D01*
X135955366Y-91920745D01*
X135955365Y-91920746D01*
X135955359Y-91920751D01*
X135860451Y-92015659D01*
X135860446Y-92015665D01*
X135860445Y-92015666D01*
X135785862Y-92127286D01*
X135785857Y-92127296D01*
X135734493Y-92251303D01*
X135734486Y-92251323D01*
X135734484Y-92251331D01*
X135708300Y-92382970D01*
X135708300Y-92472855D01*
X135703037Y-92490775D01*
X132689600Y-92490775D01*
X132689600Y-78462675D01*
X144264837Y-78462675D01*
X144296285Y-78620768D01*
X144296286Y-78620774D01*
X144296293Y-78620795D01*
X144347657Y-78744802D01*
X144347662Y-78744812D01*
X144422245Y-78856432D01*
X144422246Y-78856433D01*
X144422251Y-78856439D01*
X144517159Y-78951347D01*
X144517165Y-78951352D01*
X144517166Y-78951353D01*
X144622438Y-79021695D01*
X144622441Y-79021696D01*
X144628782Y-79025933D01*
X144628788Y-79025936D01*
X144628789Y-79025937D01*
X144747855Y-79075256D01*
X144748450Y-79075510D01*
X144748636Y-79075663D01*
X144751613Y-79077071D01*
X144884472Y-79103500D01*
X145018724Y-79103500D01*
X145018725Y-79103500D01*
X145033486Y-79100563D01*
X145107299Y-79085880D01*
X145107300Y-79085880D01*
X145115963Y-79084156D01*
X145150386Y-79077310D01*
X145274411Y-79025937D01*
X145386031Y-78951355D01*
X145480955Y-78856431D01*
X145555537Y-78744811D01*
X145606910Y-78620786D01*
X145633100Y-78489122D01*
X145633100Y-78354878D01*
X145606910Y-78223214D01*
X145555537Y-78099189D01*
X145555536Y-78099188D01*
X145555533Y-78099182D01*
X145555533Y-78099181D01*
X145480953Y-77987566D01*
X145480952Y-77987565D01*
X145480947Y-77987559D01*
X145386039Y-77892651D01*
X145386033Y-77892646D01*
X145386032Y-77892645D01*
X145274411Y-77818062D01*
X145274412Y-77818062D01*
X145274402Y-77818057D01*
X145150395Y-77766693D01*
X145150375Y-77766686D01*
X145150367Y-77766684D01*
X145018727Y-77740500D01*
X145018724Y-77740500D01*
X145018722Y-77740500D01*
X144884478Y-77740500D01*
X144884476Y-77740500D01*
X144884471Y-77740500D01*
X144752830Y-77766684D01*
X144752823Y-77766686D01*
X144752803Y-77766693D01*
X144628796Y-77818057D01*
X144628786Y-77818062D01*
X144517166Y-77892645D01*
X144517165Y-77892646D01*
X144517159Y-77892651D01*
X144422251Y-77987559D01*
X144422246Y-77987565D01*
X144422245Y-77987566D01*
X144347662Y-78099186D01*
X144347657Y-78099196D01*
X144296293Y-78223203D01*
X144296286Y-78223223D01*
X144296284Y-78223231D01*
X144270100Y-78354870D01*
X144270100Y-78444755D01*
X144264837Y-78462675D01*
X132689600Y-78462675D01*
X132689600Y-75478675D01*
X139736637Y-75478675D01*
X139768085Y-75636768D01*
X139768086Y-75636774D01*
X139768093Y-75636795D01*
X139819457Y-75760802D01*
X139819462Y-75760812D01*
X139894045Y-75872432D01*
X139894046Y-75872433D01*
X139894051Y-75872439D01*
X139988959Y-75967347D01*
X139988965Y-75967352D01*
X139988966Y-75967353D01*
X140094238Y-76037695D01*
X140094241Y-76037696D01*
X140100582Y-76041933D01*
X140100588Y-76041936D01*
X140100589Y-76041937D01*
X140219655Y-76091256D01*
X140220250Y-76091510D01*
X140220436Y-76091663D01*
X140223413Y-76093071D01*
X140356272Y-76119500D01*
X140490524Y-76119500D01*
X140490525Y-76119500D01*
X140505286Y-76116563D01*
X140579099Y-76101880D01*
X140579100Y-76101880D01*
X140587763Y-76100156D01*
X140622186Y-76093310D01*
X140746211Y-76041937D01*
X140857831Y-75967355D01*
X140952755Y-75872431D01*
X141027337Y-75760811D01*
X141078710Y-75636786D01*
X141083690Y-75611747D01*
X141087280Y-75593702D01*
X141087280Y-75593699D01*
X141104900Y-75505124D01*
X141104900Y-75370875D01*
X141104900Y-75370872D01*
X141078471Y-75238013D01*
X141076385Y-75233602D01*
X141047409Y-75163648D01*
X141030603Y-75123075D01*
X144170437Y-75123075D01*
X144201885Y-75281168D01*
X144201886Y-75281174D01*
X144201893Y-75281195D01*
X144253257Y-75405202D01*
X144253262Y-75405212D01*
X144327845Y-75516832D01*
X144327846Y-75516833D01*
X144327851Y-75516839D01*
X144422759Y-75611747D01*
X144422765Y-75611752D01*
X144422766Y-75611753D01*
X144528038Y-75682095D01*
X144528041Y-75682096D01*
X144534382Y-75686333D01*
X144534388Y-75686336D01*
X144534389Y-75686337D01*
X144653455Y-75735656D01*
X144654050Y-75735910D01*
X144654236Y-75736063D01*
X144657213Y-75737471D01*
X144790072Y-75763900D01*
X144924324Y-75763900D01*
X144924325Y-75763900D01*
X144939887Y-75760804D01*
X145012899Y-75746280D01*
X145012900Y-75746280D01*
X145021563Y-75744556D01*
X145055986Y-75737710D01*
X145180011Y-75686337D01*
X145291631Y-75611755D01*
X145386555Y-75516831D01*
X145461137Y-75405211D01*
X145512510Y-75281186D01*
X145538700Y-75149522D01*
X145538700Y-75015278D01*
X145538700Y-75015275D01*
X145538700Y-75015272D01*
X145517490Y-74908651D01*
X145512511Y-74883619D01*
X145512510Y-74883618D01*
X145512510Y-74883614D01*
X145512509Y-74883612D01*
X145512302Y-74882570D01*
X145510710Y-74879250D01*
X145510456Y-74878655D01*
X145461137Y-74759589D01*
X145461136Y-74759588D01*
X145461133Y-74759582D01*
X145456896Y-74753241D01*
X145456895Y-74753238D01*
X145386553Y-74647966D01*
X145386552Y-74647965D01*
X145386547Y-74647959D01*
X145291639Y-74553051D01*
X145291633Y-74553046D01*
X145291632Y-74553045D01*
X145180011Y-74478462D01*
X145180012Y-74478462D01*
X145180002Y-74478457D01*
X145055995Y-74427093D01*
X145055975Y-74427086D01*
X145055967Y-74427084D01*
X144924327Y-74400900D01*
X144924324Y-74400900D01*
X144924322Y-74400900D01*
X144790078Y-74400900D01*
X144790076Y-74400900D01*
X144790071Y-74400900D01*
X144658430Y-74427084D01*
X144658423Y-74427086D01*
X144658403Y-74427093D01*
X144534396Y-74478457D01*
X144534386Y-74478462D01*
X144422766Y-74553045D01*
X144422765Y-74553046D01*
X144422759Y-74553051D01*
X144327851Y-74647959D01*
X144327846Y-74647965D01*
X144327845Y-74647966D01*
X144253262Y-74759586D01*
X144253257Y-74759596D01*
X144201893Y-74883603D01*
X144201886Y-74883623D01*
X144201884Y-74883631D01*
X144175700Y-75015270D01*
X144175700Y-75105155D01*
X144170437Y-75123075D01*
X141030603Y-75123075D01*
X141027337Y-75115191D01*
X141027337Y-75115189D01*
X141027336Y-75115188D01*
X141027335Y-75115186D01*
X141027335Y-75115185D01*
X141002540Y-75078077D01*
X140952753Y-75003566D01*
X140952752Y-75003565D01*
X140952747Y-75003559D01*
X140857839Y-74908651D01*
X140857833Y-74908646D01*
X140857832Y-74908645D01*
X140746211Y-74834062D01*
X140746212Y-74834062D01*
X140746202Y-74834057D01*
X140622195Y-74782693D01*
X140622175Y-74782686D01*
X140622167Y-74782684D01*
X140490527Y-74756500D01*
X140490524Y-74756500D01*
X140490522Y-74756500D01*
X140356278Y-74756500D01*
X140356276Y-74756500D01*
X140356271Y-74756500D01*
X140224630Y-74782684D01*
X140224623Y-74782686D01*
X140224603Y-74782693D01*
X140100596Y-74834057D01*
X140100586Y-74834062D01*
X139988966Y-74908645D01*
X139988965Y-74908646D01*
X139988959Y-74908651D01*
X139894051Y-75003559D01*
X139894046Y-75003565D01*
X139894045Y-75003566D01*
X139819462Y-75115186D01*
X139819457Y-75115196D01*
X139768093Y-75239203D01*
X139768086Y-75239223D01*
X139768084Y-75239231D01*
X139741900Y-75370870D01*
X139741900Y-75460755D01*
X139736637Y-75478675D01*
X132689600Y-75478675D01*
X132689600Y-70180200D01*
X123055992Y-70180200D01*
X123055991Y-70180199D01*
X123055991Y-70180200D01*
X123021056Y-70175177D01*
X122995814Y-70167765D01*
X122943069Y-70136469D01*
X122781726Y-69975126D01*
X122760574Y-69946870D01*
X122747967Y-69923781D01*
X122732800Y-69864356D01*
X122732800Y-68112675D01*
X130421736Y-68112675D01*
X130453184Y-68270768D01*
X130453185Y-68270774D01*
X130453192Y-68270795D01*
X130504556Y-68394802D01*
X130504561Y-68394812D01*
X130579144Y-68506432D01*
X130579145Y-68506433D01*
X130579150Y-68506439D01*
X130674058Y-68601347D01*
X130674064Y-68601352D01*
X130674065Y-68601353D01*
X130779337Y-68671695D01*
X130779340Y-68671696D01*
X130785681Y-68675933D01*
X130785687Y-68675936D01*
X130785688Y-68675937D01*
X130904754Y-68725256D01*
X130905349Y-68725510D01*
X130905535Y-68725663D01*
X130908512Y-68727071D01*
X131041371Y-68753500D01*
X131175623Y-68753500D01*
X131175624Y-68753500D01*
X131190385Y-68750563D01*
X131264198Y-68735880D01*
X131264199Y-68735880D01*
X131272862Y-68734156D01*
X131307285Y-68727310D01*
X131431310Y-68675937D01*
X131542930Y-68601355D01*
X131637854Y-68506431D01*
X131712436Y-68394811D01*
X131763809Y-68270786D01*
X131775827Y-68210369D01*
X131789999Y-68139124D01*
X131789999Y-68004872D01*
X131763570Y-67872011D01*
X131761483Y-67867599D01*
X131721344Y-67770693D01*
X131721344Y-67770692D01*
X131712443Y-67749204D01*
X131712432Y-67749182D01*
X131637852Y-67637566D01*
X131637851Y-67637565D01*
X131637846Y-67637559D01*
X131542938Y-67542651D01*
X131542932Y-67542646D01*
X131542931Y-67542645D01*
X131431310Y-67468062D01*
X131431311Y-67468062D01*
X131431301Y-67468057D01*
X131307294Y-67416693D01*
X131307274Y-67416686D01*
X131307266Y-67416684D01*
X131175626Y-67390500D01*
X131175623Y-67390500D01*
X131175621Y-67390500D01*
X131041377Y-67390500D01*
X131041375Y-67390500D01*
X131041370Y-67390500D01*
X130909729Y-67416684D01*
X130909722Y-67416686D01*
X130909702Y-67416693D01*
X130785695Y-67468057D01*
X130785685Y-67468062D01*
X130674065Y-67542645D01*
X130674064Y-67542646D01*
X130674058Y-67542651D01*
X130579150Y-67637559D01*
X130579145Y-67637565D01*
X130579144Y-67637566D01*
X130504561Y-67749186D01*
X130504556Y-67749196D01*
X130453192Y-67873203D01*
X130453185Y-67873223D01*
X130453183Y-67873231D01*
X130426999Y-68004870D01*
X130426999Y-68094755D01*
X130421736Y-68112675D01*
X122732800Y-68112675D01*
X122732800Y-67110675D01*
X139654936Y-67110675D01*
X139686384Y-67268768D01*
X139686385Y-67268774D01*
X139686392Y-67268795D01*
X139737756Y-67392802D01*
X139737761Y-67392812D01*
X139812344Y-67504432D01*
X139812345Y-67504433D01*
X139812350Y-67504439D01*
X139907258Y-67599347D01*
X139907264Y-67599352D01*
X139907265Y-67599353D01*
X140010308Y-67668205D01*
X140010309Y-67668205D01*
X140018881Y-67673933D01*
X140018887Y-67673936D01*
X140018888Y-67673937D01*
X140142913Y-67725310D01*
X140172514Y-67731198D01*
X140190772Y-67734830D01*
X140224059Y-67746574D01*
X140232032Y-67750745D01*
X140242508Y-67760854D01*
X140255752Y-67766902D01*
X140267144Y-67784627D01*
X140282310Y-67799262D01*
X140285657Y-67813432D01*
X140293529Y-67825679D01*
X140293529Y-67846750D01*
X140298375Y-67867260D01*
X140293530Y-67880990D01*
X140293531Y-67895548D01*
X140282140Y-67913273D01*
X140275128Y-67933149D01*
X140262942Y-67943149D01*
X140255759Y-67954328D01*
X140226069Y-67973410D01*
X140221412Y-67975537D01*
X140194089Y-67984362D01*
X140168317Y-67989488D01*
X140168307Y-67989491D01*
X140044295Y-68040857D01*
X140044285Y-68040862D01*
X139932665Y-68115445D01*
X139932664Y-68115446D01*
X139932658Y-68115451D01*
X139837750Y-68210359D01*
X139837745Y-68210365D01*
X139837744Y-68210366D01*
X139763161Y-68321986D01*
X139763156Y-68321996D01*
X139711792Y-68446003D01*
X139711785Y-68446023D01*
X139711783Y-68446031D01*
X139685599Y-68577670D01*
X139685599Y-68667555D01*
X139680336Y-68685475D01*
X139711784Y-68843568D01*
X139711785Y-68843574D01*
X139711792Y-68843595D01*
X139763156Y-68967602D01*
X139763161Y-68967612D01*
X139837744Y-69079232D01*
X139837745Y-69079233D01*
X139837750Y-69079239D01*
X139932658Y-69174147D01*
X139932664Y-69174152D01*
X139932665Y-69174153D01*
X140037977Y-69244522D01*
X140037982Y-69244524D01*
X140044281Y-69248733D01*
X140044287Y-69248736D01*
X140044288Y-69248737D01*
X140154237Y-69294279D01*
X140154855Y-69294544D01*
X140155027Y-69294686D01*
X140163517Y-69298654D01*
X140173534Y-69303891D01*
X140173534Y-69303892D01*
X140190662Y-69312847D01*
X140240949Y-69361350D01*
X140257032Y-69429344D01*
X140233801Y-69495239D01*
X140190218Y-69532851D01*
X140178590Y-69538871D01*
X140169032Y-69543314D01*
X140055687Y-69590261D01*
X140055686Y-69590262D01*
X139944065Y-69664845D01*
X139944064Y-69664846D01*
X139944058Y-69664851D01*
X139849150Y-69759759D01*
X139849145Y-69759765D01*
X139849144Y-69759766D01*
X139774561Y-69871386D01*
X139774556Y-69871396D01*
X139723192Y-69995403D01*
X139723185Y-69995423D01*
X139723183Y-69995431D01*
X139696999Y-70127070D01*
X139696999Y-70216955D01*
X139691736Y-70234875D01*
X139723184Y-70392968D01*
X139723185Y-70392974D01*
X139723192Y-70392995D01*
X139774556Y-70517002D01*
X139774561Y-70517012D01*
X139849144Y-70628632D01*
X139849145Y-70628633D01*
X139849150Y-70628639D01*
X139944058Y-70723547D01*
X139944064Y-70723552D01*
X139944065Y-70723553D01*
X140055667Y-70798124D01*
X140055672Y-70798127D01*
X140055681Y-70798133D01*
X140055685Y-70798135D01*
X140055690Y-70798138D01*
X140057639Y-70798945D01*
X140057648Y-70798952D01*
X140057649Y-70798950D01*
X140082919Y-70809417D01*
X140082925Y-70809420D01*
X140082928Y-70809421D01*
X140113274Y-70827428D01*
X140122083Y-70834527D01*
X140161927Y-70891923D01*
X140164416Y-70961748D01*
X140128768Y-71021826D01*
X140123153Y-71027054D01*
X140086109Y-71050861D01*
X140067297Y-71058653D01*
X140055683Y-71063464D01*
X140055673Y-71063470D01*
X139944065Y-71138045D01*
X139944064Y-71138046D01*
X139944058Y-71138051D01*
X139849150Y-71232959D01*
X139849145Y-71232965D01*
X139849144Y-71232966D01*
X139774561Y-71344586D01*
X139774556Y-71344596D01*
X139723192Y-71468603D01*
X139723185Y-71468623D01*
X139723183Y-71468631D01*
X139696999Y-71600270D01*
X139696999Y-71690155D01*
X139691736Y-71708075D01*
X139723184Y-71866168D01*
X139723185Y-71866174D01*
X139723192Y-71866195D01*
X139774556Y-71990202D01*
X139774561Y-71990212D01*
X139849144Y-72101832D01*
X139849145Y-72101833D01*
X139849150Y-72101839D01*
X139944058Y-72196747D01*
X139944064Y-72196752D01*
X139944065Y-72196753D01*
X140049337Y-72267095D01*
X140049340Y-72267096D01*
X140055681Y-72271333D01*
X140055687Y-72271336D01*
X140055688Y-72271337D01*
X140174754Y-72320656D01*
X140175349Y-72320910D01*
X140175535Y-72321063D01*
X140178512Y-72322471D01*
X140311371Y-72348900D01*
X140445623Y-72348900D01*
X140445624Y-72348900D01*
X140460385Y-72345963D01*
X140534198Y-72331280D01*
X140534199Y-72331280D01*
X140542862Y-72329556D01*
X140577285Y-72322710D01*
X140701310Y-72271337D01*
X140812930Y-72196755D01*
X140907854Y-72101831D01*
X140982436Y-71990211D01*
X141033809Y-71866186D01*
X141046947Y-71800137D01*
X141050612Y-71781712D01*
X141059999Y-71734525D01*
X141059999Y-71600272D01*
X141033812Y-71468631D01*
X141033810Y-71468619D01*
X141033809Y-71468618D01*
X141033809Y-71468614D01*
X141033808Y-71468612D01*
X141033601Y-71467570D01*
X141032009Y-71464250D01*
X141031755Y-71463655D01*
X140982436Y-71344589D01*
X140982435Y-71344588D01*
X140982432Y-71344582D01*
X140978195Y-71338241D01*
X140978194Y-71338238D01*
X140907852Y-71232966D01*
X140907851Y-71232965D01*
X140907846Y-71232959D01*
X140812938Y-71138051D01*
X140812932Y-71138046D01*
X140812931Y-71138045D01*
X140701322Y-71063470D01*
X140701321Y-71063469D01*
X140701316Y-71063466D01*
X140701303Y-71063459D01*
X140674072Y-71052180D01*
X140643723Y-71034171D01*
X140634915Y-71027073D01*
X140595070Y-70969679D01*
X140592579Y-70899853D01*
X140628227Y-70839773D01*
X140633847Y-70834541D01*
X140670882Y-70810740D01*
X140694759Y-70800850D01*
X140697553Y-70799876D01*
X140698990Y-70799211D01*
X140703652Y-70797167D01*
X140712923Y-70793326D01*
X140721810Y-70784440D01*
X140781381Y-70744634D01*
X140812930Y-70723555D01*
X140907854Y-70628631D01*
X140982436Y-70517011D01*
X141033809Y-70392986D01*
X141059999Y-70261322D01*
X141059999Y-70127078D01*
X141059999Y-70127075D01*
X141059999Y-70127072D01*
X141039021Y-70021614D01*
X141033810Y-69995419D01*
X141033809Y-69995418D01*
X141033809Y-69995414D01*
X141033808Y-69995412D01*
X141033601Y-69994370D01*
X141032009Y-69991050D01*
X141031755Y-69990455D01*
X140982436Y-69871389D01*
X140982435Y-69871388D01*
X140982432Y-69871382D01*
X140978195Y-69865041D01*
X140978194Y-69865038D01*
X140907852Y-69759766D01*
X140907851Y-69759765D01*
X140907846Y-69759759D01*
X140812938Y-69664851D01*
X140812932Y-69664846D01*
X140812931Y-69664845D01*
X140701310Y-69590262D01*
X140701311Y-69590262D01*
X140701301Y-69590257D01*
X140591987Y-69544979D01*
X140588146Y-69542020D01*
X140581958Y-69540290D01*
X140554909Y-69526139D01*
X140504632Y-69477621D01*
X140488568Y-69409623D01*
X140511816Y-69343735D01*
X140555413Y-69306133D01*
X140567090Y-69300092D01*
X140576598Y-69295672D01*
X140636428Y-69270890D01*
X140689910Y-69248737D01*
X140801530Y-69174155D01*
X140896454Y-69079231D01*
X140971036Y-68967611D01*
X141022409Y-68843586D01*
X141027292Y-68819035D01*
X141030979Y-68800502D01*
X141030979Y-68800499D01*
X141048599Y-68711924D01*
X141048599Y-68577675D01*
X141048599Y-68577672D01*
X141022412Y-68446031D01*
X141022410Y-68446019D01*
X141022409Y-68446018D01*
X141022409Y-68446014D01*
X141022408Y-68446012D01*
X141022201Y-68444970D01*
X141020609Y-68441650D01*
X141020355Y-68441055D01*
X140971036Y-68321989D01*
X140971035Y-68321988D01*
X140971032Y-68321982D01*
X140966795Y-68315641D01*
X140966794Y-68315638D01*
X140896452Y-68210366D01*
X140896451Y-68210365D01*
X140896446Y-68210359D01*
X140801538Y-68115451D01*
X140801532Y-68115446D01*
X140801531Y-68115445D01*
X140689912Y-68040863D01*
X140683858Y-68038355D01*
X140565885Y-67989490D01*
X140565880Y-67989488D01*
X140565873Y-67989486D01*
X140565872Y-67989486D01*
X140518021Y-67979968D01*
X140516118Y-67978973D01*
X140513975Y-67979093D01*
X140484737Y-67968225D01*
X140476759Y-67964052D01*
X140463935Y-67951677D01*
X140456110Y-67947584D01*
X140446702Y-67935047D01*
X140426484Y-67915536D01*
X140410419Y-67847539D01*
X140433667Y-67781650D01*
X140482714Y-67741394D01*
X140482804Y-67741352D01*
X140487376Y-67739264D01*
X140495327Y-67736696D01*
X140497376Y-67735212D01*
X140500456Y-67735039D01*
X140514706Y-67730436D01*
X140540485Y-67725310D01*
X140664510Y-67673937D01*
X140776130Y-67599355D01*
X140871054Y-67504431D01*
X140945636Y-67392811D01*
X140997009Y-67268786D01*
X141023199Y-67137122D01*
X141023199Y-67002878D01*
X141023199Y-67002875D01*
X141023199Y-67002872D01*
X140997012Y-66871231D01*
X140997010Y-66871219D01*
X140997009Y-66871218D01*
X140997009Y-66871214D01*
X140997008Y-66871212D01*
X140996801Y-66870170D01*
X140995209Y-66866850D01*
X140994955Y-66866255D01*
X140945636Y-66747189D01*
X140945635Y-66747188D01*
X140945632Y-66747182D01*
X140941395Y-66740841D01*
X140941394Y-66740838D01*
X140871052Y-66635566D01*
X140871051Y-66635565D01*
X140871046Y-66635559D01*
X140776138Y-66540651D01*
X140776132Y-66540646D01*
X140776131Y-66540645D01*
X140664510Y-66466062D01*
X140664511Y-66466062D01*
X140664501Y-66466057D01*
X140540494Y-66414693D01*
X140540474Y-66414686D01*
X140540466Y-66414684D01*
X140408826Y-66388500D01*
X140408823Y-66388500D01*
X140408821Y-66388500D01*
X140274577Y-66388500D01*
X140274575Y-66388500D01*
X140274570Y-66388500D01*
X140142929Y-66414684D01*
X140142922Y-66414686D01*
X140142902Y-66414693D01*
X140018895Y-66466057D01*
X140018885Y-66466062D01*
X139907265Y-66540645D01*
X139907264Y-66540646D01*
X139907258Y-66540651D01*
X139812350Y-66635559D01*
X139812345Y-66635565D01*
X139812344Y-66635566D01*
X139737761Y-66747186D01*
X139737756Y-66747196D01*
X139686392Y-66871203D01*
X139686385Y-66871223D01*
X139686383Y-66871231D01*
X139660199Y-67002870D01*
X139660199Y-67092755D01*
X139654936Y-67110675D01*
X122732800Y-67110675D01*
X122732800Y-62324591D01*
X122737822Y-62289658D01*
X122745234Y-62264413D01*
X122776528Y-62211671D01*
X122937876Y-62050323D01*
X122966126Y-62029175D01*
X122989218Y-62016567D01*
X123048643Y-62001400D01*
X156013808Y-62001400D01*
X156048740Y-62006421D01*
G37*
%TD.AperFunction*%
%TD*%
%TA.AperFunction,Conductor*%
%TO.N,SYSTEM_VSS*%
G36*
X152314940Y-76662221D02*
G01*
X152340184Y-76669634D01*
X152392930Y-76700930D01*
X152681273Y-76989273D01*
X152702423Y-77017525D01*
X152715031Y-77040614D01*
X152730200Y-77100043D01*
X152730200Y-77876400D01*
X169367200Y-77876400D01*
X169748200Y-77876400D01*
X169748200Y-77107391D01*
X169753222Y-77072458D01*
X169760634Y-77047213D01*
X169791928Y-76994471D01*
X170080276Y-76706123D01*
X170108526Y-76684975D01*
X170131618Y-76672367D01*
X170191043Y-76657200D01*
X173819208Y-76657200D01*
X173854140Y-76662221D01*
X173879384Y-76669634D01*
X173932130Y-76700930D01*
X174220473Y-76989273D01*
X174241623Y-77017525D01*
X174254231Y-77040614D01*
X174269400Y-77100043D01*
X174269400Y-80829808D01*
X174269399Y-80829810D01*
X174269400Y-80829811D01*
X174264376Y-80864745D01*
X174256964Y-80889986D01*
X174225669Y-80942730D01*
X173937326Y-81231073D01*
X173909075Y-81252222D01*
X173885987Y-81264830D01*
X173826557Y-81280000D01*
X154214095Y-81280000D01*
X154214092Y-81279999D01*
X154214091Y-81280000D01*
X154179156Y-81274976D01*
X154165838Y-81271065D01*
X154107061Y-81233289D01*
X154078039Y-81169732D01*
X154078038Y-81169729D01*
X154076472Y-81158833D01*
X154077593Y-81117003D01*
X154092447Y-81042324D01*
X154097073Y-81019066D01*
X154097500Y-81017104D01*
X154097500Y-80882672D01*
X154076364Y-80776423D01*
X154071311Y-80751019D01*
X154071310Y-80751018D01*
X154071310Y-80751014D01*
X154071309Y-80751012D01*
X154071102Y-80749970D01*
X154069510Y-80746650D01*
X154069256Y-80746055D01*
X154019937Y-80626989D01*
X154019936Y-80626988D01*
X154019933Y-80626982D01*
X154015696Y-80620641D01*
X154015695Y-80620638D01*
X153945353Y-80515366D01*
X153945352Y-80515365D01*
X153945347Y-80515359D01*
X153850439Y-80420451D01*
X153850433Y-80420446D01*
X153850432Y-80420445D01*
X153738811Y-80345862D01*
X153738812Y-80345862D01*
X153738802Y-80345857D01*
X153614795Y-80294493D01*
X153614775Y-80294486D01*
X153614767Y-80294484D01*
X153483127Y-80268300D01*
X153483124Y-80268300D01*
X153483122Y-80268300D01*
X153348878Y-80268300D01*
X153348876Y-80268300D01*
X153348871Y-80268300D01*
X153217230Y-80294484D01*
X153217223Y-80294486D01*
X153217203Y-80294493D01*
X153093196Y-80345857D01*
X153093186Y-80345862D01*
X152981573Y-80420441D01*
X152981568Y-80420444D01*
X152981559Y-80420452D01*
X152932084Y-80469927D01*
X152932082Y-80469928D01*
X152932082Y-80469929D01*
X152903827Y-80491079D01*
X152890109Y-80498569D01*
X152821851Y-80513420D01*
X152821836Y-80513418D01*
X152821836Y-80513419D01*
X152821835Y-80513418D01*
X152820045Y-80513291D01*
X152761844Y-80493923D01*
X152755329Y-80489736D01*
X152734696Y-80473109D01*
X152707434Y-80445847D01*
X152707433Y-80445846D01*
X152707432Y-80445845D01*
X152595811Y-80371262D01*
X152595812Y-80371262D01*
X152595802Y-80371257D01*
X152471795Y-80319893D01*
X152471775Y-80319886D01*
X152471767Y-80319884D01*
X152340127Y-80293700D01*
X152340124Y-80293700D01*
X152340122Y-80293700D01*
X152205878Y-80293700D01*
X152205876Y-80293700D01*
X152205871Y-80293700D01*
X152074230Y-80319884D01*
X152074223Y-80319886D01*
X152074203Y-80319893D01*
X151950196Y-80371257D01*
X151950186Y-80371262D01*
X151838566Y-80445845D01*
X151838565Y-80445846D01*
X151838559Y-80445851D01*
X151743651Y-80540759D01*
X151743646Y-80540765D01*
X151743645Y-80540766D01*
X151669062Y-80652386D01*
X151669057Y-80652396D01*
X151617693Y-80776403D01*
X151617686Y-80776423D01*
X151617684Y-80776431D01*
X151591500Y-80908070D01*
X151591500Y-80908075D01*
X151591500Y-80908078D01*
X151591500Y-81042322D01*
X151591500Y-81042324D01*
X151591499Y-81042324D01*
X151606766Y-81119074D01*
X151607338Y-81123880D01*
X151606575Y-81128393D01*
X151607711Y-81149565D01*
X151606474Y-81163389D01*
X151596296Y-81189256D01*
X151595702Y-81192774D01*
X151594310Y-81194301D01*
X151580892Y-81228407D01*
X151524227Y-81269271D01*
X151513843Y-81272934D01*
X151472586Y-81280000D01*
X148659192Y-81280000D01*
X148659191Y-81279999D01*
X148659191Y-81280000D01*
X148624256Y-81274977D01*
X148599014Y-81267565D01*
X148546269Y-81236269D01*
X148257926Y-80947926D01*
X148236774Y-80919670D01*
X148224167Y-80896581D01*
X148209000Y-80837156D01*
X148209000Y-79173875D01*
X155619237Y-79173875D01*
X155650685Y-79331968D01*
X155650686Y-79331974D01*
X155650693Y-79331995D01*
X155702057Y-79456002D01*
X155702062Y-79456012D01*
X155776645Y-79567632D01*
X155776646Y-79567633D01*
X155776651Y-79567639D01*
X155871559Y-79662547D01*
X155871565Y-79662552D01*
X155871566Y-79662553D01*
X155976838Y-79732895D01*
X155976841Y-79732896D01*
X155983182Y-79737133D01*
X155983188Y-79737136D01*
X155983189Y-79737137D01*
X156102255Y-79786456D01*
X156102850Y-79786710D01*
X156103036Y-79786863D01*
X156106013Y-79788271D01*
X156238872Y-79814700D01*
X156373124Y-79814700D01*
X156373125Y-79814700D01*
X156387886Y-79811763D01*
X156461699Y-79797080D01*
X156461700Y-79797080D01*
X156470363Y-79795356D01*
X156504786Y-79788510D01*
X156628811Y-79737137D01*
X156740431Y-79662555D01*
X156835355Y-79567631D01*
X156909937Y-79456011D01*
X156961310Y-79331986D01*
X156987500Y-79200322D01*
X156987500Y-79066078D01*
X156987500Y-79066075D01*
X156987500Y-79066072D01*
X156961313Y-78934431D01*
X156961311Y-78934419D01*
X156961310Y-78934418D01*
X156961310Y-78934414D01*
X156961309Y-78934412D01*
X156961102Y-78933370D01*
X156959510Y-78930050D01*
X156959256Y-78929455D01*
X156909937Y-78810389D01*
X156909936Y-78810388D01*
X156909933Y-78810382D01*
X156905696Y-78804041D01*
X156905695Y-78804038D01*
X156835353Y-78698766D01*
X156835352Y-78698765D01*
X156835347Y-78698759D01*
X156740439Y-78603851D01*
X156740433Y-78603846D01*
X156740432Y-78603845D01*
X156628811Y-78529262D01*
X156628812Y-78529262D01*
X156628802Y-78529257D01*
X156504795Y-78477893D01*
X156504775Y-78477886D01*
X156504767Y-78477884D01*
X156373127Y-78451700D01*
X156373124Y-78451700D01*
X156373122Y-78451700D01*
X156238878Y-78451700D01*
X156238876Y-78451700D01*
X156238871Y-78451700D01*
X156107230Y-78477884D01*
X156107223Y-78477886D01*
X156107203Y-78477893D01*
X155983196Y-78529257D01*
X155983186Y-78529262D01*
X155871566Y-78603845D01*
X155871565Y-78603846D01*
X155871559Y-78603851D01*
X155776651Y-78698759D01*
X155776646Y-78698765D01*
X155776645Y-78698766D01*
X155702062Y-78810386D01*
X155702057Y-78810396D01*
X155650693Y-78934403D01*
X155650686Y-78934423D01*
X155650684Y-78934431D01*
X155624500Y-79066070D01*
X155624500Y-79155955D01*
X155619237Y-79173875D01*
X148209000Y-79173875D01*
X148209000Y-77107391D01*
X148214022Y-77072458D01*
X148221434Y-77047213D01*
X148252728Y-76994471D01*
X148541076Y-76706123D01*
X148569326Y-76684975D01*
X148592418Y-76672367D01*
X148651843Y-76657200D01*
X152280008Y-76657200D01*
X152314940Y-76662221D01*
G37*
%TD.AperFunction*%
%TD*%
%TA.AperFunction,Conductor*%
%TO.N,/Battery Temperature Protection/BatteryHeater/V_HEATER*%
G36*
X125874461Y-113201613D02*
G01*
X125881705Y-113207800D01*
X125882400Y-113207800D01*
X131369800Y-113207800D01*
X131428931Y-113227013D01*
X131465476Y-113277313D01*
X131470400Y-113308400D01*
X131470400Y-118466600D01*
X131451187Y-118525731D01*
X131400887Y-118562276D01*
X131369800Y-118567200D01*
X125983000Y-118567200D01*
X125923869Y-118547987D01*
X125887324Y-118497687D01*
X125882400Y-118466600D01*
X125882400Y-116789200D01*
X103631000Y-116789200D01*
X103571869Y-116769987D01*
X103535324Y-116719687D01*
X103530400Y-116688600D01*
X103530400Y-113283000D01*
X103549613Y-113223869D01*
X103599913Y-113187324D01*
X103631000Y-113182400D01*
X125815330Y-113182400D01*
X125874461Y-113201613D01*
G37*
%TD.AperFunction*%
%TD*%
M02*
