%TF.GenerationSoftware,KiCad,Pcbnew,10.0.4*%
%TF.CreationDate,2026-08-31T15:13:45-04:00*%
%TF.ProjectId,Avionics-BatteryBoard,4176696f-6e69-4637-932d-426174746572,rev?*%
%TF.SameCoordinates,Original*%
%TF.FileFunction,Paste,Top*%
%TF.FilePolarity,Positive*%
%FSLAX46Y46*%
G04 Gerber Fmt 4.6, Leading zero omitted, Abs format (unit mm)*
G04 Created by KiCad (PCBNEW 10.0.4) date 2026-08-31 15:13:45*
%MOMM*%
%LPD*%
G01*
G04 APERTURE LIST*
G04 Aperture macros list*
%AMRoundRect*
0 Rectangle with rounded corners*
0 $1 Rounding radius*
0 $2 $3 $4 $5 $6 $7 $8 $9 X,Y pos of 4 corners*
0 Add a 4 corners polygon primitive as box body*
4,1,4,$2,$3,$4,$5,$6,$7,$8,$9,$2,$3,0*
0 Add four circle primitives for the rounded corners*
1,1,$1+$1,$2,$3*
1,1,$1+$1,$4,$5*
1,1,$1+$1,$6,$7*
1,1,$1+$1,$8,$9*
0 Add four rect primitives between the rounded corners*
20,1,$1+$1,$2,$3,$4,$5,0*
20,1,$1+$1,$4,$5,$6,$7,0*
20,1,$1+$1,$6,$7,$8,$9,0*
20,1,$1+$1,$8,$9,$2,$3,0*%
G04 Aperture macros list end*
%ADD10C,0.010000*%
%ADD11RoundRect,0.200000X0.275000X-0.200000X0.275000X0.200000X-0.275000X0.200000X-0.275000X-0.200000X0*%
%ADD12R,1.219200X0.355600*%
%ADD13RoundRect,0.200000X-0.200000X-0.275000X0.200000X-0.275000X0.200000X0.275000X-0.200000X0.275000X0*%
%ADD14RoundRect,0.200000X0.200000X0.275000X-0.200000X0.275000X-0.200000X-0.275000X0.200000X-0.275000X0*%
%ADD15RoundRect,0.250000X0.475000X-0.300000X0.475000X0.300000X-0.475000X0.300000X-0.475000X-0.300000X0*%
%ADD16RoundRect,0.250000X1.200000X-0.425000X1.200000X0.425000X-1.200000X0.425000X-1.200000X-0.425000X0*%
%ADD17RoundRect,0.225000X-0.225000X-0.250000X0.225000X-0.250000X0.225000X0.250000X-0.225000X0.250000X0*%
%ADD18RoundRect,0.200000X-0.275000X0.200000X-0.275000X-0.200000X0.275000X-0.200000X0.275000X0.200000X0*%
%ADD19RoundRect,0.180000X-0.295000X0.180000X-0.295000X-0.180000X0.295000X-0.180000X0.295000X0.180000X0*%
%ADD20RoundRect,0.050000X-0.050000X0.337500X-0.050000X-0.337500X0.050000X-0.337500X0.050000X0.337500X0*%
%ADD21R,1.450000X0.305000*%
%ADD22R,0.640000X2.540000*%
%ADD23R,0.640000X4.700000*%
%ADD24RoundRect,0.250000X-0.625000X0.375000X-0.625000X-0.375000X0.625000X-0.375000X0.625000X0.375000X0*%
%ADD25RoundRect,0.100000X0.100000X-0.225000X0.100000X0.225000X-0.100000X0.225000X-0.100000X-0.225000X0*%
%ADD26RoundRect,0.225000X0.225000X0.250000X-0.225000X0.250000X-0.225000X-0.250000X0.225000X-0.250000X0*%
%ADD27RoundRect,0.150000X0.512500X0.150000X-0.512500X0.150000X-0.512500X-0.150000X0.512500X-0.150000X0*%
%ADD28RoundRect,0.218750X-0.218750X-0.256250X0.218750X-0.256250X0.218750X0.256250X-0.218750X0.256250X0*%
%ADD29RoundRect,0.250000X0.312500X0.625000X-0.312500X0.625000X-0.312500X-0.625000X0.312500X-0.625000X0*%
%ADD30R,1.270000X0.610000*%
%ADD31R,3.810000X3.910000*%
%ADD32R,1.020000X0.610000*%
%ADD33RoundRect,0.250000X-0.650000X1.000000X-0.650000X-1.000000X0.650000X-1.000000X0.650000X1.000000X0*%
%ADD34RoundRect,0.137500X0.137500X-0.662500X0.137500X0.662500X-0.137500X0.662500X-0.137500X-0.662500X0*%
%ADD35RoundRect,0.250000X0.475000X-0.250000X0.475000X0.250000X-0.475000X0.250000X-0.475000X-0.250000X0*%
%ADD36RoundRect,0.250000X-0.375000X-0.625000X0.375000X-0.625000X0.375000X0.625000X-0.375000X0.625000X0*%
%ADD37RoundRect,0.225000X0.250000X-0.225000X0.250000X0.225000X-0.250000X0.225000X-0.250000X-0.225000X0*%
%ADD38R,1.900000X0.600000*%
%ADD39R,2.800000X2.100000*%
%ADD40R,0.610000X1.270000*%
%ADD41R,3.910000X3.810000*%
%ADD42R,0.610000X1.020000*%
%ADD43RoundRect,0.250000X0.375000X0.625000X-0.375000X0.625000X-0.375000X-0.625000X0.375000X-0.625000X0*%
%ADD44RoundRect,0.250000X-0.362500X-1.425000X0.362500X-1.425000X0.362500X1.425000X-0.362500X1.425000X0*%
%ADD45RoundRect,0.250000X-0.250000X-0.250000X0.250000X-0.250000X0.250000X0.250000X-0.250000X0.250000X0*%
%ADD46RoundRect,0.250000X-0.312500X-0.625000X0.312500X-0.625000X0.312500X0.625000X-0.312500X0.625000X0*%
%ADD47RoundRect,0.100000X-0.100000X0.225000X-0.100000X-0.225000X0.100000X-0.225000X0.100000X0.225000X0*%
%ADD48RoundRect,0.250000X-0.475000X0.250000X-0.475000X-0.250000X0.475000X-0.250000X0.475000X0.250000X0*%
%ADD49RoundRect,0.150000X-0.150000X0.587500X-0.150000X-0.587500X0.150000X-0.587500X0.150000X0.587500X0*%
%ADD50RoundRect,0.250000X0.625000X-0.375000X0.625000X0.375000X-0.625000X0.375000X-0.625000X-0.375000X0*%
%ADD51R,1.000000X2.510000*%
G04 APERTURE END LIST*
D10*
%TO.C,MP2*%
X170375000Y-112464800D02*
X171785000Y-112464800D01*
X171800000Y-112539800D01*
X171825000Y-112644800D01*
X171860000Y-112764800D01*
X171890000Y-112844800D01*
X171920000Y-112924800D01*
X171965000Y-113024800D01*
X172015000Y-113124800D01*
X172070000Y-113219800D01*
X172130000Y-113314800D01*
X172175000Y-113379800D01*
X172240000Y-113464800D01*
X172295000Y-113529800D01*
X172385000Y-113629800D01*
X172470000Y-113709800D01*
X172525000Y-113759800D01*
X172585000Y-113809800D01*
X172670000Y-113874800D01*
X172755000Y-113934800D01*
X172860000Y-113999800D01*
X172940000Y-114044800D01*
X173040000Y-114094800D01*
X173180000Y-114154800D01*
X173295000Y-114194800D01*
X173410000Y-114229800D01*
X173515000Y-114254800D01*
X173590000Y-114269800D01*
X173590000Y-115679800D01*
X173560000Y-115674800D01*
X173485000Y-115664800D01*
X173385000Y-115649800D01*
X173275000Y-115629800D01*
X173160000Y-115604800D01*
X173060000Y-115579800D01*
X172950000Y-115549800D01*
X172855000Y-115519800D01*
X172785000Y-115494800D01*
X172690000Y-115459800D01*
X172625000Y-115434800D01*
X172530000Y-115394800D01*
X172440000Y-115354800D01*
X172340000Y-115304800D01*
X172220000Y-115239800D01*
X172105000Y-115174800D01*
X172005000Y-115109800D01*
X171915000Y-115049800D01*
X171825000Y-114984800D01*
X171760000Y-114934800D01*
X171695000Y-114884800D01*
X171625000Y-114824800D01*
X171550000Y-114759800D01*
X171475000Y-114689800D01*
X171390000Y-114604800D01*
X171345000Y-114559800D01*
X171300000Y-114509800D01*
X171230000Y-114429800D01*
X171170000Y-114359800D01*
X171115000Y-114289800D01*
X171055000Y-114209800D01*
X170995000Y-114124800D01*
X170905000Y-113989800D01*
X170810000Y-113829800D01*
X170720000Y-113654800D01*
X170650000Y-113504800D01*
X170590000Y-113354800D01*
X170535000Y-113199800D01*
X170485000Y-113034800D01*
X170440000Y-112859800D01*
X170415000Y-112729800D01*
X170390000Y-112584800D01*
X170375000Y-112464800D01*
G36*
X171800000Y-112539800D02*
G01*
X171825000Y-112644800D01*
X171860000Y-112764800D01*
X171890000Y-112844800D01*
X171920000Y-112924800D01*
X171965000Y-113024800D01*
X172015000Y-113124800D01*
X172070000Y-113219800D01*
X172130000Y-113314800D01*
X172175000Y-113379800D01*
X172240000Y-113464800D01*
X172295000Y-113529800D01*
X172385000Y-113629800D01*
X172470000Y-113709800D01*
X172525000Y-113759800D01*
X172585000Y-113809800D01*
X172670000Y-113874800D01*
X172755000Y-113934800D01*
X172860000Y-113999800D01*
X172940000Y-114044800D01*
X173040000Y-114094800D01*
X173180000Y-114154800D01*
X173295000Y-114194800D01*
X173410000Y-114229800D01*
X173515000Y-114254800D01*
X173590000Y-114269800D01*
X173590000Y-115679800D01*
X173560000Y-115674800D01*
X173485000Y-115664800D01*
X173385000Y-115649800D01*
X173275000Y-115629800D01*
X173160000Y-115604800D01*
X173060000Y-115579800D01*
X172950000Y-115549800D01*
X172855000Y-115519800D01*
X172785000Y-115494800D01*
X172690000Y-115459800D01*
X172625000Y-115434800D01*
X172530000Y-115394800D01*
X172440000Y-115354800D01*
X172340000Y-115304800D01*
X172220000Y-115239800D01*
X172105000Y-115174800D01*
X172005000Y-115109800D01*
X171915000Y-115049800D01*
X171825000Y-114984800D01*
X171760000Y-114934800D01*
X171695000Y-114884800D01*
X171625000Y-114824800D01*
X171550000Y-114759800D01*
X171475000Y-114689800D01*
X171390000Y-114604800D01*
X171345000Y-114559800D01*
X171300000Y-114509800D01*
X171230000Y-114429800D01*
X171170000Y-114359800D01*
X171115000Y-114289800D01*
X171055000Y-114209800D01*
X170995000Y-114124800D01*
X170905000Y-113989800D01*
X170810000Y-113829800D01*
X170720000Y-113654800D01*
X170650000Y-113504800D01*
X170590000Y-113354800D01*
X170535000Y-113199800D01*
X170485000Y-113034800D01*
X170440000Y-112859800D01*
X170415000Y-112729800D01*
X170390000Y-112584800D01*
X170375000Y-112464800D01*
X171785000Y-112464800D01*
X171800000Y-112539800D01*
G37*
X173590000Y-108449800D02*
X173590000Y-109859800D01*
X173515000Y-109874800D01*
X173410000Y-109899800D01*
X173290000Y-109934800D01*
X173210000Y-109964800D01*
X173130000Y-109994800D01*
X173030000Y-110039800D01*
X172930000Y-110089800D01*
X172835000Y-110144800D01*
X172740000Y-110204800D01*
X172675000Y-110249800D01*
X172590000Y-110314800D01*
X172525000Y-110369800D01*
X172425000Y-110459800D01*
X172345000Y-110544800D01*
X172295000Y-110599800D01*
X172245000Y-110659800D01*
X172180000Y-110744800D01*
X172120000Y-110829800D01*
X172055000Y-110934800D01*
X172010000Y-111014800D01*
X171960000Y-111114800D01*
X171900000Y-111254800D01*
X171860000Y-111369800D01*
X171825000Y-111484800D01*
X171800000Y-111589800D01*
X171785000Y-111664800D01*
X170375000Y-111664800D01*
X170380000Y-111634800D01*
X170390000Y-111559800D01*
X170405000Y-111459800D01*
X170425000Y-111349800D01*
X170450000Y-111234800D01*
X170475000Y-111134800D01*
X170505000Y-111024800D01*
X170535000Y-110929800D01*
X170560000Y-110859800D01*
X170595000Y-110764800D01*
X170620000Y-110699800D01*
X170660000Y-110604800D01*
X170700000Y-110514800D01*
X170750000Y-110414800D01*
X170815000Y-110294800D01*
X170880000Y-110179800D01*
X170945000Y-110079800D01*
X171005000Y-109989800D01*
X171070000Y-109899800D01*
X171120000Y-109834800D01*
X171170000Y-109769800D01*
X171230000Y-109699800D01*
X171295000Y-109624800D01*
X171365000Y-109549800D01*
X171450000Y-109464800D01*
X171495000Y-109419800D01*
X171545000Y-109374800D01*
X171625000Y-109304800D01*
X171695000Y-109244800D01*
X171765000Y-109189800D01*
X171845000Y-109129800D01*
X171930000Y-109069800D01*
X172065000Y-108979800D01*
X172225000Y-108884800D01*
X172400000Y-108794800D01*
X172550000Y-108724800D01*
X172700000Y-108664800D01*
X172855000Y-108609800D01*
X173020000Y-108559800D01*
X173195000Y-108514800D01*
X173325000Y-108489800D01*
X173470000Y-108464800D01*
X173590000Y-108449800D01*
G36*
X173590000Y-109859800D02*
G01*
X173515000Y-109874800D01*
X173410000Y-109899800D01*
X173290000Y-109934800D01*
X173210000Y-109964800D01*
X173130000Y-109994800D01*
X173030000Y-110039800D01*
X172930000Y-110089800D01*
X172835000Y-110144800D01*
X172740000Y-110204800D01*
X172675000Y-110249800D01*
X172590000Y-110314800D01*
X172525000Y-110369800D01*
X172425000Y-110459800D01*
X172345000Y-110544800D01*
X172295000Y-110599800D01*
X172245000Y-110659800D01*
X172180000Y-110744800D01*
X172120000Y-110829800D01*
X172055000Y-110934800D01*
X172010000Y-111014800D01*
X171960000Y-111114800D01*
X171900000Y-111254800D01*
X171860000Y-111369800D01*
X171825000Y-111484800D01*
X171800000Y-111589800D01*
X171785000Y-111664800D01*
X170375000Y-111664800D01*
X170380000Y-111634800D01*
X170390000Y-111559800D01*
X170405000Y-111459800D01*
X170425000Y-111349800D01*
X170450000Y-111234800D01*
X170475000Y-111134800D01*
X170505000Y-111024800D01*
X170535000Y-110929800D01*
X170560000Y-110859800D01*
X170595000Y-110764800D01*
X170620000Y-110699800D01*
X170660000Y-110604800D01*
X170700000Y-110514800D01*
X170750000Y-110414800D01*
X170815000Y-110294800D01*
X170880000Y-110179800D01*
X170945000Y-110079800D01*
X171005000Y-109989800D01*
X171070000Y-109899800D01*
X171120000Y-109834800D01*
X171170000Y-109769800D01*
X171230000Y-109699800D01*
X171295000Y-109624800D01*
X171365000Y-109549800D01*
X171450000Y-109464800D01*
X171495000Y-109419800D01*
X171545000Y-109374800D01*
X171625000Y-109304800D01*
X171695000Y-109244800D01*
X171765000Y-109189800D01*
X171845000Y-109129800D01*
X171930000Y-109069800D01*
X172065000Y-108979800D01*
X172225000Y-108884800D01*
X172400000Y-108794800D01*
X172550000Y-108724800D01*
X172700000Y-108664800D01*
X172855000Y-108609800D01*
X173020000Y-108559800D01*
X173195000Y-108514800D01*
X173325000Y-108489800D01*
X173470000Y-108464800D01*
X173590000Y-108449800D01*
X173590000Y-109859800D01*
G37*
X174390000Y-115679800D02*
X174390000Y-114269800D01*
X174465000Y-114254800D01*
X174570000Y-114229800D01*
X174690000Y-114194800D01*
X174770000Y-114164800D01*
X174850000Y-114134800D01*
X174950000Y-114089800D01*
X175050000Y-114039800D01*
X175145000Y-113984800D01*
X175240000Y-113924800D01*
X175305000Y-113879800D01*
X175390000Y-113814800D01*
X175455000Y-113759800D01*
X175555000Y-113669800D01*
X175635000Y-113584800D01*
X175685000Y-113529800D01*
X175735000Y-113469800D01*
X175800000Y-113384800D01*
X175860000Y-113299800D01*
X175925000Y-113194800D01*
X175970000Y-113114800D01*
X176020000Y-113014800D01*
X176080000Y-112874800D01*
X176120000Y-112759800D01*
X176155000Y-112644800D01*
X176180000Y-112539800D01*
X176195000Y-112464800D01*
X177605000Y-112464800D01*
X177600000Y-112494800D01*
X177590000Y-112569800D01*
X177575000Y-112669800D01*
X177555000Y-112779800D01*
X177530000Y-112894800D01*
X177505000Y-112994800D01*
X177475000Y-113104800D01*
X177445000Y-113199800D01*
X177420000Y-113269800D01*
X177385000Y-113364800D01*
X177360000Y-113429800D01*
X177320000Y-113524800D01*
X177280000Y-113614800D01*
X177230000Y-113714800D01*
X177165000Y-113834800D01*
X177100000Y-113949800D01*
X177035000Y-114049800D01*
X176975000Y-114139800D01*
X176910000Y-114229800D01*
X176860000Y-114294800D01*
X176810000Y-114359800D01*
X176750000Y-114429800D01*
X176685000Y-114504800D01*
X176615000Y-114579800D01*
X176530000Y-114664800D01*
X176485000Y-114709800D01*
X176435000Y-114754800D01*
X176355000Y-114824800D01*
X176285000Y-114884800D01*
X176215000Y-114939800D01*
X176135000Y-114999800D01*
X176050000Y-115059800D01*
X175915000Y-115149800D01*
X175755000Y-115244800D01*
X175580000Y-115334800D01*
X175430000Y-115404800D01*
X175280000Y-115464800D01*
X175125000Y-115519800D01*
X174960000Y-115569800D01*
X174785000Y-115614800D01*
X174655000Y-115639800D01*
X174510000Y-115664800D01*
X174390000Y-115679800D01*
G36*
X177600000Y-112494800D02*
G01*
X177590000Y-112569800D01*
X177575000Y-112669800D01*
X177555000Y-112779800D01*
X177530000Y-112894800D01*
X177505000Y-112994800D01*
X177475000Y-113104800D01*
X177445000Y-113199800D01*
X177420000Y-113269800D01*
X177385000Y-113364800D01*
X177360000Y-113429800D01*
X177320000Y-113524800D01*
X177280000Y-113614800D01*
X177230000Y-113714800D01*
X177165000Y-113834800D01*
X177100000Y-113949800D01*
X177035000Y-114049800D01*
X176975000Y-114139800D01*
X176910000Y-114229800D01*
X176860000Y-114294800D01*
X176810000Y-114359800D01*
X176750000Y-114429800D01*
X176685000Y-114504800D01*
X176615000Y-114579800D01*
X176530000Y-114664800D01*
X176485000Y-114709800D01*
X176435000Y-114754800D01*
X176355000Y-114824800D01*
X176285000Y-114884800D01*
X176215000Y-114939800D01*
X176135000Y-114999800D01*
X176050000Y-115059800D01*
X175915000Y-115149800D01*
X175755000Y-115244800D01*
X175580000Y-115334800D01*
X175430000Y-115404800D01*
X175280000Y-115464800D01*
X175125000Y-115519800D01*
X174960000Y-115569800D01*
X174785000Y-115614800D01*
X174655000Y-115639800D01*
X174510000Y-115664800D01*
X174390000Y-115679800D01*
X174390000Y-114269800D01*
X174465000Y-114254800D01*
X174570000Y-114229800D01*
X174690000Y-114194800D01*
X174770000Y-114164800D01*
X174850000Y-114134800D01*
X174950000Y-114089800D01*
X175050000Y-114039800D01*
X175145000Y-113984800D01*
X175240000Y-113924800D01*
X175305000Y-113879800D01*
X175390000Y-113814800D01*
X175455000Y-113759800D01*
X175555000Y-113669800D01*
X175635000Y-113584800D01*
X175685000Y-113529800D01*
X175735000Y-113469800D01*
X175800000Y-113384800D01*
X175860000Y-113299800D01*
X175925000Y-113194800D01*
X175970000Y-113114800D01*
X176020000Y-113014800D01*
X176080000Y-112874800D01*
X176120000Y-112759800D01*
X176155000Y-112644800D01*
X176180000Y-112539800D01*
X176195000Y-112464800D01*
X177605000Y-112464800D01*
X177600000Y-112494800D01*
G37*
X177605000Y-111664800D02*
X176195000Y-111664800D01*
X176180000Y-111589800D01*
X176155000Y-111484800D01*
X176120000Y-111364800D01*
X176090000Y-111284800D01*
X176060000Y-111204800D01*
X176015000Y-111104800D01*
X175965000Y-111004800D01*
X175910000Y-110909800D01*
X175850000Y-110814800D01*
X175805000Y-110749800D01*
X175740000Y-110664800D01*
X175685000Y-110599800D01*
X175595000Y-110499800D01*
X175510000Y-110419800D01*
X175455000Y-110369800D01*
X175395000Y-110319800D01*
X175310000Y-110254800D01*
X175225000Y-110194800D01*
X175120000Y-110129800D01*
X175040000Y-110084800D01*
X174940000Y-110034800D01*
X174800000Y-109974800D01*
X174685000Y-109934800D01*
X174570000Y-109899800D01*
X174465000Y-109874800D01*
X174390000Y-109859800D01*
X174390000Y-108449800D01*
X174420000Y-108454800D01*
X174495000Y-108464800D01*
X174595000Y-108479800D01*
X174705000Y-108499800D01*
X174820000Y-108524800D01*
X174920000Y-108549800D01*
X175030000Y-108579800D01*
X175125000Y-108609800D01*
X175195000Y-108634800D01*
X175290000Y-108669800D01*
X175355000Y-108694800D01*
X175450000Y-108734800D01*
X175540000Y-108774800D01*
X175640000Y-108824800D01*
X175760000Y-108889800D01*
X175875000Y-108954800D01*
X175975000Y-109019800D01*
X176065000Y-109079800D01*
X176155000Y-109144800D01*
X176220000Y-109194800D01*
X176285000Y-109244800D01*
X176355000Y-109304800D01*
X176430000Y-109369800D01*
X176505000Y-109439800D01*
X176590000Y-109524800D01*
X176635000Y-109569800D01*
X176680000Y-109619800D01*
X176750000Y-109699800D01*
X176810000Y-109769800D01*
X176865000Y-109839800D01*
X176925000Y-109919800D01*
X176985000Y-110004800D01*
X177075000Y-110139800D01*
X177170000Y-110299800D01*
X177260000Y-110474800D01*
X177330000Y-110624800D01*
X177390000Y-110774800D01*
X177445000Y-110929800D01*
X177495000Y-111094800D01*
X177540000Y-111269800D01*
X177565000Y-111399800D01*
X177590000Y-111544800D01*
X177605000Y-111664800D01*
G36*
X174420000Y-108454800D02*
G01*
X174495000Y-108464800D01*
X174595000Y-108479800D01*
X174705000Y-108499800D01*
X174820000Y-108524800D01*
X174920000Y-108549800D01*
X175030000Y-108579800D01*
X175125000Y-108609800D01*
X175195000Y-108634800D01*
X175290000Y-108669800D01*
X175355000Y-108694800D01*
X175450000Y-108734800D01*
X175540000Y-108774800D01*
X175640000Y-108824800D01*
X175760000Y-108889800D01*
X175875000Y-108954800D01*
X175975000Y-109019800D01*
X176065000Y-109079800D01*
X176155000Y-109144800D01*
X176220000Y-109194800D01*
X176285000Y-109244800D01*
X176355000Y-109304800D01*
X176430000Y-109369800D01*
X176505000Y-109439800D01*
X176590000Y-109524800D01*
X176635000Y-109569800D01*
X176680000Y-109619800D01*
X176750000Y-109699800D01*
X176810000Y-109769800D01*
X176865000Y-109839800D01*
X176925000Y-109919800D01*
X176985000Y-110004800D01*
X177075000Y-110139800D01*
X177170000Y-110299800D01*
X177260000Y-110474800D01*
X177330000Y-110624800D01*
X177390000Y-110774800D01*
X177445000Y-110929800D01*
X177495000Y-111094800D01*
X177540000Y-111269800D01*
X177565000Y-111399800D01*
X177590000Y-111544800D01*
X177605000Y-111664800D01*
X176195000Y-111664800D01*
X176180000Y-111589800D01*
X176155000Y-111484800D01*
X176120000Y-111364800D01*
X176090000Y-111284800D01*
X176060000Y-111204800D01*
X176015000Y-111104800D01*
X175965000Y-111004800D01*
X175910000Y-110909800D01*
X175850000Y-110814800D01*
X175805000Y-110749800D01*
X175740000Y-110664800D01*
X175685000Y-110599800D01*
X175595000Y-110499800D01*
X175510000Y-110419800D01*
X175455000Y-110369800D01*
X175395000Y-110319800D01*
X175310000Y-110254800D01*
X175225000Y-110194800D01*
X175120000Y-110129800D01*
X175040000Y-110084800D01*
X174940000Y-110034800D01*
X174800000Y-109974800D01*
X174685000Y-109934800D01*
X174570000Y-109899800D01*
X174465000Y-109874800D01*
X174390000Y-109859800D01*
X174390000Y-108449800D01*
X174420000Y-108454800D01*
G37*
%TO.C,MP1*%
X170375000Y-81984800D02*
X171785000Y-81984800D01*
X171800000Y-82059800D01*
X171825000Y-82164800D01*
X171860000Y-82284800D01*
X171890000Y-82364800D01*
X171920000Y-82444800D01*
X171965000Y-82544800D01*
X172015000Y-82644800D01*
X172070000Y-82739800D01*
X172130000Y-82834800D01*
X172175000Y-82899800D01*
X172240000Y-82984800D01*
X172295000Y-83049800D01*
X172385000Y-83149800D01*
X172470000Y-83229800D01*
X172525000Y-83279800D01*
X172585000Y-83329800D01*
X172670000Y-83394800D01*
X172755000Y-83454800D01*
X172860000Y-83519800D01*
X172940000Y-83564800D01*
X173040000Y-83614800D01*
X173180000Y-83674800D01*
X173295000Y-83714800D01*
X173410000Y-83749800D01*
X173515000Y-83774800D01*
X173590000Y-83789800D01*
X173590000Y-85199800D01*
X173560000Y-85194800D01*
X173485000Y-85184800D01*
X173385000Y-85169800D01*
X173275000Y-85149800D01*
X173160000Y-85124800D01*
X173060000Y-85099800D01*
X172950000Y-85069800D01*
X172855000Y-85039800D01*
X172785000Y-85014800D01*
X172690000Y-84979800D01*
X172625000Y-84954800D01*
X172530000Y-84914800D01*
X172440000Y-84874800D01*
X172340000Y-84824800D01*
X172220000Y-84759800D01*
X172105000Y-84694800D01*
X172005000Y-84629800D01*
X171915000Y-84569800D01*
X171825000Y-84504800D01*
X171760000Y-84454800D01*
X171695000Y-84404800D01*
X171625000Y-84344800D01*
X171550000Y-84279800D01*
X171475000Y-84209800D01*
X171390000Y-84124800D01*
X171345000Y-84079800D01*
X171300000Y-84029800D01*
X171230000Y-83949800D01*
X171170000Y-83879800D01*
X171115000Y-83809800D01*
X171055000Y-83729800D01*
X170995000Y-83644800D01*
X170905000Y-83509800D01*
X170810000Y-83349800D01*
X170720000Y-83174800D01*
X170650000Y-83024800D01*
X170590000Y-82874800D01*
X170535000Y-82719800D01*
X170485000Y-82554800D01*
X170440000Y-82379800D01*
X170415000Y-82249800D01*
X170390000Y-82104800D01*
X170375000Y-81984800D01*
G36*
X171800000Y-82059800D02*
G01*
X171825000Y-82164800D01*
X171860000Y-82284800D01*
X171890000Y-82364800D01*
X171920000Y-82444800D01*
X171965000Y-82544800D01*
X172015000Y-82644800D01*
X172070000Y-82739800D01*
X172130000Y-82834800D01*
X172175000Y-82899800D01*
X172240000Y-82984800D01*
X172295000Y-83049800D01*
X172385000Y-83149800D01*
X172470000Y-83229800D01*
X172525000Y-83279800D01*
X172585000Y-83329800D01*
X172670000Y-83394800D01*
X172755000Y-83454800D01*
X172860000Y-83519800D01*
X172940000Y-83564800D01*
X173040000Y-83614800D01*
X173180000Y-83674800D01*
X173295000Y-83714800D01*
X173410000Y-83749800D01*
X173515000Y-83774800D01*
X173590000Y-83789800D01*
X173590000Y-85199800D01*
X173560000Y-85194800D01*
X173485000Y-85184800D01*
X173385000Y-85169800D01*
X173275000Y-85149800D01*
X173160000Y-85124800D01*
X173060000Y-85099800D01*
X172950000Y-85069800D01*
X172855000Y-85039800D01*
X172785000Y-85014800D01*
X172690000Y-84979800D01*
X172625000Y-84954800D01*
X172530000Y-84914800D01*
X172440000Y-84874800D01*
X172340000Y-84824800D01*
X172220000Y-84759800D01*
X172105000Y-84694800D01*
X172005000Y-84629800D01*
X171915000Y-84569800D01*
X171825000Y-84504800D01*
X171760000Y-84454800D01*
X171695000Y-84404800D01*
X171625000Y-84344800D01*
X171550000Y-84279800D01*
X171475000Y-84209800D01*
X171390000Y-84124800D01*
X171345000Y-84079800D01*
X171300000Y-84029800D01*
X171230000Y-83949800D01*
X171170000Y-83879800D01*
X171115000Y-83809800D01*
X171055000Y-83729800D01*
X170995000Y-83644800D01*
X170905000Y-83509800D01*
X170810000Y-83349800D01*
X170720000Y-83174800D01*
X170650000Y-83024800D01*
X170590000Y-82874800D01*
X170535000Y-82719800D01*
X170485000Y-82554800D01*
X170440000Y-82379800D01*
X170415000Y-82249800D01*
X170390000Y-82104800D01*
X170375000Y-81984800D01*
X171785000Y-81984800D01*
X171800000Y-82059800D01*
G37*
X173590000Y-77969800D02*
X173590000Y-79379800D01*
X173515000Y-79394800D01*
X173410000Y-79419800D01*
X173290000Y-79454800D01*
X173210000Y-79484800D01*
X173130000Y-79514800D01*
X173030000Y-79559800D01*
X172930000Y-79609800D01*
X172835000Y-79664800D01*
X172740000Y-79724800D01*
X172675000Y-79769800D01*
X172590000Y-79834800D01*
X172525000Y-79889800D01*
X172425000Y-79979800D01*
X172345000Y-80064800D01*
X172295000Y-80119800D01*
X172245000Y-80179800D01*
X172180000Y-80264800D01*
X172120000Y-80349800D01*
X172055000Y-80454800D01*
X172010000Y-80534800D01*
X171960000Y-80634800D01*
X171900000Y-80774800D01*
X171860000Y-80889800D01*
X171825000Y-81004800D01*
X171800000Y-81109800D01*
X171785000Y-81184800D01*
X170375000Y-81184800D01*
X170380000Y-81154800D01*
X170390000Y-81079800D01*
X170405000Y-80979800D01*
X170425000Y-80869800D01*
X170450000Y-80754800D01*
X170475000Y-80654800D01*
X170505000Y-80544800D01*
X170535000Y-80449800D01*
X170560000Y-80379800D01*
X170595000Y-80284800D01*
X170620000Y-80219800D01*
X170660000Y-80124800D01*
X170700000Y-80034800D01*
X170750000Y-79934800D01*
X170815000Y-79814800D01*
X170880000Y-79699800D01*
X170945000Y-79599800D01*
X171005000Y-79509800D01*
X171070000Y-79419800D01*
X171120000Y-79354800D01*
X171170000Y-79289800D01*
X171230000Y-79219800D01*
X171295000Y-79144800D01*
X171365000Y-79069800D01*
X171450000Y-78984800D01*
X171495000Y-78939800D01*
X171545000Y-78894800D01*
X171625000Y-78824800D01*
X171695000Y-78764800D01*
X171765000Y-78709800D01*
X171845000Y-78649800D01*
X171930000Y-78589800D01*
X172065000Y-78499800D01*
X172225000Y-78404800D01*
X172400000Y-78314800D01*
X172550000Y-78244800D01*
X172700000Y-78184800D01*
X172855000Y-78129800D01*
X173020000Y-78079800D01*
X173195000Y-78034800D01*
X173325000Y-78009800D01*
X173470000Y-77984800D01*
X173590000Y-77969800D01*
G36*
X173590000Y-79379800D02*
G01*
X173515000Y-79394800D01*
X173410000Y-79419800D01*
X173290000Y-79454800D01*
X173210000Y-79484800D01*
X173130000Y-79514800D01*
X173030000Y-79559800D01*
X172930000Y-79609800D01*
X172835000Y-79664800D01*
X172740000Y-79724800D01*
X172675000Y-79769800D01*
X172590000Y-79834800D01*
X172525000Y-79889800D01*
X172425000Y-79979800D01*
X172345000Y-80064800D01*
X172295000Y-80119800D01*
X172245000Y-80179800D01*
X172180000Y-80264800D01*
X172120000Y-80349800D01*
X172055000Y-80454800D01*
X172010000Y-80534800D01*
X171960000Y-80634800D01*
X171900000Y-80774800D01*
X171860000Y-80889800D01*
X171825000Y-81004800D01*
X171800000Y-81109800D01*
X171785000Y-81184800D01*
X170375000Y-81184800D01*
X170380000Y-81154800D01*
X170390000Y-81079800D01*
X170405000Y-80979800D01*
X170425000Y-80869800D01*
X170450000Y-80754800D01*
X170475000Y-80654800D01*
X170505000Y-80544800D01*
X170535000Y-80449800D01*
X170560000Y-80379800D01*
X170595000Y-80284800D01*
X170620000Y-80219800D01*
X170660000Y-80124800D01*
X170700000Y-80034800D01*
X170750000Y-79934800D01*
X170815000Y-79814800D01*
X170880000Y-79699800D01*
X170945000Y-79599800D01*
X171005000Y-79509800D01*
X171070000Y-79419800D01*
X171120000Y-79354800D01*
X171170000Y-79289800D01*
X171230000Y-79219800D01*
X171295000Y-79144800D01*
X171365000Y-79069800D01*
X171450000Y-78984800D01*
X171495000Y-78939800D01*
X171545000Y-78894800D01*
X171625000Y-78824800D01*
X171695000Y-78764800D01*
X171765000Y-78709800D01*
X171845000Y-78649800D01*
X171930000Y-78589800D01*
X172065000Y-78499800D01*
X172225000Y-78404800D01*
X172400000Y-78314800D01*
X172550000Y-78244800D01*
X172700000Y-78184800D01*
X172855000Y-78129800D01*
X173020000Y-78079800D01*
X173195000Y-78034800D01*
X173325000Y-78009800D01*
X173470000Y-77984800D01*
X173590000Y-77969800D01*
X173590000Y-79379800D01*
G37*
X174390000Y-85199800D02*
X174390000Y-83789800D01*
X174465000Y-83774800D01*
X174570000Y-83749800D01*
X174690000Y-83714800D01*
X174770000Y-83684800D01*
X174850000Y-83654800D01*
X174950000Y-83609800D01*
X175050000Y-83559800D01*
X175145000Y-83504800D01*
X175240000Y-83444800D01*
X175305000Y-83399800D01*
X175390000Y-83334800D01*
X175455000Y-83279800D01*
X175555000Y-83189800D01*
X175635000Y-83104800D01*
X175685000Y-83049800D01*
X175735000Y-82989800D01*
X175800000Y-82904800D01*
X175860000Y-82819800D01*
X175925000Y-82714800D01*
X175970000Y-82634800D01*
X176020000Y-82534800D01*
X176080000Y-82394800D01*
X176120000Y-82279800D01*
X176155000Y-82164800D01*
X176180000Y-82059800D01*
X176195000Y-81984800D01*
X177605000Y-81984800D01*
X177600000Y-82014800D01*
X177590000Y-82089800D01*
X177575000Y-82189800D01*
X177555000Y-82299800D01*
X177530000Y-82414800D01*
X177505000Y-82514800D01*
X177475000Y-82624800D01*
X177445000Y-82719800D01*
X177420000Y-82789800D01*
X177385000Y-82884800D01*
X177360000Y-82949800D01*
X177320000Y-83044800D01*
X177280000Y-83134800D01*
X177230000Y-83234800D01*
X177165000Y-83354800D01*
X177100000Y-83469800D01*
X177035000Y-83569800D01*
X176975000Y-83659800D01*
X176910000Y-83749800D01*
X176860000Y-83814800D01*
X176810000Y-83879800D01*
X176750000Y-83949800D01*
X176685000Y-84024800D01*
X176615000Y-84099800D01*
X176530000Y-84184800D01*
X176485000Y-84229800D01*
X176435000Y-84274800D01*
X176355000Y-84344800D01*
X176285000Y-84404800D01*
X176215000Y-84459800D01*
X176135000Y-84519800D01*
X176050000Y-84579800D01*
X175915000Y-84669800D01*
X175755000Y-84764800D01*
X175580000Y-84854800D01*
X175430000Y-84924800D01*
X175280000Y-84984800D01*
X175125000Y-85039800D01*
X174960000Y-85089800D01*
X174785000Y-85134800D01*
X174655000Y-85159800D01*
X174510000Y-85184800D01*
X174390000Y-85199800D01*
G36*
X177600000Y-82014800D02*
G01*
X177590000Y-82089800D01*
X177575000Y-82189800D01*
X177555000Y-82299800D01*
X177530000Y-82414800D01*
X177505000Y-82514800D01*
X177475000Y-82624800D01*
X177445000Y-82719800D01*
X177420000Y-82789800D01*
X177385000Y-82884800D01*
X177360000Y-82949800D01*
X177320000Y-83044800D01*
X177280000Y-83134800D01*
X177230000Y-83234800D01*
X177165000Y-83354800D01*
X177100000Y-83469800D01*
X177035000Y-83569800D01*
X176975000Y-83659800D01*
X176910000Y-83749800D01*
X176860000Y-83814800D01*
X176810000Y-83879800D01*
X176750000Y-83949800D01*
X176685000Y-84024800D01*
X176615000Y-84099800D01*
X176530000Y-84184800D01*
X176485000Y-84229800D01*
X176435000Y-84274800D01*
X176355000Y-84344800D01*
X176285000Y-84404800D01*
X176215000Y-84459800D01*
X176135000Y-84519800D01*
X176050000Y-84579800D01*
X175915000Y-84669800D01*
X175755000Y-84764800D01*
X175580000Y-84854800D01*
X175430000Y-84924800D01*
X175280000Y-84984800D01*
X175125000Y-85039800D01*
X174960000Y-85089800D01*
X174785000Y-85134800D01*
X174655000Y-85159800D01*
X174510000Y-85184800D01*
X174390000Y-85199800D01*
X174390000Y-83789800D01*
X174465000Y-83774800D01*
X174570000Y-83749800D01*
X174690000Y-83714800D01*
X174770000Y-83684800D01*
X174850000Y-83654800D01*
X174950000Y-83609800D01*
X175050000Y-83559800D01*
X175145000Y-83504800D01*
X175240000Y-83444800D01*
X175305000Y-83399800D01*
X175390000Y-83334800D01*
X175455000Y-83279800D01*
X175555000Y-83189800D01*
X175635000Y-83104800D01*
X175685000Y-83049800D01*
X175735000Y-82989800D01*
X175800000Y-82904800D01*
X175860000Y-82819800D01*
X175925000Y-82714800D01*
X175970000Y-82634800D01*
X176020000Y-82534800D01*
X176080000Y-82394800D01*
X176120000Y-82279800D01*
X176155000Y-82164800D01*
X176180000Y-82059800D01*
X176195000Y-81984800D01*
X177605000Y-81984800D01*
X177600000Y-82014800D01*
G37*
X177605000Y-81184800D02*
X176195000Y-81184800D01*
X176180000Y-81109800D01*
X176155000Y-81004800D01*
X176120000Y-80884800D01*
X176090000Y-80804800D01*
X176060000Y-80724800D01*
X176015000Y-80624800D01*
X175965000Y-80524800D01*
X175910000Y-80429800D01*
X175850000Y-80334800D01*
X175805000Y-80269800D01*
X175740000Y-80184800D01*
X175685000Y-80119800D01*
X175595000Y-80019800D01*
X175510000Y-79939800D01*
X175455000Y-79889800D01*
X175395000Y-79839800D01*
X175310000Y-79774800D01*
X175225000Y-79714800D01*
X175120000Y-79649800D01*
X175040000Y-79604800D01*
X174940000Y-79554800D01*
X174800000Y-79494800D01*
X174685000Y-79454800D01*
X174570000Y-79419800D01*
X174465000Y-79394800D01*
X174390000Y-79379800D01*
X174390000Y-77969800D01*
X174420000Y-77974800D01*
X174495000Y-77984800D01*
X174595000Y-77999800D01*
X174705000Y-78019800D01*
X174820000Y-78044800D01*
X174920000Y-78069800D01*
X175030000Y-78099800D01*
X175125000Y-78129800D01*
X175195000Y-78154800D01*
X175290000Y-78189800D01*
X175355000Y-78214800D01*
X175450000Y-78254800D01*
X175540000Y-78294800D01*
X175640000Y-78344800D01*
X175760000Y-78409800D01*
X175875000Y-78474800D01*
X175975000Y-78539800D01*
X176065000Y-78599800D01*
X176155000Y-78664800D01*
X176220000Y-78714800D01*
X176285000Y-78764800D01*
X176355000Y-78824800D01*
X176430000Y-78889800D01*
X176505000Y-78959800D01*
X176590000Y-79044800D01*
X176635000Y-79089800D01*
X176680000Y-79139800D01*
X176750000Y-79219800D01*
X176810000Y-79289800D01*
X176865000Y-79359800D01*
X176925000Y-79439800D01*
X176985000Y-79524800D01*
X177075000Y-79659800D01*
X177170000Y-79819800D01*
X177260000Y-79994800D01*
X177330000Y-80144800D01*
X177390000Y-80294800D01*
X177445000Y-80449800D01*
X177495000Y-80614800D01*
X177540000Y-80789800D01*
X177565000Y-80919800D01*
X177590000Y-81064800D01*
X177605000Y-81184800D01*
G36*
X174420000Y-77974800D02*
G01*
X174495000Y-77984800D01*
X174595000Y-77999800D01*
X174705000Y-78019800D01*
X174820000Y-78044800D01*
X174920000Y-78069800D01*
X175030000Y-78099800D01*
X175125000Y-78129800D01*
X175195000Y-78154800D01*
X175290000Y-78189800D01*
X175355000Y-78214800D01*
X175450000Y-78254800D01*
X175540000Y-78294800D01*
X175640000Y-78344800D01*
X175760000Y-78409800D01*
X175875000Y-78474800D01*
X175975000Y-78539800D01*
X176065000Y-78599800D01*
X176155000Y-78664800D01*
X176220000Y-78714800D01*
X176285000Y-78764800D01*
X176355000Y-78824800D01*
X176430000Y-78889800D01*
X176505000Y-78959800D01*
X176590000Y-79044800D01*
X176635000Y-79089800D01*
X176680000Y-79139800D01*
X176750000Y-79219800D01*
X176810000Y-79289800D01*
X176865000Y-79359800D01*
X176925000Y-79439800D01*
X176985000Y-79524800D01*
X177075000Y-79659800D01*
X177170000Y-79819800D01*
X177260000Y-79994800D01*
X177330000Y-80144800D01*
X177390000Y-80294800D01*
X177445000Y-80449800D01*
X177495000Y-80614800D01*
X177540000Y-80789800D01*
X177565000Y-80919800D01*
X177590000Y-81064800D01*
X177605000Y-81184800D01*
X176195000Y-81184800D01*
X176180000Y-81109800D01*
X176155000Y-81004800D01*
X176120000Y-80884800D01*
X176090000Y-80804800D01*
X176060000Y-80724800D01*
X176015000Y-80624800D01*
X175965000Y-80524800D01*
X175910000Y-80429800D01*
X175850000Y-80334800D01*
X175805000Y-80269800D01*
X175740000Y-80184800D01*
X175685000Y-80119800D01*
X175595000Y-80019800D01*
X175510000Y-79939800D01*
X175455000Y-79889800D01*
X175395000Y-79839800D01*
X175310000Y-79774800D01*
X175225000Y-79714800D01*
X175120000Y-79649800D01*
X175040000Y-79604800D01*
X174940000Y-79554800D01*
X174800000Y-79494800D01*
X174685000Y-79454800D01*
X174570000Y-79419800D01*
X174465000Y-79394800D01*
X174390000Y-79379800D01*
X174390000Y-77969800D01*
X174420000Y-77974800D01*
G37*
%TD*%
D11*
%TO.C,R18*%
X146854300Y-103064002D03*
X146854300Y-104714002D03*
%TD*%
D12*
%TO.C,U2*%
X134689899Y-72210599D03*
X134689899Y-71560601D03*
X134689899Y-70910599D03*
X134689899Y-70260601D03*
X128593899Y-70260601D03*
X128593899Y-70910599D03*
X128593899Y-71560601D03*
X128593899Y-72210599D03*
%TD*%
D13*
%TO.C,R49*%
X130086600Y-113595300D03*
X131736600Y-113595300D03*
%TD*%
D14*
%TO.C,R25*%
X114579400Y-112166400D03*
X112929400Y-112166400D03*
%TD*%
D15*
%TO.C,J3*%
X174273000Y-122894600D03*
X174273000Y-120894600D03*
D16*
X180268000Y-125789600D03*
X180268000Y-117999600D03*
%TD*%
D17*
%TO.C,C1*%
X136314699Y-78754000D03*
X137864699Y-78754000D03*
%TD*%
D18*
%TO.C,R27*%
X148310600Y-98299000D03*
X148310600Y-99949000D03*
%TD*%
D11*
%TO.C,R30*%
X158414400Y-104783400D03*
X158414400Y-103133400D03*
%TD*%
D15*
%TO.C,J4*%
X174527000Y-74145400D03*
X174527000Y-72145400D03*
X174527000Y-70145400D03*
X174527000Y-68145400D03*
D16*
X180522000Y-77040400D03*
X180522000Y-65250400D03*
%TD*%
D13*
%TO.C,R6*%
X136213899Y-71819800D03*
X137863899Y-71819800D03*
%TD*%
D11*
%TO.C,R26*%
X160045400Y-104711000D03*
X160045400Y-103061000D03*
%TD*%
%TO.C,R9*%
X155566500Y-94894200D03*
X155566500Y-93244200D03*
%TD*%
%TO.C,R10*%
X150511900Y-94894200D03*
X150511900Y-93244200D03*
%TD*%
D13*
%TO.C,R45*%
X158509200Y-115262900D03*
X160159200Y-115262900D03*
%TD*%
%TO.C,R14*%
X148690800Y-76849000D03*
X147040800Y-76849000D03*
%TD*%
D19*
%TO.C,U3*%
X154780800Y-77872900D03*
X153600800Y-77872900D03*
X154780800Y-78762900D03*
X153600800Y-78762900D03*
D20*
X155390800Y-76830400D03*
X154990800Y-76830400D03*
X154590800Y-76830400D03*
X154190800Y-76830400D03*
X153790800Y-76830400D03*
X153390800Y-76830400D03*
X152990800Y-76830400D03*
X152990800Y-79805400D03*
X153390800Y-79805400D03*
X153790800Y-79805400D03*
X154190800Y-79805400D03*
X154590800Y-79805400D03*
X154990800Y-79805400D03*
X155390800Y-79805400D03*
%TD*%
D21*
%TO.C,J7*%
X177076000Y-89574800D03*
X170904000Y-89574800D03*
X177076000Y-90074800D03*
X170904000Y-90074800D03*
X177076000Y-90574800D03*
X170904000Y-90574800D03*
X177076000Y-91074800D03*
X170904000Y-91074800D03*
X177076000Y-91574800D03*
X170904000Y-91574800D03*
X177076000Y-92074800D03*
X170904000Y-92074800D03*
X177076000Y-92574800D03*
X170904000Y-92574800D03*
X177076000Y-93074800D03*
X170904000Y-93074800D03*
X177076000Y-93574800D03*
X170904000Y-93574800D03*
X177076000Y-94074800D03*
X170904000Y-94074800D03*
X177076000Y-94574800D03*
X170904000Y-94574800D03*
X177076000Y-95074800D03*
X170904000Y-95074800D03*
X177076000Y-95574800D03*
X170904000Y-95574800D03*
X177076000Y-96074800D03*
X170904000Y-96074800D03*
X177076000Y-96574800D03*
X170904000Y-96574800D03*
X177076000Y-97074800D03*
X170904000Y-97074800D03*
X177076000Y-97574800D03*
X170904000Y-97574800D03*
X177076000Y-98074800D03*
X170904000Y-98074800D03*
X177076000Y-98574800D03*
X170904000Y-98574800D03*
X177076000Y-99074800D03*
X170904000Y-99074800D03*
X177076000Y-99574800D03*
X170904000Y-99574800D03*
X177076000Y-100074800D03*
X170904000Y-100074800D03*
X177076000Y-100574800D03*
X170904000Y-100574800D03*
X177076000Y-101074800D03*
X170904000Y-101074800D03*
X177076000Y-101574800D03*
X170904000Y-101574800D03*
X177076000Y-102074800D03*
X170904000Y-102074800D03*
X177076000Y-102574800D03*
X170904000Y-102574800D03*
X177076000Y-103074800D03*
X170904000Y-103074800D03*
X177076000Y-103574800D03*
X170904000Y-103574800D03*
X177076000Y-104074800D03*
X170904000Y-104074800D03*
D22*
X173990000Y-88379800D03*
D23*
X173990000Y-93649800D03*
X173990000Y-99999800D03*
D22*
X173990000Y-105269800D03*
%TD*%
D11*
%TO.C,R8*%
X158155302Y-94894200D03*
X158155302Y-93244200D03*
%TD*%
D13*
%TO.C,R34*%
X148298400Y-103162600D03*
X149948400Y-103162600D03*
%TD*%
%TO.C,R4*%
X133261600Y-68605400D03*
X134911600Y-68605400D03*
%TD*%
D24*
%TO.C,F7*%
X152882600Y-110888100D03*
X152882600Y-113688100D03*
%TD*%
D25*
%TO.C,Q8*%
X155694500Y-100028400D03*
X156344500Y-100028400D03*
X156994500Y-100028400D03*
X156994500Y-98128400D03*
X156344500Y-98128400D03*
X155694500Y-98128400D03*
%TD*%
D13*
%TO.C,R12*%
X147012001Y-75070200D03*
X148662001Y-75070200D03*
%TD*%
D17*
%TO.C,C5*%
X150107800Y-76898000D03*
X151657800Y-76898000D03*
%TD*%
D26*
%TO.C,C12*%
X149898400Y-104661200D03*
X148348400Y-104661200D03*
%TD*%
D17*
%TO.C,C6*%
X150092201Y-75068400D03*
X151642201Y-75068400D03*
%TD*%
D14*
%TO.C,R22*%
X114579400Y-110236000D03*
X112929400Y-110236000D03*
%TD*%
%TO.C,R42*%
X150786600Y-124175300D03*
X149136600Y-124175300D03*
%TD*%
D17*
%TO.C,C4*%
X136302499Y-70270400D03*
X137852499Y-70270400D03*
%TD*%
D27*
%TO.C,U5*%
X138386100Y-105877400D03*
X138386100Y-104927400D03*
X138386100Y-103977400D03*
X136111100Y-103977400D03*
X136111100Y-104927400D03*
X136111100Y-105877400D03*
%TD*%
D28*
%TO.C,D6*%
X129895500Y-122508400D03*
X131470500Y-122508400D03*
%TD*%
D29*
%TO.C,R23*%
X139015500Y-89418200D03*
X136090500Y-89418200D03*
%TD*%
D25*
%TO.C,Q5*%
X155642800Y-104910600D03*
X156292800Y-104910600D03*
X156942800Y-104910600D03*
X156942800Y-103010600D03*
X156292800Y-103010600D03*
X155642800Y-103010600D03*
%TD*%
D27*
%TO.C,U4*%
X128632500Y-105916900D03*
X128632500Y-104966900D03*
X128632500Y-104016900D03*
X126357500Y-104016900D03*
X126357500Y-104966900D03*
X126357500Y-105916900D03*
%TD*%
D14*
%TO.C,R33*%
X160032200Y-101562400D03*
X158382200Y-101562400D03*
%TD*%
D30*
%TO.C,Q4*%
X136176142Y-98486000D03*
X136176142Y-99756000D03*
X136176142Y-101026000D03*
X136176142Y-102296000D03*
D31*
X139536142Y-100391000D03*
D32*
X141641142Y-98486000D03*
X141641142Y-99756000D03*
X141641142Y-101026000D03*
X141641142Y-102296000D03*
%TD*%
D18*
%TO.C,R17*%
X159816800Y-93241198D03*
X159816800Y-94891198D03*
%TD*%
D30*
%TO.C,Q1*%
X126183200Y-91414600D03*
X126183200Y-92684600D03*
X126183200Y-93954600D03*
X126183200Y-95224600D03*
D31*
X129543200Y-93319600D03*
D32*
X131648200Y-91414600D03*
X131648200Y-92684600D03*
X131648200Y-93954600D03*
X131648200Y-95224600D03*
%TD*%
D33*
%TO.C,D7*%
X170256200Y-69424800D03*
X170256200Y-73424800D03*
%TD*%
D18*
%TO.C,R31*%
X149860000Y-98299000D03*
X149860000Y-99949000D03*
%TD*%
D34*
%TO.C,U7*%
X135915400Y-119353400D03*
X137185400Y-119353400D03*
X137185400Y-112853400D03*
X135915400Y-112853400D03*
%TD*%
D13*
%TO.C,R32*%
X148298400Y-101613200D03*
X149948400Y-101613200D03*
%TD*%
D34*
%TO.C,U6*%
X155194000Y-119500500D03*
X156464000Y-119500500D03*
X156464000Y-113000500D03*
X155194000Y-113000500D03*
%TD*%
D13*
%TO.C,R55*%
X139332200Y-115322500D03*
X140982200Y-115322500D03*
%TD*%
D35*
%TO.C,C14*%
X109524800Y-100670400D03*
X109524800Y-98770400D03*
%TD*%
D24*
%TO.C,F5*%
X131095300Y-86448400D03*
X131095300Y-89248400D03*
%TD*%
%TO.C,F8*%
X133604000Y-110796000D03*
X133604000Y-113596000D03*
%TD*%
D13*
%TO.C,R38*%
X155181800Y-121432100D03*
X156831800Y-121432100D03*
%TD*%
D36*
%TO.C,F3*%
X121231200Y-62534800D03*
X124031200Y-62534800D03*
%TD*%
D17*
%TO.C,C3*%
X136308800Y-68605400D03*
X137858800Y-68605400D03*
%TD*%
D14*
%TO.C,R16*%
X155879800Y-84023200D03*
X154229800Y-84023200D03*
%TD*%
D37*
%TO.C,C10*%
X130370700Y-105931000D03*
X130370700Y-104381000D03*
%TD*%
D18*
%TO.C,R36*%
X154157000Y-103203400D03*
X154157000Y-104853400D03*
%TD*%
D38*
%TO.C,J8*%
X104775000Y-92231201D03*
X104775000Y-93231201D03*
X104775000Y-94231201D03*
X104775000Y-95231201D03*
X104775000Y-96231200D03*
X104775000Y-97231200D03*
X104775000Y-98231201D03*
X104775000Y-99231201D03*
X104775000Y-100231201D03*
X104775000Y-101231201D03*
D39*
X102425000Y-89081201D03*
X102425000Y-104381181D03*
%TD*%
D26*
%TO.C,C9*%
X158312600Y-77583800D03*
X156762600Y-77583800D03*
%TD*%
D14*
%TO.C,R35*%
X160057600Y-99987600D03*
X158407600Y-99987600D03*
%TD*%
D36*
%TO.C,F2*%
X154962400Y-62382400D03*
X157762400Y-62382400D03*
%TD*%
D30*
%TO.C,Q3*%
X136074463Y-91465400D03*
X136074463Y-92735400D03*
X136074463Y-94005400D03*
X136074463Y-95275400D03*
D31*
X139434463Y-93370400D03*
D32*
X141539463Y-91465400D03*
X141539463Y-92735400D03*
X141539463Y-94005400D03*
X141539463Y-95275400D03*
%TD*%
D14*
%TO.C,R28*%
X152912000Y-101538400D03*
X151262000Y-101538400D03*
%TD*%
D18*
%TO.C,R21*%
X124543400Y-95226600D03*
X124543400Y-93576600D03*
%TD*%
D13*
%TO.C,R2*%
X136264699Y-81700400D03*
X137914699Y-81700400D03*
%TD*%
D40*
%TO.C,Q11*%
X133908800Y-115516200D03*
X132638800Y-115516200D03*
X131368800Y-115516200D03*
X130098800Y-115516200D03*
D41*
X132003800Y-118876200D03*
D42*
X133908800Y-120981200D03*
X132638800Y-120981200D03*
X131368800Y-120981200D03*
X130098800Y-120981200D03*
%TD*%
D14*
%TO.C,R1*%
X137908800Y-77063600D03*
X136258800Y-77063600D03*
%TD*%
D26*
%TO.C,C8*%
X158331200Y-79044800D03*
X156781200Y-79044800D03*
%TD*%
D13*
%TO.C,R29*%
X155432000Y-101538400D03*
X157082000Y-101538400D03*
%TD*%
D43*
%TO.C,F4*%
X114303000Y-62560200D03*
X111503000Y-62560200D03*
%TD*%
D17*
%TO.C,C13*%
X158457600Y-98514400D03*
X160007600Y-98514400D03*
%TD*%
D37*
%TO.C,C11*%
X140068000Y-105905600D03*
X140068000Y-104355600D03*
%TD*%
D44*
%TO.C,R7*%
X151679500Y-71284600D03*
X157604500Y-71284600D03*
%TD*%
D13*
%TO.C,R48*%
X135824599Y-121266100D03*
X137474599Y-121266100D03*
%TD*%
D45*
%TO.C,D2*%
X121406600Y-65709800D03*
X123906600Y-65709800D03*
%TD*%
D11*
%TO.C,R19*%
X161527000Y-99928400D03*
X161527000Y-98278400D03*
%TD*%
D12*
%TO.C,U1*%
X134600499Y-80719599D03*
X134600499Y-80069601D03*
X134600499Y-79419599D03*
X134600499Y-78769601D03*
X128504499Y-78769601D03*
X128504499Y-79419599D03*
X128504499Y-80069601D03*
X128504499Y-80719599D03*
%TD*%
D13*
%TO.C,R3*%
X136264699Y-80227200D03*
X137914699Y-80227200D03*
%TD*%
D18*
%TO.C,R13*%
X152120600Y-82461600D03*
X152120600Y-84111600D03*
%TD*%
D11*
%TO.C,R37*%
X154197000Y-99823400D03*
X154197000Y-98173400D03*
%TD*%
D30*
%TO.C,Q2*%
X126366163Y-98450400D03*
X126366163Y-99720400D03*
X126366163Y-100990400D03*
X126366163Y-102260400D03*
D31*
X129726163Y-100355400D03*
D32*
X131831163Y-98450400D03*
X131831163Y-99720400D03*
X131831163Y-100990400D03*
X131831163Y-102260400D03*
%TD*%
D46*
%TO.C,R20*%
X126184500Y-89392800D03*
X129109500Y-89392800D03*
%TD*%
D14*
%TO.C,R15*%
X155879800Y-82473800D03*
X154229800Y-82473800D03*
%TD*%
D47*
%TO.C,Q7*%
X152659500Y-102928400D03*
X152009500Y-102928400D03*
X151359500Y-102928400D03*
X151359500Y-104828400D03*
X152009500Y-104828400D03*
X152659500Y-104828400D03*
%TD*%
D14*
%TO.C,R52*%
X131505599Y-124057800D03*
X129855599Y-124057800D03*
%TD*%
D48*
%TO.C,C15*%
X168351200Y-94935000D03*
X168351200Y-96835000D03*
%TD*%
D18*
%TO.C,R24*%
X134460100Y-93627400D03*
X134460100Y-95277400D03*
%TD*%
D11*
%TO.C,R11*%
X147921100Y-94894200D03*
X147921100Y-93244200D03*
%TD*%
D13*
%TO.C,R39*%
X149366200Y-113787104D03*
X151016200Y-113787104D03*
%TD*%
D49*
%TO.C,Q12*%
X141107200Y-117610800D03*
X139207200Y-117610800D03*
X140157200Y-119485800D03*
%TD*%
D43*
%TO.C,F1*%
X167741600Y-62407800D03*
X164941600Y-62407800D03*
%TD*%
D50*
%TO.C,F6*%
X133998400Y-89273800D03*
X133998400Y-86473800D03*
%TD*%
D26*
%TO.C,C7*%
X148656401Y-78409800D03*
X147106401Y-78409800D03*
%TD*%
D13*
%TO.C,R5*%
X136213899Y-73293000D03*
X137863899Y-73293000D03*
%TD*%
D47*
%TO.C,Q6*%
X152699500Y-98158400D03*
X152049500Y-98158400D03*
X151399500Y-98158400D03*
X151399500Y-100058400D03*
X152049500Y-100058400D03*
X152699500Y-100058400D03*
%TD*%
D45*
%TO.C,D1*%
X154960000Y-65735200D03*
X157460000Y-65735200D03*
%TD*%
D51*
%TO.C,J2*%
X158106500Y-87105600D03*
X155566500Y-90415600D03*
X153026500Y-87105600D03*
X150486500Y-90415600D03*
X147946500Y-87105600D03*
%TD*%
D26*
%TO.C,C2*%
X134861600Y-77063600D03*
X133311600Y-77063600D03*
%TD*%
D49*
%TO.C,Q10*%
X160284200Y-117525800D03*
X158384200Y-117525800D03*
X159334200Y-119400800D03*
%TD*%
D28*
%TO.C,D5*%
X149148800Y-122651300D03*
X150723800Y-122651300D03*
%TD*%
D40*
%TO.C,Q9*%
X153149800Y-115513900D03*
X151879800Y-115513900D03*
X150609800Y-115513900D03*
X149339800Y-115513900D03*
D41*
X151244800Y-118873900D03*
D42*
X153149800Y-120978900D03*
X151879800Y-120978900D03*
X150609800Y-120978900D03*
X149339800Y-120978900D03*
%TD*%
M02*
