M48
; DRILL file KiCad 10.0.4 date 2026-08-31T15:07:02
; FORMAT={-:-/ absolute / inch / decimal}
; #@! TF.CreationDate,2026-08-31T15:07:02-04:00
; #@! TF.GenerationSoftware,Kicad,Pcbnew,10.0.4
; #@! TF.FileFunction,Plated,1,4,PTH
FMAT,2
INCH
; #@! TA.AperFunction,Plated,PTH,ViaDrill
T1C0.0118
; #@! TA.AperFunction,Plated,PTH,ViaDrill
T2C0.0120
; #@! TA.AperFunction,Plated,PTH,ComponentDrill
T3C0.0197
; #@! TA.AperFunction,Plated,PTH,ComponentDrill
T4C0.0472
; #@! TA.AperFunction,Plated,PTH,ComponentDrill
T5C0.0866
; #@! TA.AperFunction,Plated,PTH,ComponentDrill
T6C0.1260
%
G90
G05
T1
X3.898Y-3.761
X3.898Y-3.811
X3.898Y-3.861
X3.948Y-3.761
X3.948Y-3.811
X3.948Y-3.861
X4.011Y-3.714
X4.0325Y-3.5071
X4.0325Y-4.1095
X4.058Y-3.713
X4.1489Y-4.8151
X4.2194Y-3.7886
X4.2195Y-3.8275
X4.221Y-3.671
X4.393Y-2.868
X4.393Y-2.918
X4.443Y-2.868
X4.443Y-2.918
X4.446Y-4.34
X4.446Y-4.416
X4.493Y-2.868
X4.493Y-2.918
X4.543Y-2.868
X4.543Y-2.918
X4.572Y-2.992
X4.572Y-3.042
X4.572Y-3.092
X4.622Y-2.992
X4.622Y-3.042
X4.622Y-3.092
X4.672Y-2.992
X4.672Y-3.042
X4.672Y-3.092
X4.722Y-2.992
X4.722Y-3.042
X4.722Y-3.092
X4.797Y-4.613
X4.797Y-4.663
X4.847Y-4.613
X4.847Y-4.663
X4.865Y-3.7491
X4.897Y-4.613
X4.897Y-4.663
X4.927Y-2.624
X4.927Y-2.674
X4.947Y-4.613
X4.947Y-4.663
X4.9747Y-4.0952
X4.977Y-2.624
X4.977Y-2.674
X5.0022Y-3.1268
X5.027Y-2.624
X5.027Y-2.674
X5.0628Y-2.744
X5.0643Y-4.0952
X5.068Y-4.756
X5.1143Y-3.155
X5.1774Y-4.9662
X5.2465Y-2.701
X5.247Y-3.102
X5.2485Y-3.034
X5.2937Y-3.7511
X5.3587Y-4.0936
X5.4263Y-2.7046
X5.4273Y-2.7666
X5.4277Y-2.8276
X5.4277Y-2.8856
X5.4277Y-3.1006
X5.4295Y-3.034
X5.437Y-4.4432
X5.4806Y-4.6292
X5.5145Y-4.1085
X5.5505Y-4.5403
X5.712Y-3.0256
X5.7317Y-4.1231
X5.743Y-3.8785
X5.752Y-3.087
X5.752Y-4.169
X5.7535Y-2.9555
X5.765Y-2.753
X5.765Y-2.803
X5.765Y-2.853
X5.808Y-4.758
X5.815Y-2.753
X5.815Y-2.803
X5.815Y-2.853
X5.865Y-2.753
X5.865Y-2.803
X5.865Y-2.853
X5.871Y-4.275
X5.871Y-4.325
X5.871Y-4.375
X5.8745Y-3.7099
X5.904Y-3.3115
X5.905Y-3.228
X5.915Y-2.753
X5.915Y-2.803
X5.915Y-2.853
X5.916Y-4.614
X5.916Y-4.664
X5.921Y-4.275
X5.921Y-4.325
X5.921Y-4.375
X5.9365Y-4.9698
X5.955Y-3.366
X5.958Y-2.624
X5.958Y-2.674
X5.966Y-4.614
X5.966Y-4.664
X5.971Y-4.275
X5.971Y-4.325
X5.971Y-4.375
X5.9839Y-4.0906
X6.008Y-2.624
X6.008Y-2.674
X6.016Y-4.614
X6.016Y-4.664
X6.0197Y-3.9991
X6.021Y-4.275
X6.021Y-4.325
X6.021Y-4.375
X6.058Y-2.624
X6.058Y-2.674
X6.066Y-4.614
X6.066Y-4.664
X6.071Y-4.275
X6.071Y-4.325
X6.071Y-4.375
X6.086Y-2.935
X6.1247Y-3.736
X6.1551Y-3.9011
X6.162Y-3.352
X6.171Y-3.171
X6.1718Y-3.0545
X6.172Y-3.207
X6.1972Y-4.445
X6.235Y-3.112
X6.2356Y-4.627
X6.277Y-2.459
X6.277Y-2.509
X6.277Y-2.559
X6.292Y-3.6709
X6.3005Y-3.9985
X6.305Y-4.167
X6.3055Y-4.4828
X6.327Y-2.459
X6.327Y-2.509
X6.327Y-2.559
X6.377Y-2.459
X6.377Y-2.509
X6.377Y-2.559
X6.3983Y-3.455
X6.3983Y-3.505
X6.3983Y-3.555
X6.3993Y-3.6348
X6.3993Y-3.6848
X6.406Y-3.937
X6.427Y-2.459
X6.427Y-2.509
X6.427Y-2.559
X6.4475Y-3.636
X6.4475Y-3.686
X6.448Y-3.734
X6.4483Y-3.455
X6.4483Y-3.505
X6.4483Y-3.555
X6.465Y-3.843
X6.4975Y-3.636
X6.4975Y-3.686
X6.498Y-3.734
X6.4983Y-3.455
X6.4983Y-3.505
X6.4983Y-3.555
X6.5475Y-3.636
X6.5475Y-3.686
X6.548Y-3.734
X6.5483Y-3.455
X6.5483Y-3.505
X6.5483Y-3.555
X6.594Y-4.065
X6.5945Y-4.0275
X6.6052Y-2.658
X6.6052Y-2.708
X6.6052Y-2.758
X6.607Y-2.833
X6.607Y-2.883
X6.607Y-2.933
X6.6552Y-2.658
X6.6552Y-2.708
X6.6552Y-2.758
X6.657Y-2.833
X6.657Y-2.883
X6.657Y-2.933
X6.7052Y-2.658
X6.7052Y-2.708
X6.7052Y-2.758
X6.707Y-2.833
X6.707Y-2.883
X6.707Y-2.933
X6.739Y-4.613
X6.739Y-4.663
X6.739Y-4.713
X6.74Y-4.876
X6.74Y-4.926
X6.74Y-4.976
X6.7552Y-2.658
X6.7552Y-2.708
X6.7552Y-2.758
X6.757Y-2.833
X6.757Y-2.883
X6.757Y-2.933
X6.785Y-4.075
X6.789Y-4.613
X6.789Y-4.663
X6.789Y-4.713
X6.79Y-4.876
X6.79Y-4.926
X6.79Y-4.976
X6.8035Y-4.816
X6.839Y-4.613
X6.839Y-4.663
X6.839Y-4.713
X6.84Y-4.876
X6.84Y-4.926
X6.84Y-4.976
X6.85Y-3.454
X6.85Y-3.504
X6.85Y-3.887
X6.85Y-3.937
X6.85Y-3.987
X6.851Y-3.637
X6.851Y-3.687
X6.851Y-4.119
X6.851Y-4.169
X7.0354Y-3.636
X7.0354Y-3.686
X7.036Y-3.733
X7.039Y-3.882
X7.078Y-3.882
X7.0854Y-3.636
X7.0854Y-3.686
X7.086Y-3.733
X7.0972Y-4.6457
X7.0972Y-4.9523
X7.11Y-2.5698
X7.11Y-3.034
X7.1354Y-3.636
X7.1354Y-3.686
X7.136Y-3.733
X7.1854Y-3.636
X7.1854Y-3.686
T2
X6.2995Y-3.8785
T3
X4.0055Y-2.125
X4.0055Y-5.5
X4.0332Y-2.0582
X4.0332Y-2.1918
X4.0332Y-5.4332
X4.0332Y-5.5668
X4.1Y-2.0305
X4.1Y-2.2195
X4.1Y-5.4055
X4.1Y-5.5945
X4.1668Y-2.0582
X4.1668Y-2.1918
X4.1668Y-5.4332
X4.1668Y-5.5668
X4.1945Y-2.125
X4.1945Y-5.5
X6.8555Y-2.125
X6.8555Y-5.5
X6.8832Y-2.0582
X6.8832Y-2.1918
X6.8832Y-5.4332
X6.8832Y-5.5668
X6.95Y-2.0305
X6.95Y-2.2195
X6.95Y-5.4055
X6.95Y-5.5945
X7.0168Y-2.0582
X7.0168Y-2.1918
X7.0168Y-5.4332
X7.0168Y-5.5668
X7.0445Y-2.125
X7.0445Y-5.5
T4
X4.2043Y-2.3797
X4.2043Y-5.2635
X5.0625Y-2.3797
X5.0625Y-5.2635
X5.9188Y-2.3797
X5.9188Y-5.2635
X6.7771Y-2.3797
X6.7771Y-5.2635
T5
X4.633Y-2.2718
X4.633Y-5.371
X6.348Y-2.2718
X6.348Y-5.3663
T6
X4.1Y-2.125
X4.1Y-5.5
X6.95Y-2.125
X6.95Y-5.5
M30
