%TF.GenerationSoftware,KiCad,Pcbnew,10.0.4*%
%TF.CreationDate,2026-08-22T18:11:01-04:00*%
%TF.ProjectId,Avionics-BatteryBoard,4176696f-6e69-4637-932d-426174746572,rev?*%
%TF.SameCoordinates,Original*%
%TF.FileFunction,Legend,Bot*%
%TF.FilePolarity,Positive*%
%FSLAX46Y46*%
G04 Gerber Fmt 4.6, Leading zero omitted, Abs format (unit mm)*
G04 Created by KiCad (PCBNEW 10.0.4) date 2026-08-22 18:11:01*
%MOMM*%
%LPD*%
G01*
G04 APERTURE LIST*
G04 Aperture macros list*
%AMRoundRect*
0 Rectangle with rounded corners*
0 $1 Rounding radius*
0 $2 $3 $4 $5 $6 $7 $8 $9 X,Y pos of 4 corners*
0 Add a 4 corners polygon primitive as box body*
4,1,4,$2,$3,$4,$5,$6,$7,$8,$9,$2,$3,0*
0 Add four circle primitives for the rounded corners*
1,1,$1+$1,$2,$3*
1,1,$1+$1,$4,$5*
1,1,$1+$1,$6,$7*
1,1,$1+$1,$8,$9*
0 Add four rect primitives between the rounded corners*
20,1,$1+$1,$2,$3,$4,$5,0*
20,1,$1+$1,$4,$5,$6,$7,0*
20,1,$1+$1,$6,$7,$8,$9,0*
20,1,$1+$1,$8,$9,$2,$3,0*%
G04 Aperture macros list end*
%ADD10C,0.127000*%
%ADD11C,0.381000*%
%ADD12C,0.304800*%
%ADD13C,0.120000*%
%ADD14C,0.100000*%
%ADD15C,1.020000*%
%ADD16C,0.800000*%
%ADD17C,6.400000*%
%ADD18RoundRect,0.250000X-1.425000X0.362500X-1.425000X-0.362500X1.425000X-0.362500X1.425000X0.362500X0*%
%ADD19RoundRect,0.225000X0.225000X0.250000X-0.225000X0.250000X-0.225000X-0.250000X0.225000X-0.250000X0*%
%ADD20RoundRect,0.225000X-0.225000X-0.250000X0.225000X-0.250000X0.225000X0.250000X-0.225000X0.250000X0*%
%ADD21C,2.000000*%
%ADD22C,5.200000*%
G04 APERTURE END LIST*
D10*
X150604359Y-87005279D02*
X149969359Y-87005279D01*
X150604359Y-87307660D02*
X149969359Y-87307660D01*
X149969359Y-87307660D02*
X150604359Y-87670517D01*
X150604359Y-87670517D02*
X149969359Y-87670517D01*
X150574121Y-87942660D02*
X150604359Y-88033374D01*
X150604359Y-88033374D02*
X150604359Y-88184565D01*
X150604359Y-88184565D02*
X150574121Y-88245041D01*
X150574121Y-88245041D02*
X150543882Y-88275279D01*
X150543882Y-88275279D02*
X150483406Y-88305517D01*
X150483406Y-88305517D02*
X150422930Y-88305517D01*
X150422930Y-88305517D02*
X150362454Y-88275279D01*
X150362454Y-88275279D02*
X150332216Y-88245041D01*
X150332216Y-88245041D02*
X150301978Y-88184565D01*
X150301978Y-88184565D02*
X150271740Y-88063612D01*
X150271740Y-88063612D02*
X150241501Y-88003136D01*
X150241501Y-88003136D02*
X150211263Y-87972898D01*
X150211263Y-87972898D02*
X150150787Y-87942660D01*
X150150787Y-87942660D02*
X150090311Y-87942660D01*
X150090311Y-87942660D02*
X150029835Y-87972898D01*
X150029835Y-87972898D02*
X149999597Y-88003136D01*
X149999597Y-88003136D02*
X149969359Y-88063612D01*
X149969359Y-88063612D02*
X149969359Y-88214803D01*
X149969359Y-88214803D02*
X149999597Y-88305517D01*
X149969359Y-88486946D02*
X149969359Y-88849803D01*
X150604359Y-88668374D02*
X149969359Y-88668374D01*
X150422930Y-89031232D02*
X150422930Y-89333613D01*
X150604359Y-88970756D02*
X149969359Y-89182422D01*
X149969359Y-89182422D02*
X150604359Y-89394089D01*
X150604359Y-89908137D02*
X150604359Y-89605756D01*
X150604359Y-89605756D02*
X149969359Y-89605756D01*
X150604359Y-90422185D02*
X150604359Y-90119804D01*
X150604359Y-90119804D02*
X149969359Y-90119804D01*
X150271740Y-91329329D02*
X150271740Y-91117662D01*
X150604359Y-91117662D02*
X149969359Y-91117662D01*
X149969359Y-91117662D02*
X149969359Y-91420043D01*
X150604359Y-91661948D02*
X149969359Y-91661948D01*
X150604359Y-92327186D02*
X150301978Y-92115519D01*
X150604359Y-91964329D02*
X149969359Y-91964329D01*
X149969359Y-91964329D02*
X149969359Y-92206234D01*
X149969359Y-92206234D02*
X149999597Y-92266710D01*
X149999597Y-92266710D02*
X150029835Y-92296948D01*
X150029835Y-92296948D02*
X150090311Y-92327186D01*
X150090311Y-92327186D02*
X150181025Y-92327186D01*
X150181025Y-92327186D02*
X150241501Y-92296948D01*
X150241501Y-92296948D02*
X150271740Y-92266710D01*
X150271740Y-92266710D02*
X150301978Y-92206234D01*
X150301978Y-92206234D02*
X150301978Y-91964329D01*
X150574121Y-92569091D02*
X150604359Y-92659805D01*
X150604359Y-92659805D02*
X150604359Y-92810996D01*
X150604359Y-92810996D02*
X150574121Y-92871472D01*
X150574121Y-92871472D02*
X150543882Y-92901710D01*
X150543882Y-92901710D02*
X150483406Y-92931948D01*
X150483406Y-92931948D02*
X150422930Y-92931948D01*
X150422930Y-92931948D02*
X150362454Y-92901710D01*
X150362454Y-92901710D02*
X150332216Y-92871472D01*
X150332216Y-92871472D02*
X150301978Y-92810996D01*
X150301978Y-92810996D02*
X150271740Y-92690043D01*
X150271740Y-92690043D02*
X150241501Y-92629567D01*
X150241501Y-92629567D02*
X150211263Y-92599329D01*
X150211263Y-92599329D02*
X150150787Y-92569091D01*
X150150787Y-92569091D02*
X150090311Y-92569091D01*
X150090311Y-92569091D02*
X150029835Y-92599329D01*
X150029835Y-92599329D02*
X149999597Y-92629567D01*
X149999597Y-92629567D02*
X149969359Y-92690043D01*
X149969359Y-92690043D02*
X149969359Y-92841234D01*
X149969359Y-92841234D02*
X149999597Y-92931948D01*
X149969359Y-93113377D02*
X149969359Y-93476234D01*
X150604359Y-93294805D02*
X149969359Y-93294805D01*
X172702359Y-86878279D02*
X172067359Y-86878279D01*
X172702359Y-87180660D02*
X172067359Y-87180660D01*
X172067359Y-87180660D02*
X172702359Y-87543517D01*
X172702359Y-87543517D02*
X172067359Y-87543517D01*
X172672121Y-87815660D02*
X172702359Y-87906374D01*
X172702359Y-87906374D02*
X172702359Y-88057565D01*
X172702359Y-88057565D02*
X172672121Y-88118041D01*
X172672121Y-88118041D02*
X172641882Y-88148279D01*
X172641882Y-88148279D02*
X172581406Y-88178517D01*
X172581406Y-88178517D02*
X172520930Y-88178517D01*
X172520930Y-88178517D02*
X172460454Y-88148279D01*
X172460454Y-88148279D02*
X172430216Y-88118041D01*
X172430216Y-88118041D02*
X172399978Y-88057565D01*
X172399978Y-88057565D02*
X172369740Y-87936612D01*
X172369740Y-87936612D02*
X172339501Y-87876136D01*
X172339501Y-87876136D02*
X172309263Y-87845898D01*
X172309263Y-87845898D02*
X172248787Y-87815660D01*
X172248787Y-87815660D02*
X172188311Y-87815660D01*
X172188311Y-87815660D02*
X172127835Y-87845898D01*
X172127835Y-87845898D02*
X172097597Y-87876136D01*
X172097597Y-87876136D02*
X172067359Y-87936612D01*
X172067359Y-87936612D02*
X172067359Y-88087803D01*
X172067359Y-88087803D02*
X172097597Y-88178517D01*
X172067359Y-88359946D02*
X172067359Y-88722803D01*
X172702359Y-88541374D02*
X172067359Y-88541374D01*
X172520930Y-88904232D02*
X172520930Y-89206613D01*
X172702359Y-88843756D02*
X172067359Y-89055422D01*
X172067359Y-89055422D02*
X172702359Y-89267089D01*
X172702359Y-89781137D02*
X172702359Y-89478756D01*
X172702359Y-89478756D02*
X172067359Y-89478756D01*
X172702359Y-90295185D02*
X172702359Y-89992804D01*
X172702359Y-89992804D02*
X172067359Y-89992804D01*
X172369740Y-91202329D02*
X172369740Y-90990662D01*
X172702359Y-90990662D02*
X172067359Y-90990662D01*
X172067359Y-90990662D02*
X172067359Y-91293043D01*
X172702359Y-91534948D02*
X172067359Y-91534948D01*
X172702359Y-92200186D02*
X172399978Y-91988519D01*
X172702359Y-91837329D02*
X172067359Y-91837329D01*
X172067359Y-91837329D02*
X172067359Y-92079234D01*
X172067359Y-92079234D02*
X172097597Y-92139710D01*
X172097597Y-92139710D02*
X172127835Y-92169948D01*
X172127835Y-92169948D02*
X172188311Y-92200186D01*
X172188311Y-92200186D02*
X172279025Y-92200186D01*
X172279025Y-92200186D02*
X172339501Y-92169948D01*
X172339501Y-92169948D02*
X172369740Y-92139710D01*
X172369740Y-92139710D02*
X172399978Y-92079234D01*
X172399978Y-92079234D02*
X172399978Y-91837329D01*
X172672121Y-92442091D02*
X172702359Y-92532805D01*
X172702359Y-92532805D02*
X172702359Y-92683996D01*
X172702359Y-92683996D02*
X172672121Y-92744472D01*
X172672121Y-92744472D02*
X172641882Y-92774710D01*
X172641882Y-92774710D02*
X172581406Y-92804948D01*
X172581406Y-92804948D02*
X172520930Y-92804948D01*
X172520930Y-92804948D02*
X172460454Y-92774710D01*
X172460454Y-92774710D02*
X172430216Y-92744472D01*
X172430216Y-92744472D02*
X172399978Y-92683996D01*
X172399978Y-92683996D02*
X172369740Y-92563043D01*
X172369740Y-92563043D02*
X172339501Y-92502567D01*
X172339501Y-92502567D02*
X172309263Y-92472329D01*
X172309263Y-92472329D02*
X172248787Y-92442091D01*
X172248787Y-92442091D02*
X172188311Y-92442091D01*
X172188311Y-92442091D02*
X172127835Y-92472329D01*
X172127835Y-92472329D02*
X172097597Y-92502567D01*
X172097597Y-92502567D02*
X172067359Y-92563043D01*
X172067359Y-92563043D02*
X172067359Y-92714234D01*
X172067359Y-92714234D02*
X172097597Y-92804948D01*
X172067359Y-92986377D02*
X172067359Y-93349234D01*
X172702359Y-93167805D02*
X172067359Y-93167805D01*
D11*
X108732200Y-56882488D02*
X105829343Y-56882488D01*
X107280771Y-58333916D02*
X107280771Y-55431059D01*
X110792200Y-137862488D02*
X107889343Y-137862488D01*
X130152200Y-56882488D02*
X127249343Y-56882488D01*
X128700771Y-58333916D02*
X128700771Y-55431059D01*
X131582200Y-137902488D02*
X128679343Y-137902488D01*
X151882200Y-56822488D02*
X148979343Y-56822488D01*
X153162200Y-138132488D02*
X150259343Y-138132488D01*
X151710771Y-139583916D02*
X151710771Y-136681059D01*
X172192200Y-138132488D02*
X169289343Y-138132488D01*
X170740771Y-139583916D02*
X170740771Y-136681059D01*
X172262200Y-56282488D02*
X169359343Y-56282488D01*
D12*
G36*
X148727274Y-140163300D02*
G01*
X148428020Y-140163300D01*
X148414992Y-140114677D01*
X148357896Y-140143900D01*
X148297896Y-140165393D01*
X148233496Y-140178430D01*
X148154666Y-140183152D01*
X148062863Y-140173924D01*
X147980719Y-140147006D01*
X147906092Y-140102281D01*
X147837576Y-140037983D01*
X147783206Y-139962219D01*
X147743717Y-139875781D01*
X147719104Y-139776694D01*
X147711155Y-139671418D01*
X148032374Y-139671418D01*
X148040255Y-139767567D01*
X148061321Y-139838981D01*
X148093094Y-139891419D01*
X148125891Y-139922408D01*
X148166409Y-139945121D01*
X148216308Y-139959578D01*
X148277888Y-139964779D01*
X148350783Y-139960436D01*
X148414992Y-139943841D01*
X148414992Y-139451417D01*
X148371329Y-139428990D01*
X148325657Y-139412566D01*
X148278862Y-139402305D01*
X148234540Y-139398995D01*
X148178209Y-139404152D01*
X148134889Y-139418217D01*
X148101681Y-139440014D01*
X148076654Y-139469718D01*
X148053582Y-139518988D01*
X148038139Y-139584742D01*
X148032374Y-139671418D01*
X147711155Y-139671418D01*
X147710476Y-139662423D01*
X147717665Y-139543723D01*
X147737708Y-139444828D01*
X147768881Y-139362553D01*
X147810279Y-139294229D01*
X147865055Y-139236176D01*
X147929307Y-139195065D01*
X148004910Y-139169696D01*
X148094800Y-139160771D01*
X148159415Y-139164962D01*
X148216782Y-139177001D01*
X148267962Y-139196365D01*
X148341273Y-139236717D01*
X148414992Y-139289111D01*
X148414992Y-138813360D01*
X148727274Y-138813360D01*
X148727274Y-140163300D01*
G37*
G36*
X147199224Y-139165201D02*
G01*
X147310954Y-139178529D01*
X147471864Y-139209237D01*
X147471864Y-139443662D01*
X147443249Y-139443662D01*
X147317468Y-139401554D01*
X147230639Y-139380728D01*
X147152602Y-139374180D01*
X147066669Y-139378379D01*
X147003533Y-139389394D01*
X146958269Y-139405277D01*
X146921885Y-139431344D01*
X146900175Y-139467674D01*
X146892354Y-139517797D01*
X146892354Y-139523071D01*
X147029049Y-139533197D01*
X147158729Y-139547498D01*
X147281061Y-139570895D01*
X147373844Y-139603332D01*
X147429148Y-139633564D01*
X147473828Y-139669300D01*
X147509242Y-139710657D01*
X147534876Y-139758198D01*
X147551120Y-139815845D01*
X147556933Y-139885991D01*
X147550830Y-139951432D01*
X147533192Y-140009077D01*
X147504260Y-140060473D01*
X147463256Y-140106690D01*
X147413999Y-140144236D01*
X147359570Y-140171004D01*
X147298948Y-140187405D01*
X147230770Y-140193078D01*
X147173113Y-140190116D01*
X147122359Y-140181678D01*
X147073766Y-140167704D01*
X147026899Y-140148566D01*
X146956641Y-140106070D01*
X146894138Y-140060084D01*
X146894138Y-140163300D01*
X146584415Y-140163300D01*
X146584415Y-139910108D01*
X146894138Y-139910108D01*
X146933125Y-139938162D01*
X146978742Y-139960591D01*
X147027088Y-139975014D01*
X147073659Y-139979668D01*
X147128763Y-139977220D01*
X147160435Y-139971448D01*
X147186506Y-139960738D01*
X147208126Y-139945780D01*
X147225593Y-139927221D01*
X147234182Y-139909255D01*
X147239378Y-139859703D01*
X147232862Y-139817120D01*
X147214640Y-139785412D01*
X147185596Y-139761241D01*
X147143064Y-139742374D01*
X147100317Y-139731787D01*
X147031241Y-139721048D01*
X146894138Y-139706702D01*
X146894138Y-139910108D01*
X146584415Y-139910108D01*
X146584415Y-139500117D01*
X146592647Y-139414147D01*
X146615616Y-139344715D01*
X146652109Y-139288356D01*
X146702829Y-139242815D01*
X146762344Y-139210579D01*
X146842635Y-139184797D01*
X146948992Y-139167307D01*
X147087540Y-139160771D01*
X147199224Y-139165201D01*
G37*
G36*
X145673702Y-140155235D02*
G01*
X145780406Y-140175707D01*
X145918363Y-140183152D01*
X146011378Y-140177608D01*
X146085356Y-140162475D01*
X146143758Y-140139495D01*
X146189467Y-140109637D01*
X146225864Y-140070020D01*
X146253485Y-140017277D01*
X146271685Y-139948069D01*
X146278414Y-139857997D01*
X146278414Y-139403958D01*
X146406832Y-139403958D01*
X146406832Y-139190549D01*
X146278414Y-139190549D01*
X146278414Y-138912620D01*
X145966132Y-138912620D01*
X145966132Y-139190549D01*
X145673702Y-139190549D01*
X145673702Y-139403958D01*
X145966132Y-139403958D01*
X145966132Y-139747259D01*
X145965279Y-139836051D01*
X145961259Y-139872649D01*
X145951398Y-139904215D01*
X145934807Y-139930994D01*
X145908437Y-139952061D01*
X145873595Y-139964704D01*
X145818637Y-139969742D01*
X145754816Y-139959273D01*
X145699757Y-139939964D01*
X145673702Y-139939964D01*
X145673702Y-140155235D01*
G37*
G36*
X144864730Y-140155235D02*
G01*
X144971435Y-140175707D01*
X145109391Y-140183152D01*
X145202407Y-140177608D01*
X145276385Y-140162475D01*
X145334787Y-140139495D01*
X145380496Y-140109637D01*
X145416892Y-140070020D01*
X145444514Y-140017277D01*
X145462714Y-139948069D01*
X145469443Y-139857997D01*
X145469443Y-139403958D01*
X145597861Y-139403958D01*
X145597861Y-139190549D01*
X145469443Y-139190549D01*
X145469443Y-138912620D01*
X145157160Y-138912620D01*
X145157160Y-139190549D01*
X144864730Y-139190549D01*
X144864730Y-139403958D01*
X145157160Y-139403958D01*
X145157160Y-139747259D01*
X145156307Y-139836051D01*
X145152288Y-139872649D01*
X145142426Y-139904215D01*
X145125835Y-139930994D01*
X145099465Y-139952061D01*
X145064624Y-139964704D01*
X145009666Y-139969742D01*
X144945844Y-139959273D01*
X144890786Y-139939964D01*
X144864730Y-139939964D01*
X144864730Y-140155235D01*
G37*
G36*
X144300605Y-139167111D02*
G01*
X144391540Y-139185162D01*
X144471062Y-139213871D01*
X144540776Y-139252769D01*
X144601923Y-139301984D01*
X144654157Y-139361120D01*
X144694942Y-139427720D01*
X144724732Y-139502839D01*
X144743312Y-139587927D01*
X144749805Y-139684756D01*
X144742888Y-139782600D01*
X144723204Y-139867260D01*
X144691777Y-139940845D01*
X144648816Y-140005040D01*
X144593703Y-140061015D01*
X144530480Y-140105800D01*
X144455910Y-140142041D01*
X144368198Y-140169365D01*
X144265164Y-140186854D01*
X144144318Y-140193078D01*
X144033312Y-140188072D01*
X143936957Y-140173923D01*
X143842541Y-140149607D01*
X143737428Y-140112118D01*
X143737428Y-139860556D01*
X143772092Y-139860556D01*
X143831970Y-139898826D01*
X143918733Y-139938413D01*
X144013162Y-139965649D01*
X144110430Y-139974705D01*
X144213123Y-139966751D01*
X144289988Y-139945467D01*
X144346871Y-139913443D01*
X144391595Y-139867413D01*
X144420627Y-139809535D01*
X144434034Y-139736480D01*
X143719204Y-139736480D01*
X143719204Y-139627061D01*
X143724796Y-139552849D01*
X144029781Y-139552849D01*
X144434887Y-139552849D01*
X144423534Y-139486117D01*
X144401499Y-139437076D01*
X144369902Y-139401554D01*
X144328815Y-139375896D01*
X144279996Y-139359961D01*
X144221477Y-139354328D01*
X144158660Y-139360677D01*
X144112320Y-139377775D01*
X144078403Y-139404191D01*
X144053862Y-139440200D01*
X144037188Y-139488543D01*
X144029781Y-139552849D01*
X143724796Y-139552849D01*
X143727705Y-139514253D01*
X143751425Y-139421236D01*
X143788632Y-139344422D01*
X143838937Y-139281046D01*
X143902003Y-139230986D01*
X143980250Y-139193580D01*
X144076962Y-139169482D01*
X144196352Y-139160771D01*
X144300605Y-139167111D01*
G37*
G36*
X142792516Y-139493293D02*
G01*
X142820278Y-139493293D01*
X142884487Y-139482126D01*
X142958235Y-139478403D01*
X143023136Y-139480702D01*
X143076261Y-139487011D01*
X143128053Y-139498268D01*
X143186456Y-139516246D01*
X143186456Y-140163300D01*
X143498738Y-140163300D01*
X143498738Y-139190549D01*
X143186456Y-139190549D01*
X143186456Y-139333701D01*
X143114780Y-139277355D01*
X143055621Y-139240106D01*
X143006857Y-139217923D01*
X142931408Y-139196987D01*
X142866264Y-139190549D01*
X142828964Y-139191479D01*
X142792516Y-139194038D01*
X142792516Y-139493293D01*
G37*
G36*
X142175474Y-139820696D02*
G01*
X141953379Y-139190549D01*
X141632412Y-139190549D01*
X142173768Y-140520637D01*
X142512106Y-140520637D01*
X142357632Y-140158336D01*
X142736760Y-139190549D01*
X142408813Y-139190549D01*
X142175474Y-139820696D01*
G37*
G36*
X141458939Y-140163300D02*
G01*
X141159685Y-140163300D01*
X141146657Y-140114677D01*
X141089561Y-140143900D01*
X141029561Y-140165393D01*
X140965161Y-140178430D01*
X140886331Y-140183152D01*
X140794528Y-140173924D01*
X140712384Y-140147006D01*
X140637757Y-140102281D01*
X140569241Y-140037983D01*
X140514871Y-139962219D01*
X140475382Y-139875781D01*
X140450770Y-139776694D01*
X140442820Y-139671418D01*
X140764039Y-139671418D01*
X140771920Y-139767567D01*
X140792986Y-139838981D01*
X140824759Y-139891419D01*
X140857556Y-139922408D01*
X140898074Y-139945121D01*
X140947973Y-139959578D01*
X141009553Y-139964779D01*
X141082448Y-139960436D01*
X141146657Y-139943841D01*
X141146657Y-139451417D01*
X141102994Y-139428990D01*
X141057322Y-139412566D01*
X141010527Y-139402305D01*
X140966205Y-139398995D01*
X140909874Y-139404152D01*
X140866554Y-139418217D01*
X140833346Y-139440014D01*
X140808319Y-139469718D01*
X140785247Y-139518988D01*
X140769804Y-139584742D01*
X140764039Y-139671418D01*
X140442820Y-139671418D01*
X140442141Y-139662423D01*
X140449330Y-139543723D01*
X140469373Y-139444828D01*
X140500546Y-139362553D01*
X140541944Y-139294229D01*
X140596720Y-139236176D01*
X140660972Y-139195065D01*
X140736575Y-139169696D01*
X140826465Y-139160771D01*
X140891080Y-139164962D01*
X140948447Y-139177001D01*
X140999627Y-139196365D01*
X141072938Y-139236717D01*
X141146657Y-139289111D01*
X141146657Y-138813360D01*
X141458939Y-138813360D01*
X141458939Y-140163300D01*
G37*
G36*
X139855249Y-139166987D02*
G01*
X139943683Y-139184641D01*
X140020554Y-139212649D01*
X140087514Y-139250511D01*
X140145834Y-139298339D01*
X140195267Y-139355680D01*
X140234105Y-139420929D01*
X140262643Y-139495226D01*
X140280536Y-139580098D01*
X140286814Y-139677389D01*
X140280595Y-139773870D01*
X140262851Y-139858247D01*
X140234517Y-139932309D01*
X140195922Y-139997539D01*
X140146764Y-140055044D01*
X140088784Y-140102959D01*
X140021950Y-140140932D01*
X139944949Y-140169060D01*
X139856072Y-140186816D01*
X139753290Y-140193078D01*
X139650505Y-140186815D01*
X139561637Y-140169057D01*
X139484653Y-140140929D01*
X139417844Y-140102957D01*
X139359894Y-140055044D01*
X139310706Y-139997535D01*
X139272089Y-139932303D01*
X139243742Y-139858241D01*
X139225989Y-139773865D01*
X139219876Y-139679095D01*
X139543370Y-139679095D01*
X139547716Y-139766257D01*
X139558570Y-139823488D01*
X139577902Y-139872528D01*
X139604090Y-139912667D01*
X139634105Y-139941548D01*
X139669617Y-139960514D01*
X139709046Y-139971129D01*
X139750731Y-139974705D01*
X139798446Y-139970658D01*
X139838825Y-139959196D01*
X139874472Y-139939297D01*
X139905128Y-139910031D01*
X139929552Y-139870687D01*
X139948554Y-139816586D01*
X139959330Y-139755600D01*
X139963288Y-139679095D01*
X139958631Y-139594199D01*
X139946383Y-139531678D01*
X139925567Y-139477387D01*
X139900785Y-139439475D01*
X139866847Y-139408501D01*
X139833629Y-139391241D01*
X139796920Y-139382317D01*
X139753290Y-139379143D01*
X139709348Y-139382877D01*
X139669229Y-139393800D01*
X139633284Y-139413403D01*
X139602384Y-139443817D01*
X139578520Y-139482286D01*
X139559035Y-139536021D01*
X139547665Y-139597274D01*
X139543370Y-139679095D01*
X139219876Y-139679095D01*
X139219766Y-139677389D01*
X139225954Y-139580845D01*
X139243608Y-139496380D01*
X139271794Y-139422218D01*
X139310177Y-139356883D01*
X139359041Y-139299270D01*
X139416655Y-139251267D01*
X139483332Y-139213184D01*
X139560430Y-139184936D01*
X139649716Y-139167077D01*
X139753290Y-139160771D01*
X139855249Y-139166987D01*
G37*
G36*
X138711228Y-139165201D02*
G01*
X138822958Y-139178529D01*
X138983868Y-139209237D01*
X138983868Y-139443662D01*
X138955253Y-139443662D01*
X138829472Y-139401554D01*
X138742643Y-139380728D01*
X138664607Y-139374180D01*
X138578673Y-139378379D01*
X138515537Y-139389394D01*
X138470274Y-139405277D01*
X138433889Y-139431344D01*
X138412179Y-139467674D01*
X138404359Y-139517797D01*
X138404359Y-139523071D01*
X138541053Y-139533197D01*
X138670733Y-139547498D01*
X138793065Y-139570895D01*
X138885848Y-139603332D01*
X138941153Y-139633564D01*
X138985833Y-139669300D01*
X139021246Y-139710657D01*
X139046881Y-139758198D01*
X139063125Y-139815845D01*
X139068937Y-139885991D01*
X139062834Y-139951432D01*
X139045196Y-140009077D01*
X139016264Y-140060473D01*
X138975260Y-140106690D01*
X138926003Y-140144236D01*
X138871574Y-140171004D01*
X138810952Y-140187405D01*
X138742774Y-140193078D01*
X138685117Y-140190116D01*
X138634363Y-140181678D01*
X138585770Y-140167704D01*
X138538903Y-140148566D01*
X138468645Y-140106070D01*
X138406142Y-140060084D01*
X138406142Y-140163300D01*
X138096419Y-140163300D01*
X138096419Y-139910108D01*
X138406142Y-139910108D01*
X138445129Y-139938162D01*
X138490746Y-139960591D01*
X138539092Y-139975014D01*
X138585664Y-139979668D01*
X138640767Y-139977220D01*
X138672439Y-139971448D01*
X138698511Y-139960738D01*
X138720130Y-139945780D01*
X138737597Y-139927221D01*
X138746186Y-139909255D01*
X138751382Y-139859703D01*
X138744866Y-139817120D01*
X138726644Y-139785412D01*
X138697600Y-139761241D01*
X138655068Y-139742374D01*
X138612322Y-139731787D01*
X138543245Y-139721048D01*
X138406142Y-139706702D01*
X138406142Y-139910108D01*
X138096419Y-139910108D01*
X138096419Y-139500117D01*
X138104651Y-139414147D01*
X138127620Y-139344715D01*
X138164113Y-139288356D01*
X138214833Y-139242815D01*
X138274348Y-139210579D01*
X138354639Y-139184797D01*
X138460996Y-139167307D01*
X138599545Y-139160771D01*
X138711228Y-139165201D01*
G37*
G36*
X137102420Y-139493293D02*
G01*
X137130182Y-139493293D01*
X137194391Y-139482126D01*
X137268138Y-139478403D01*
X137333040Y-139480702D01*
X137386165Y-139487011D01*
X137437957Y-139498268D01*
X137496359Y-139516246D01*
X137496359Y-140163300D01*
X137808642Y-140163300D01*
X137808642Y-139190549D01*
X137496359Y-139190549D01*
X137496359Y-139333701D01*
X137424684Y-139277355D01*
X137365525Y-139240106D01*
X137316760Y-139217923D01*
X137241311Y-139196987D01*
X137176167Y-139190549D01*
X137138867Y-139191479D01*
X137102420Y-139194038D01*
X137102420Y-139493293D01*
G37*
G36*
X136290192Y-139226686D02*
G01*
X136405194Y-139179459D01*
X136465286Y-139165947D01*
X136548734Y-139160771D01*
X136632001Y-139169619D01*
X136717011Y-139196907D01*
X136795208Y-139240595D01*
X136860163Y-139298417D01*
X136915381Y-139373053D01*
X136958648Y-139463514D01*
X136978136Y-139528625D01*
X136990358Y-139601831D01*
X136994630Y-139684291D01*
X136987083Y-139801706D01*
X136965887Y-139900842D01*
X136932605Y-139984616D01*
X136887925Y-140055431D01*
X136829556Y-140116125D01*
X136763834Y-140158476D01*
X136689257Y-140184173D01*
X136603405Y-140193078D01*
X136515124Y-140184562D01*
X136441176Y-140160430D01*
X136371198Y-140121316D01*
X136290192Y-140061790D01*
X136290192Y-140163300D01*
X135977832Y-140163300D01*
X135977832Y-139415280D01*
X136290192Y-139415280D01*
X136290192Y-139896382D01*
X136328858Y-139919726D01*
X136374408Y-139938723D01*
X136421761Y-139950991D01*
X136464595Y-139954853D01*
X136534407Y-139946726D01*
X136585794Y-139924654D01*
X136623412Y-139889791D01*
X136648679Y-139843457D01*
X136666105Y-139776112D01*
X136672809Y-139680724D01*
X136665103Y-139591211D01*
X136643988Y-139521143D01*
X136611237Y-139466384D01*
X136577739Y-139433447D01*
X136536906Y-139409546D01*
X136487206Y-139394463D01*
X136426442Y-139389069D01*
X136359596Y-139395195D01*
X136290192Y-139415280D01*
X135977832Y-139415280D01*
X135977832Y-138813360D01*
X136290192Y-138813360D01*
X136290192Y-139226686D01*
G37*
G36*
X135346288Y-140163300D02*
G01*
X135670746Y-140163300D01*
X135670746Y-139820851D01*
X135346288Y-139820851D01*
X135346288Y-140163300D01*
G37*
G36*
X134059317Y-139190549D02*
G01*
X134434955Y-140163300D01*
X134788880Y-140163300D01*
X135161959Y-139190549D01*
X134831453Y-139190549D01*
X134605869Y-139859237D01*
X134382921Y-139190549D01*
X134059317Y-139190549D01*
G37*
G36*
X133959979Y-139618609D02*
G01*
X133959979Y-139865519D01*
X133334484Y-139865519D01*
X133334484Y-140168263D01*
X133016076Y-140168263D01*
X133016076Y-139865519D01*
X132839966Y-139865519D01*
X132839966Y-139627294D01*
X133016076Y-139627294D01*
X133334484Y-139627294D01*
X133710122Y-139627294D01*
X133334484Y-139160538D01*
X133334484Y-139627294D01*
X133016076Y-139627294D01*
X133016076Y-138872916D01*
X133355344Y-138872916D01*
X133959979Y-139618609D01*
G37*
G36*
X132286590Y-140163300D02*
G01*
X132611047Y-140163300D01*
X132611047Y-139820851D01*
X132286590Y-139820851D01*
X132286590Y-140163300D01*
G37*
G36*
X131590921Y-138853240D02*
G01*
X131671847Y-138867738D01*
X131741356Y-138890519D01*
X131805917Y-138923803D01*
X131861101Y-138965993D01*
X131907927Y-139017541D01*
X131945928Y-139077066D01*
X131977301Y-139146345D01*
X132001682Y-139226763D01*
X132023232Y-139356076D01*
X132031150Y-139518108D01*
X132023555Y-139675823D01*
X132002535Y-139806428D01*
X131978578Y-139888268D01*
X131947488Y-139957912D01*
X131909711Y-140016968D01*
X131863425Y-140068556D01*
X131808536Y-140111066D01*
X131743993Y-140144921D01*
X131674430Y-140168064D01*
X131592689Y-140182852D01*
X131496695Y-140188115D01*
X131398952Y-140182839D01*
X131317065Y-140168128D01*
X131248622Y-140145309D01*
X131185086Y-140111905D01*
X131130440Y-140069844D01*
X131083757Y-140018674D01*
X131047171Y-139961368D01*
X131016345Y-139891886D01*
X130991863Y-139808211D01*
X130970114Y-139675239D01*
X130962318Y-139517255D01*
X131298097Y-139517255D01*
X131304738Y-139672514D01*
X131321621Y-139778986D01*
X131344935Y-139848846D01*
X131373032Y-139894334D01*
X131406935Y-139925053D01*
X131447453Y-139943459D01*
X131496695Y-139949890D01*
X131545978Y-139943457D01*
X131586521Y-139925048D01*
X131620435Y-139894328D01*
X131648532Y-139848846D01*
X131671874Y-139779017D01*
X131688744Y-139673030D01*
X131695371Y-139518961D01*
X131688775Y-139360554D01*
X131672132Y-139253738D01*
X131649385Y-139185198D01*
X131621800Y-139140981D01*
X131587986Y-139110892D01*
X131547028Y-139092716D01*
X131496695Y-139086325D01*
X131446403Y-139092715D01*
X131405470Y-139110887D01*
X131371668Y-139140975D01*
X131344082Y-139185198D01*
X131321310Y-139253705D01*
X131304679Y-139360040D01*
X131298097Y-139517255D01*
X130962318Y-139517255D01*
X130969939Y-139359738D01*
X130990933Y-139230640D01*
X131014750Y-139149886D01*
X131045545Y-139080800D01*
X131082904Y-139021884D01*
X131129730Y-138969024D01*
X131184390Y-138925835D01*
X131247769Y-138891760D01*
X131316216Y-138868498D01*
X131398359Y-138853489D01*
X131496695Y-138848101D01*
X131590921Y-138853240D01*
G37*
G36*
X153075912Y-54218915D02*
G01*
X153171187Y-54214021D01*
X153259551Y-54199742D01*
X153341821Y-54176496D01*
X153420143Y-54143116D01*
X153489679Y-54101004D01*
X153551354Y-54050017D01*
X153604643Y-53990341D01*
X153649891Y-53920872D01*
X153687138Y-53840407D01*
X153713187Y-53755345D01*
X153729560Y-53659164D01*
X153735295Y-53550226D01*
X153729929Y-53448821D01*
X153714395Y-53356520D01*
X153689310Y-53272220D01*
X153653564Y-53192114D01*
X153609078Y-53121078D01*
X153555696Y-53058190D01*
X153496090Y-53006068D01*
X153426945Y-52961901D01*
X153347094Y-52925662D01*
X153262899Y-52900011D01*
X153172521Y-52884286D01*
X153075059Y-52878901D01*
X152995466Y-52881318D01*
X152928030Y-52888051D01*
X152806979Y-52911936D01*
X152701592Y-52948926D01*
X152618694Y-52986769D01*
X152618694Y-53300757D01*
X152656848Y-53300757D01*
X152718110Y-53250739D01*
X152801783Y-53193742D01*
X152851054Y-53168034D01*
X152904998Y-53146361D01*
X152961939Y-53131967D01*
X153023878Y-53127051D01*
X153092782Y-53132638D01*
X153157492Y-53149152D01*
X153217718Y-53178071D01*
X153274588Y-53222434D01*
X153319813Y-53278166D01*
X153357486Y-53353411D01*
X153380621Y-53439948D01*
X153389125Y-53551079D01*
X153384875Y-53631619D01*
X153373070Y-53698566D01*
X153354849Y-53754020D01*
X153314844Y-53828739D01*
X153268539Y-53882283D01*
X153212232Y-53923334D01*
X153150513Y-53950369D01*
X153085304Y-53965756D01*
X153022095Y-53970764D01*
X152961882Y-53966158D01*
X152901974Y-53952230D01*
X152844544Y-53930264D01*
X152792245Y-53901980D01*
X152713302Y-53847309D01*
X152653436Y-53797058D01*
X152618694Y-53797058D01*
X152618694Y-54107324D01*
X152711596Y-54148347D01*
X152804342Y-54181459D01*
X152923222Y-54209299D01*
X152983951Y-54216168D01*
X153075912Y-54218915D01*
G37*
G36*
X152106899Y-53196001D02*
G01*
X152218629Y-53209329D01*
X152379539Y-53240037D01*
X152379539Y-53474462D01*
X152350924Y-53474462D01*
X152225143Y-53432354D01*
X152138314Y-53411528D01*
X152060278Y-53404980D01*
X151974345Y-53409179D01*
X151911208Y-53420194D01*
X151865945Y-53436077D01*
X151829561Y-53462144D01*
X151807851Y-53498474D01*
X151800030Y-53548597D01*
X151800030Y-53553871D01*
X151936724Y-53563997D01*
X152066404Y-53578298D01*
X152188736Y-53601695D01*
X152281520Y-53634132D01*
X152336824Y-53664364D01*
X152381504Y-53700100D01*
X152416917Y-53741457D01*
X152442552Y-53788998D01*
X152458796Y-53846645D01*
X152464608Y-53916791D01*
X152458506Y-53982232D01*
X152440867Y-54039877D01*
X152411935Y-54091273D01*
X152370931Y-54137490D01*
X152321674Y-54175036D01*
X152267245Y-54201804D01*
X152206624Y-54218205D01*
X152138445Y-54223878D01*
X152080789Y-54220916D01*
X152030034Y-54212478D01*
X151981441Y-54198504D01*
X151934574Y-54179366D01*
X151864316Y-54136870D01*
X151801813Y-54090884D01*
X151801813Y-54194100D01*
X151492090Y-54194100D01*
X151492090Y-53940908D01*
X151801813Y-53940908D01*
X151840800Y-53968962D01*
X151886417Y-53991391D01*
X151934764Y-54005814D01*
X151981335Y-54010468D01*
X152036439Y-54008020D01*
X152068110Y-54002248D01*
X152094182Y-53991538D01*
X152115802Y-53976580D01*
X152133268Y-53958021D01*
X152141857Y-53940055D01*
X152147053Y-53890503D01*
X152140538Y-53847920D01*
X152122315Y-53816212D01*
X152093272Y-53792041D01*
X152050739Y-53773174D01*
X152007993Y-53762587D01*
X151938917Y-53751848D01*
X151801813Y-53737502D01*
X151801813Y-53940908D01*
X151492090Y-53940908D01*
X151492090Y-53530917D01*
X151500322Y-53444947D01*
X151523291Y-53375515D01*
X151559784Y-53319156D01*
X151610505Y-53273615D01*
X151670019Y-53241379D01*
X151750310Y-53215597D01*
X151856668Y-53198107D01*
X151995216Y-53191571D01*
X152106899Y-53196001D01*
G37*
G36*
X150498091Y-53524093D02*
G01*
X150525853Y-53524093D01*
X150590062Y-53512926D01*
X150663810Y-53509203D01*
X150728711Y-53511502D01*
X150781836Y-53517811D01*
X150833628Y-53529068D01*
X150892031Y-53547046D01*
X150892031Y-54194100D01*
X151204313Y-54194100D01*
X151204313Y-53221349D01*
X150892031Y-53221349D01*
X150892031Y-53364501D01*
X150820355Y-53308155D01*
X150761196Y-53270906D01*
X150712432Y-53248723D01*
X150636983Y-53227787D01*
X150571839Y-53221349D01*
X150534539Y-53222279D01*
X150498091Y-53224838D01*
X150498091Y-53524093D01*
G37*
G36*
X149342329Y-54194100D02*
G01*
X149656318Y-54194100D01*
X149656318Y-53710438D01*
X149662444Y-53592722D01*
X149671542Y-53538277D01*
X149683226Y-53506334D01*
X149704608Y-53478574D01*
X149734020Y-53459496D01*
X149770957Y-53448890D01*
X149827231Y-53444684D01*
X149869713Y-53448090D01*
X149913619Y-53458565D01*
X149957657Y-53475825D01*
X150008614Y-53502845D01*
X150008614Y-54194100D01*
X150320896Y-54194100D01*
X150320896Y-53221349D01*
X150008614Y-53221349D01*
X150008614Y-53326192D01*
X149924584Y-53267178D01*
X149848557Y-53226312D01*
X149768668Y-53200484D01*
X149678108Y-53191571D01*
X149599846Y-53197935D01*
X149534034Y-53215888D01*
X149478406Y-53244456D01*
X149431276Y-53283696D01*
X149394421Y-53331936D01*
X149366730Y-53392070D01*
X149348819Y-53466688D01*
X149342329Y-53559066D01*
X149342329Y-54194100D01*
G37*
G36*
X148677238Y-53197911D02*
G01*
X148768173Y-53215962D01*
X148847694Y-53244671D01*
X148917408Y-53283569D01*
X148978556Y-53332784D01*
X149030790Y-53391920D01*
X149071575Y-53458520D01*
X149101365Y-53533639D01*
X149119945Y-53618727D01*
X149126438Y-53715556D01*
X149119520Y-53813400D01*
X149099837Y-53898060D01*
X149068410Y-53971645D01*
X149025449Y-54035840D01*
X148970336Y-54091815D01*
X148907112Y-54136600D01*
X148832543Y-54172841D01*
X148744831Y-54200165D01*
X148641797Y-54217654D01*
X148520950Y-54223878D01*
X148409944Y-54218872D01*
X148313589Y-54204723D01*
X148219174Y-54180407D01*
X148114061Y-54142918D01*
X148114061Y-53891356D01*
X148148724Y-53891356D01*
X148208603Y-53929626D01*
X148295366Y-53969213D01*
X148389795Y-53996449D01*
X148487062Y-54005505D01*
X148589756Y-53997551D01*
X148666621Y-53976267D01*
X148723503Y-53944243D01*
X148768228Y-53898213D01*
X148797260Y-53840335D01*
X148810666Y-53767280D01*
X148095837Y-53767280D01*
X148095837Y-53657861D01*
X148101429Y-53583649D01*
X148406413Y-53583649D01*
X148811519Y-53583649D01*
X148800167Y-53516917D01*
X148778132Y-53467876D01*
X148746535Y-53432354D01*
X148705448Y-53406696D01*
X148656629Y-53390761D01*
X148598110Y-53385128D01*
X148535292Y-53391477D01*
X148488953Y-53408575D01*
X148455035Y-53434991D01*
X148430495Y-53471000D01*
X148413821Y-53519343D01*
X148406413Y-53583649D01*
X148101429Y-53583649D01*
X148104337Y-53545053D01*
X148128058Y-53452036D01*
X148165265Y-53375222D01*
X148215570Y-53311846D01*
X148278636Y-53261786D01*
X148356883Y-53224380D01*
X148453595Y-53200282D01*
X148572985Y-53191571D01*
X148677238Y-53197911D01*
G37*
G36*
X147589486Y-53199980D02*
G01*
X147674524Y-53225459D01*
X147752328Y-53266456D01*
X147815504Y-53319989D01*
X147869883Y-53390314D01*
X147910965Y-53472756D01*
X147929118Y-53532119D01*
X147940679Y-53601048D01*
X147944775Y-53681048D01*
X147936508Y-53808846D01*
X147913855Y-53910922D01*
X147879210Y-53992017D01*
X147833728Y-54055988D01*
X147774361Y-54108505D01*
X147703620Y-54146673D01*
X147619207Y-54170679D01*
X147517956Y-54179210D01*
X147436457Y-54172260D01*
X147365266Y-54152302D01*
X147299667Y-54120570D01*
X147240338Y-54079407D01*
X147240338Y-54097553D01*
X147243625Y-54155603D01*
X147252512Y-54201001D01*
X147268683Y-54240966D01*
X147291519Y-54271802D01*
X147324826Y-54296826D01*
X147374416Y-54317089D01*
X147432786Y-54328604D01*
X147515397Y-54333064D01*
X147582260Y-54328727D01*
X147662892Y-54314453D01*
X147741859Y-54294102D01*
X147802554Y-54273508D01*
X147840707Y-54273508D01*
X147840707Y-54519332D01*
X147765261Y-54534979D01*
X147670259Y-54549110D01*
X147571288Y-54558283D01*
X147470265Y-54561363D01*
X147348813Y-54555076D01*
X147245998Y-54537478D01*
X147181435Y-54517703D01*
X147125216Y-54491779D01*
X147076325Y-54459931D01*
X147033802Y-54421082D01*
X146997407Y-54372720D01*
X146967062Y-54313444D01*
X146946234Y-54249843D01*
X146932798Y-54173735D01*
X146927978Y-54082897D01*
X146927978Y-53444219D01*
X147240338Y-53444219D01*
X147240338Y-53887013D01*
X147279280Y-53908886D01*
X147322770Y-53926252D01*
X147368404Y-53937314D01*
X147414741Y-53940986D01*
X147481292Y-53934048D01*
X147531947Y-53915083D01*
X147570456Y-53885307D01*
X147597132Y-53844447D01*
X147615699Y-53781715D01*
X147622955Y-53688725D01*
X147615306Y-53606157D01*
X147594273Y-53541489D01*
X147561383Y-53490825D01*
X147515664Y-53452699D01*
X147455576Y-53428640D01*
X147376588Y-53419869D01*
X147306330Y-53426383D01*
X147240338Y-53444219D01*
X146927978Y-53444219D01*
X146927978Y-53221349D01*
X147230799Y-53221349D01*
X147242044Y-53261906D01*
X147297332Y-53232717D01*
X147359605Y-53210259D01*
X147426338Y-53196434D01*
X147503145Y-53191571D01*
X147589486Y-53199980D01*
G37*
G36*
X146319853Y-54194100D02*
G01*
X146632136Y-54194100D01*
X146632136Y-53221349D01*
X146319853Y-53221349D01*
X146319853Y-54194100D01*
G37*
G36*
X146311168Y-53082384D02*
G01*
X146640821Y-53082384D01*
X146640821Y-52844160D01*
X146311168Y-52844160D01*
X146311168Y-53082384D01*
G37*
G36*
X145647317Y-53197911D02*
G01*
X145738252Y-53215962D01*
X145817774Y-53244671D01*
X145887488Y-53283569D01*
X145948635Y-53332784D01*
X146000870Y-53391920D01*
X146041654Y-53458520D01*
X146071444Y-53533639D01*
X146090024Y-53618727D01*
X146096518Y-53715556D01*
X146089600Y-53813400D01*
X146069916Y-53898060D01*
X146038489Y-53971645D01*
X145995528Y-54035840D01*
X145940415Y-54091815D01*
X145877192Y-54136600D01*
X145802623Y-54172841D01*
X145714910Y-54200165D01*
X145611876Y-54217654D01*
X145491030Y-54223878D01*
X145380024Y-54218872D01*
X145283669Y-54204723D01*
X145189254Y-54180407D01*
X145084140Y-54142918D01*
X145084140Y-53891356D01*
X145118804Y-53891356D01*
X145178682Y-53929626D01*
X145265445Y-53969213D01*
X145359874Y-53996449D01*
X145457142Y-54005505D01*
X145559836Y-53997551D01*
X145636701Y-53976267D01*
X145693583Y-53944243D01*
X145738307Y-53898213D01*
X145767340Y-53840335D01*
X145780746Y-53767280D01*
X145065917Y-53767280D01*
X145065917Y-53657861D01*
X145071509Y-53583649D01*
X145376493Y-53583649D01*
X145781599Y-53583649D01*
X145770247Y-53516917D01*
X145748211Y-53467876D01*
X145716614Y-53432354D01*
X145675527Y-53406696D01*
X145626708Y-53390761D01*
X145568189Y-53385128D01*
X145505372Y-53391477D01*
X145459032Y-53408575D01*
X145425115Y-53434991D01*
X145400574Y-53471000D01*
X145383901Y-53519343D01*
X145376493Y-53583649D01*
X145071509Y-53583649D01*
X145074417Y-53545053D01*
X145098138Y-53452036D01*
X145135344Y-53375222D01*
X145185649Y-53311846D01*
X145248715Y-53261786D01*
X145326962Y-53224380D01*
X145423674Y-53200282D01*
X145543064Y-53191571D01*
X145647317Y-53197911D01*
G37*
G36*
X142867146Y-54194100D02*
G01*
X143198505Y-54194100D01*
X143198505Y-53330302D01*
X143437970Y-53891356D01*
X143667820Y-53891356D01*
X143907285Y-53330302D01*
X143907285Y-54194100D01*
X144221351Y-54194100D01*
X144221351Y-52903716D01*
X143834469Y-52903716D01*
X143543822Y-53551467D01*
X143254029Y-52903716D01*
X142867146Y-52903716D01*
X142867146Y-54194100D01*
G37*
G36*
X142175689Y-53197911D02*
G01*
X142266624Y-53215962D01*
X142346145Y-53244671D01*
X142415859Y-53283569D01*
X142477007Y-53332784D01*
X142529241Y-53391920D01*
X142570025Y-53458520D01*
X142599815Y-53533639D01*
X142618396Y-53618727D01*
X142624889Y-53715556D01*
X142617971Y-53813400D01*
X142598287Y-53898060D01*
X142566861Y-53971645D01*
X142523899Y-54035840D01*
X142468787Y-54091815D01*
X142405563Y-54136600D01*
X142330994Y-54172841D01*
X142243281Y-54200165D01*
X142140248Y-54217654D01*
X142019401Y-54223878D01*
X141908395Y-54218872D01*
X141812040Y-54204723D01*
X141717625Y-54180407D01*
X141612512Y-54142918D01*
X141612512Y-53891356D01*
X141647175Y-53891356D01*
X141707054Y-53929626D01*
X141793817Y-53969213D01*
X141888245Y-53996449D01*
X141985513Y-54005505D01*
X142088207Y-53997551D01*
X142165072Y-53976267D01*
X142221954Y-53944243D01*
X142266678Y-53898213D01*
X142295711Y-53840335D01*
X142309117Y-53767280D01*
X141594288Y-53767280D01*
X141594288Y-53657861D01*
X141599880Y-53583649D01*
X141904864Y-53583649D01*
X142309970Y-53583649D01*
X142298618Y-53516917D01*
X142276583Y-53467876D01*
X142244986Y-53432354D01*
X142203898Y-53406696D01*
X142155080Y-53390761D01*
X142096561Y-53385128D01*
X142033743Y-53391477D01*
X141987404Y-53408575D01*
X141953486Y-53434991D01*
X141928945Y-53471000D01*
X141912272Y-53519343D01*
X141904864Y-53583649D01*
X141599880Y-53583649D01*
X141602788Y-53545053D01*
X141626509Y-53452036D01*
X141663716Y-53375222D01*
X141714021Y-53311846D01*
X141777086Y-53261786D01*
X141855333Y-53224380D01*
X141952045Y-53200282D01*
X142071435Y-53191571D01*
X142175689Y-53197911D01*
G37*
G36*
X141061539Y-54194100D02*
G01*
X141373822Y-54194100D01*
X141373822Y-52844160D01*
X141061539Y-52844160D01*
X141061539Y-54194100D01*
G37*
G36*
X140454811Y-54194100D02*
G01*
X140767093Y-54194100D01*
X140767093Y-52844160D01*
X140454811Y-52844160D01*
X140454811Y-54194100D01*
G37*
G36*
X139799909Y-53197787D02*
G01*
X139888344Y-53215441D01*
X139965215Y-53243449D01*
X140032175Y-53281311D01*
X140090495Y-53329139D01*
X140139928Y-53386480D01*
X140178766Y-53451729D01*
X140207304Y-53526026D01*
X140225197Y-53610898D01*
X140231475Y-53708189D01*
X140225256Y-53804670D01*
X140207511Y-53889047D01*
X140179178Y-53963109D01*
X140140582Y-54028339D01*
X140091425Y-54085844D01*
X140033444Y-54133759D01*
X139966611Y-54171732D01*
X139889610Y-54199860D01*
X139800733Y-54217616D01*
X139697951Y-54223878D01*
X139595166Y-54217615D01*
X139506298Y-54199857D01*
X139429314Y-54171729D01*
X139362505Y-54133757D01*
X139304555Y-54085844D01*
X139255367Y-54028335D01*
X139216750Y-53963103D01*
X139188402Y-53889041D01*
X139170649Y-53804665D01*
X139164537Y-53709895D01*
X139488031Y-53709895D01*
X139492377Y-53797057D01*
X139503230Y-53854288D01*
X139522563Y-53903328D01*
X139548750Y-53943467D01*
X139578766Y-53972348D01*
X139614278Y-53991314D01*
X139653707Y-54001929D01*
X139695392Y-54005505D01*
X139743106Y-54001458D01*
X139783486Y-53989996D01*
X139819132Y-53970097D01*
X139849788Y-53940831D01*
X139874212Y-53901487D01*
X139893215Y-53847386D01*
X139903991Y-53786400D01*
X139907949Y-53709895D01*
X139903292Y-53624999D01*
X139891043Y-53562478D01*
X139870227Y-53508187D01*
X139845446Y-53470275D01*
X139811508Y-53439301D01*
X139778290Y-53422041D01*
X139741581Y-53413117D01*
X139697951Y-53409943D01*
X139654008Y-53413677D01*
X139613890Y-53424600D01*
X139577945Y-53444203D01*
X139547044Y-53474617D01*
X139523181Y-53513086D01*
X139503696Y-53566821D01*
X139492326Y-53628074D01*
X139488031Y-53709895D01*
X139164537Y-53709895D01*
X139164427Y-53708189D01*
X139170614Y-53611645D01*
X139188268Y-53527180D01*
X139216454Y-53453018D01*
X139254838Y-53387683D01*
X139303702Y-53330070D01*
X139361316Y-53282067D01*
X139427993Y-53243984D01*
X139505091Y-53215736D01*
X139594377Y-53197877D01*
X139697951Y-53191571D01*
X139799909Y-53197787D01*
G37*
G36*
X137962137Y-54194100D02*
G01*
X138276125Y-54194100D01*
X138276125Y-53710438D01*
X138282251Y-53592722D01*
X138291349Y-53538277D01*
X138303034Y-53506334D01*
X138324415Y-53478574D01*
X138353827Y-53459496D01*
X138390765Y-53448890D01*
X138447039Y-53444684D01*
X138489520Y-53448090D01*
X138533426Y-53458565D01*
X138577464Y-53475825D01*
X138628421Y-53502845D01*
X138628421Y-54194100D01*
X138940704Y-54194100D01*
X138940704Y-53221349D01*
X138628421Y-53221349D01*
X138628421Y-53326192D01*
X138544392Y-53267178D01*
X138468364Y-53226312D01*
X138388476Y-53200484D01*
X138297916Y-53191571D01*
X138219654Y-53197935D01*
X138153842Y-53215888D01*
X138098213Y-53244456D01*
X138051083Y-53283696D01*
X138014229Y-53331936D01*
X137986538Y-53392070D01*
X137968627Y-53466688D01*
X137962137Y-53559066D01*
X137962137Y-54194100D01*
G37*
G36*
X135919779Y-53725715D02*
G01*
X135926318Y-53821879D01*
X135944869Y-53904668D01*
X135974355Y-53976184D01*
X136014444Y-54038134D01*
X136065567Y-54091737D01*
X136124593Y-54134677D01*
X136194980Y-54169529D01*
X136278597Y-54195907D01*
X136377717Y-54212859D01*
X136494946Y-54218915D01*
X136612194Y-54212855D01*
X136711272Y-54195896D01*
X136794800Y-54169513D01*
X136865062Y-54134664D01*
X136923936Y-54091737D01*
X136974911Y-54038147D01*
X137014877Y-53976275D01*
X137044264Y-53904913D01*
X137062746Y-53822371D01*
X137069259Y-53726568D01*
X137069259Y-52903716D01*
X136734411Y-52903716D01*
X136734411Y-53709430D01*
X136727073Y-53797534D01*
X136707506Y-53862500D01*
X136678034Y-53909812D01*
X136635820Y-53944635D01*
X136576721Y-53967264D01*
X136494946Y-53975727D01*
X136414124Y-53967619D01*
X136355059Y-53945880D01*
X136312322Y-53912448D01*
X136282401Y-53866500D01*
X136262276Y-53801016D01*
X136254627Y-53709430D01*
X136254627Y-52903716D01*
X135919779Y-52903716D01*
X135919779Y-53725715D01*
G37*
G36*
X134646843Y-54194100D02*
G01*
X134960831Y-54194100D01*
X134960831Y-53710438D01*
X134966957Y-53592722D01*
X134976056Y-53538277D01*
X134987740Y-53506334D01*
X135009122Y-53478574D01*
X135038533Y-53459496D01*
X135075471Y-53448890D01*
X135131745Y-53444684D01*
X135174226Y-53448090D01*
X135218132Y-53458565D01*
X135262170Y-53475825D01*
X135313128Y-53502845D01*
X135313128Y-54194100D01*
X135625410Y-54194100D01*
X135625410Y-53221349D01*
X135313128Y-53221349D01*
X135313128Y-53326192D01*
X135229098Y-53267178D01*
X135153070Y-53226312D01*
X135073182Y-53200484D01*
X134982622Y-53191571D01*
X134904360Y-53197935D01*
X134838548Y-53215888D01*
X134782919Y-53244456D01*
X134735789Y-53283696D01*
X134698935Y-53331936D01*
X134671244Y-53392070D01*
X134653333Y-53466688D01*
X134646843Y-53559066D01*
X134646843Y-54194100D01*
G37*
G36*
X134047559Y-54194100D02*
G01*
X134359841Y-54194100D01*
X134359841Y-53221349D01*
X134047559Y-53221349D01*
X134047559Y-54194100D01*
G37*
G36*
X134038874Y-53082384D02*
G01*
X134368526Y-53082384D01*
X134368526Y-52844160D01*
X134038874Y-52844160D01*
X134038874Y-53082384D01*
G37*
G36*
X132771909Y-53221349D02*
G01*
X133147547Y-54194100D01*
X133501472Y-54194100D01*
X133874551Y-53221349D01*
X133544046Y-53221349D01*
X133318461Y-53890037D01*
X133095513Y-53221349D01*
X132771909Y-53221349D01*
G37*
G36*
X132219881Y-53197911D02*
G01*
X132310816Y-53215962D01*
X132390338Y-53244671D01*
X132460052Y-53283569D01*
X132521199Y-53332784D01*
X132573433Y-53391920D01*
X132614218Y-53458520D01*
X132644008Y-53533639D01*
X132662588Y-53618727D01*
X132669082Y-53715556D01*
X132662164Y-53813400D01*
X132642480Y-53898060D01*
X132611053Y-53971645D01*
X132568092Y-54035840D01*
X132512979Y-54091815D01*
X132449756Y-54136600D01*
X132375187Y-54172841D01*
X132287474Y-54200165D01*
X132184440Y-54217654D01*
X132063594Y-54223878D01*
X131952588Y-54218872D01*
X131856233Y-54204723D01*
X131761817Y-54180407D01*
X131656704Y-54142918D01*
X131656704Y-53891356D01*
X131691368Y-53891356D01*
X131751246Y-53929626D01*
X131838009Y-53969213D01*
X131932438Y-53996449D01*
X132029706Y-54005505D01*
X132132400Y-53997551D01*
X132209264Y-53976267D01*
X132266147Y-53944243D01*
X132310871Y-53898213D01*
X132339904Y-53840335D01*
X132353310Y-53767280D01*
X131638481Y-53767280D01*
X131638481Y-53657861D01*
X131644073Y-53583649D01*
X131949057Y-53583649D01*
X132354163Y-53583649D01*
X132342811Y-53516917D01*
X132320775Y-53467876D01*
X132289178Y-53432354D01*
X132248091Y-53406696D01*
X132199272Y-53390761D01*
X132140753Y-53385128D01*
X132077936Y-53391477D01*
X132031596Y-53408575D01*
X131997679Y-53434991D01*
X131973138Y-53471000D01*
X131956465Y-53519343D01*
X131949057Y-53583649D01*
X131644073Y-53583649D01*
X131646981Y-53545053D01*
X131670701Y-53452036D01*
X131707908Y-53375222D01*
X131758213Y-53311846D01*
X131821279Y-53261786D01*
X131899526Y-53224380D01*
X131996238Y-53200282D01*
X132115628Y-53191571D01*
X132219881Y-53197911D01*
G37*
G36*
X130711793Y-53524093D02*
G01*
X130739555Y-53524093D01*
X130803764Y-53512926D01*
X130877511Y-53509203D01*
X130942412Y-53511502D01*
X130995538Y-53517811D01*
X131047329Y-53529068D01*
X131105732Y-53547046D01*
X131105732Y-54194100D01*
X131418014Y-54194100D01*
X131418014Y-53221349D01*
X131105732Y-53221349D01*
X131105732Y-53364501D01*
X131034057Y-53308155D01*
X130974898Y-53270906D01*
X130926133Y-53248723D01*
X130850684Y-53227787D01*
X130785540Y-53221349D01*
X130748240Y-53222279D01*
X130711793Y-53224838D01*
X130711793Y-53524093D01*
G37*
G36*
X129687861Y-53886780D02*
G01*
X129696306Y-53958824D01*
X129720968Y-54022317D01*
X129762406Y-54079373D01*
X129823180Y-54131131D01*
X129891960Y-54169451D01*
X129974800Y-54198460D01*
X130074329Y-54217164D01*
X130193623Y-54223878D01*
X130320436Y-54217563D01*
X130429599Y-54199760D01*
X130529783Y-54172840D01*
X130599660Y-54146330D01*
X130599660Y-53891356D01*
X130571045Y-53891356D01*
X130516839Y-53925244D01*
X130429599Y-53964793D01*
X130319482Y-53997052D01*
X130256563Y-54007024D01*
X130187574Y-54010468D01*
X130101820Y-54004758D01*
X130051402Y-53991081D01*
X130025653Y-53975080D01*
X130011728Y-53956307D01*
X130007122Y-53933774D01*
X130013916Y-53902400D01*
X130033178Y-53881972D01*
X130065418Y-53867935D01*
X130132051Y-53851031D01*
X130226193Y-53834048D01*
X130334216Y-53811792D01*
X130419598Y-53782271D01*
X130483881Y-53745883D01*
X130531108Y-53703381D01*
X130566352Y-53651113D01*
X130587829Y-53590720D01*
X130595317Y-53519983D01*
X130587221Y-53453268D01*
X130563296Y-53392989D01*
X130522570Y-53337311D01*
X130462169Y-53285247D01*
X130394332Y-53246455D01*
X130312843Y-53217170D01*
X130215148Y-53198326D01*
X130098240Y-53191571D01*
X129990381Y-53197220D01*
X129888708Y-53213827D01*
X129794402Y-53238395D01*
X129732140Y-53261363D01*
X129732140Y-53509203D01*
X129759049Y-53509203D01*
X129832213Y-53467826D01*
X129917400Y-53433983D01*
X130007109Y-53412186D01*
X130097387Y-53404980D01*
X130169457Y-53410333D01*
X130224487Y-53424755D01*
X130255269Y-53441397D01*
X130271057Y-53459825D01*
X130276056Y-53480821D01*
X130269951Y-53512069D01*
X130252636Y-53533941D01*
X130220758Y-53549688D01*
X130142442Y-53570543D01*
X130039692Y-53589310D01*
X129929032Y-53612341D01*
X129849847Y-53639816D01*
X129790397Y-53673883D01*
X129746874Y-53713850D01*
X129714551Y-53762899D01*
X129694774Y-53819840D01*
X129687861Y-53886780D01*
G37*
G36*
X129167675Y-54194100D02*
G01*
X129479957Y-54194100D01*
X129479957Y-53221349D01*
X129167675Y-53221349D01*
X129167675Y-54194100D01*
G37*
G36*
X129158989Y-53082384D02*
G01*
X129488642Y-53082384D01*
X129488642Y-52844160D01*
X129158989Y-52844160D01*
X129158989Y-53082384D01*
G37*
G36*
X128250293Y-54186035D02*
G01*
X128356997Y-54206507D01*
X128494954Y-54213952D01*
X128587969Y-54208408D01*
X128661947Y-54193275D01*
X128720349Y-54170295D01*
X128766058Y-54140437D01*
X128802455Y-54100820D01*
X128830076Y-54048077D01*
X128848276Y-53978869D01*
X128855005Y-53888797D01*
X128855005Y-53434758D01*
X128983423Y-53434758D01*
X128983423Y-53221349D01*
X128855005Y-53221349D01*
X128855005Y-52943420D01*
X128542723Y-52943420D01*
X128542723Y-53221349D01*
X128250293Y-53221349D01*
X128250293Y-53434758D01*
X128542723Y-53434758D01*
X128542723Y-53778059D01*
X128541870Y-53866851D01*
X128537850Y-53903449D01*
X128527989Y-53935015D01*
X128511398Y-53961794D01*
X128485028Y-53982861D01*
X128450186Y-53995504D01*
X128395228Y-54000542D01*
X128331407Y-53990073D01*
X128276348Y-53970764D01*
X128250293Y-53970764D01*
X128250293Y-54186035D01*
G37*
G36*
X127624410Y-53851496D02*
G01*
X127402315Y-53221349D01*
X127081347Y-53221349D01*
X127622704Y-54551437D01*
X127961042Y-54551437D01*
X127806568Y-54189136D01*
X128185696Y-53221349D01*
X127857749Y-53221349D01*
X127624410Y-53851496D01*
G37*
D10*
X172423126Y-117253885D02*
X172120745Y-117042218D01*
X172423126Y-116891028D02*
X171788126Y-116891028D01*
X171788126Y-116891028D02*
X171788126Y-117132933D01*
X171788126Y-117132933D02*
X171818364Y-117193409D01*
X171818364Y-117193409D02*
X171848602Y-117223647D01*
X171848602Y-117223647D02*
X171909078Y-117253885D01*
X171909078Y-117253885D02*
X171999792Y-117253885D01*
X171999792Y-117253885D02*
X172060268Y-117223647D01*
X172060268Y-117223647D02*
X172090507Y-117193409D01*
X172090507Y-117193409D02*
X172120745Y-117132933D01*
X172120745Y-117132933D02*
X172120745Y-116891028D01*
X171999792Y-117798171D02*
X172423126Y-117798171D01*
X171757888Y-117646980D02*
X172211459Y-117495790D01*
X172211459Y-117495790D02*
X172211459Y-117888885D01*
X171788126Y-118251742D02*
X171788126Y-118312219D01*
X171788126Y-118312219D02*
X171818364Y-118372695D01*
X171818364Y-118372695D02*
X171848602Y-118402933D01*
X171848602Y-118402933D02*
X171909078Y-118433171D01*
X171909078Y-118433171D02*
X172030030Y-118463409D01*
X172030030Y-118463409D02*
X172181221Y-118463409D01*
X172181221Y-118463409D02*
X172302173Y-118433171D01*
X172302173Y-118433171D02*
X172362649Y-118402933D01*
X172362649Y-118402933D02*
X172392888Y-118372695D01*
X172392888Y-118372695D02*
X172423126Y-118312219D01*
X172423126Y-118312219D02*
X172423126Y-118251742D01*
X172423126Y-118251742D02*
X172392888Y-118191266D01*
X172392888Y-118191266D02*
X172362649Y-118161028D01*
X172362649Y-118161028D02*
X172302173Y-118130790D01*
X172302173Y-118130790D02*
X172181221Y-118100552D01*
X172181221Y-118100552D02*
X172030030Y-118100552D01*
X172030030Y-118100552D02*
X171909078Y-118130790D01*
X171909078Y-118130790D02*
X171848602Y-118161028D01*
X171848602Y-118161028D02*
X171818364Y-118191266D01*
X171818364Y-118191266D02*
X171788126Y-118251742D01*
X106763959Y-75074954D02*
X106461578Y-74863287D01*
X106763959Y-74712097D02*
X106128959Y-74712097D01*
X106128959Y-74712097D02*
X106128959Y-74954002D01*
X106128959Y-74954002D02*
X106159197Y-75014478D01*
X106159197Y-75014478D02*
X106189435Y-75044716D01*
X106189435Y-75044716D02*
X106249911Y-75074954D01*
X106249911Y-75074954D02*
X106340625Y-75074954D01*
X106340625Y-75074954D02*
X106401101Y-75044716D01*
X106401101Y-75044716D02*
X106431340Y-75014478D01*
X106431340Y-75014478D02*
X106461578Y-74954002D01*
X106461578Y-74954002D02*
X106461578Y-74712097D01*
X106128959Y-75649478D02*
X106128959Y-75347097D01*
X106128959Y-75347097D02*
X106431340Y-75316859D01*
X106431340Y-75316859D02*
X106401101Y-75347097D01*
X106401101Y-75347097D02*
X106370863Y-75407573D01*
X106370863Y-75407573D02*
X106370863Y-75558764D01*
X106370863Y-75558764D02*
X106401101Y-75619240D01*
X106401101Y-75619240D02*
X106431340Y-75649478D01*
X106431340Y-75649478D02*
X106491816Y-75679716D01*
X106491816Y-75679716D02*
X106643006Y-75679716D01*
X106643006Y-75679716D02*
X106703482Y-75649478D01*
X106703482Y-75649478D02*
X106733721Y-75619240D01*
X106733721Y-75619240D02*
X106763959Y-75558764D01*
X106763959Y-75558764D02*
X106763959Y-75407573D01*
X106763959Y-75407573D02*
X106733721Y-75347097D01*
X106733721Y-75347097D02*
X106703482Y-75316859D01*
X106128959Y-75891383D02*
X106128959Y-76314716D01*
X106128959Y-76314716D02*
X106763959Y-76042573D01*
X150578959Y-98684803D02*
X150276578Y-98473136D01*
X150578959Y-98321946D02*
X149943959Y-98321946D01*
X149943959Y-98321946D02*
X149943959Y-98563851D01*
X149943959Y-98563851D02*
X149974197Y-98624327D01*
X149974197Y-98624327D02*
X150004435Y-98654565D01*
X150004435Y-98654565D02*
X150064911Y-98684803D01*
X150064911Y-98684803D02*
X150155625Y-98684803D01*
X150155625Y-98684803D02*
X150216101Y-98654565D01*
X150216101Y-98654565D02*
X150246340Y-98624327D01*
X150246340Y-98624327D02*
X150276578Y-98563851D01*
X150276578Y-98563851D02*
X150276578Y-98321946D01*
X150155625Y-99229089D02*
X150578959Y-99229089D01*
X149913721Y-99077898D02*
X150367292Y-98926708D01*
X150367292Y-98926708D02*
X150367292Y-99319803D01*
X150155625Y-99833851D02*
X150578959Y-99833851D01*
X149913721Y-99682660D02*
X150367292Y-99531470D01*
X150367292Y-99531470D02*
X150367292Y-99924565D01*
X172850628Y-73947159D02*
X172487771Y-73947159D01*
X172669200Y-74582159D02*
X172669200Y-73947159D01*
X172276104Y-74582159D02*
X172276104Y-73947159D01*
X172276104Y-74249540D02*
X171913247Y-74249540D01*
X171913247Y-74582159D02*
X171913247Y-73947159D01*
X171278247Y-74582159D02*
X171641104Y-74582159D01*
X171459676Y-74582159D02*
X171459676Y-73947159D01*
X171459676Y-73947159D02*
X171520152Y-74037873D01*
X171520152Y-74037873D02*
X171580628Y-74098349D01*
X171580628Y-74098349D02*
X171641104Y-74128587D01*
X107013828Y-120733959D02*
X106650971Y-120733959D01*
X106832400Y-121368959D02*
X106832400Y-120733959D01*
X106439304Y-121368959D02*
X106439304Y-120733959D01*
X106439304Y-121036340D02*
X106076447Y-121036340D01*
X106076447Y-121368959D02*
X106076447Y-120733959D01*
X105804304Y-120794435D02*
X105774066Y-120764197D01*
X105774066Y-120764197D02*
X105713590Y-120733959D01*
X105713590Y-120733959D02*
X105562399Y-120733959D01*
X105562399Y-120733959D02*
X105501923Y-120764197D01*
X105501923Y-120764197D02*
X105471685Y-120794435D01*
X105471685Y-120794435D02*
X105441447Y-120854911D01*
X105441447Y-120854911D02*
X105441447Y-120915387D01*
X105441447Y-120915387D02*
X105471685Y-121006101D01*
X105471685Y-121006101D02*
X105834542Y-121368959D01*
X105834542Y-121368959D02*
X105441447Y-121368959D01*
X150578959Y-117396985D02*
X150276578Y-117185318D01*
X150578959Y-117034128D02*
X149943959Y-117034128D01*
X149943959Y-117034128D02*
X149943959Y-117276033D01*
X149943959Y-117276033D02*
X149974197Y-117336509D01*
X149974197Y-117336509D02*
X150004435Y-117366747D01*
X150004435Y-117366747D02*
X150064911Y-117396985D01*
X150064911Y-117396985D02*
X150155625Y-117396985D01*
X150155625Y-117396985D02*
X150216101Y-117366747D01*
X150216101Y-117366747D02*
X150246340Y-117336509D01*
X150246340Y-117336509D02*
X150276578Y-117276033D01*
X150276578Y-117276033D02*
X150276578Y-117034128D01*
X150155625Y-117941271D02*
X150578959Y-117941271D01*
X149913721Y-117790080D02*
X150367292Y-117638890D01*
X150367292Y-117638890D02*
X150367292Y-118031985D01*
X150578959Y-118606509D02*
X150578959Y-118243652D01*
X150578959Y-118425080D02*
X149943959Y-118425080D01*
X149943959Y-118425080D02*
X150034673Y-118364604D01*
X150034673Y-118364604D02*
X150095149Y-118304128D01*
X150095149Y-118304128D02*
X150125387Y-118243652D01*
X128547960Y-111789338D02*
X128245579Y-111577671D01*
X128547960Y-111426481D02*
X127912960Y-111426481D01*
X127912960Y-111426481D02*
X127912960Y-111668386D01*
X127912960Y-111668386D02*
X127943198Y-111728862D01*
X127943198Y-111728862D02*
X127973436Y-111759100D01*
X127973436Y-111759100D02*
X128033912Y-111789338D01*
X128033912Y-111789338D02*
X128124626Y-111789338D01*
X128124626Y-111789338D02*
X128185102Y-111759100D01*
X128185102Y-111759100D02*
X128215341Y-111728862D01*
X128215341Y-111728862D02*
X128245579Y-111668386D01*
X128245579Y-111668386D02*
X128245579Y-111426481D01*
X127912960Y-112363862D02*
X127912960Y-112061481D01*
X127912960Y-112061481D02*
X128215341Y-112031243D01*
X128215341Y-112031243D02*
X128185102Y-112061481D01*
X128185102Y-112061481D02*
X128154864Y-112121957D01*
X128154864Y-112121957D02*
X128154864Y-112273148D01*
X128154864Y-112273148D02*
X128185102Y-112333624D01*
X128185102Y-112333624D02*
X128215341Y-112363862D01*
X128215341Y-112363862D02*
X128275817Y-112394100D01*
X128275817Y-112394100D02*
X128427007Y-112394100D01*
X128427007Y-112394100D02*
X128487483Y-112363862D01*
X128487483Y-112363862D02*
X128517722Y-112333624D01*
X128517722Y-112333624D02*
X128547960Y-112273148D01*
X128547960Y-112273148D02*
X128547960Y-112121957D01*
X128547960Y-112121957D02*
X128517722Y-112061481D01*
X128517722Y-112061481D02*
X128487483Y-112031243D01*
X127912960Y-112787195D02*
X127912960Y-112847672D01*
X127912960Y-112847672D02*
X127943198Y-112908148D01*
X127943198Y-112908148D02*
X127973436Y-112938386D01*
X127973436Y-112938386D02*
X128033912Y-112968624D01*
X128033912Y-112968624D02*
X128154864Y-112998862D01*
X128154864Y-112998862D02*
X128306055Y-112998862D01*
X128306055Y-112998862D02*
X128427007Y-112968624D01*
X128427007Y-112968624D02*
X128487483Y-112938386D01*
X128487483Y-112938386D02*
X128517722Y-112908148D01*
X128517722Y-112908148D02*
X128547960Y-112847672D01*
X128547960Y-112847672D02*
X128547960Y-112787195D01*
X128547960Y-112787195D02*
X128517722Y-112726719D01*
X128517722Y-112726719D02*
X128487483Y-112696481D01*
X128487483Y-112696481D02*
X128427007Y-112666243D01*
X128427007Y-112666243D02*
X128306055Y-112636005D01*
X128306055Y-112636005D02*
X128154864Y-112636005D01*
X128154864Y-112636005D02*
X128033912Y-112666243D01*
X128033912Y-112666243D02*
X127973436Y-112696481D01*
X127973436Y-112696481D02*
X127943198Y-112726719D01*
X127943198Y-112726719D02*
X127912960Y-112787195D01*
X172550126Y-80423682D02*
X172247745Y-80212015D01*
X172550126Y-80060825D02*
X171915126Y-80060825D01*
X171915126Y-80060825D02*
X171915126Y-80302730D01*
X171915126Y-80302730D02*
X171945364Y-80363206D01*
X171945364Y-80363206D02*
X171975602Y-80393444D01*
X171975602Y-80393444D02*
X172036078Y-80423682D01*
X172036078Y-80423682D02*
X172126792Y-80423682D01*
X172126792Y-80423682D02*
X172187268Y-80393444D01*
X172187268Y-80393444D02*
X172217507Y-80363206D01*
X172217507Y-80363206D02*
X172247745Y-80302730D01*
X172247745Y-80302730D02*
X172247745Y-80060825D01*
X172126792Y-80967968D02*
X172550126Y-80967968D01*
X171884888Y-80816777D02*
X172338459Y-80665587D01*
X172338459Y-80665587D02*
X172338459Y-81058682D01*
X171915126Y-81572730D02*
X171915126Y-81451777D01*
X171915126Y-81451777D02*
X171945364Y-81391301D01*
X171945364Y-81391301D02*
X171975602Y-81361063D01*
X171975602Y-81361063D02*
X172066316Y-81300587D01*
X172066316Y-81300587D02*
X172187268Y-81270349D01*
X172187268Y-81270349D02*
X172429173Y-81270349D01*
X172429173Y-81270349D02*
X172489649Y-81300587D01*
X172489649Y-81300587D02*
X172519888Y-81330825D01*
X172519888Y-81330825D02*
X172550126Y-81391301D01*
X172550126Y-81391301D02*
X172550126Y-81512254D01*
X172550126Y-81512254D02*
X172519888Y-81572730D01*
X172519888Y-81572730D02*
X172489649Y-81602968D01*
X172489649Y-81602968D02*
X172429173Y-81633206D01*
X172429173Y-81633206D02*
X172277983Y-81633206D01*
X172277983Y-81633206D02*
X172217507Y-81602968D01*
X172217507Y-81602968D02*
X172187268Y-81572730D01*
X172187268Y-81572730D02*
X172157030Y-81512254D01*
X172157030Y-81512254D02*
X172157030Y-81391301D01*
X172157030Y-81391301D02*
X172187268Y-81330825D01*
X172187268Y-81330825D02*
X172217507Y-81300587D01*
X172217507Y-81300587D02*
X172277983Y-81270349D01*
X106763959Y-93118752D02*
X106461578Y-92907085D01*
X106763959Y-92755895D02*
X106128959Y-92755895D01*
X106128959Y-92755895D02*
X106128959Y-92997800D01*
X106128959Y-92997800D02*
X106159197Y-93058276D01*
X106159197Y-93058276D02*
X106189435Y-93088514D01*
X106189435Y-93088514D02*
X106249911Y-93118752D01*
X106249911Y-93118752D02*
X106340625Y-93118752D01*
X106340625Y-93118752D02*
X106401101Y-93088514D01*
X106401101Y-93088514D02*
X106431340Y-93058276D01*
X106431340Y-93058276D02*
X106461578Y-92997800D01*
X106461578Y-92997800D02*
X106461578Y-92755895D01*
X106128959Y-93693276D02*
X106128959Y-93390895D01*
X106128959Y-93390895D02*
X106431340Y-93360657D01*
X106431340Y-93360657D02*
X106401101Y-93390895D01*
X106401101Y-93390895D02*
X106370863Y-93451371D01*
X106370863Y-93451371D02*
X106370863Y-93602562D01*
X106370863Y-93602562D02*
X106401101Y-93663038D01*
X106401101Y-93663038D02*
X106431340Y-93693276D01*
X106431340Y-93693276D02*
X106491816Y-93723514D01*
X106491816Y-93723514D02*
X106643006Y-93723514D01*
X106643006Y-93723514D02*
X106703482Y-93693276D01*
X106703482Y-93693276D02*
X106733721Y-93663038D01*
X106733721Y-93663038D02*
X106763959Y-93602562D01*
X106763959Y-93602562D02*
X106763959Y-93451371D01*
X106763959Y-93451371D02*
X106733721Y-93390895D01*
X106733721Y-93390895D02*
X106703482Y-93360657D01*
X106340625Y-94267800D02*
X106763959Y-94267800D01*
X106098721Y-94116609D02*
X106552292Y-93965419D01*
X106552292Y-93965419D02*
X106552292Y-94358514D01*
X128816428Y-120692159D02*
X128453571Y-120692159D01*
X128635000Y-121327159D02*
X128635000Y-120692159D01*
X128241904Y-121327159D02*
X128241904Y-120692159D01*
X128241904Y-120994540D02*
X127879047Y-120994540D01*
X127879047Y-121327159D02*
X127879047Y-120692159D01*
X127304523Y-120903825D02*
X127304523Y-121327159D01*
X127455714Y-120661921D02*
X127606904Y-121115492D01*
X127606904Y-121115492D02*
X127213809Y-121115492D01*
X128609566Y-74947954D02*
X128307185Y-74736287D01*
X128609566Y-74585097D02*
X127974566Y-74585097D01*
X127974566Y-74585097D02*
X127974566Y-74827002D01*
X127974566Y-74827002D02*
X128004804Y-74887478D01*
X128004804Y-74887478D02*
X128035042Y-74917716D01*
X128035042Y-74917716D02*
X128095518Y-74947954D01*
X128095518Y-74947954D02*
X128186232Y-74947954D01*
X128186232Y-74947954D02*
X128246708Y-74917716D01*
X128246708Y-74917716D02*
X128276947Y-74887478D01*
X128276947Y-74887478D02*
X128307185Y-74827002D01*
X128307185Y-74827002D02*
X128307185Y-74585097D01*
X127974566Y-75522478D02*
X127974566Y-75220097D01*
X127974566Y-75220097D02*
X128276947Y-75189859D01*
X128276947Y-75189859D02*
X128246708Y-75220097D01*
X128246708Y-75220097D02*
X128216470Y-75280573D01*
X128216470Y-75280573D02*
X128216470Y-75431764D01*
X128216470Y-75431764D02*
X128246708Y-75492240D01*
X128246708Y-75492240D02*
X128276947Y-75522478D01*
X128276947Y-75522478D02*
X128337423Y-75552716D01*
X128337423Y-75552716D02*
X128488613Y-75552716D01*
X128488613Y-75552716D02*
X128549089Y-75522478D01*
X128549089Y-75522478D02*
X128579328Y-75492240D01*
X128579328Y-75492240D02*
X128609566Y-75431764D01*
X128609566Y-75431764D02*
X128609566Y-75280573D01*
X128609566Y-75280573D02*
X128579328Y-75220097D01*
X128579328Y-75220097D02*
X128549089Y-75189859D01*
X127974566Y-76097002D02*
X127974566Y-75976049D01*
X127974566Y-75976049D02*
X128004804Y-75915573D01*
X128004804Y-75915573D02*
X128035042Y-75885335D01*
X128035042Y-75885335D02*
X128125756Y-75824859D01*
X128125756Y-75824859D02*
X128246708Y-75794621D01*
X128246708Y-75794621D02*
X128488613Y-75794621D01*
X128488613Y-75794621D02*
X128549089Y-75824859D01*
X128549089Y-75824859D02*
X128579328Y-75855097D01*
X128579328Y-75855097D02*
X128609566Y-75915573D01*
X128609566Y-75915573D02*
X128609566Y-76036526D01*
X128609566Y-76036526D02*
X128579328Y-76097002D01*
X128579328Y-76097002D02*
X128549089Y-76127240D01*
X128549089Y-76127240D02*
X128488613Y-76157478D01*
X128488613Y-76157478D02*
X128337423Y-76157478D01*
X128337423Y-76157478D02*
X128276947Y-76127240D01*
X128276947Y-76127240D02*
X128246708Y-76097002D01*
X128246708Y-76097002D02*
X128216470Y-76036526D01*
X128216470Y-76036526D02*
X128216470Y-75915573D01*
X128216470Y-75915573D02*
X128246708Y-75855097D01*
X128246708Y-75855097D02*
X128276947Y-75824859D01*
X128276947Y-75824859D02*
X128337423Y-75794621D01*
X151210228Y-74071359D02*
X150847371Y-74071359D01*
X151028800Y-74706359D02*
X151028800Y-74071359D01*
X150635704Y-74706359D02*
X150635704Y-74071359D01*
X150635704Y-74373740D02*
X150272847Y-74373740D01*
X150272847Y-74706359D02*
X150272847Y-74071359D01*
X150030942Y-74071359D02*
X149637847Y-74071359D01*
X149637847Y-74071359D02*
X149849514Y-74313263D01*
X149849514Y-74313263D02*
X149758799Y-74313263D01*
X149758799Y-74313263D02*
X149698323Y-74343501D01*
X149698323Y-74343501D02*
X149668085Y-74373740D01*
X149668085Y-74373740D02*
X149637847Y-74434216D01*
X149637847Y-74434216D02*
X149637847Y-74585406D01*
X149637847Y-74585406D02*
X149668085Y-74645882D01*
X149668085Y-74645882D02*
X149698323Y-74676121D01*
X149698323Y-74676121D02*
X149758799Y-74706359D01*
X149758799Y-74706359D02*
X149940228Y-74706359D01*
X149940228Y-74706359D02*
X150000704Y-74676121D01*
X150000704Y-74676121D02*
X150030942Y-74645882D01*
X150706102Y-80538887D02*
X150403721Y-80327220D01*
X150706102Y-80176030D02*
X150071102Y-80176030D01*
X150071102Y-80176030D02*
X150071102Y-80417935D01*
X150071102Y-80417935D02*
X150101340Y-80478411D01*
X150101340Y-80478411D02*
X150131578Y-80508649D01*
X150131578Y-80508649D02*
X150192054Y-80538887D01*
X150192054Y-80538887D02*
X150282768Y-80538887D01*
X150282768Y-80538887D02*
X150343244Y-80508649D01*
X150343244Y-80508649D02*
X150373483Y-80478411D01*
X150373483Y-80478411D02*
X150403721Y-80417935D01*
X150403721Y-80417935D02*
X150403721Y-80176030D01*
X150282768Y-81083173D02*
X150706102Y-81083173D01*
X150040864Y-80931982D02*
X150494435Y-80780792D01*
X150494435Y-80780792D02*
X150494435Y-81173887D01*
X150071102Y-81355316D02*
X150071102Y-81778649D01*
X150071102Y-81778649D02*
X150706102Y-81506506D01*
X106763959Y-111919885D02*
X106461578Y-111708218D01*
X106763959Y-111557028D02*
X106128959Y-111557028D01*
X106128959Y-111557028D02*
X106128959Y-111798933D01*
X106128959Y-111798933D02*
X106159197Y-111859409D01*
X106159197Y-111859409D02*
X106189435Y-111889647D01*
X106189435Y-111889647D02*
X106249911Y-111919885D01*
X106249911Y-111919885D02*
X106340625Y-111919885D01*
X106340625Y-111919885D02*
X106401101Y-111889647D01*
X106401101Y-111889647D02*
X106431340Y-111859409D01*
X106431340Y-111859409D02*
X106461578Y-111798933D01*
X106461578Y-111798933D02*
X106461578Y-111557028D01*
X106128959Y-112494409D02*
X106128959Y-112192028D01*
X106128959Y-112192028D02*
X106431340Y-112161790D01*
X106431340Y-112161790D02*
X106401101Y-112192028D01*
X106401101Y-112192028D02*
X106370863Y-112252504D01*
X106370863Y-112252504D02*
X106370863Y-112403695D01*
X106370863Y-112403695D02*
X106401101Y-112464171D01*
X106401101Y-112464171D02*
X106431340Y-112494409D01*
X106431340Y-112494409D02*
X106491816Y-112524647D01*
X106491816Y-112524647D02*
X106643006Y-112524647D01*
X106643006Y-112524647D02*
X106703482Y-112494409D01*
X106703482Y-112494409D02*
X106733721Y-112464171D01*
X106733721Y-112464171D02*
X106763959Y-112403695D01*
X106763959Y-112403695D02*
X106763959Y-112252504D01*
X106763959Y-112252504D02*
X106733721Y-112192028D01*
X106733721Y-112192028D02*
X106703482Y-112161790D01*
X106763959Y-113129409D02*
X106763959Y-112766552D01*
X106763959Y-112947980D02*
X106128959Y-112947980D01*
X106128959Y-112947980D02*
X106219673Y-112887504D01*
X106219673Y-112887504D02*
X106280149Y-112827028D01*
X106280149Y-112827028D02*
X106310387Y-112766552D01*
X128567891Y-92991656D02*
X128265510Y-92779989D01*
X128567891Y-92628799D02*
X127932891Y-92628799D01*
X127932891Y-92628799D02*
X127932891Y-92870704D01*
X127932891Y-92870704D02*
X127963129Y-92931180D01*
X127963129Y-92931180D02*
X127993367Y-92961418D01*
X127993367Y-92961418D02*
X128053843Y-92991656D01*
X128053843Y-92991656D02*
X128144557Y-92991656D01*
X128144557Y-92991656D02*
X128205033Y-92961418D01*
X128205033Y-92961418D02*
X128235272Y-92931180D01*
X128235272Y-92931180D02*
X128265510Y-92870704D01*
X128265510Y-92870704D02*
X128265510Y-92628799D01*
X127932891Y-93566180D02*
X127932891Y-93263799D01*
X127932891Y-93263799D02*
X128235272Y-93233561D01*
X128235272Y-93233561D02*
X128205033Y-93263799D01*
X128205033Y-93263799D02*
X128174795Y-93324275D01*
X128174795Y-93324275D02*
X128174795Y-93475466D01*
X128174795Y-93475466D02*
X128205033Y-93535942D01*
X128205033Y-93535942D02*
X128235272Y-93566180D01*
X128235272Y-93566180D02*
X128295748Y-93596418D01*
X128295748Y-93596418D02*
X128446938Y-93596418D01*
X128446938Y-93596418D02*
X128507414Y-93566180D01*
X128507414Y-93566180D02*
X128537653Y-93535942D01*
X128537653Y-93535942D02*
X128567891Y-93475466D01*
X128567891Y-93475466D02*
X128567891Y-93324275D01*
X128567891Y-93324275D02*
X128537653Y-93263799D01*
X128537653Y-93263799D02*
X128507414Y-93233561D01*
X127932891Y-93808085D02*
X127932891Y-94201180D01*
X127932891Y-94201180D02*
X128174795Y-93989513D01*
X128174795Y-93989513D02*
X128174795Y-94080228D01*
X128174795Y-94080228D02*
X128205033Y-94140704D01*
X128205033Y-94140704D02*
X128235272Y-94170942D01*
X128235272Y-94170942D02*
X128295748Y-94201180D01*
X128295748Y-94201180D02*
X128446938Y-94201180D01*
X128446938Y-94201180D02*
X128507414Y-94170942D01*
X128507414Y-94170942D02*
X128537653Y-94140704D01*
X128537653Y-94140704D02*
X128567891Y-94080228D01*
X128567891Y-94080228D02*
X128567891Y-93898799D01*
X128567891Y-93898799D02*
X128537653Y-93838323D01*
X128537653Y-93838323D02*
X128507414Y-93808085D01*
X172499159Y-100023385D02*
X172196778Y-99811718D01*
X172499159Y-99660528D02*
X171864159Y-99660528D01*
X171864159Y-99660528D02*
X171864159Y-99902433D01*
X171864159Y-99902433D02*
X171894397Y-99962909D01*
X171894397Y-99962909D02*
X171924635Y-99993147D01*
X171924635Y-99993147D02*
X171985111Y-100023385D01*
X171985111Y-100023385D02*
X172075825Y-100023385D01*
X172075825Y-100023385D02*
X172136301Y-99993147D01*
X172136301Y-99993147D02*
X172166540Y-99962909D01*
X172166540Y-99962909D02*
X172196778Y-99902433D01*
X172196778Y-99902433D02*
X172196778Y-99660528D01*
X172075825Y-100567671D02*
X172499159Y-100567671D01*
X171833921Y-100416480D02*
X172287492Y-100265290D01*
X172287492Y-100265290D02*
X172287492Y-100658385D01*
X171864159Y-100839814D02*
X171864159Y-101232909D01*
X171864159Y-101232909D02*
X172106063Y-101021242D01*
X172106063Y-101021242D02*
X172106063Y-101111957D01*
X172106063Y-101111957D02*
X172136301Y-101172433D01*
X172136301Y-101172433D02*
X172166540Y-101202671D01*
X172166540Y-101202671D02*
X172227016Y-101232909D01*
X172227016Y-101232909D02*
X172378206Y-101232909D01*
X172378206Y-101232909D02*
X172438682Y-101202671D01*
X172438682Y-101202671D02*
X172468921Y-101172433D01*
X172468921Y-101172433D02*
X172499159Y-101111957D01*
X172499159Y-101111957D02*
X172499159Y-100930528D01*
X172499159Y-100930528D02*
X172468921Y-100870052D01*
X172468921Y-100870052D02*
X172438682Y-100839814D01*
%TO.C,R40*%
D13*
X170425967Y-115485036D02*
X170425967Y-119839164D01*
X173845967Y-115485036D02*
X173845967Y-119839164D01*
%TO.C,R57*%
X104766800Y-73306105D02*
X104766800Y-77660233D01*
X108186800Y-73306105D02*
X108186800Y-77660233D01*
%TO.C,R44*%
X148581800Y-96915954D02*
X148581800Y-101270082D01*
X152001800Y-96915954D02*
X152001800Y-101270082D01*
%TO.C,TH1*%
X172200180Y-72616600D02*
X171919020Y-72616600D01*
X172200180Y-73636600D02*
X171919020Y-73636600D01*
%TO.C,TH2*%
X106095220Y-121843200D02*
X106376380Y-121843200D01*
X106095220Y-122863200D02*
X106376380Y-122863200D01*
%TO.C,R41*%
X148581800Y-115628136D02*
X148581800Y-119982264D01*
X152001800Y-115628136D02*
X152001800Y-119982264D01*
%TO.C,R50*%
X126550801Y-110020489D02*
X126550801Y-114374617D01*
X129970801Y-110020489D02*
X129970801Y-114374617D01*
%TO.C,R46*%
X170552967Y-78654833D02*
X170552967Y-83008961D01*
X173972967Y-78654833D02*
X173972967Y-83008961D01*
%TO.C,R54*%
X104766800Y-91349903D02*
X104766800Y-95704031D01*
X108186800Y-91349903D02*
X108186800Y-95704031D01*
%TO.C,J1*%
D14*
X95458200Y-58343400D02*
X183458200Y-58343400D01*
X183458200Y-135793400D01*
X95458200Y-135793400D01*
X95458200Y-58343400D01*
%TO.C,TH4*%
D13*
X127811620Y-121841800D02*
X128092780Y-121841800D01*
X127811620Y-122861800D02*
X128092780Y-122861800D01*
%TO.C,R56*%
X126612407Y-73179105D02*
X126612407Y-77533233D01*
X130032407Y-73179105D02*
X130032407Y-77533233D01*
%TO.C,TH3*%
X150520980Y-72667400D02*
X150239820Y-72667400D01*
X150520980Y-73687400D02*
X150239820Y-73687400D01*
%TO.C,R47*%
X148581800Y-78770652D02*
X148581800Y-83124780D01*
X152001800Y-78770652D02*
X152001800Y-83124780D01*
%TO.C,R51*%
X104766800Y-110151036D02*
X104766800Y-114505164D01*
X108186800Y-110151036D02*
X108186800Y-114505164D01*
%TO.C,R53*%
X126570732Y-91222807D02*
X126570732Y-95576935D01*
X129990732Y-91222807D02*
X129990732Y-95576935D01*
%TO.C,R43*%
X170502000Y-98254536D02*
X170502000Y-102608664D01*
X173922000Y-98254536D02*
X173922000Y-102608664D01*
%TD*%
%LPC*%
D15*
%TO.C,J7*%
X176020000Y-87584800D03*
X176020000Y-106064800D03*
%TD*%
D16*
%TO.C,H1*%
X174130000Y-139700000D03*
X174832944Y-138002944D03*
X174832944Y-141397056D03*
X176530000Y-137300000D03*
D17*
X176530000Y-139700000D03*
D16*
X176530000Y-142100000D03*
X178227056Y-138002944D03*
X178227056Y-141397056D03*
X178930000Y-139700000D03*
%TD*%
%TO.C,H2*%
X101740000Y-139700000D03*
X102442944Y-138002944D03*
X102442944Y-141397056D03*
X104140000Y-137300000D03*
D17*
X104140000Y-139700000D03*
D16*
X104140000Y-142100000D03*
X105837056Y-138002944D03*
X105837056Y-141397056D03*
X106540000Y-139700000D03*
%TD*%
%TO.C,H3*%
X174130000Y-53975000D03*
X174832944Y-52277944D03*
X174832944Y-55672056D03*
X176530000Y-51575000D03*
D17*
X176530000Y-53975000D03*
D16*
X176530000Y-56375000D03*
X178227056Y-52277944D03*
X178227056Y-55672056D03*
X178930000Y-53975000D03*
%TD*%
%TO.C,H4*%
X101740000Y-53975000D03*
X102442944Y-52277944D03*
X102442944Y-55672056D03*
X104140000Y-51575000D03*
D17*
X104140000Y-53975000D03*
D16*
X104140000Y-56375000D03*
X105837056Y-52277944D03*
X105837056Y-55672056D03*
X106540000Y-53975000D03*
%TD*%
D18*
%TO.C,R40*%
X172135967Y-114699600D03*
X172135967Y-120624600D03*
%TD*%
%TO.C,R57*%
X106476800Y-72520669D03*
X106476800Y-78445669D03*
%TD*%
%TO.C,R44*%
X150291800Y-96130518D03*
X150291800Y-102055518D03*
%TD*%
D19*
%TO.C,TH1*%
X172834600Y-73126600D03*
X171284600Y-73126600D03*
%TD*%
D20*
%TO.C,TH2*%
X105460800Y-122353200D03*
X107010800Y-122353200D03*
%TD*%
D18*
%TO.C,R41*%
X150291800Y-114842700D03*
X150291800Y-120767700D03*
%TD*%
%TO.C,R50*%
X128260801Y-109235053D03*
X128260801Y-115160053D03*
%TD*%
%TO.C,R46*%
X172262967Y-77869397D03*
X172262967Y-83794397D03*
%TD*%
%TO.C,R54*%
X106476800Y-90564467D03*
X106476800Y-96489467D03*
%TD*%
D21*
%TO.C,J1*%
X106788200Y-60443400D03*
X128588200Y-60443400D03*
X150338200Y-60443400D03*
X172138200Y-60443400D03*
X106788200Y-133693400D03*
X128588200Y-133693400D03*
X150338200Y-133693400D03*
X172138200Y-133693400D03*
D22*
X117678200Y-57703400D03*
X161238200Y-57703400D03*
X117678200Y-136423400D03*
X161238200Y-136303400D03*
%TD*%
D20*
%TO.C,TH4*%
X127177200Y-122351800D03*
X128727200Y-122351800D03*
%TD*%
D18*
%TO.C,R56*%
X128322407Y-72393669D03*
X128322407Y-78318669D03*
%TD*%
D19*
%TO.C,TH3*%
X151155400Y-73177400D03*
X149605400Y-73177400D03*
%TD*%
D18*
%TO.C,R47*%
X150291800Y-77985216D03*
X150291800Y-83910216D03*
%TD*%
%TO.C,R51*%
X106476800Y-109365600D03*
X106476800Y-115290600D03*
%TD*%
%TO.C,R53*%
X128280732Y-90437371D03*
X128280732Y-96362371D03*
%TD*%
%TO.C,R43*%
X172212000Y-97469100D03*
X172212000Y-103394100D03*
%TD*%
%LPD*%
M02*
