M48
; DRILL file KiCad 10.0.4 date 2026-08-22T18:11:01
; FORMAT={-:-/ absolute / inch / decimal}
; #@! TF.CreationDate,2026-08-22T18:11:01-04:00
; #@! TF.GenerationSoftware,Kicad,Pcbnew,10.0.4
; #@! TF.FileFunction,Plated,1,4,PTH
FMAT,2
INCH
; #@! TA.AperFunction,Plated,PTH,ViaDrill
T1C0.0118
; #@! TA.AperFunction,Plated,PTH,ViaDrill
T2C0.0120
; #@! TA.AperFunction,Plated,PTH,ComponentDrill
T3C0.0197
; #@! TA.AperFunction,Plated,PTH,ComponentDrill
T4C0.0472
; #@! TA.AperFunction,Plated,PTH,ComponentDrill
T5C0.0866
; #@! TA.AperFunction,Plated,PTH,ComponentDrill
T6C0.1260
%
G90
G05
T1
X3.955Y-3.761
X3.955Y-3.811
X3.955Y-3.861
X4.005Y-3.761
X4.005Y-3.811
X4.005Y-3.861
X4.108Y-4.8171
X4.211Y-3.679
X4.212Y-3.62
X4.212Y-3.741
X4.286Y-4.355
X4.286Y-4.431
X4.292Y-2.824
X4.292Y-2.874
X4.311Y-3.739
X4.323Y-3.8291
X4.342Y-2.824
X4.342Y-2.874
X4.392Y-2.824
X4.392Y-2.874
X4.425Y-4.386
X4.442Y-2.824
X4.442Y-2.874
X4.475Y-4.386
X4.525Y-4.386
X4.562Y-3.102
X4.562Y-3.152
X4.562Y-3.202
X4.612Y-3.102
X4.612Y-3.152
X4.612Y-3.202
X4.662Y-3.102
X4.662Y-3.152
X4.662Y-3.202
X4.712Y-3.102
X4.712Y-3.152
X4.712Y-3.202
X4.927Y-2.624
X4.927Y-2.674
X4.977Y-2.624
X4.977Y-2.674
X4.986Y-3.427
X4.987Y-3.379
X4.993Y-4.595
X4.993Y-4.645
X5.027Y-2.624
X5.027Y-2.674
X5.043Y-4.595
X5.043Y-4.645
X5.068Y-4.774
X5.093Y-4.595
X5.093Y-4.645
X5.143Y-4.595
X5.143Y-4.645
X5.1618Y-2.68
X5.236Y-3.038
X5.3184Y-4.939
X5.3455Y-2.637
X5.3475Y-2.97
X5.3677Y-4.0302
X5.3697Y-3.6398
X5.5253Y-2.6406
X5.5263Y-2.7026
X5.5267Y-2.7636
X5.5267Y-2.8216
X5.5267Y-3.0366
X5.5285Y-2.97
X5.553Y-4.791
X5.5735Y-4.4195
X5.6258Y-4.5138
X5.686Y-2.753
X5.686Y-2.803
X5.686Y-2.853
X5.6915Y-4.5131
X5.703Y-2.956
X5.7042Y-3.026
X5.7068Y-3.0875
X5.7122Y-3.5748
X5.7138Y-3.9588
X5.7271Y-3.419
X5.7281Y-3.8008
X5.736Y-2.753
X5.736Y-2.803
X5.736Y-2.853
X5.786Y-2.753
X5.786Y-2.803
X5.786Y-2.853
X5.828Y-3.255
X5.836Y-2.753
X5.836Y-2.803
X5.836Y-2.853
X5.854Y-3.382
X5.958Y-2.624
X5.958Y-2.674
X5.979Y-4.649
X5.979Y-4.699
X5.993Y-3.247
X5.995Y-3.188
X6.007Y-2.935
X6.008Y-2.624
X6.008Y-2.674
X6.029Y-4.649
X6.029Y-4.699
X6.0365Y-4.937
X6.04Y-3.187
X6.058Y-2.624
X6.058Y-2.674
X6.06Y-3.084
X6.079Y-4.649
X6.079Y-4.699
X6.129Y-4.649
X6.129Y-4.699
X6.1538Y-3.1155
X6.273Y-4.79
X6.277Y-2.459
X6.277Y-2.509
X6.277Y-2.559
X6.2972Y-4.4122
X6.327Y-2.459
X6.327Y-2.509
X6.327Y-2.559
X6.3405Y-4.5051
X6.377Y-2.459
X6.377Y-2.509
X6.377Y-2.559
X6.4055Y-4.5051
X6.427Y-2.459
X6.427Y-2.509
X6.427Y-2.559
X6.469Y-3.487
X6.469Y-3.537
X6.469Y-3.587
X6.494Y-3.11
X6.494Y-3.16
X6.494Y-3.21
X6.518Y-3.637
X6.518Y-3.687
X6.519Y-3.487
X6.519Y-3.537
X6.519Y-3.587
X6.544Y-3.11
X6.544Y-3.16
X6.544Y-3.21
X6.546Y-5.0535
X6.5559Y-4.8094
X6.5559Y-4.8594
X6.5559Y-4.9094
X6.568Y-3.637
X6.568Y-3.687
X6.569Y-3.487
X6.569Y-3.537
X6.569Y-3.587
X6.594Y-3.11
X6.594Y-3.16
X6.594Y-3.21
X6.618Y-3.637
X6.618Y-3.687
X6.619Y-2.642
X6.619Y-2.692
X6.619Y-2.742
X6.619Y-3.487
X6.619Y-3.537
X6.619Y-3.587
X6.628Y-3.7376
X6.632Y-4.6845
X6.644Y-3.11
X6.644Y-3.16
X6.644Y-3.21
X6.665Y-4.019
X6.665Y-4.056
X6.665Y-4.097
X6.668Y-3.637
X6.668Y-3.687
X6.669Y-2.642
X6.669Y-2.692
X6.669Y-2.742
X6.669Y-3.487
X6.669Y-3.537
X6.669Y-3.587
X6.719Y-2.642
X6.719Y-2.692
X6.719Y-2.742
X6.769Y-2.642
X6.769Y-2.692
X6.769Y-2.742
X6.803Y-2.835
X6.819Y-2.642
X6.819Y-2.692
X6.819Y-2.742
X6.8337Y-4.3759
X6.835Y-4.8635
X6.836Y-4.9908
X6.85Y-3.454
X6.85Y-3.504
X6.85Y-3.887
X6.85Y-3.937
X6.85Y-3.987
X6.851Y-3.637
X6.851Y-3.687
X6.851Y-3.737
X6.851Y-4.119
X6.851Y-4.169
X6.881Y-2.333
X6.881Y-2.383
X6.881Y-2.433
X6.931Y-2.333
X6.931Y-2.383
X6.931Y-2.433
X6.933Y-4.6845
X6.981Y-2.333
X6.981Y-2.383
X6.981Y-2.433
X7.03Y-3.485
X7.03Y-3.535
X7.03Y-3.585
X7.032Y-3.637
X7.032Y-3.687
X7.0349Y-4.6845
X7.037Y-3.909
X7.0378Y-3.8728
X7.0645Y-4.8218
X7.0665Y-4.988
X7.08Y-3.485
X7.08Y-3.535
X7.08Y-3.585
X7.082Y-3.637
X7.082Y-3.687
X7.112Y-5.11
X7.121Y-3.788
X7.128Y-4.8655
X7.13Y-3.485
X7.13Y-3.535
X7.13Y-3.585
X7.132Y-3.637
X7.132Y-3.687
X7.18Y-3.485
X7.18Y-3.535
X7.18Y-3.585
X7.182Y-3.637
X7.182Y-3.687
T2
X4.0325Y-3.5071
X4.0325Y-4.1095
X6.5457Y-5.1193
X6.6055Y-5.1571
X6.7504Y-5.087
X6.9211Y-4.8979
X7.11Y-2.8259
X7.11Y-3.2901
X7.1102Y-2.4257
X7.1102Y-2.7323
T3
X4.0055Y-2.125
X4.0055Y-5.5
X4.0332Y-2.0582
X4.0332Y-2.1918
X4.0332Y-5.4332
X4.0332Y-5.5668
X4.1Y-2.0305
X4.1Y-2.2195
X4.1Y-5.4055
X4.1Y-5.5945
X4.1668Y-2.0582
X4.1668Y-2.1918
X4.1668Y-5.4332
X4.1668Y-5.5668
X4.1945Y-2.125
X4.1945Y-5.5
X6.8555Y-2.125
X6.8555Y-5.5
X6.8832Y-2.0582
X6.8832Y-2.1918
X6.8832Y-5.4332
X6.8832Y-5.5668
X6.95Y-2.0305
X6.95Y-2.2195
X6.95Y-5.4055
X6.95Y-5.5945
X7.0168Y-2.0582
X7.0168Y-2.1918
X7.0168Y-5.4332
X7.0168Y-5.5668
X7.0445Y-2.125
X7.0445Y-5.5
T4
X4.2043Y-2.3797
X4.2043Y-5.2635
X5.0625Y-2.3797
X5.0625Y-5.2635
X5.9188Y-2.3797
X5.9188Y-5.2635
X6.7771Y-2.3797
X6.7771Y-5.2635
T5
X4.633Y-2.2718
X4.633Y-5.371
X6.348Y-2.2718
X6.348Y-5.3663
T6
X4.1Y-2.125
X4.1Y-5.5
X6.95Y-2.125
X6.95Y-5.5
M30
