%TF.GenerationSoftware,KiCad,Pcbnew,10.0.4*%
%TF.CreationDate,2026-08-31T12:35:52-04:00*%
%TF.ProjectId,Avionics-BatteryBoard,4176696f-6e69-4637-932d-426174746572,rev?*%
%TF.SameCoordinates,Original*%
%TF.FileFunction,Copper,L4,Bot*%
%TF.FilePolarity,Positive*%
%FSLAX46Y46*%
G04 Gerber Fmt 4.6, Leading zero omitted, Abs format (unit mm)*
G04 Created by KiCad (PCBNEW 10.0.4) date 2026-08-31 12:35:52*
%MOMM*%
%LPD*%
G01*
G04 APERTURE LIST*
G04 Aperture macros list*
%AMRoundRect*
0 Rectangle with rounded corners*
0 $1 Rounding radius*
0 $2 $3 $4 $5 $6 $7 $8 $9 X,Y pos of 4 corners*
0 Add a 4 corners polygon primitive as box body*
4,1,4,$2,$3,$4,$5,$6,$7,$8,$9,$2,$3,0*
0 Add four circle primitives for the rounded corners*
1,1,$1+$1,$2,$3*
1,1,$1+$1,$4,$5*
1,1,$1+$1,$6,$7*
1,1,$1+$1,$8,$9*
0 Add four rect primitives between the rounded corners*
20,1,$1+$1,$2,$3,$4,$5,0*
20,1,$1+$1,$4,$5,$6,$7,0*
20,1,$1+$1,$6,$7,$8,$9,0*
20,1,$1+$1,$8,$9,$2,$3,0*%
G04 Aperture macros list end*
%TA.AperFunction,ComponentPad*%
%ADD10C,0.800000*%
%TD*%
%TA.AperFunction,ComponentPad*%
%ADD11C,6.400000*%
%TD*%
%TA.AperFunction,SMDPad,CuDef*%
%ADD12RoundRect,0.250000X0.362500X1.425000X-0.362500X1.425000X-0.362500X-1.425000X0.362500X-1.425000X0*%
%TD*%
%TA.AperFunction,SMDPad,CuDef*%
%ADD13RoundRect,0.250000X-0.362500X-1.425000X0.362500X-1.425000X0.362500X1.425000X-0.362500X1.425000X0*%
%TD*%
%TA.AperFunction,SMDPad,CuDef*%
%ADD14RoundRect,0.225000X0.225000X0.250000X-0.225000X0.250000X-0.225000X-0.250000X0.225000X-0.250000X0*%
%TD*%
%TA.AperFunction,SMDPad,CuDef*%
%ADD15RoundRect,0.225000X-0.225000X-0.250000X0.225000X-0.250000X0.225000X0.250000X-0.225000X0.250000X0*%
%TD*%
%TA.AperFunction,ComponentPad*%
%ADD16C,2.000000*%
%TD*%
%TA.AperFunction,ComponentPad*%
%ADD17C,5.200000*%
%TD*%
%TA.AperFunction,ViaPad*%
%ADD18C,0.600000*%
%TD*%
%TA.AperFunction,Conductor*%
%ADD19C,0.381000*%
%TD*%
%TA.AperFunction,Conductor*%
%ADD20C,0.254000*%
%TD*%
%TA.AperFunction,Conductor*%
%ADD21C,1.828800*%
%TD*%
G04 APERTURE END LIST*
D10*
%TO.P,H1,1,1_1*%
%TO.N,GND*%
X174130000Y-139700000D03*
X174832944Y-138002944D03*
X174832944Y-141397056D03*
X176530000Y-137300000D03*
D11*
X176530000Y-139700000D03*
D10*
X176530000Y-142100000D03*
X178227056Y-138002944D03*
X178227056Y-141397056D03*
X178930000Y-139700000D03*
%TD*%
%TO.P,H2,1,1_1*%
%TO.N,GND*%
X101740000Y-139700000D03*
X102442944Y-138002944D03*
X102442944Y-141397056D03*
X104140000Y-137300000D03*
D11*
X104140000Y-139700000D03*
D10*
X104140000Y-142100000D03*
X105837056Y-138002944D03*
X105837056Y-141397056D03*
X106540000Y-139700000D03*
%TD*%
%TO.P,H3,1,1_1*%
%TO.N,GND*%
X174130000Y-53975000D03*
X174832944Y-52277944D03*
X174832944Y-55672056D03*
X176530000Y-51575000D03*
D11*
X176530000Y-53975000D03*
D10*
X176530000Y-56375000D03*
X178227056Y-52277944D03*
X178227056Y-55672056D03*
X178930000Y-53975000D03*
%TD*%
%TO.P,H4,1,1_1*%
%TO.N,GND*%
X101740000Y-53975000D03*
X102442944Y-52277944D03*
X102442944Y-55672056D03*
X104140000Y-51575000D03*
D11*
X104140000Y-53975000D03*
D10*
X104140000Y-56375000D03*
X105837056Y-52277944D03*
X105837056Y-55672056D03*
X106540000Y-53975000D03*
%TD*%
D12*
%TO.P,R40,1*%
%TO.N,Net-(R40-Pad1)*%
X175199900Y-118033800D03*
%TO.P,R40,2*%
%TO.N,/Battery Temperature Protection/BatteryHeater1/V_HEATER*%
X169274900Y-118033800D03*
%TD*%
D13*
%TO.P,R57,1*%
%TO.N,SYSTEM_VSS*%
X103094520Y-76948816D03*
%TO.P,R57,2*%
%TO.N,Net-(R54-Pad1)*%
X109019520Y-76948816D03*
%TD*%
D12*
%TO.P,R44,1*%
%TO.N,Net-(R44-Pad1)*%
X153508300Y-97383600D03*
%TO.P,R44,2*%
%TO.N,Net-(R41-Pad1)*%
X147583300Y-97383600D03*
%TD*%
D14*
%TO.P,TH1,1*%
%TO.N,Net-(U3-AIN2)*%
X172808200Y-122326400D03*
%TO.P,TH1,2*%
%TO.N,Net-(TH1-Pad2)*%
X171258200Y-122326400D03*
%TD*%
D15*
%TO.P,TH2,1*%
%TO.N,Net-(U3-AIN1)*%
X105460800Y-122353200D03*
%TO.P,TH2,2*%
%TO.N,Net-(TH2-Pad2)*%
X107010800Y-122353200D03*
%TD*%
D13*
%TO.P,R41,1*%
%TO.N,Net-(R41-Pad1)*%
X147608700Y-117805200D03*
%TO.P,R41,2*%
%TO.N,/Battery Temperature Protection/BatteryHeater1/V_HEATER*%
X153533700Y-117805200D03*
%TD*%
D12*
%TO.P,R50,1*%
%TO.N,Net-(R50-Pad1)*%
X131108220Y-117692098D03*
%TO.P,R50,2*%
%TO.N,/Battery Temperature Protection/BatteryHeater/V_HEATER*%
X125183220Y-117692098D03*
%TD*%
%TO.P,R46,1*%
%TO.N,SYSTEM_VSS*%
X175225300Y-76987400D03*
%TO.P,R46,2*%
%TO.N,Net-(R43-Pad1)*%
X169300300Y-76987400D03*
%TD*%
%TO.P,R54,1*%
%TO.N,Net-(R54-Pad1)*%
X108959420Y-97167216D03*
%TO.P,R54,2*%
%TO.N,Net-(R51-Pad1)*%
X103034420Y-97167216D03*
%TD*%
D16*
%TO.P,J1,1,POS_1*%
%TO.N,Net-(F4-Pad2)*%
X106788200Y-60443400D03*
%TO.P,J1,2,POS_2*%
%TO.N,Net-(F3-Pad2)*%
X128588200Y-60443400D03*
%TO.P,J1,3,NEG_3*%
%TO.N,Net-(F2-Pad1)*%
X150338200Y-60443400D03*
%TO.P,J1,4,NEG_4*%
%TO.N,Net-(F1-Pad1)*%
X172138200Y-60443400D03*
%TO.P,J1,5,NEG_5*%
%TO.N,/Battery Bus Detection/BATT_M*%
X106788200Y-133693400D03*
%TO.P,J1,6,NEG_6*%
X128588200Y-133693400D03*
%TO.P,J1,7,POS_7*%
X150338200Y-133693400D03*
%TO.P,J1,8,POS_8*%
X172138200Y-133693400D03*
D17*
%TO.P,J1,9,GND_9*%
%TO.N,GND*%
X117678200Y-57703400D03*
%TO.P,J1,10,GND_10*%
X161238200Y-57703400D03*
%TO.P,J1,11,GND_11*%
X117678200Y-136423400D03*
%TO.P,J1,12,GND_12*%
X161238200Y-136303400D03*
%TD*%
D15*
%TO.P,TH4,1*%
%TO.N,Net-(TH2-Pad2)*%
X127177200Y-122351800D03*
%TO.P,TH4,2*%
%TO.N,SYSTEM_VSS*%
X128727200Y-122351800D03*
%TD*%
D12*
%TO.P,R56,1*%
%TO.N,SYSTEM_VSS*%
X131184420Y-76923416D03*
%TO.P,R56,2*%
%TO.N,Net-(R53-Pad1)*%
X125259420Y-76923416D03*
%TD*%
D14*
%TO.P,TH3,1*%
%TO.N,Net-(TH1-Pad2)*%
X151129000Y-122377200D03*
%TO.P,TH3,2*%
%TO.N,SYSTEM_VSS*%
X149579000Y-122377200D03*
%TD*%
D13*
%TO.P,R47,1*%
%TO.N,SYSTEM_VSS*%
X147684900Y-77012800D03*
%TO.P,R47,2*%
%TO.N,Net-(R44-Pad1)*%
X153609900Y-77012800D03*
%TD*%
%TO.P,R51,1*%
%TO.N,Net-(R51-Pad1)*%
X103110620Y-117766616D03*
%TO.P,R51,2*%
%TO.N,/Battery Temperature Protection/BatteryHeater/V_HEATER*%
X109035620Y-117766616D03*
%TD*%
%TO.P,R53,1*%
%TO.N,Net-(R53-Pad1)*%
X125234020Y-97243416D03*
%TO.P,R53,2*%
%TO.N,Net-(R50-Pad1)*%
X131159020Y-97243416D03*
%TD*%
%TO.P,R43,1*%
%TO.N,Net-(R43-Pad1)*%
X169249500Y-97307400D03*
%TO.P,R43,2*%
%TO.N,Net-(R40-Pad1)*%
X175174500Y-97307400D03*
%TD*%
D18*
%TO.N,/Battery Bus Detection/BATT_N*%
X163245800Y-63728600D03*
X160705800Y-63728600D03*
X159435800Y-62458600D03*
X163245800Y-64998600D03*
X160705800Y-62458600D03*
X161975800Y-64998600D03*
X139046299Y-68721000D03*
X161975800Y-62458600D03*
X139083099Y-71845200D03*
X144951600Y-78422000D03*
X159435800Y-63728600D03*
X139071699Y-70295800D03*
X159435800Y-64998600D03*
X139083099Y-73318400D03*
X163245800Y-62458600D03*
X161975800Y-63728600D03*
X160705800Y-64998600D03*
X129813099Y-69723000D03*
%TO.N,+3V3*%
X166624000Y-94843600D03*
X178816000Y-94843600D03*
X152899500Y-101577602D03*
X158762200Y-101562400D03*
%TO.N,/Battery Bus Protection/DISCHARGE_ACTIVE*%
X136111100Y-103977400D03*
X112929400Y-112166400D03*
%TO.N,SYSTEM_VDD*%
X166326730Y-89027000D03*
X167773168Y-68782733D03*
X152933400Y-111125000D03*
X169043168Y-70052733D03*
X162516730Y-90297000D03*
X169043168Y-68782733D03*
X171196000Y-126390400D03*
X151663400Y-108585000D03*
X154203400Y-109855000D03*
X172466000Y-125120400D03*
X171583168Y-67512733D03*
X170313168Y-70052733D03*
X165056730Y-87757000D03*
X171196000Y-123850400D03*
X172466000Y-126390400D03*
X171196000Y-125120400D03*
X149123400Y-108585000D03*
X150393400Y-109855000D03*
X154203400Y-108585000D03*
X163786730Y-89027000D03*
X152933400Y-109855000D03*
X172466000Y-123850400D03*
X167773168Y-67512733D03*
X165056730Y-90297000D03*
X171583168Y-68782733D03*
X149123400Y-109855000D03*
X149123400Y-111125000D03*
X151663400Y-109855000D03*
X170313168Y-67512733D03*
X173736000Y-125120400D03*
X150393400Y-108585000D03*
X173736000Y-126390400D03*
X166326730Y-87757000D03*
X154203400Y-111125000D03*
X169043168Y-67512733D03*
X166326730Y-90297000D03*
X151663400Y-111125000D03*
X167773168Y-70052733D03*
X165056730Y-89027000D03*
X170313168Y-68782733D03*
X162516730Y-89027000D03*
X150393400Y-111125000D03*
X173736000Y-123850400D03*
X152933400Y-108585000D03*
X171583168Y-70052733D03*
X163786730Y-87757000D03*
X163786730Y-90297000D03*
X162516730Y-87757000D03*
%TO.N,SYSTEM_VSS*%
X148234400Y-71196200D03*
X171170600Y-117170200D03*
X111582200Y-72847200D03*
X157408000Y-112901900D03*
X167817800Y-73228200D03*
X146964400Y-71196200D03*
X140106400Y-112975100D03*
X178699412Y-92354400D03*
X173710600Y-119710200D03*
X154756000Y-77583800D03*
X165036313Y-93624400D03*
X167817800Y-74498200D03*
X146964400Y-72466200D03*
X144424400Y-69926200D03*
X148234400Y-69926200D03*
X114122200Y-72847200D03*
X171627800Y-71958200D03*
X112852200Y-72847200D03*
X172440600Y-117170200D03*
X112852200Y-74117200D03*
X182509412Y-92354400D03*
X163766313Y-93624400D03*
X170357800Y-71958200D03*
X162542130Y-93593057D03*
X151257000Y-85496400D03*
X115392200Y-72847200D03*
X170357800Y-73228200D03*
X144424400Y-72466200D03*
X166306313Y-93624400D03*
X133512199Y-126258100D03*
X167817800Y-71958200D03*
X128727200Y-120802400D03*
X181239412Y-93624400D03*
X172440600Y-118440200D03*
X115392200Y-74117200D03*
X145694400Y-69926200D03*
X146761200Y-122301000D03*
X128632500Y-104016900D03*
X172440600Y-119710200D03*
X171627800Y-74498200D03*
X173710600Y-118440200D03*
X171170600Y-118440200D03*
X170357800Y-74498200D03*
X182509412Y-93624400D03*
X169087800Y-71958200D03*
X140068000Y-104355600D03*
X171170600Y-119710200D03*
X171627800Y-73228200D03*
X145694400Y-72466200D03*
X165036313Y-92354400D03*
X169087800Y-74498200D03*
X145694400Y-71196200D03*
X163766313Y-92354400D03*
X111582200Y-74117200D03*
X178699412Y-93624400D03*
X144424400Y-71196200D03*
X179969412Y-93624400D03*
X179969412Y-92354400D03*
X114122200Y-74117200D03*
X173710600Y-117170200D03*
X162542130Y-92323057D03*
X146964400Y-69926200D03*
X169087800Y-73228200D03*
X150787600Y-126232700D03*
X166306313Y-92354400D03*
X181239412Y-92354400D03*
X148234400Y-72466200D03*
%TO.N,GND*%
X173990000Y-101269800D03*
X150720313Y-103901713D03*
X173990000Y-99999800D03*
X181233200Y-125662600D03*
X99009200Y-96799400D03*
X100279200Y-96799400D03*
X146100800Y-105892600D03*
X100279200Y-98069400D03*
X174015400Y-104622600D03*
X158737600Y-98514400D03*
X174015400Y-105892600D03*
X155057813Y-99099213D03*
X99009200Y-98069400D03*
X173990000Y-87731600D03*
X174015400Y-92379800D03*
X181233200Y-117872600D03*
X141213800Y-117698300D03*
X102425000Y-89081201D03*
X100279200Y-95529400D03*
X173990000Y-98729800D03*
X99009200Y-95529400D03*
X174015400Y-93649800D03*
X158384200Y-117525800D03*
X173990000Y-89001600D03*
X180594000Y-65273600D03*
X180594000Y-77063600D03*
%TO.N,/Battery Bus Detection/BATT_M*%
X127685800Y-66649600D03*
X125145800Y-66649600D03*
X134530800Y-77089000D03*
X126415800Y-66649600D03*
X125145800Y-67919600D03*
X151333200Y-66649600D03*
X152603200Y-67919600D03*
X153873200Y-67919600D03*
X139083899Y-78779400D03*
X126415800Y-67919600D03*
X153873200Y-66649600D03*
X144885999Y-76861200D03*
X133070600Y-78816200D03*
X134480800Y-68630800D03*
X152603200Y-66649600D03*
X127685800Y-67919600D03*
X151333200Y-67919600D03*
%TO.N,/Battery Monitor/SDA*%
X160257000Y-98278400D03*
X154736800Y-80543400D03*
X155566500Y-94894200D03*
%TO.N,/Interfaces/HEATER1_ON*%
X107213400Y-93243400D03*
X160159200Y-113862900D03*
X167487600Y-103251000D03*
%TO.N,Net-(U3-REG2)*%
X156362400Y-79044800D03*
X152577800Y-74549000D03*
%TO.N,Net-(U3-AIN1)*%
X104343200Y-122353200D03*
X147980400Y-81991200D03*
%TO.N,Net-(U3-AIN2)*%
X154508200Y-85140800D03*
X169824400Y-121056400D03*
%TO.N,/Battery Monitor/SCL*%
X149212300Y-94231298D03*
X154762200Y-81457800D03*
X145584300Y-104727202D03*
%TO.N,/Interfaces/SCL_BUS*%
X160121600Y-105613200D03*
X178790600Y-98602800D03*
X107175300Y-97218500D03*
%TO.N,/Interfaces/SDA_BUS*%
X162737800Y-97586800D03*
X179781200Y-98602800D03*
X145872200Y-98514400D03*
X107172000Y-96231200D03*
%TO.N,/Interfaces/HEATER0_ON*%
X103073200Y-94310200D03*
X142988800Y-115440000D03*
X167500300Y-102298500D03*
%TO.N,/Interfaces/ALERT*%
X101879400Y-94335600D03*
X159813798Y-94894200D03*
X147955000Y-84111600D03*
X172339000Y-103505000D03*
%TO.N,/Battery Bus Detection/BATT_P*%
X117144800Y-80060800D03*
X118414800Y-80060800D03*
X117144800Y-81330800D03*
X118414800Y-78790800D03*
X115874800Y-78790800D03*
X139128000Y-77089000D03*
X118414800Y-81330800D03*
X119684800Y-81330800D03*
X117144800Y-78790800D03*
X115874800Y-80060800D03*
X119684800Y-80060800D03*
X119684800Y-78790800D03*
X115874800Y-81330800D03*
X144857200Y-75082400D03*
%TO.N,/Battery Bus Protection/CHARGE_ACTIVE*%
X126357500Y-104016900D03*
X112929400Y-110236000D03*
%TO.N,/Battery Temperature Protection/BatteryHeater/V_HEATER*%
X125653800Y-117170200D03*
X121843800Y-117170200D03*
X124383800Y-118440200D03*
X121843800Y-118440200D03*
X123113800Y-118440200D03*
X124383800Y-117170200D03*
X125653800Y-118440200D03*
X123113800Y-117170200D03*
%TO.N,/Battery Bus Detection/CHARGE_EN*%
X131123601Y-80095001D03*
X123240800Y-95250000D03*
%TO.N,/Battery Bus Detection/DISCHARGE_EN*%
X134460100Y-95277400D03*
X128276201Y-79444999D03*
%TO.N,/Battery Temperature Protection/BatteryHeater1/V_HEATER*%
X151536400Y-118465600D03*
X152806400Y-118465600D03*
X150266400Y-118465600D03*
X154076400Y-118465600D03*
X154076400Y-117195600D03*
X151536400Y-117195600D03*
X150266400Y-117195600D03*
X152806400Y-117195600D03*
%TD*%
%TO.N,SYSTEM_VSS*%
D19*
X149579000Y-122377200D02*
X146837400Y-122377200D01*
X146837400Y-122377200D02*
X146761200Y-122301000D01*
D20*
X128727200Y-122351800D02*
X128727200Y-120802400D01*
%TO.N,Net-(U3-AIN1)*%
X105460800Y-122353200D02*
X104343200Y-122353200D01*
X104343200Y-122353200D02*
X104319200Y-122353200D01*
X104319200Y-122353200D02*
X104267000Y-122301000D01*
%TO.N,Net-(U3-AIN2)*%
X172808200Y-122326400D02*
X171538200Y-121056400D01*
X171538200Y-121056400D02*
X169824400Y-121056400D01*
%TO.N,Net-(R40-Pad1)*%
D21*
X175310800Y-97307400D02*
X177825400Y-99822000D01*
X177825400Y-115408300D02*
X175199900Y-118033800D01*
X175174500Y-97307400D02*
X175310800Y-97307400D01*
X177825400Y-99822000D02*
X177825400Y-115408300D01*
X175199900Y-118033800D02*
X175199900Y-117754400D01*
%TO.N,Net-(R54-Pad1)*%
X109019520Y-76948816D02*
X109019520Y-97107116D01*
X109019520Y-97107116D02*
X108959420Y-97167216D01*
%TO.N,Net-(R44-Pad1)*%
X152984200Y-76962000D02*
X152984200Y-97231200D01*
X153609900Y-97282000D02*
X153508300Y-97383600D01*
%TO.N,Net-(R41-Pad1)*%
X147583300Y-117779800D02*
X147608700Y-117805200D01*
X147583300Y-97383600D02*
X147583300Y-117779800D01*
%TO.N,Net-(TH1-Pad2)*%
D19*
X171322000Y-122301000D02*
X151258000Y-122301000D01*
%TO.N,Net-(TH2-Pad2)*%
X127257800Y-122250200D02*
X107311800Y-122250200D01*
%TO.N,Net-(R50-Pad1)*%
D21*
X131159020Y-117641298D02*
X131108220Y-117692098D01*
X131159020Y-97243416D02*
X131159020Y-117641298D01*
%TO.N,Net-(R43-Pad1)*%
X168681400Y-96739300D02*
X169249500Y-97307400D01*
X168681400Y-77606300D02*
X168681400Y-96739300D01*
X169300300Y-76987400D02*
X168681400Y-77606300D01*
%TO.N,Net-(R51-Pad1)*%
X103034420Y-97167216D02*
X103034420Y-117690416D01*
X103034420Y-117690416D02*
X103110620Y-117766616D01*
%TO.N,Net-(R53-Pad1)*%
X125259420Y-97218016D02*
X125234020Y-97243416D01*
X125259420Y-76923416D02*
X125259420Y-97218016D01*
%TD*%
%TA.AperFunction,Conductor*%
%TO.N,SYSTEM_VSS*%
G36*
X131892477Y-71800085D02*
G01*
X131913119Y-71816719D01*
X132221481Y-72125081D01*
X132254966Y-72186404D01*
X132257800Y-72212762D01*
X132257800Y-78637838D01*
X132238115Y-78704877D01*
X132221481Y-78725519D01*
X131913119Y-79033881D01*
X131851796Y-79067366D01*
X131825438Y-79070200D01*
X128911680Y-79070200D01*
X128844641Y-79050515D01*
X128808575Y-79015087D01*
X128805553Y-79010564D01*
X128710635Y-78915646D01*
X128710631Y-78915643D01*
X128599018Y-78841065D01*
X128599009Y-78841060D01*
X128474987Y-78789689D01*
X128474981Y-78789687D01*
X128343325Y-78763499D01*
X128343323Y-78763499D01*
X128209079Y-78763499D01*
X128209077Y-78763499D01*
X128077420Y-78789687D01*
X128077414Y-78789689D01*
X127953392Y-78841060D01*
X127953383Y-78841065D01*
X127922951Y-78861400D01*
X127892653Y-78870886D01*
X127862906Y-78881982D01*
X127859549Y-78881251D01*
X127856273Y-78882278D01*
X127825658Y-78873879D01*
X127794633Y-78867130D01*
X127790917Y-78864348D01*
X127788893Y-78863793D01*
X127766379Y-78845979D01*
X127645919Y-78725519D01*
X127612434Y-78664196D01*
X127609600Y-78637838D01*
X127609600Y-75006200D01*
X127228600Y-75006200D01*
X126064118Y-75006200D01*
X126000997Y-74988932D01*
X125874713Y-74914248D01*
X125874707Y-74914246D01*
X125721500Y-74869735D01*
X125721489Y-74869733D01*
X125685695Y-74866916D01*
X125685690Y-74866916D01*
X124833150Y-74866916D01*
X124833144Y-74866916D01*
X124797350Y-74869733D01*
X124797339Y-74869735D01*
X124644132Y-74914246D01*
X124644126Y-74914248D01*
X124517843Y-74988932D01*
X124454722Y-75006200D01*
X109781268Y-75006200D01*
X109718147Y-74988932D01*
X109634812Y-74939648D01*
X109634807Y-74939646D01*
X109481600Y-74895135D01*
X109481589Y-74895133D01*
X109445795Y-74892316D01*
X109445790Y-74892316D01*
X108593250Y-74892316D01*
X108593244Y-74892316D01*
X108557450Y-74895133D01*
X108557439Y-74895135D01*
X108404232Y-74939646D01*
X108404227Y-74939648D01*
X108320893Y-74988932D01*
X108257772Y-75006200D01*
X107010200Y-75006200D01*
X107010200Y-78637838D01*
X106990515Y-78704877D01*
X106973881Y-78725519D01*
X106665519Y-79033881D01*
X106604196Y-79067366D01*
X106577838Y-79070200D01*
X102946762Y-79070200D01*
X102879723Y-79050515D01*
X102859081Y-79033881D01*
X102550719Y-78725519D01*
X102517234Y-78664196D01*
X102514400Y-78637838D01*
X102514400Y-72212762D01*
X102534085Y-72145723D01*
X102550719Y-72125081D01*
X102859081Y-71816719D01*
X102920404Y-71783234D01*
X102946762Y-71780400D01*
X131825438Y-71780400D01*
X131892477Y-71800085D01*
G37*
%TD.AperFunction*%
%TD*%
%TA.AperFunction,Conductor*%
%TO.N,SYSTEM_VSS*%
G36*
X177105340Y-70769421D02*
G01*
X177130584Y-70776834D01*
X177183330Y-70808130D01*
X177471674Y-71096474D01*
X177492823Y-71124725D01*
X177505431Y-71147814D01*
X177520600Y-71207243D01*
X177520600Y-78289808D01*
X177515576Y-78324745D01*
X177508164Y-78349986D01*
X177476869Y-78402730D01*
X177188526Y-78691073D01*
X177160275Y-78712222D01*
X177137187Y-78724830D01*
X177077757Y-78740000D01*
X173043192Y-78740000D01*
X173008256Y-78734977D01*
X172983014Y-78727565D01*
X172930269Y-78696269D01*
X172641926Y-78407926D01*
X172641921Y-78407921D01*
X172620774Y-78379670D01*
X172608167Y-78356581D01*
X172593000Y-78297156D01*
X172593000Y-73990200D01*
X172212000Y-73990200D01*
X153023608Y-73990200D01*
X153023605Y-73990199D01*
X153023605Y-73990200D01*
X152988670Y-73985176D01*
X152956864Y-73975836D01*
X152922914Y-73959964D01*
X152900632Y-73945076D01*
X152900619Y-73945068D01*
X152900618Y-73945067D01*
X152900608Y-73945061D01*
X152900604Y-73945059D01*
X152900602Y-73945058D01*
X152776595Y-73893693D01*
X152776575Y-73893686D01*
X152776567Y-73893684D01*
X152644927Y-73867500D01*
X152644924Y-73867500D01*
X152644922Y-73867500D01*
X152510678Y-73867500D01*
X152510676Y-73867500D01*
X152510671Y-73867500D01*
X152379030Y-73893684D01*
X152379023Y-73893686D01*
X152379003Y-73893693D01*
X152254994Y-73945059D01*
X152254989Y-73945061D01*
X152254986Y-73945063D01*
X152254976Y-73945069D01*
X152233534Y-73959397D01*
X152201702Y-73974627D01*
X152170070Y-73984533D01*
X152133012Y-73990200D01*
X150596600Y-73990200D01*
X150596600Y-78416808D01*
X150596599Y-78416810D01*
X150596600Y-78416811D01*
X150591576Y-78451745D01*
X150584164Y-78476986D01*
X150552869Y-78529730D01*
X150264526Y-78818073D01*
X150236275Y-78839222D01*
X150213187Y-78851830D01*
X150153757Y-78867000D01*
X146957392Y-78867000D01*
X146957391Y-78866999D01*
X146957391Y-78867000D01*
X146922456Y-78861977D01*
X146897214Y-78854565D01*
X146844469Y-78823269D01*
X146556126Y-78534926D01*
X146534974Y-78506670D01*
X146522367Y-78483581D01*
X146507200Y-78424156D01*
X146507200Y-71466352D01*
X146512222Y-71431419D01*
X146519837Y-71405483D01*
X146548454Y-71355503D01*
X146841621Y-71043562D01*
X146869196Y-71021553D01*
X146892509Y-71007868D01*
X146947589Y-70991047D01*
X148551900Y-70891400D01*
X150213540Y-70788191D01*
X150215258Y-70788097D01*
X150217392Y-70787997D01*
X150219126Y-70787930D01*
X150974707Y-70764488D01*
X150976644Y-70764444D01*
X150978539Y-70764415D01*
X150980436Y-70764400D01*
X177070408Y-70764400D01*
X177105340Y-70769421D01*
G37*
%TD.AperFunction*%
%TD*%
%TA.AperFunction,Conductor*%
%TO.N,/Battery Temperature Protection/BatteryHeater1/V_HEATER*%
G36*
X170094553Y-115955923D02*
G01*
X170107444Y-115960112D01*
X170157732Y-115996641D01*
X170160776Y-116000832D01*
X170180000Y-116059957D01*
X170180000Y-119568267D01*
X170175074Y-119599362D01*
X170170885Y-119612251D01*
X170134358Y-119662532D01*
X170131854Y-119664351D01*
X170130168Y-119665576D01*
X170071042Y-119684800D01*
X149849533Y-119684800D01*
X149818444Y-119679875D01*
X149809779Y-119677060D01*
X149805551Y-119675686D01*
X149755258Y-119639145D01*
X149752215Y-119634957D01*
X149733000Y-119575827D01*
X149733000Y-117455819D01*
X157852700Y-117455819D01*
X157852700Y-117595779D01*
X157888918Y-117730945D01*
X157888920Y-117730951D01*
X157888921Y-117730952D01*
X157958892Y-117852145D01*
X157958894Y-117852148D01*
X158057852Y-117951106D01*
X158179049Y-118021079D01*
X158179050Y-118021079D01*
X158179052Y-118021080D01*
X158311326Y-118056523D01*
X158313757Y-118057253D01*
X158314076Y-118057300D01*
X158314227Y-118057300D01*
X158314229Y-118057300D01*
X158454171Y-118057300D01*
X158454173Y-118057300D01*
X158454349Y-118057253D01*
X158589347Y-118021080D01*
X158589346Y-118021080D01*
X158589351Y-118021079D01*
X158710548Y-117951106D01*
X158809506Y-117852148D01*
X158879479Y-117730951D01*
X158915700Y-117595773D01*
X158915700Y-117455827D01*
X158894136Y-117375351D01*
X158879480Y-117320652D01*
X158879478Y-117320647D01*
X158811016Y-117202067D01*
X158809911Y-117200014D01*
X158809507Y-117199453D01*
X158710547Y-117100493D01*
X158710105Y-117100238D01*
X158589351Y-117030520D01*
X158589345Y-117030518D01*
X158454179Y-116994300D01*
X158454177Y-116994300D01*
X158454173Y-116994300D01*
X158314227Y-116994300D01*
X158314222Y-116994300D01*
X158314219Y-116994300D01*
X158179053Y-117030518D01*
X158179047Y-117030520D01*
X158057853Y-117100492D01*
X157958892Y-117199453D01*
X157888920Y-117320647D01*
X157888918Y-117320653D01*
X157852700Y-117455819D01*
X149733000Y-117455819D01*
X149733000Y-116067532D01*
X149737923Y-116036447D01*
X149742112Y-116023553D01*
X149778654Y-115973257D01*
X149782853Y-115970207D01*
X149841977Y-115951000D01*
X170063467Y-115951000D01*
X170094553Y-115955923D01*
G37*
%TD.AperFunction*%
%TD*%
%TA.AperFunction,Conductor*%
%TO.N,/Battery Bus Detection/BATT_M*%
G36*
X156048740Y-62006421D02*
G01*
X156073984Y-62013834D01*
X156126730Y-62045130D01*
X156288074Y-62206474D01*
X156309223Y-62234725D01*
X156321831Y-62257814D01*
X156337000Y-62317243D01*
X156337000Y-69806208D01*
X156331976Y-69841145D01*
X156324564Y-69866386D01*
X156293269Y-69919130D01*
X156131926Y-70080473D01*
X156107117Y-70099045D01*
X156103675Y-70101622D01*
X156080587Y-70114230D01*
X156021157Y-70129400D01*
X149057141Y-70129400D01*
X149022206Y-70124377D01*
X149008011Y-70120209D01*
X148949233Y-70082435D01*
X148920633Y-70021614D01*
X148919696Y-70015994D01*
X148917587Y-70003335D01*
X148915900Y-69982953D01*
X148915900Y-69859072D01*
X148889471Y-69726211D01*
X148887386Y-69721803D01*
X148874949Y-69691779D01*
X148844514Y-69618302D01*
X148838338Y-69603391D01*
X148838337Y-69603390D01*
X148838335Y-69603384D01*
X148763753Y-69491766D01*
X148763752Y-69491765D01*
X148763747Y-69491759D01*
X148668839Y-69396851D01*
X148668833Y-69396846D01*
X148668832Y-69396845D01*
X148557211Y-69322262D01*
X148557212Y-69322262D01*
X148557202Y-69322257D01*
X148433195Y-69270893D01*
X148433175Y-69270886D01*
X148433167Y-69270884D01*
X148301527Y-69244700D01*
X148301524Y-69244700D01*
X148301522Y-69244700D01*
X148167278Y-69244700D01*
X148167276Y-69244700D01*
X148167271Y-69244700D01*
X148035630Y-69270884D01*
X148035623Y-69270886D01*
X148035603Y-69270893D01*
X147911596Y-69322257D01*
X147911586Y-69322262D01*
X147799966Y-69396845D01*
X147775118Y-69421694D01*
X147705045Y-69491767D01*
X147705043Y-69491769D01*
X147700734Y-69496079D01*
X147700440Y-69495785D01*
X147691701Y-69504601D01*
X147678169Y-69515909D01*
X147614104Y-69543792D01*
X147545134Y-69532613D01*
X147545132Y-69532611D01*
X147540407Y-69530350D01*
X147499517Y-69494928D01*
X147497624Y-69496482D01*
X147493758Y-69491772D01*
X147493755Y-69491769D01*
X147493754Y-69491767D01*
X147398834Y-69396847D01*
X147398833Y-69396846D01*
X147398832Y-69396845D01*
X147287211Y-69322262D01*
X147287212Y-69322262D01*
X147287202Y-69322257D01*
X147163195Y-69270893D01*
X147163175Y-69270886D01*
X147163167Y-69270884D01*
X147031527Y-69244700D01*
X147031524Y-69244700D01*
X147031522Y-69244700D01*
X146897278Y-69244700D01*
X146897276Y-69244700D01*
X146897271Y-69244700D01*
X146765630Y-69270884D01*
X146765623Y-69270886D01*
X146765603Y-69270893D01*
X146641596Y-69322257D01*
X146641586Y-69322262D01*
X146529966Y-69396845D01*
X146505118Y-69421694D01*
X146435045Y-69491767D01*
X146435043Y-69491769D01*
X146430734Y-69496079D01*
X146430440Y-69495785D01*
X146421701Y-69504601D01*
X146408169Y-69515909D01*
X146344104Y-69543792D01*
X146275134Y-69532613D01*
X146275132Y-69532611D01*
X146270407Y-69530350D01*
X146229517Y-69494928D01*
X146227624Y-69496482D01*
X146223758Y-69491772D01*
X146223755Y-69491769D01*
X146223754Y-69491767D01*
X146128834Y-69396847D01*
X146128833Y-69396846D01*
X146128832Y-69396845D01*
X146017211Y-69322262D01*
X146017212Y-69322262D01*
X146017202Y-69322257D01*
X145893195Y-69270893D01*
X145893175Y-69270886D01*
X145893167Y-69270884D01*
X145761527Y-69244700D01*
X145761524Y-69244700D01*
X145761522Y-69244700D01*
X145627278Y-69244700D01*
X145627276Y-69244700D01*
X145627271Y-69244700D01*
X145495630Y-69270884D01*
X145495623Y-69270886D01*
X145495603Y-69270893D01*
X145371596Y-69322257D01*
X145371586Y-69322262D01*
X145259966Y-69396845D01*
X145235118Y-69421694D01*
X145165045Y-69491767D01*
X145165043Y-69491769D01*
X145160734Y-69496079D01*
X145160440Y-69495785D01*
X145151701Y-69504601D01*
X145138169Y-69515909D01*
X145074104Y-69543792D01*
X145005134Y-69532613D01*
X145005132Y-69532611D01*
X145000407Y-69530350D01*
X144959517Y-69494928D01*
X144957624Y-69496482D01*
X144953758Y-69491772D01*
X144953755Y-69491769D01*
X144953754Y-69491767D01*
X144858834Y-69396847D01*
X144858833Y-69396846D01*
X144858832Y-69396845D01*
X144747211Y-69322262D01*
X144747212Y-69322262D01*
X144747202Y-69322257D01*
X144623195Y-69270893D01*
X144623175Y-69270886D01*
X144623167Y-69270884D01*
X144491527Y-69244700D01*
X144491524Y-69244700D01*
X144491522Y-69244700D01*
X144357278Y-69244700D01*
X144357276Y-69244700D01*
X144357271Y-69244700D01*
X144225630Y-69270884D01*
X144225623Y-69270886D01*
X144225603Y-69270893D01*
X144101596Y-69322257D01*
X144101586Y-69322262D01*
X143989966Y-69396845D01*
X143989965Y-69396846D01*
X143989959Y-69396851D01*
X143895051Y-69491759D01*
X143895046Y-69491765D01*
X143895045Y-69491766D01*
X143820462Y-69603386D01*
X143820457Y-69603396D01*
X143769093Y-69727403D01*
X143769086Y-69727423D01*
X143769084Y-69727431D01*
X143742900Y-69859070D01*
X143742900Y-69948955D01*
X143737637Y-69966875D01*
X143769085Y-70124968D01*
X143769086Y-70124974D01*
X143769093Y-70124995D01*
X143820457Y-70249002D01*
X143820462Y-70249012D01*
X143895044Y-70360631D01*
X143895047Y-70360634D01*
X143989967Y-70455554D01*
X143989969Y-70455555D01*
X143994275Y-70459861D01*
X143993979Y-70460156D01*
X144002793Y-70468889D01*
X144010691Y-70478340D01*
X144014110Y-70482431D01*
X144041992Y-70546496D01*
X144030812Y-70615465D01*
X144030812Y-70615466D01*
X144028552Y-70620189D01*
X143993139Y-70661095D01*
X143994683Y-70662976D01*
X143989968Y-70666844D01*
X143895045Y-70761766D01*
X143820462Y-70873386D01*
X143820457Y-70873396D01*
X143769093Y-70997403D01*
X143769086Y-70997423D01*
X143769084Y-70997431D01*
X143742900Y-71129070D01*
X143742900Y-71218955D01*
X143737637Y-71236875D01*
X143769085Y-71394968D01*
X143769086Y-71394974D01*
X143769093Y-71394995D01*
X143820457Y-71519002D01*
X143820462Y-71519012D01*
X143895044Y-71630631D01*
X143895047Y-71630634D01*
X143989967Y-71725554D01*
X143989969Y-71725555D01*
X143994275Y-71729861D01*
X143993979Y-71730156D01*
X144002793Y-71738889D01*
X144010691Y-71748340D01*
X144014110Y-71752431D01*
X144041992Y-71816496D01*
X144030812Y-71885465D01*
X144030812Y-71885466D01*
X144028552Y-71890189D01*
X143993139Y-71931095D01*
X143994683Y-71932976D01*
X143989970Y-71936842D01*
X143989967Y-71936845D01*
X143942507Y-71984304D01*
X143895045Y-72031766D01*
X143820462Y-72143386D01*
X143820457Y-72143396D01*
X143769093Y-72267403D01*
X143769086Y-72267423D01*
X143769084Y-72267431D01*
X143742900Y-72399070D01*
X143742900Y-72488955D01*
X143737637Y-72506875D01*
X143769085Y-72664968D01*
X143769086Y-72664974D01*
X143769093Y-72664995D01*
X143820457Y-72789002D01*
X143820462Y-72789012D01*
X143895045Y-72900632D01*
X143895046Y-72900633D01*
X143895051Y-72900639D01*
X143989959Y-72995547D01*
X143989965Y-72995552D01*
X143989966Y-72995553D01*
X144095238Y-73065895D01*
X144095241Y-73065896D01*
X144101582Y-73070133D01*
X144101588Y-73070136D01*
X144101589Y-73070137D01*
X144220655Y-73119456D01*
X144221250Y-73119710D01*
X144221436Y-73119863D01*
X144224413Y-73121271D01*
X144357272Y-73147700D01*
X144491524Y-73147700D01*
X144491525Y-73147700D01*
X144506286Y-73144763D01*
X144580099Y-73130080D01*
X144580100Y-73130080D01*
X144588763Y-73128356D01*
X144623186Y-73121510D01*
X144747211Y-73070137D01*
X144858831Y-72995555D01*
X144953755Y-72900631D01*
X144953756Y-72900628D01*
X144958552Y-72895833D01*
X144958915Y-72896196D01*
X144967307Y-72887625D01*
X144980628Y-72876491D01*
X145044690Y-72848607D01*
X145113656Y-72859781D01*
X145118583Y-72862138D01*
X145162655Y-72898334D01*
X145162936Y-72898101D01*
X145164162Y-72899572D01*
X145164397Y-72899765D01*
X145165039Y-72900625D01*
X145165042Y-72900628D01*
X145165047Y-72900634D01*
X145165052Y-72900639D01*
X145165059Y-72900647D01*
X145259959Y-72995547D01*
X145259965Y-72995552D01*
X145259966Y-72995553D01*
X145365238Y-73065895D01*
X145365241Y-73065896D01*
X145371582Y-73070133D01*
X145371588Y-73070136D01*
X145371589Y-73070137D01*
X145490655Y-73119456D01*
X145491250Y-73119710D01*
X145491436Y-73119863D01*
X145494413Y-73121271D01*
X145627272Y-73147700D01*
X145627275Y-73147700D01*
X145730371Y-73147700D01*
X145765306Y-73152723D01*
X145780304Y-73157127D01*
X145839055Y-73194872D01*
X145839079Y-73194900D01*
X145839082Y-73194902D01*
X145839083Y-73194904D01*
X145840242Y-73196241D01*
X145867718Y-73251102D01*
X145869363Y-73258660D01*
X145872200Y-73285031D01*
X145872200Y-97699954D01*
X145867175Y-97734898D01*
X145862770Y-97749896D01*
X145825001Y-97808662D01*
X145819448Y-97813474D01*
X145762434Y-97841381D01*
X145673428Y-97859085D01*
X145673423Y-97859086D01*
X145673403Y-97859093D01*
X145549396Y-97910457D01*
X145549386Y-97910462D01*
X145437766Y-97985045D01*
X145437765Y-97985046D01*
X145437759Y-97985051D01*
X145342851Y-98079959D01*
X145342846Y-98079965D01*
X145342845Y-98079966D01*
X145268262Y-98191586D01*
X145268257Y-98191596D01*
X145216893Y-98315603D01*
X145216886Y-98315623D01*
X145216884Y-98315631D01*
X145190700Y-98447270D01*
X145190700Y-98537155D01*
X145185437Y-98555075D01*
X145216885Y-98713168D01*
X145216886Y-98713174D01*
X145216893Y-98713195D01*
X145268257Y-98837202D01*
X145268262Y-98837212D01*
X145342845Y-98948832D01*
X145342846Y-98948833D01*
X145342851Y-98948839D01*
X145437759Y-99043747D01*
X145437765Y-99043752D01*
X145437766Y-99043753D01*
X145549384Y-99118335D01*
X145572408Y-99127872D01*
X145572411Y-99127872D01*
X145577486Y-99129975D01*
X145673414Y-99169710D01*
X145761471Y-99187225D01*
X145767852Y-99189229D01*
X145771826Y-99191889D01*
X145788187Y-99197661D01*
X145802041Y-99204908D01*
X145852313Y-99253413D01*
X145855948Y-99259795D01*
X145872200Y-99321165D01*
X145872200Y-103920693D01*
X145872199Y-103920697D01*
X145872200Y-103920700D01*
X145867175Y-103955634D01*
X145863264Y-103968951D01*
X145825487Y-104027727D01*
X145761937Y-104056748D01*
X145751039Y-104058315D01*
X145709199Y-104057194D01*
X145651426Y-104045702D01*
X145651424Y-104045702D01*
X145651422Y-104045702D01*
X145517178Y-104045702D01*
X145517176Y-104045702D01*
X145517171Y-104045702D01*
X145385530Y-104071886D01*
X145385523Y-104071888D01*
X145385503Y-104071895D01*
X145261496Y-104123259D01*
X145261486Y-104123264D01*
X145149866Y-104197847D01*
X145149865Y-104197848D01*
X145149859Y-104197853D01*
X145054951Y-104292761D01*
X145054946Y-104292767D01*
X145054945Y-104292768D01*
X144980362Y-104404388D01*
X144980357Y-104404398D01*
X144928993Y-104528405D01*
X144928986Y-104528425D01*
X144928984Y-104528433D01*
X144902800Y-104660072D01*
X144902800Y-104749957D01*
X144897537Y-104767877D01*
X144928985Y-104925970D01*
X144928986Y-104925976D01*
X144928993Y-104925997D01*
X144980357Y-105050004D01*
X144980362Y-105050014D01*
X145054945Y-105161634D01*
X145054946Y-105161635D01*
X145054951Y-105161641D01*
X145149859Y-105256549D01*
X145149865Y-105256554D01*
X145149866Y-105256555D01*
X145261484Y-105331137D01*
X145287777Y-105342028D01*
X145287785Y-105342031D01*
X145289586Y-105342777D01*
X145385514Y-105382512D01*
X145397579Y-105384911D01*
X145405238Y-105386435D01*
X145414832Y-105390062D01*
X145418076Y-105392513D01*
X145428457Y-105396175D01*
X145440755Y-105402608D01*
X145491034Y-105451123D01*
X145507102Y-105519120D01*
X145507102Y-105519121D01*
X145506641Y-105527720D01*
X145497381Y-105568533D01*
X145445491Y-105693810D01*
X145445486Y-105693823D01*
X145445484Y-105693831D01*
X145419300Y-105825470D01*
X145419300Y-105915355D01*
X145414037Y-105933275D01*
X145445485Y-106091368D01*
X145445486Y-106091374D01*
X145445493Y-106091395D01*
X145496857Y-106215402D01*
X145496862Y-106215412D01*
X145571445Y-106327032D01*
X145571446Y-106327033D01*
X145571451Y-106327039D01*
X145666360Y-106421948D01*
X145666365Y-106421952D01*
X145666373Y-106421958D01*
X145777978Y-106496530D01*
X145777982Y-106496532D01*
X145777989Y-106496537D01*
X145779183Y-106497031D01*
X145783523Y-106499606D01*
X145784173Y-106499967D01*
X145784162Y-106499985D01*
X145809535Y-106515039D01*
X145821706Y-106524847D01*
X145831873Y-106539489D01*
X145845751Y-106550672D01*
X145861551Y-106582232D01*
X145865852Y-106595152D01*
X145872200Y-106634318D01*
X145872200Y-123857202D01*
X146087175Y-123857481D01*
X146087189Y-123857483D01*
X146101578Y-123857501D01*
X146101579Y-123857502D01*
X161187010Y-123877208D01*
X170389451Y-123889229D01*
X170418956Y-123893511D01*
X170424372Y-123894296D01*
X170439365Y-123898720D01*
X170498091Y-123936567D01*
X170502915Y-123942149D01*
X170530713Y-123999036D01*
X170540688Y-124049181D01*
X170540690Y-124049186D01*
X170584044Y-124153852D01*
X170592063Y-124173213D01*
X170666644Y-124284831D01*
X170666647Y-124284834D01*
X170761567Y-124379754D01*
X170761569Y-124379755D01*
X170765875Y-124384061D01*
X170765579Y-124384356D01*
X170774393Y-124393089D01*
X170782291Y-124402540D01*
X170785710Y-124406631D01*
X170813592Y-124470696D01*
X170802412Y-124539665D01*
X170802412Y-124539666D01*
X170800152Y-124544389D01*
X170764739Y-124585295D01*
X170766283Y-124587176D01*
X170761568Y-124591044D01*
X170666645Y-124685966D01*
X170592062Y-124797586D01*
X170592057Y-124797596D01*
X170540693Y-124921603D01*
X170540686Y-124921623D01*
X170540684Y-124921631D01*
X170514500Y-125053270D01*
X170514500Y-125143155D01*
X170509237Y-125161075D01*
X170540685Y-125319168D01*
X170540686Y-125319174D01*
X170540693Y-125319195D01*
X170592057Y-125443202D01*
X170592062Y-125443212D01*
X170666644Y-125554831D01*
X170666647Y-125554834D01*
X170761567Y-125649754D01*
X170761569Y-125649755D01*
X170765875Y-125654061D01*
X170765579Y-125654356D01*
X170774393Y-125663089D01*
X170782291Y-125672540D01*
X170785710Y-125676631D01*
X170813592Y-125740696D01*
X170802412Y-125809665D01*
X170802412Y-125809666D01*
X170800152Y-125814389D01*
X170764739Y-125855295D01*
X170766283Y-125857176D01*
X170761568Y-125861044D01*
X170666645Y-125955966D01*
X170592062Y-126067586D01*
X170592057Y-126067596D01*
X170540693Y-126191603D01*
X170540686Y-126191623D01*
X170540684Y-126191631D01*
X170514500Y-126323270D01*
X170514500Y-126413155D01*
X170509237Y-126431075D01*
X170540685Y-126589168D01*
X170540686Y-126589174D01*
X170540693Y-126589195D01*
X170592057Y-126713202D01*
X170592062Y-126713212D01*
X170666645Y-126824832D01*
X170666646Y-126824833D01*
X170666651Y-126824839D01*
X170761559Y-126919747D01*
X170761565Y-126919752D01*
X170761566Y-126919753D01*
X170866838Y-126990095D01*
X170866841Y-126990096D01*
X170873182Y-126994333D01*
X170873188Y-126994336D01*
X170873189Y-126994337D01*
X170992255Y-127043656D01*
X170992850Y-127043910D01*
X170993036Y-127044063D01*
X170996013Y-127045471D01*
X171128872Y-127071900D01*
X171263124Y-127071900D01*
X171263125Y-127071900D01*
X171277886Y-127068963D01*
X171351699Y-127054280D01*
X171351700Y-127054280D01*
X171360363Y-127052556D01*
X171394786Y-127045710D01*
X171518811Y-126994337D01*
X171630431Y-126919755D01*
X171725355Y-126824831D01*
X171725356Y-126824828D01*
X171730152Y-126820033D01*
X171730515Y-126820396D01*
X171738907Y-126811825D01*
X171752228Y-126800691D01*
X171816290Y-126772807D01*
X171885256Y-126783981D01*
X171890183Y-126786338D01*
X171934255Y-126822534D01*
X171934536Y-126822301D01*
X171935762Y-126823772D01*
X171935997Y-126823965D01*
X171936639Y-126824825D01*
X171936642Y-126824828D01*
X171936647Y-126824834D01*
X171936652Y-126824839D01*
X171936659Y-126824847D01*
X172031559Y-126919747D01*
X172031565Y-126919752D01*
X172031566Y-126919753D01*
X172136838Y-126990095D01*
X172136841Y-126990096D01*
X172143182Y-126994333D01*
X172143188Y-126994336D01*
X172143189Y-126994337D01*
X172262255Y-127043656D01*
X172262850Y-127043910D01*
X172263036Y-127044063D01*
X172266013Y-127045471D01*
X172398872Y-127071900D01*
X172533124Y-127071900D01*
X172533125Y-127071900D01*
X172547886Y-127068963D01*
X172621699Y-127054280D01*
X172621700Y-127054280D01*
X172630363Y-127052556D01*
X172664786Y-127045710D01*
X172788811Y-126994337D01*
X172900431Y-126919755D01*
X172995355Y-126824831D01*
X172995356Y-126824828D01*
X173000152Y-126820033D01*
X173000515Y-126820396D01*
X173008907Y-126811825D01*
X173022228Y-126800691D01*
X173086290Y-126772807D01*
X173155256Y-126783981D01*
X173160183Y-126786338D01*
X173204255Y-126822534D01*
X173204536Y-126822301D01*
X173205762Y-126823772D01*
X173205997Y-126823965D01*
X173206639Y-126824825D01*
X173206642Y-126824828D01*
X173206647Y-126824834D01*
X173206652Y-126824839D01*
X173206659Y-126824847D01*
X173301559Y-126919747D01*
X173301565Y-126919752D01*
X173301566Y-126919753D01*
X173406838Y-126990095D01*
X173406841Y-126990096D01*
X173413182Y-126994333D01*
X173413188Y-126994336D01*
X173413189Y-126994337D01*
X173532255Y-127043656D01*
X173532850Y-127043910D01*
X173533036Y-127044063D01*
X173536013Y-127045471D01*
X173668872Y-127071900D01*
X173803124Y-127071900D01*
X173803125Y-127071900D01*
X173817886Y-127068963D01*
X173891699Y-127054280D01*
X173891700Y-127054280D01*
X173900363Y-127052556D01*
X173934786Y-127045710D01*
X174058811Y-126994337D01*
X174170431Y-126919755D01*
X174265355Y-126824831D01*
X174339937Y-126713211D01*
X174391310Y-126589186D01*
X174417500Y-126457522D01*
X174417500Y-126323278D01*
X174417500Y-126323275D01*
X174417500Y-126323272D01*
X174391313Y-126191631D01*
X174391311Y-126191619D01*
X174391310Y-126191618D01*
X174391310Y-126191614D01*
X174391309Y-126191612D01*
X174391102Y-126190570D01*
X174389510Y-126187250D01*
X174389256Y-126186655D01*
X174339937Y-126067589D01*
X174339936Y-126067588D01*
X174339933Y-126067582D01*
X174335696Y-126061241D01*
X174335695Y-126061238D01*
X174265353Y-125955966D01*
X174265352Y-125955965D01*
X174265347Y-125955959D01*
X174170444Y-125861056D01*
X174169513Y-125860206D01*
X174157980Y-125848156D01*
X174153738Y-125843081D01*
X174146295Y-125834175D01*
X174118407Y-125770112D01*
X174119172Y-125765388D01*
X174129576Y-125701153D01*
X174131840Y-125696421D01*
X174174800Y-125646834D01*
X174206136Y-125625891D01*
X174222985Y-125597200D01*
X174265355Y-125554831D01*
X174339937Y-125443211D01*
X174391310Y-125319186D01*
X174417500Y-125187522D01*
X174417500Y-125053278D01*
X174417500Y-125053275D01*
X174417500Y-125053272D01*
X174391313Y-124921631D01*
X174391311Y-124921619D01*
X174391310Y-124921618D01*
X174391310Y-124921614D01*
X174391309Y-124921612D01*
X174391102Y-124920570D01*
X174389510Y-124917250D01*
X174389256Y-124916655D01*
X174339937Y-124797589D01*
X174339936Y-124797588D01*
X174339933Y-124797582D01*
X174335696Y-124791241D01*
X174335695Y-124791238D01*
X174265353Y-124685966D01*
X174265352Y-124685965D01*
X174265347Y-124685959D01*
X174170444Y-124591056D01*
X174169513Y-124590206D01*
X174157980Y-124578156D01*
X174153738Y-124573081D01*
X174146295Y-124564175D01*
X174118407Y-124500112D01*
X174118579Y-124499052D01*
X174129576Y-124431153D01*
X174131840Y-124426421D01*
X174174800Y-124376834D01*
X174206136Y-124355891D01*
X174222985Y-124327200D01*
X174265355Y-124284831D01*
X174339937Y-124173211D01*
X174391310Y-124049186D01*
X174398722Y-124011916D01*
X174402870Y-124000163D01*
X174410463Y-123978637D01*
X174417711Y-123964782D01*
X174466224Y-123914510D01*
X174472591Y-123910885D01*
X174534102Y-123894644D01*
X176178844Y-123896792D01*
X176213757Y-123901858D01*
X176239061Y-123909324D01*
X176291507Y-123940432D01*
X176400597Y-124049177D01*
X176454099Y-124102510D01*
X176466313Y-124118772D01*
X176475293Y-124130728D01*
X176487968Y-124153852D01*
X176503231Y-124212899D01*
X176551174Y-134927794D01*
X176546306Y-134962754D01*
X176539010Y-134988017D01*
X176507913Y-135040939D01*
X176347372Y-135202779D01*
X176328978Y-135216665D01*
X176319205Y-135224043D01*
X176296176Y-135236739D01*
X176236754Y-135252147D01*
X164150568Y-135295524D01*
X164115613Y-135290626D01*
X164100597Y-135286275D01*
X164041688Y-135248714D01*
X164034412Y-135240378D01*
X164010790Y-135199792D01*
X163997088Y-135160632D01*
X163997087Y-135160631D01*
X163997086Y-135160629D01*
X163996317Y-135158431D01*
X163994065Y-135154355D01*
X163851792Y-134858924D01*
X163749027Y-134695374D01*
X163673627Y-134575375D01*
X163673626Y-134575373D01*
X163464835Y-134313557D01*
X163228043Y-134076765D01*
X162966227Y-133867974D01*
X162684092Y-133690697D01*
X162683033Y-133690011D01*
X162682675Y-133689807D01*
X162380979Y-133544517D01*
X162380965Y-133544511D01*
X162064921Y-133433921D01*
X162064905Y-133433916D01*
X162064879Y-133433908D01*
X161879886Y-133391685D01*
X161812923Y-133376401D01*
X161812922Y-133376400D01*
X161739590Y-133359664D01*
X161738555Y-133359417D01*
X161738382Y-133359389D01*
X161405649Y-133321900D01*
X161405643Y-133321900D01*
X161405637Y-133321900D01*
X161070763Y-133321900D01*
X161070756Y-133321900D01*
X161070749Y-133321900D01*
X160738021Y-133359389D01*
X160737998Y-133359392D01*
X160737973Y-133359398D01*
X160411510Y-133433911D01*
X160411498Y-133433914D01*
X160411477Y-133433921D01*
X160095433Y-133544511D01*
X160095419Y-133544517D01*
X159793724Y-133689806D01*
X159510175Y-133867972D01*
X159248363Y-134076757D01*
X159011557Y-134313563D01*
X158802772Y-134575375D01*
X158624606Y-134858924D01*
X158479323Y-135160607D01*
X158479310Y-135160635D01*
X158479309Y-135160637D01*
X158459755Y-135216519D01*
X158443477Y-135247831D01*
X158434369Y-135260529D01*
X158379304Y-135303534D01*
X158379301Y-135303535D01*
X158368766Y-135307711D01*
X158323517Y-135316436D01*
X137627120Y-135390715D01*
X120603265Y-135451811D01*
X120603262Y-135451810D01*
X120603262Y-135451811D01*
X120568310Y-135446913D01*
X120553294Y-135442562D01*
X120494384Y-135405000D01*
X120487109Y-135396665D01*
X120463487Y-135356079D01*
X120437088Y-135280633D01*
X120437087Y-135280631D01*
X120291791Y-134978922D01*
X120259665Y-134927794D01*
X120113626Y-134695373D01*
X119904835Y-134433557D01*
X119668043Y-134196765D01*
X119406227Y-133987974D01*
X119215246Y-133867973D01*
X119124092Y-133810697D01*
X119123033Y-133810011D01*
X119122675Y-133809807D01*
X118820979Y-133664517D01*
X118820965Y-133664511D01*
X118504921Y-133553921D01*
X118504905Y-133553916D01*
X118504879Y-133553908D01*
X118319886Y-133511685D01*
X118252923Y-133496401D01*
X118252922Y-133496400D01*
X118179590Y-133479664D01*
X118178555Y-133479417D01*
X118178382Y-133479389D01*
X117845649Y-133441900D01*
X117845643Y-133441900D01*
X117845637Y-133441900D01*
X117510763Y-133441900D01*
X117510756Y-133441900D01*
X117510749Y-133441900D01*
X117178021Y-133479389D01*
X117177998Y-133479392D01*
X117177973Y-133479398D01*
X116851510Y-133553911D01*
X116851498Y-133553914D01*
X116851477Y-133553921D01*
X116535433Y-133664511D01*
X116535419Y-133664517D01*
X116233724Y-133809806D01*
X115950175Y-133987972D01*
X115688363Y-134196757D01*
X115451557Y-134433563D01*
X115242773Y-134695374D01*
X115064606Y-134978924D01*
X114919312Y-135280631D01*
X114919307Y-135280642D01*
X114887027Y-135372894D01*
X114870748Y-135404210D01*
X114861639Y-135416910D01*
X114806571Y-135459913D01*
X114796036Y-135464089D01*
X114750787Y-135472814D01*
X99025019Y-135529253D01*
X98990066Y-135524356D01*
X98964857Y-135517052D01*
X98911746Y-135485694D01*
X98890110Y-135464089D01*
X98751278Y-135325454D01*
X98730107Y-135297215D01*
X98726226Y-135290119D01*
X98717512Y-135274187D01*
X98702303Y-135214419D01*
X98721600Y-126298775D01*
X132825436Y-126298775D01*
X132856884Y-126456868D01*
X132856885Y-126456874D01*
X132856892Y-126456895D01*
X132908256Y-126580902D01*
X132908261Y-126580912D01*
X132982844Y-126692532D01*
X132982845Y-126692533D01*
X132982850Y-126692539D01*
X133077758Y-126787447D01*
X133077764Y-126787452D01*
X133077765Y-126787453D01*
X133183037Y-126857795D01*
X133183040Y-126857796D01*
X133189381Y-126862033D01*
X133189387Y-126862036D01*
X133189388Y-126862037D01*
X133308454Y-126911356D01*
X133309049Y-126911610D01*
X133309235Y-126911763D01*
X133312212Y-126913171D01*
X133313417Y-126913410D01*
X133313418Y-126913411D01*
X133331700Y-126917047D01*
X133445071Y-126939600D01*
X133579323Y-126939600D01*
X133579324Y-126939600D01*
X133600604Y-126935366D01*
X133707013Y-126914200D01*
X133710985Y-126913410D01*
X133835010Y-126862037D01*
X133946630Y-126787455D01*
X134041554Y-126692531D01*
X134116136Y-126580911D01*
X134167509Y-126456886D01*
X134193699Y-126325222D01*
X134193699Y-126273375D01*
X150100837Y-126273375D01*
X150132285Y-126431468D01*
X150132286Y-126431474D01*
X150132293Y-126431495D01*
X150183657Y-126555502D01*
X150183662Y-126555512D01*
X150258245Y-126667132D01*
X150258246Y-126667133D01*
X150258251Y-126667139D01*
X150353159Y-126762047D01*
X150353165Y-126762052D01*
X150353166Y-126762053D01*
X150458438Y-126832395D01*
X150458441Y-126832396D01*
X150464782Y-126836633D01*
X150464788Y-126836636D01*
X150464789Y-126836637D01*
X150583855Y-126885956D01*
X150584450Y-126886210D01*
X150584636Y-126886363D01*
X150587613Y-126887771D01*
X150720472Y-126914200D01*
X150854724Y-126914200D01*
X150854725Y-126914200D01*
X150869486Y-126911263D01*
X150943299Y-126896580D01*
X150943300Y-126896580D01*
X150951963Y-126894856D01*
X150986386Y-126888010D01*
X151110411Y-126836637D01*
X151222031Y-126762055D01*
X151316955Y-126667131D01*
X151391537Y-126555511D01*
X151442910Y-126431486D01*
X151442913Y-126431474D01*
X151464048Y-126325223D01*
X151464048Y-126325221D01*
X151469100Y-126299825D01*
X151469100Y-126165572D01*
X151447964Y-126059323D01*
X151442911Y-126033919D01*
X151442910Y-126033918D01*
X151442910Y-126033914D01*
X151442909Y-126033912D01*
X151442702Y-126032870D01*
X151441110Y-126029550D01*
X151440856Y-126028955D01*
X151391537Y-125909889D01*
X151391536Y-125909888D01*
X151391533Y-125909882D01*
X151387296Y-125903541D01*
X151387295Y-125903538D01*
X151316953Y-125798266D01*
X151316952Y-125798265D01*
X151316947Y-125798259D01*
X151222039Y-125703351D01*
X151222033Y-125703346D01*
X151222032Y-125703345D01*
X151110411Y-125628762D01*
X151110412Y-125628762D01*
X151110402Y-125628757D01*
X150986395Y-125577393D01*
X150986375Y-125577386D01*
X150986367Y-125577384D01*
X150854727Y-125551200D01*
X150854724Y-125551200D01*
X150854722Y-125551200D01*
X150720478Y-125551200D01*
X150720476Y-125551200D01*
X150720471Y-125551200D01*
X150588830Y-125577384D01*
X150588823Y-125577386D01*
X150588803Y-125577393D01*
X150464796Y-125628757D01*
X150464786Y-125628762D01*
X150353166Y-125703345D01*
X150353165Y-125703346D01*
X150353159Y-125703351D01*
X150258251Y-125798259D01*
X150258246Y-125798265D01*
X150258245Y-125798266D01*
X150183662Y-125909886D01*
X150183657Y-125909896D01*
X150132293Y-126033903D01*
X150132286Y-126033923D01*
X150132284Y-126033931D01*
X150106100Y-126165570D01*
X150106100Y-126255455D01*
X150100837Y-126273375D01*
X134193699Y-126273375D01*
X134193699Y-126190978D01*
X134193699Y-126190975D01*
X134167510Y-126059319D01*
X134167509Y-126059318D01*
X134167509Y-126059314D01*
X134116136Y-125935289D01*
X134116135Y-125935288D01*
X134116132Y-125935282D01*
X134116132Y-125935281D01*
X134041552Y-125823666D01*
X134041551Y-125823665D01*
X134041546Y-125823659D01*
X133946638Y-125728751D01*
X133946632Y-125728746D01*
X133946631Y-125728745D01*
X133835010Y-125654162D01*
X133835011Y-125654162D01*
X133835001Y-125654157D01*
X133710994Y-125602793D01*
X133710974Y-125602786D01*
X133710966Y-125602784D01*
X133579326Y-125576600D01*
X133579323Y-125576600D01*
X133579321Y-125576600D01*
X133445077Y-125576600D01*
X133445075Y-125576600D01*
X133445070Y-125576600D01*
X133313429Y-125602784D01*
X133313422Y-125602786D01*
X133313402Y-125602793D01*
X133189395Y-125654157D01*
X133189385Y-125654162D01*
X133077765Y-125728745D01*
X133077764Y-125728746D01*
X133077758Y-125728751D01*
X132982850Y-125823659D01*
X132982845Y-125823665D01*
X132982844Y-125823666D01*
X132908261Y-125935286D01*
X132908256Y-125935296D01*
X132856892Y-126059303D01*
X132856885Y-126059323D01*
X132856883Y-126059331D01*
X132830699Y-126190970D01*
X132830699Y-126280855D01*
X132825436Y-126298775D01*
X98721600Y-126298775D01*
X98726319Y-124118769D01*
X98731418Y-124083846D01*
X98738886Y-124058616D01*
X98770258Y-124005977D01*
X98881978Y-123894644D01*
X98932041Y-123844754D01*
X98960321Y-123823662D01*
X98983443Y-123811089D01*
X99042833Y-123796027D01*
X115708310Y-123817798D01*
X132689600Y-123839981D01*
X132689600Y-117738975D01*
X140527037Y-117738975D01*
X140558485Y-117897068D01*
X140558486Y-117897074D01*
X140558493Y-117897095D01*
X140609857Y-118021102D01*
X140609862Y-118021112D01*
X140684445Y-118132732D01*
X140684446Y-118132733D01*
X140684451Y-118132739D01*
X140779359Y-118227647D01*
X140779365Y-118227652D01*
X140779366Y-118227653D01*
X140890984Y-118302235D01*
X140890990Y-118302237D01*
X140890991Y-118302238D01*
X140919086Y-118313875D01*
X141009409Y-118351288D01*
X141013813Y-118353371D01*
X141146672Y-118379800D01*
X141280924Y-118379800D01*
X141280925Y-118379800D01*
X141295686Y-118376863D01*
X141369499Y-118362180D01*
X141369500Y-118362180D01*
X141378163Y-118360456D01*
X141412586Y-118353610D01*
X141536611Y-118302237D01*
X141648231Y-118227655D01*
X141743155Y-118132731D01*
X141817737Y-118021111D01*
X141869110Y-117897086D01*
X141889598Y-117794088D01*
X141895300Y-117765424D01*
X141895300Y-117631175D01*
X141895300Y-117631172D01*
X141869113Y-117499531D01*
X141869111Y-117499519D01*
X141869110Y-117499518D01*
X141869110Y-117499514D01*
X141869109Y-117499512D01*
X141868902Y-117498470D01*
X141867310Y-117495150D01*
X141867056Y-117494555D01*
X141817737Y-117375489D01*
X141817736Y-117375488D01*
X141817733Y-117375482D01*
X141813496Y-117369141D01*
X141813495Y-117369138D01*
X141743153Y-117263866D01*
X141743152Y-117263865D01*
X141743147Y-117263859D01*
X141648239Y-117168951D01*
X141648233Y-117168946D01*
X141648232Y-117168945D01*
X141536611Y-117094362D01*
X141536612Y-117094362D01*
X141536602Y-117094357D01*
X141412595Y-117042993D01*
X141412575Y-117042986D01*
X141412567Y-117042984D01*
X141280927Y-117016800D01*
X141280924Y-117016800D01*
X141280922Y-117016800D01*
X141146678Y-117016800D01*
X141146676Y-117016800D01*
X141146671Y-117016800D01*
X141015030Y-117042984D01*
X141015023Y-117042986D01*
X141015003Y-117042993D01*
X140890996Y-117094357D01*
X140890986Y-117094362D01*
X140779366Y-117168945D01*
X140779365Y-117168946D01*
X140779359Y-117168951D01*
X140684451Y-117263859D01*
X140684446Y-117263865D01*
X140684445Y-117263866D01*
X140609862Y-117375486D01*
X140609857Y-117375496D01*
X140558493Y-117499503D01*
X140558486Y-117499523D01*
X140558484Y-117499531D01*
X140532300Y-117631170D01*
X140532300Y-117721055D01*
X140527037Y-117738975D01*
X132689600Y-117738975D01*
X132689600Y-115480675D01*
X142302037Y-115480675D01*
X142333485Y-115638768D01*
X142333486Y-115638774D01*
X142333493Y-115638795D01*
X142384857Y-115762802D01*
X142384862Y-115762812D01*
X142459445Y-115874432D01*
X142459446Y-115874433D01*
X142459451Y-115874439D01*
X142554359Y-115969347D01*
X142554365Y-115969352D01*
X142554366Y-115969353D01*
X142659638Y-116039695D01*
X142659641Y-116039696D01*
X142665982Y-116043933D01*
X142665988Y-116043936D01*
X142665989Y-116043937D01*
X142785055Y-116093256D01*
X142785650Y-116093510D01*
X142785836Y-116093663D01*
X142788813Y-116095071D01*
X142921672Y-116121500D01*
X143055924Y-116121500D01*
X143055925Y-116121500D01*
X143070686Y-116118563D01*
X143144499Y-116103880D01*
X143144500Y-116103880D01*
X143153163Y-116102156D01*
X143187586Y-116095310D01*
X143311611Y-116043937D01*
X143423231Y-115969355D01*
X143518155Y-115874431D01*
X143592737Y-115762811D01*
X143644110Y-115638786D01*
X143670300Y-115507122D01*
X143670300Y-115372878D01*
X143670300Y-115372875D01*
X143670300Y-115372872D01*
X143644113Y-115241231D01*
X143644111Y-115241219D01*
X143644110Y-115241218D01*
X143644110Y-115241214D01*
X143644109Y-115241212D01*
X143643902Y-115240170D01*
X143642310Y-115236850D01*
X143642056Y-115236255D01*
X143592737Y-115117189D01*
X143592736Y-115117188D01*
X143592733Y-115117182D01*
X143588496Y-115110841D01*
X143588495Y-115110838D01*
X143518153Y-115005566D01*
X143518152Y-115005565D01*
X143518147Y-115005559D01*
X143423239Y-114910651D01*
X143423233Y-114910646D01*
X143423232Y-114910645D01*
X143311611Y-114836062D01*
X143311612Y-114836062D01*
X143311602Y-114836057D01*
X143187595Y-114784693D01*
X143187575Y-114784686D01*
X143187567Y-114784684D01*
X143055927Y-114758500D01*
X143055924Y-114758500D01*
X143055922Y-114758500D01*
X142921678Y-114758500D01*
X142921676Y-114758500D01*
X142921671Y-114758500D01*
X142790030Y-114784684D01*
X142790023Y-114784686D01*
X142790003Y-114784693D01*
X142665996Y-114836057D01*
X142665986Y-114836062D01*
X142554366Y-114910645D01*
X142554365Y-114910646D01*
X142554359Y-114910651D01*
X142459451Y-115005559D01*
X142459446Y-115005565D01*
X142459445Y-115005566D01*
X142384862Y-115117186D01*
X142384857Y-115117196D01*
X142333493Y-115241203D01*
X142333486Y-115241223D01*
X142333484Y-115241231D01*
X142307300Y-115372870D01*
X142307300Y-115462755D01*
X142302037Y-115480675D01*
X132689600Y-115480675D01*
X132689600Y-113015775D01*
X139419637Y-113015775D01*
X139451085Y-113173868D01*
X139451086Y-113173874D01*
X139451093Y-113173895D01*
X139502457Y-113297902D01*
X139502462Y-113297912D01*
X139577045Y-113409532D01*
X139577046Y-113409533D01*
X139577051Y-113409539D01*
X139671959Y-113504447D01*
X139671965Y-113504452D01*
X139671966Y-113504453D01*
X139777238Y-113574795D01*
X139777241Y-113574796D01*
X139783582Y-113579033D01*
X139783588Y-113579036D01*
X139783589Y-113579037D01*
X139902655Y-113628356D01*
X139903250Y-113628610D01*
X139903436Y-113628763D01*
X139906413Y-113630171D01*
X140039272Y-113656600D01*
X140173524Y-113656600D01*
X140173525Y-113656600D01*
X140188286Y-113653663D01*
X140262099Y-113638980D01*
X140262100Y-113638980D01*
X140270763Y-113637256D01*
X140305186Y-113630410D01*
X140429211Y-113579037D01*
X140540831Y-113504455D01*
X140635755Y-113409531D01*
X140710337Y-113297911D01*
X140761710Y-113173886D01*
X140787900Y-113042222D01*
X140787900Y-112907978D01*
X140787900Y-112907975D01*
X140787900Y-112907972D01*
X140761713Y-112776331D01*
X140761711Y-112776319D01*
X140761710Y-112776318D01*
X140761710Y-112776314D01*
X140761709Y-112776312D01*
X140761502Y-112775270D01*
X140759910Y-112771950D01*
X140759656Y-112771355D01*
X140710337Y-112652289D01*
X140710336Y-112652288D01*
X140710333Y-112652282D01*
X140706096Y-112645941D01*
X140706095Y-112645938D01*
X140635753Y-112540666D01*
X140635752Y-112540665D01*
X140635747Y-112540659D01*
X140540839Y-112445751D01*
X140540833Y-112445746D01*
X140540832Y-112445745D01*
X140429211Y-112371162D01*
X140429212Y-112371162D01*
X140429202Y-112371157D01*
X140305195Y-112319793D01*
X140305175Y-112319786D01*
X140305167Y-112319784D01*
X140173527Y-112293600D01*
X140173524Y-112293600D01*
X140173522Y-112293600D01*
X140039278Y-112293600D01*
X140039276Y-112293600D01*
X140039271Y-112293600D01*
X139907630Y-112319784D01*
X139907623Y-112319786D01*
X139907603Y-112319793D01*
X139783596Y-112371157D01*
X139783586Y-112371162D01*
X139671966Y-112445745D01*
X139671965Y-112445746D01*
X139671959Y-112445751D01*
X139577051Y-112540659D01*
X139577046Y-112540665D01*
X139577045Y-112540666D01*
X139502462Y-112652286D01*
X139502457Y-112652296D01*
X139451093Y-112776303D01*
X139451086Y-112776323D01*
X139451084Y-112776331D01*
X139424900Y-112907970D01*
X139424900Y-112997855D01*
X139419637Y-113015775D01*
X132689600Y-113015775D01*
X132689600Y-104018075D01*
X135424337Y-104018075D01*
X135455785Y-104176168D01*
X135455786Y-104176174D01*
X135455793Y-104176195D01*
X135507157Y-104300202D01*
X135507162Y-104300212D01*
X135581745Y-104411832D01*
X135581746Y-104411833D01*
X135581751Y-104411839D01*
X135676659Y-104506747D01*
X135676665Y-104506752D01*
X135676666Y-104506753D01*
X135781938Y-104577095D01*
X135781941Y-104577096D01*
X135788282Y-104581333D01*
X135788288Y-104581336D01*
X135788289Y-104581337D01*
X135907355Y-104630656D01*
X135907950Y-104630910D01*
X135908136Y-104631063D01*
X135911113Y-104632471D01*
X136043972Y-104658900D01*
X136178224Y-104658900D01*
X136178225Y-104658900D01*
X136192986Y-104655963D01*
X136266799Y-104641280D01*
X136266800Y-104641280D01*
X136275463Y-104639556D01*
X136309886Y-104632710D01*
X136433911Y-104581337D01*
X136545531Y-104506755D01*
X136640455Y-104411831D01*
X136650849Y-104396275D01*
X139381237Y-104396275D01*
X139412685Y-104554368D01*
X139412686Y-104554374D01*
X139412693Y-104554395D01*
X139464057Y-104678402D01*
X139464062Y-104678412D01*
X139538645Y-104790032D01*
X139538646Y-104790033D01*
X139538651Y-104790039D01*
X139633559Y-104884947D01*
X139633565Y-104884952D01*
X139633566Y-104884953D01*
X139738838Y-104955295D01*
X139738841Y-104955296D01*
X139745182Y-104959533D01*
X139745188Y-104959536D01*
X139745189Y-104959537D01*
X139864255Y-105008856D01*
X139864850Y-105009110D01*
X139865036Y-105009263D01*
X139868013Y-105010671D01*
X140000872Y-105037100D01*
X140135124Y-105037100D01*
X140135125Y-105037100D01*
X140149886Y-105034163D01*
X140223699Y-105019480D01*
X140223700Y-105019480D01*
X140232363Y-105017756D01*
X140266786Y-105010910D01*
X140390811Y-104959537D01*
X140502431Y-104884955D01*
X140597355Y-104790031D01*
X140671937Y-104678411D01*
X140723310Y-104554386D01*
X140749500Y-104422722D01*
X140749500Y-104288478D01*
X140749500Y-104288475D01*
X140749500Y-104288472D01*
X140723313Y-104156831D01*
X140723311Y-104156819D01*
X140723310Y-104156818D01*
X140723310Y-104156814D01*
X140723309Y-104156812D01*
X140723102Y-104155770D01*
X140721510Y-104152450D01*
X140721256Y-104151855D01*
X140671937Y-104032789D01*
X140671936Y-104032788D01*
X140671933Y-104032782D01*
X140667696Y-104026441D01*
X140667695Y-104026438D01*
X140597353Y-103921166D01*
X140597352Y-103921165D01*
X140597347Y-103921159D01*
X140502439Y-103826251D01*
X140502433Y-103826246D01*
X140502432Y-103826245D01*
X140390811Y-103751662D01*
X140390812Y-103751662D01*
X140390802Y-103751657D01*
X140266795Y-103700293D01*
X140266775Y-103700286D01*
X140266767Y-103700284D01*
X140135127Y-103674100D01*
X140135124Y-103674100D01*
X140135122Y-103674100D01*
X140000878Y-103674100D01*
X140000876Y-103674100D01*
X140000871Y-103674100D01*
X139869230Y-103700284D01*
X139869223Y-103700286D01*
X139869203Y-103700293D01*
X139745196Y-103751657D01*
X139745186Y-103751662D01*
X139633566Y-103826245D01*
X139633565Y-103826246D01*
X139633559Y-103826251D01*
X139538651Y-103921159D01*
X139538646Y-103921165D01*
X139538645Y-103921166D01*
X139464062Y-104032786D01*
X139464057Y-104032796D01*
X139412693Y-104156803D01*
X139412686Y-104156823D01*
X139412684Y-104156831D01*
X139386500Y-104288470D01*
X139386500Y-104378355D01*
X139381237Y-104396275D01*
X136650849Y-104396275D01*
X136715037Y-104300211D01*
X136718119Y-104292771D01*
X136742076Y-104234934D01*
X136742076Y-104234933D01*
X136766410Y-104176186D01*
X136787156Y-104071890D01*
X136792600Y-104044524D01*
X136792600Y-103910275D01*
X136792600Y-103910272D01*
X136766413Y-103778631D01*
X136766411Y-103778619D01*
X136766410Y-103778618D01*
X136766410Y-103778614D01*
X136766409Y-103778612D01*
X136766202Y-103777570D01*
X136764610Y-103774250D01*
X136764356Y-103773655D01*
X136715037Y-103654589D01*
X136715036Y-103654588D01*
X136715033Y-103654582D01*
X136710796Y-103648241D01*
X136710795Y-103648238D01*
X136640453Y-103542966D01*
X136640452Y-103542965D01*
X136640447Y-103542959D01*
X136545539Y-103448051D01*
X136545533Y-103448046D01*
X136545532Y-103448045D01*
X136433911Y-103373462D01*
X136433912Y-103373462D01*
X136433902Y-103373457D01*
X136309895Y-103322093D01*
X136309875Y-103322086D01*
X136309867Y-103322084D01*
X136178227Y-103295900D01*
X136178224Y-103295900D01*
X136178222Y-103295900D01*
X136043978Y-103295900D01*
X136043976Y-103295900D01*
X136043971Y-103295900D01*
X135912330Y-103322084D01*
X135912323Y-103322086D01*
X135912303Y-103322093D01*
X135788296Y-103373457D01*
X135788286Y-103373462D01*
X135676666Y-103448045D01*
X135676665Y-103448046D01*
X135676659Y-103448051D01*
X135581751Y-103542959D01*
X135581746Y-103542965D01*
X135581745Y-103542966D01*
X135507162Y-103654586D01*
X135507157Y-103654596D01*
X135455793Y-103778603D01*
X135455786Y-103778623D01*
X135455784Y-103778631D01*
X135429600Y-103910270D01*
X135429600Y-104000155D01*
X135424337Y-104018075D01*
X132689600Y-104018075D01*
X132689600Y-95318075D01*
X133773337Y-95318075D01*
X133804785Y-95476168D01*
X133804786Y-95476174D01*
X133804793Y-95476195D01*
X133856157Y-95600202D01*
X133856162Y-95600212D01*
X133930745Y-95711832D01*
X133930746Y-95711833D01*
X133930751Y-95711839D01*
X134025659Y-95806747D01*
X134025665Y-95806752D01*
X134025666Y-95806753D01*
X134130938Y-95877095D01*
X134130941Y-95877096D01*
X134137282Y-95881333D01*
X134137288Y-95881336D01*
X134137289Y-95881337D01*
X134256355Y-95930656D01*
X134256950Y-95930910D01*
X134257136Y-95931063D01*
X134260113Y-95932471D01*
X134392972Y-95958900D01*
X134527224Y-95958900D01*
X134527225Y-95958900D01*
X134541986Y-95955963D01*
X134615799Y-95941280D01*
X134615800Y-95941280D01*
X134624463Y-95939556D01*
X134658886Y-95932710D01*
X134782911Y-95881337D01*
X134894531Y-95806755D01*
X134989455Y-95711831D01*
X135064037Y-95600211D01*
X135115410Y-95476186D01*
X135134652Y-95379451D01*
X135141600Y-95344524D01*
X135141600Y-95210275D01*
X135141600Y-95210272D01*
X135115413Y-95078631D01*
X135115411Y-95078619D01*
X135115410Y-95078618D01*
X135115410Y-95078614D01*
X135115409Y-95078612D01*
X135115202Y-95077570D01*
X135113610Y-95074250D01*
X135113356Y-95073655D01*
X135064037Y-94954589D01*
X135064036Y-94954588D01*
X135064033Y-94954582D01*
X135059796Y-94948241D01*
X135059795Y-94948238D01*
X134989453Y-94842966D01*
X134989452Y-94842965D01*
X134989447Y-94842959D01*
X134894539Y-94748051D01*
X134894533Y-94748046D01*
X134894532Y-94748045D01*
X134782911Y-94673462D01*
X134782912Y-94673462D01*
X134782902Y-94673457D01*
X134658895Y-94622093D01*
X134658875Y-94622086D01*
X134658867Y-94622084D01*
X134527227Y-94595900D01*
X134527224Y-94595900D01*
X134527222Y-94595900D01*
X134392978Y-94595900D01*
X134392976Y-94595900D01*
X134392971Y-94595900D01*
X134261330Y-94622084D01*
X134261323Y-94622086D01*
X134261303Y-94622093D01*
X134137296Y-94673457D01*
X134137286Y-94673462D01*
X134025666Y-94748045D01*
X134025665Y-94748046D01*
X134025659Y-94748051D01*
X133930751Y-94842959D01*
X133930746Y-94842965D01*
X133930745Y-94842966D01*
X133856162Y-94954586D01*
X133856157Y-94954596D01*
X133804793Y-95078603D01*
X133804786Y-95078623D01*
X133804784Y-95078631D01*
X133778600Y-95210270D01*
X133778600Y-95300155D01*
X133773337Y-95318075D01*
X132689600Y-95318075D01*
X132689600Y-78462675D01*
X144264837Y-78462675D01*
X144296285Y-78620768D01*
X144296286Y-78620774D01*
X144296293Y-78620795D01*
X144347657Y-78744802D01*
X144347662Y-78744812D01*
X144422245Y-78856432D01*
X144422246Y-78856433D01*
X144422251Y-78856439D01*
X144517159Y-78951347D01*
X144517165Y-78951352D01*
X144517166Y-78951353D01*
X144622438Y-79021695D01*
X144622441Y-79021696D01*
X144628782Y-79025933D01*
X144628788Y-79025936D01*
X144628789Y-79025937D01*
X144747855Y-79075256D01*
X144748450Y-79075510D01*
X144748636Y-79075663D01*
X144751613Y-79077071D01*
X144884472Y-79103500D01*
X145018724Y-79103500D01*
X145018725Y-79103500D01*
X145033486Y-79100563D01*
X145107299Y-79085880D01*
X145107300Y-79085880D01*
X145115963Y-79084156D01*
X145150386Y-79077310D01*
X145274411Y-79025937D01*
X145386031Y-78951355D01*
X145480955Y-78856431D01*
X145555537Y-78744811D01*
X145606910Y-78620786D01*
X145633100Y-78489122D01*
X145633100Y-78354878D01*
X145606910Y-78223214D01*
X145555537Y-78099189D01*
X145555536Y-78099188D01*
X145555533Y-78099182D01*
X145555533Y-78099181D01*
X145480953Y-77987566D01*
X145480952Y-77987565D01*
X145480947Y-77987559D01*
X145386039Y-77892651D01*
X145386033Y-77892646D01*
X145386032Y-77892645D01*
X145274411Y-77818062D01*
X145274412Y-77818062D01*
X145274402Y-77818057D01*
X145150395Y-77766693D01*
X145150375Y-77766686D01*
X145150367Y-77766684D01*
X145018727Y-77740500D01*
X145018724Y-77740500D01*
X145018722Y-77740500D01*
X144884478Y-77740500D01*
X144884476Y-77740500D01*
X144884471Y-77740500D01*
X144752830Y-77766684D01*
X144752823Y-77766686D01*
X144752803Y-77766693D01*
X144628796Y-77818057D01*
X144628786Y-77818062D01*
X144517166Y-77892645D01*
X144517165Y-77892646D01*
X144517159Y-77892651D01*
X144422251Y-77987559D01*
X144422246Y-77987565D01*
X144422245Y-77987566D01*
X144347662Y-78099186D01*
X144347657Y-78099196D01*
X144296293Y-78223203D01*
X144296286Y-78223223D01*
X144296284Y-78223231D01*
X144270100Y-78354870D01*
X144270100Y-78444755D01*
X144264837Y-78462675D01*
X132689600Y-78462675D01*
X132689600Y-77129675D01*
X138441237Y-77129675D01*
X138472685Y-77287768D01*
X138472686Y-77287774D01*
X138472693Y-77287795D01*
X138524057Y-77411802D01*
X138524062Y-77411812D01*
X138598645Y-77523432D01*
X138598646Y-77523433D01*
X138598651Y-77523439D01*
X138693559Y-77618347D01*
X138693565Y-77618352D01*
X138693566Y-77618353D01*
X138798838Y-77688695D01*
X138798841Y-77688696D01*
X138805182Y-77692933D01*
X138805188Y-77692936D01*
X138805189Y-77692937D01*
X138924255Y-77742256D01*
X138924850Y-77742510D01*
X138925036Y-77742663D01*
X138928013Y-77744071D01*
X139060872Y-77770500D01*
X139195124Y-77770500D01*
X139195125Y-77770500D01*
X139209886Y-77767563D01*
X139283699Y-77752880D01*
X139283700Y-77752880D01*
X139292363Y-77751156D01*
X139326786Y-77744310D01*
X139450811Y-77692937D01*
X139562431Y-77618355D01*
X139657355Y-77523431D01*
X139731937Y-77411811D01*
X139783310Y-77287786D01*
X139809500Y-77156122D01*
X139809500Y-77021878D01*
X139809500Y-77021875D01*
X139809500Y-77021872D01*
X139783313Y-76890231D01*
X139783311Y-76890219D01*
X139783310Y-76890218D01*
X139783310Y-76890214D01*
X139783309Y-76890212D01*
X139783102Y-76889170D01*
X139781510Y-76885850D01*
X139781256Y-76885255D01*
X139731937Y-76766189D01*
X139731936Y-76766188D01*
X139731933Y-76766182D01*
X139727696Y-76759841D01*
X139727695Y-76759838D01*
X139657353Y-76654566D01*
X139657352Y-76654565D01*
X139657347Y-76654559D01*
X139562439Y-76559651D01*
X139562433Y-76559646D01*
X139562432Y-76559645D01*
X139450811Y-76485062D01*
X139450812Y-76485062D01*
X139450802Y-76485057D01*
X139326795Y-76433693D01*
X139326775Y-76433686D01*
X139326767Y-76433684D01*
X139195127Y-76407500D01*
X139195124Y-76407500D01*
X139195122Y-76407500D01*
X139060878Y-76407500D01*
X139060876Y-76407500D01*
X139060871Y-76407500D01*
X138929230Y-76433684D01*
X138929223Y-76433686D01*
X138929203Y-76433693D01*
X138805196Y-76485057D01*
X138805186Y-76485062D01*
X138693566Y-76559645D01*
X138693565Y-76559646D01*
X138693559Y-76559651D01*
X138598651Y-76654559D01*
X138598646Y-76654565D01*
X138598645Y-76654566D01*
X138524062Y-76766186D01*
X138524057Y-76766196D01*
X138472693Y-76890203D01*
X138472686Y-76890223D01*
X138472684Y-76890231D01*
X138446500Y-77021870D01*
X138446500Y-77111755D01*
X138441237Y-77129675D01*
X132689600Y-77129675D01*
X132689600Y-75123075D01*
X144170437Y-75123075D01*
X144201885Y-75281168D01*
X144201886Y-75281174D01*
X144201893Y-75281195D01*
X144253257Y-75405202D01*
X144253262Y-75405212D01*
X144327845Y-75516832D01*
X144327846Y-75516833D01*
X144327851Y-75516839D01*
X144422759Y-75611747D01*
X144422765Y-75611752D01*
X144422766Y-75611753D01*
X144528038Y-75682095D01*
X144528041Y-75682096D01*
X144534382Y-75686333D01*
X144534388Y-75686336D01*
X144534389Y-75686337D01*
X144653455Y-75735656D01*
X144654050Y-75735910D01*
X144654236Y-75736063D01*
X144657213Y-75737471D01*
X144790072Y-75763900D01*
X144924324Y-75763900D01*
X144924325Y-75763900D01*
X144939086Y-75760963D01*
X145012899Y-75746280D01*
X145012900Y-75746280D01*
X145021563Y-75744556D01*
X145055986Y-75737710D01*
X145180011Y-75686337D01*
X145291631Y-75611755D01*
X145386555Y-75516831D01*
X145461137Y-75405211D01*
X145512510Y-75281186D01*
X145532697Y-75179700D01*
X145538700Y-75149524D01*
X145538700Y-75015275D01*
X145538700Y-75015272D01*
X145512513Y-74883631D01*
X145512511Y-74883619D01*
X145512510Y-74883618D01*
X145512510Y-74883614D01*
X145512509Y-74883612D01*
X145512302Y-74882570D01*
X145510710Y-74879250D01*
X145510456Y-74878655D01*
X145461137Y-74759589D01*
X145461136Y-74759588D01*
X145461133Y-74759582D01*
X145456896Y-74753241D01*
X145456895Y-74753238D01*
X145386553Y-74647966D01*
X145386552Y-74647965D01*
X145386547Y-74647959D01*
X145291639Y-74553051D01*
X145291633Y-74553046D01*
X145291632Y-74553045D01*
X145180011Y-74478462D01*
X145180012Y-74478462D01*
X145180002Y-74478457D01*
X145055995Y-74427093D01*
X145055975Y-74427086D01*
X145055967Y-74427084D01*
X144924327Y-74400900D01*
X144924324Y-74400900D01*
X144924322Y-74400900D01*
X144790078Y-74400900D01*
X144790076Y-74400900D01*
X144790071Y-74400900D01*
X144658430Y-74427084D01*
X144658423Y-74427086D01*
X144658403Y-74427093D01*
X144534396Y-74478457D01*
X144534386Y-74478462D01*
X144422766Y-74553045D01*
X144422765Y-74553046D01*
X144422759Y-74553051D01*
X144327851Y-74647959D01*
X144327846Y-74647965D01*
X144327845Y-74647966D01*
X144253262Y-74759586D01*
X144253257Y-74759596D01*
X144201893Y-74883603D01*
X144201886Y-74883623D01*
X144201884Y-74883631D01*
X144175700Y-75015270D01*
X144175700Y-75105155D01*
X144170437Y-75123075D01*
X132689600Y-75123075D01*
X132689600Y-70180200D01*
X130564780Y-70180200D01*
X130564777Y-70180199D01*
X130564776Y-70180200D01*
X130529841Y-70175176D01*
X130516523Y-70171265D01*
X130457746Y-70133489D01*
X130428724Y-70069932D01*
X130428723Y-70069928D01*
X130427978Y-70064744D01*
X130436154Y-69999656D01*
X130466734Y-69925828D01*
X130467896Y-69923284D01*
X130468407Y-69921790D01*
X130468409Y-69921786D01*
X130494599Y-69790122D01*
X130494599Y-69655878D01*
X130494599Y-69655875D01*
X130494599Y-69655872D01*
X130468170Y-69523010D01*
X130466085Y-69518602D01*
X130424303Y-69417733D01*
X130424302Y-69417730D01*
X130417038Y-69400193D01*
X130417035Y-69400186D01*
X130342452Y-69288566D01*
X130342451Y-69288565D01*
X130342446Y-69288559D01*
X130247538Y-69193651D01*
X130247532Y-69193646D01*
X130247531Y-69193645D01*
X130135910Y-69119062D01*
X130135911Y-69119062D01*
X130135901Y-69119057D01*
X130011894Y-69067693D01*
X130011874Y-69067686D01*
X130011866Y-69067684D01*
X129880226Y-69041500D01*
X129880223Y-69041500D01*
X129880221Y-69041500D01*
X129745977Y-69041500D01*
X129745975Y-69041500D01*
X129745970Y-69041500D01*
X129614329Y-69067684D01*
X129614322Y-69067686D01*
X129614302Y-69067693D01*
X129490295Y-69119057D01*
X129490285Y-69119062D01*
X129378665Y-69193645D01*
X129378664Y-69193646D01*
X129378658Y-69193651D01*
X129283750Y-69288559D01*
X129283745Y-69288565D01*
X129283744Y-69288566D01*
X129209161Y-69400186D01*
X129209156Y-69400196D01*
X129157792Y-69524203D01*
X129157785Y-69524223D01*
X129157783Y-69524231D01*
X129131599Y-69655870D01*
X129131599Y-69745755D01*
X129126336Y-69763675D01*
X129157785Y-69921772D01*
X129157789Y-69921787D01*
X129186987Y-69992279D01*
X129193040Y-70015994D01*
X129195714Y-70026468D01*
X129197197Y-70040265D01*
X129184796Y-70109024D01*
X129137191Y-70160163D01*
X129132685Y-70162837D01*
X129069403Y-70180200D01*
X123055992Y-70180200D01*
X123021056Y-70175177D01*
X122995814Y-70167765D01*
X122943069Y-70136469D01*
X122781726Y-69975126D01*
X122781721Y-69975121D01*
X122760574Y-69946870D01*
X122747967Y-69923781D01*
X122732800Y-69864356D01*
X122732800Y-68761675D01*
X138359536Y-68761675D01*
X138390984Y-68919768D01*
X138390985Y-68919774D01*
X138390992Y-68919795D01*
X138442356Y-69043802D01*
X138442361Y-69043812D01*
X138516944Y-69155432D01*
X138516945Y-69155433D01*
X138516950Y-69155439D01*
X138611858Y-69250347D01*
X138611864Y-69250352D01*
X138611865Y-69250353D01*
X138714908Y-69319205D01*
X138714909Y-69319205D01*
X138723481Y-69324933D01*
X138723487Y-69324936D01*
X138723488Y-69324937D01*
X138847513Y-69376310D01*
X138877114Y-69382198D01*
X138895372Y-69385830D01*
X138928659Y-69397574D01*
X138936632Y-69401745D01*
X138947108Y-69411854D01*
X138960352Y-69417902D01*
X138971744Y-69435627D01*
X138986910Y-69450262D01*
X138990257Y-69464432D01*
X138998129Y-69476679D01*
X138998129Y-69497750D01*
X139002975Y-69518260D01*
X138998130Y-69531990D01*
X138998131Y-69546548D01*
X138986740Y-69564273D01*
X138979728Y-69584149D01*
X138967542Y-69594149D01*
X138960359Y-69605328D01*
X138930669Y-69624410D01*
X138926012Y-69626537D01*
X138898689Y-69635362D01*
X138872917Y-69640488D01*
X138872907Y-69640491D01*
X138748895Y-69691857D01*
X138748885Y-69691862D01*
X138637265Y-69766445D01*
X138637264Y-69766446D01*
X138637258Y-69766451D01*
X138542350Y-69861359D01*
X138542345Y-69861365D01*
X138542344Y-69861366D01*
X138467761Y-69972986D01*
X138467756Y-69972996D01*
X138416392Y-70097003D01*
X138416385Y-70097023D01*
X138416383Y-70097031D01*
X138390199Y-70228670D01*
X138390199Y-70318555D01*
X138384936Y-70336475D01*
X138416384Y-70494568D01*
X138416385Y-70494574D01*
X138416392Y-70494595D01*
X138467756Y-70618602D01*
X138467761Y-70618612D01*
X138542344Y-70730232D01*
X138542345Y-70730233D01*
X138542350Y-70730239D01*
X138637258Y-70825147D01*
X138637264Y-70825152D01*
X138637265Y-70825153D01*
X138742577Y-70895522D01*
X138742582Y-70895524D01*
X138748881Y-70899733D01*
X138748887Y-70899736D01*
X138748888Y-70899737D01*
X138858837Y-70945279D01*
X138859455Y-70945544D01*
X138859627Y-70945686D01*
X138868117Y-70949654D01*
X138878134Y-70954891D01*
X138878134Y-70954892D01*
X138895262Y-70963847D01*
X138945549Y-71012350D01*
X138961632Y-71080344D01*
X138938401Y-71146239D01*
X138894818Y-71183851D01*
X138883190Y-71189871D01*
X138873632Y-71194314D01*
X138760287Y-71241261D01*
X138760286Y-71241262D01*
X138648665Y-71315845D01*
X138648664Y-71315846D01*
X138648658Y-71315851D01*
X138553750Y-71410759D01*
X138553745Y-71410765D01*
X138553744Y-71410766D01*
X138479161Y-71522386D01*
X138479156Y-71522396D01*
X138427792Y-71646403D01*
X138427785Y-71646423D01*
X138427783Y-71646431D01*
X138401599Y-71778070D01*
X138401599Y-71867955D01*
X138396336Y-71885875D01*
X138427784Y-72043968D01*
X138427785Y-72043974D01*
X138427792Y-72043995D01*
X138479156Y-72168002D01*
X138479161Y-72168012D01*
X138553744Y-72279632D01*
X138553745Y-72279633D01*
X138553750Y-72279639D01*
X138648658Y-72374547D01*
X138648664Y-72374552D01*
X138648665Y-72374553D01*
X138760274Y-72449129D01*
X138760284Y-72449135D01*
X138760286Y-72449136D01*
X138760288Y-72449137D01*
X138776901Y-72456018D01*
X138787523Y-72460418D01*
X138787527Y-72460420D01*
X138787533Y-72460425D01*
X138817874Y-72478428D01*
X138826679Y-72485524D01*
X138836850Y-72500174D01*
X138841927Y-72504266D01*
X138843984Y-72510450D01*
X138866526Y-72542918D01*
X138869017Y-72612743D01*
X138833368Y-72672826D01*
X138827753Y-72678054D01*
X138790709Y-72701861D01*
X138771897Y-72709653D01*
X138760283Y-72714464D01*
X138760273Y-72714470D01*
X138648665Y-72789045D01*
X138648664Y-72789046D01*
X138648658Y-72789051D01*
X138553750Y-72883959D01*
X138553745Y-72883965D01*
X138553744Y-72883966D01*
X138479161Y-72995586D01*
X138479156Y-72995596D01*
X138427792Y-73119603D01*
X138427785Y-73119623D01*
X138427783Y-73119631D01*
X138401599Y-73251270D01*
X138401599Y-73341155D01*
X138396336Y-73359075D01*
X138427784Y-73517168D01*
X138427785Y-73517174D01*
X138427792Y-73517195D01*
X138479156Y-73641202D01*
X138479161Y-73641212D01*
X138553744Y-73752832D01*
X138553745Y-73752833D01*
X138553750Y-73752839D01*
X138648658Y-73847747D01*
X138648664Y-73847752D01*
X138648665Y-73847753D01*
X138753937Y-73918095D01*
X138753940Y-73918096D01*
X138760281Y-73922333D01*
X138760287Y-73922336D01*
X138760288Y-73922337D01*
X138879354Y-73971656D01*
X138879949Y-73971910D01*
X138880135Y-73972063D01*
X138883112Y-73973471D01*
X139015971Y-73999900D01*
X139150223Y-73999900D01*
X139150224Y-73999900D01*
X139164985Y-73996963D01*
X139238798Y-73982280D01*
X139238799Y-73982280D01*
X139247462Y-73980556D01*
X139281885Y-73973710D01*
X139405910Y-73922337D01*
X139517530Y-73847755D01*
X139612454Y-73752831D01*
X139687036Y-73641211D01*
X139738409Y-73517186D01*
X139764599Y-73385522D01*
X139764599Y-73251278D01*
X139764599Y-73251275D01*
X139764599Y-73251272D01*
X139738786Y-73121510D01*
X139738410Y-73119619D01*
X139738409Y-73119618D01*
X139738409Y-73119614D01*
X139738408Y-73119612D01*
X139738201Y-73118570D01*
X139736609Y-73115250D01*
X139736355Y-73114655D01*
X139687036Y-72995589D01*
X139687035Y-72995588D01*
X139687032Y-72995582D01*
X139682795Y-72989241D01*
X139682794Y-72989238D01*
X139612452Y-72883966D01*
X139612451Y-72883965D01*
X139612446Y-72883959D01*
X139517538Y-72789051D01*
X139517532Y-72789046D01*
X139517531Y-72789045D01*
X139405922Y-72714470D01*
X139405921Y-72714469D01*
X139405916Y-72714466D01*
X139405903Y-72714459D01*
X139378672Y-72703180D01*
X139348323Y-72685171D01*
X139339515Y-72678073D01*
X139299670Y-72620679D01*
X139297179Y-72550853D01*
X139332827Y-72490773D01*
X139338447Y-72485541D01*
X139375482Y-72461740D01*
X139399359Y-72451850D01*
X139402153Y-72450876D01*
X139403590Y-72450211D01*
X139408252Y-72448167D01*
X139417523Y-72444326D01*
X139426410Y-72435440D01*
X139485981Y-72395634D01*
X139517530Y-72374555D01*
X139612454Y-72279631D01*
X139687036Y-72168011D01*
X139738409Y-72043986D01*
X139738409Y-72043982D01*
X139738411Y-72043979D01*
X139759722Y-71936843D01*
X139759722Y-71936841D01*
X139764599Y-71912324D01*
X139764599Y-71778072D01*
X139743768Y-71673356D01*
X139738410Y-71646419D01*
X139738409Y-71646418D01*
X139738409Y-71646414D01*
X139738408Y-71646412D01*
X139738201Y-71645370D01*
X139736609Y-71642050D01*
X139736355Y-71641455D01*
X139687036Y-71522389D01*
X139687035Y-71522388D01*
X139687032Y-71522382D01*
X139682795Y-71516041D01*
X139682794Y-71516038D01*
X139612452Y-71410766D01*
X139612451Y-71410765D01*
X139612446Y-71410759D01*
X139517538Y-71315851D01*
X139517532Y-71315846D01*
X139517531Y-71315845D01*
X139405910Y-71241262D01*
X139405911Y-71241262D01*
X139405901Y-71241257D01*
X139296587Y-71195979D01*
X139292746Y-71193020D01*
X139286558Y-71191290D01*
X139259509Y-71177139D01*
X139209232Y-71128621D01*
X139193168Y-71060623D01*
X139216416Y-70994735D01*
X139260009Y-70957135D01*
X139260833Y-70956708D01*
X139265261Y-70954418D01*
X139265260Y-70954417D01*
X139271685Y-70951094D01*
X139281179Y-70946679D01*
X139394510Y-70899737D01*
X139506130Y-70825155D01*
X139601054Y-70730231D01*
X139675636Y-70618611D01*
X139727009Y-70494586D01*
X139733916Y-70459861D01*
X139735579Y-70451502D01*
X139735579Y-70451499D01*
X139753199Y-70362924D01*
X139753199Y-70228675D01*
X139753199Y-70228672D01*
X139732571Y-70124974D01*
X139727010Y-70097019D01*
X139727009Y-70097018D01*
X139727009Y-70097014D01*
X139727008Y-70097012D01*
X139726801Y-70095970D01*
X139725209Y-70092650D01*
X139724955Y-70092055D01*
X139675636Y-69972989D01*
X139675635Y-69972988D01*
X139675632Y-69972982D01*
X139671395Y-69966641D01*
X139671394Y-69966638D01*
X139601052Y-69861366D01*
X139601051Y-69861365D01*
X139601046Y-69861359D01*
X139506138Y-69766451D01*
X139506132Y-69766446D01*
X139506131Y-69766445D01*
X139394512Y-69691863D01*
X139388458Y-69689355D01*
X139270485Y-69640490D01*
X139270480Y-69640488D01*
X139270473Y-69640486D01*
X139270472Y-69640486D01*
X139222621Y-69630968D01*
X139220718Y-69629973D01*
X139218575Y-69630093D01*
X139189337Y-69619225D01*
X139181359Y-69615052D01*
X139168535Y-69602677D01*
X139160710Y-69598584D01*
X139151302Y-69586047D01*
X139131084Y-69566536D01*
X139115019Y-69498539D01*
X139138267Y-69432650D01*
X139187314Y-69392394D01*
X139187404Y-69392352D01*
X139191976Y-69390264D01*
X139199927Y-69387696D01*
X139201976Y-69386212D01*
X139205056Y-69386039D01*
X139219306Y-69381436D01*
X139245085Y-69376310D01*
X139369110Y-69324937D01*
X139480730Y-69250355D01*
X139575654Y-69155431D01*
X139650236Y-69043811D01*
X139701609Y-68919786D01*
X139727799Y-68788122D01*
X139727799Y-68653878D01*
X139727799Y-68653875D01*
X139727799Y-68653872D01*
X139701612Y-68522231D01*
X139701610Y-68522219D01*
X139701609Y-68522218D01*
X139701609Y-68522214D01*
X139701608Y-68522212D01*
X139701401Y-68521170D01*
X139699809Y-68517850D01*
X139699555Y-68517255D01*
X139650236Y-68398189D01*
X139650235Y-68398188D01*
X139650232Y-68398182D01*
X139645995Y-68391841D01*
X139645994Y-68391838D01*
X139575652Y-68286566D01*
X139575651Y-68286565D01*
X139575646Y-68286559D01*
X139480738Y-68191651D01*
X139480732Y-68191646D01*
X139480731Y-68191645D01*
X139369110Y-68117062D01*
X139369111Y-68117062D01*
X139369101Y-68117057D01*
X139245094Y-68065693D01*
X139245074Y-68065686D01*
X139245066Y-68065684D01*
X139113426Y-68039500D01*
X139113423Y-68039500D01*
X139113421Y-68039500D01*
X138979177Y-68039500D01*
X138979175Y-68039500D01*
X138979170Y-68039500D01*
X138847529Y-68065684D01*
X138847522Y-68065686D01*
X138847502Y-68065693D01*
X138723495Y-68117057D01*
X138723485Y-68117062D01*
X138611865Y-68191645D01*
X138611864Y-68191646D01*
X138611858Y-68191651D01*
X138516950Y-68286559D01*
X138516945Y-68286565D01*
X138516944Y-68286566D01*
X138442361Y-68398186D01*
X138442356Y-68398196D01*
X138390992Y-68522203D01*
X138390985Y-68522223D01*
X138390983Y-68522231D01*
X138364799Y-68653870D01*
X138364799Y-68743755D01*
X138359536Y-68761675D01*
X122732800Y-68761675D01*
X122732800Y-62324591D01*
X122737822Y-62289658D01*
X122745234Y-62264413D01*
X122776528Y-62211671D01*
X122937881Y-62050318D01*
X122966126Y-62029175D01*
X122989218Y-62016567D01*
X123048643Y-62001400D01*
X156013808Y-62001400D01*
X156048740Y-62006421D01*
G37*
%TD.AperFunction*%
%TD*%
%TA.AperFunction,Conductor*%
%TO.N,/Battery Temperature Protection/BatteryHeater/V_HEATER*%
G36*
X125949353Y-115803523D02*
G01*
X125962244Y-115807712D01*
X126012532Y-115844241D01*
X126015576Y-115848432D01*
X126034800Y-115907557D01*
X126034800Y-119542867D01*
X126029874Y-119573962D01*
X126025685Y-119586851D01*
X125989158Y-119637132D01*
X125986654Y-119638951D01*
X125984968Y-119640176D01*
X125925842Y-119659400D01*
X108269733Y-119659400D01*
X108238644Y-119654475D01*
X108229979Y-119651660D01*
X108225751Y-119650286D01*
X108175458Y-119613745D01*
X108172415Y-119609557D01*
X108153200Y-119550427D01*
X108153200Y-115915132D01*
X108158123Y-115884047D01*
X108162312Y-115871153D01*
X108198854Y-115820857D01*
X108203053Y-115817807D01*
X108262177Y-115798600D01*
X125918267Y-115798600D01*
X125949353Y-115803523D01*
G37*
%TD.AperFunction*%
%TD*%
M02*
